<?xml version="1.0" encoding="utf-8" standalone="no"?>
<!DOCTYPE svg PUBLIC "-//W3C//DTD SVG 1.1//EN"
  "http://www.w3.org/Graphics/SVG/1.1/DTD/svg11.dtd">
<svg xmlns:xlink="http://www.w3.org/1999/xlink" width="720pt" height="432pt" viewBox="0 0 720 432" xmlns="http://www.w3.org/2000/svg" version="1.1">
 <metadata>
  <rdf:RDF xmlns:dc="http://purl.org/dc/elements/1.1/" xmlns:cc="http://creativecommons.org/ns#" xmlns:rdf="http://www.w3.org/1999/02/22-rdf-syntax-ns#">
   <cc:Work>
    <dc:type rdf:resource="http://purl.org/dc/dcmitype/StillImage"/>
    <dc:date>2024-06-24T10:49:49.279364</dc:date>
    <dc:format>image/svg+xml</dc:format>
    <dc:creator>
     <cc:Agent>
      <dc:title>Matplotlib v3.8.3, https://matplotlib.org/</dc:title>
     </cc:Agent>
    </dc:creator>
   </cc:Work>
  </rdf:RDF>
 </metadata>
 <defs>
  <style type="text/css">*{stroke-linejoin: round; stroke-linecap: butt}</style>
 </defs>
 <g id="figure_1">
  <g id="patch_1">
   <path d="M 0 432 
L 720 432 
L 720 0 
L 0 0 
z
" style="fill: #ffffff"/>
  </g>
  <g id="axes_1">
   <g id="patch_2">
    <path d="M 54.02 390.04 
L 709.2 390.04 
L 709.2 10.8 
L 54.02 10.8 
z
" style="fill: #ffffff"/>
   </g>
   <g id="PolyCollection_1">
    <defs>
     <path id="m19d043cdde" d="M 83.800909 -41.96022 
L 83.800909 -41.96 
L 86.793965 -41.96 
L 89.787021 -41.96 
L 92.780078 -41.96 
L 95.773134 -41.96 
L 98.76619 -41.96 
L 101.759246 -41.96 
L 104.752302 -41.96 
L 107.745359 -41.96 
L 110.738415 -41.96 
L 113.731471 -41.96 
L 116.724527 -41.96 
L 119.717583 -41.96 
L 122.71064 -41.96 
L 125.703696 -41.96 
L 128.696752 -41.96 
L 131.689808 -41.96 
L 134.682864 -41.96 
L 137.675921 -41.96 
L 140.668977 -41.96 
L 143.662033 -41.96 
L 146.655089 -41.96 
L 149.648145 -41.96 
L 152.641201 -41.96 
L 155.634258 -41.96 
L 158.627314 -41.96 
L 161.62037 -41.96 
L 164.613426 -41.96 
L 167.606482 -41.96 
L 170.599539 -41.96 
L 173.592595 -41.96 
L 176.585651 -41.96 
L 179.578707 -41.96 
L 182.571763 -41.96 
L 185.56482 -41.96 
L 188.557876 -41.96 
L 191.550932 -41.96 
L 194.543988 -41.96 
L 197.537044 -41.96 
L 200.530101 -41.96 
L 203.523157 -41.96 
L 206.516213 -41.96 
L 209.509269 -41.96 
L 212.502325 -41.96 
L 215.495381 -41.96 
L 218.488438 -41.96 
L 221.481494 -41.96 
L 224.47455 -41.96 
L 227.467606 -41.96 
L 230.460662 -41.96 
L 233.453719 -41.96 
L 236.446775 -41.96 
L 239.439831 -41.96 
L 242.432887 -41.96 
L 245.425943 -41.96 
L 248.419 -41.96 
L 251.412056 -41.96 
L 254.405112 -41.96 
L 257.398168 -41.96 
L 260.391224 -41.96 
L 263.38428 -41.96 
L 266.377337 -41.96 
L 269.370393 -41.96 
L 272.363449 -41.96 
L 275.356505 -41.96 
L 278.349561 -41.96 
L 281.342618 -41.96 
L 284.335674 -41.96 
L 287.32873 -41.96 
L 290.321786 -41.96 
L 293.314842 -41.96 
L 296.307899 -41.96 
L 299.300955 -41.96 
L 302.294011 -41.96 
L 305.287067 -41.96 
L 308.280123 -41.96 
L 311.27318 -41.96 
L 314.266236 -41.96 
L 317.259292 -41.96 
L 320.252348 -41.96 
L 323.245404 -41.96 
L 326.23846 -41.96 
L 329.231517 -41.96 
L 332.224573 -41.96 
L 335.217629 -41.96 
L 338.210685 -41.96 
L 341.203741 -41.96 
L 344.196798 -41.96 
L 347.189854 -41.96 
L 350.18291 -41.96 
L 353.175966 -41.96 
L 356.169022 -41.96 
L 359.162079 -41.96 
L 362.155135 -41.96 
L 365.148191 -41.96 
L 368.141247 -41.96 
L 371.134303 -41.96 
L 374.12736 -41.96 
L 377.120416 -41.96 
L 380.113472 -41.96 
L 383.106528 -41.96 
L 386.099584 -41.96 
L 389.09264 -41.96 
L 392.085697 -41.96 
L 395.078753 -41.96 
L 398.071809 -41.96 
L 401.064865 -41.96 
L 404.057921 -41.96 
L 407.050978 -41.96 
L 410.044034 -41.96 
L 413.03709 -41.96 
L 416.030146 -41.96 
L 419.023202 -41.96 
L 422.016259 -41.96 
L 425.009315 -41.96 
L 428.002371 -41.96 
L 430.995427 -41.96 
L 433.988483 -41.96 
L 436.98154 -41.96 
L 439.974596 -41.96 
L 442.967652 -41.96 
L 445.960708 -41.96 
L 448.953764 -41.96 
L 451.94682 -41.96 
L 454.939877 -41.96 
L 457.932933 -41.96 
L 460.925989 -41.96 
L 463.919045 -41.96 
L 466.912101 -41.96 
L 469.905158 -41.96 
L 472.898214 -41.96 
L 475.89127 -41.96 
L 478.884326 -41.96 
L 481.877382 -41.96 
L 484.870439 -41.96 
L 487.863495 -41.96 
L 490.856551 -41.96 
L 493.849607 -41.96 
L 496.842663 -41.96 
L 499.83572 -41.96 
L 502.828776 -41.96 
L 505.821832 -41.96 
L 508.814888 -41.96 
L 511.807944 -41.96 
L 514.801 -41.96 
L 517.794057 -41.96 
L 520.787113 -41.96 
L 523.780169 -41.96 
L 526.773225 -41.96 
L 529.766281 -41.96 
L 532.759338 -41.96 
L 535.752394 -41.96 
L 538.74545 -41.96 
L 541.738506 -41.96 
L 544.731562 -41.96 
L 547.724619 -41.96 
L 550.717675 -41.96 
L 553.710731 -41.96 
L 556.703787 -41.96 
L 559.696843 -41.96 
L 562.689899 -41.96 
L 565.682956 -41.96 
L 568.676012 -41.96 
L 571.669068 -41.96 
L 574.662124 -41.96 
L 577.65518 -41.96 
L 580.648237 -41.96 
L 583.641293 -41.96 
L 586.634349 -41.96 
L 589.627405 -41.96 
L 592.620461 -41.96 
L 595.613518 -41.96 
L 598.606574 -41.96 
L 601.59963 -41.96 
L 604.592686 -41.96 
L 607.585742 -41.96 
L 610.578799 -41.96 
L 613.571855 -41.96 
L 616.564911 -41.96 
L 619.557967 -41.96 
L 622.551023 -41.96 
L 625.544079 -41.96 
L 628.537136 -41.96 
L 631.530192 -41.96 
L 634.523248 -41.96 
L 637.516304 -41.96 
L 640.50936 -41.96 
L 643.502417 -41.96 
L 646.495473 -41.96 
L 649.488529 -41.96 
L 652.481585 -41.96 
L 655.474641 -41.96 
L 658.467698 -41.96 
L 661.460754 -41.96 
L 664.45381 -41.96 
L 667.446866 -41.96 
L 670.439922 -41.96 
L 673.432979 -41.96 
L 676.426035 -41.96 
L 679.419091 -41.96 
L 679.419091 -41.964483 
L 679.419091 -41.964483 
L 676.426035 -41.970075 
L 673.432979 -41.977936 
L 670.439922 -41.985295 
L 667.446866 -41.988287 
L 664.45381 -41.985197 
L 661.460754 -41.978252 
L 658.467698 -41.971711 
L 655.474641 -41.968444 
L 652.481585 -41.968379 
L 649.488529 -41.969459 
L 646.495473 -41.969724 
L 643.502417 -41.969014 
L 640.50936 -41.969261 
L 637.516304 -41.973075 
L 634.523248 -41.981318 
L 631.530192 -41.991239 
L 628.537136 -41.997429 
L 625.544079 -41.996029 
L 622.551023 -41.988495 
L 619.557967 -41.980637 
L 616.564911 -41.977869 
L 613.571855 -41.981402 
L 610.578799 -41.988344 
L 607.585742 -41.995255 
L 604.592686 -42.001954 
L 601.59963 -42.010953 
L 598.606574 -42.022105 
L 595.613518 -42.02958 
L 592.620461 -42.027038 
L 589.627405 -42.015465 
L 586.634349 -42.003423 
L 583.641293 -41.999384 
L 580.648237 -42.005027 
L 577.65518 -42.015259 
L 574.662124 -42.023589 
L 571.669068 -42.028129 
L 568.676012 -42.032938 
L 565.682956 -42.042896 
L 562.689899 -42.057449 
L 559.696843 -42.070023 
L 556.703787 -42.073255 
L 553.710731 -42.064776 
L 550.717675 -42.049107 
L 547.724619 -42.034172 
L 544.731562 -42.025141 
L 541.738506 -42.021889 
L 538.74545 -42.02246 
L 535.752394 -42.0266 
L 532.759338 -42.033758 
L 529.766281 -42.039797 
L 526.773225 -42.039846 
L 523.780169 -42.034534 
L 520.787113 -42.029535 
L 517.794057 -42.027764 
L 514.801 -42.025618 
L 511.807944 -42.019034 
L 508.814888 -42.01043 
L 505.821832 -42.007009 
L 502.828776 -42.013486 
L 499.83572 -42.028036 
L 496.842663 -42.044226 
L 493.849607 -42.055869 
L 490.856551 -42.060795 
L 487.863495 -42.060852 
L 484.870439 -42.058833 
L 481.877382 -42.056279 
L 478.884326 -42.054337 
L 475.89127 -42.055117 
L 472.898214 -42.060583 
L 469.905158 -42.070489 
L 466.912101 -42.082747 
L 463.919045 -42.095738 
L 460.925989 -42.109062 
L 457.932933 -42.121961 
L 454.939877 -42.132576 
L 451.94682 -42.139934 
L 448.953764 -42.146539 
L 445.960708 -42.158343 
L 442.967652 -42.181236 
L 439.974596 -42.215798 
L 436.98154 -42.254601 
L 433.988483 -42.286254 
L 430.995427 -42.303999 
L 428.002371 -42.310871 
L 425.009315 -42.316944 
L 422.016259 -42.331572 
L 419.023202 -42.356679 
L 416.030146 -42.386775 
L 413.03709 -42.416501 
L 410.044034 -42.446993 
L 407.050978 -42.481868 
L 404.057921 -42.518849 
L 401.064865 -42.552066 
L 398.071809 -42.584792 
L 395.078753 -42.63383 
L 392.085697 -42.715731 
L 389.09264 -42.828933 
L 386.099584 -42.95051 
L 383.106528 -43.051746 
L 380.113472 -43.122499 
L 377.120416 -43.183411 
L 374.12736 -43.267997 
L 371.134303 -43.388919 
L 368.141247 -43.52807 
L 365.148191 -43.662497 
L 362.155135 -43.793541 
L 359.162079 -43.9482 
L 356.169022 -44.155984 
L 353.175966 -44.422643 
L 350.18291 -44.721055 
L 347.189854 -45.008978 
L 344.196798 -45.259904 
L 341.203741 -45.479203 
L 338.210685 -45.695985 
L 335.217629 -45.944408 
L 332.224573 -46.247965 
L 329.231517 -46.609959 
L 326.23846 -47.011107 
L 323.245404 -47.419239 
L 320.252348 -47.81359 
L 317.259292 -48.210476 
L 314.266236 -48.66646 
L 311.27318 -49.247758 
L 308.280123 -49.976855 
L 305.287067 -50.790525 
L 302.294011 -51.558611 
L 299.300955 -52.173513 
L 296.307899 -52.640466 
L 293.314842 -53.08885 
L 290.321786 -53.699183 
L 287.32873 -54.596441 
L 284.335674 -55.777289 
L 281.342618 -57.127694 
L 278.349561 -58.513238 
L 275.356505 -59.85267 
L 272.363449 -61.123163 
L 269.370393 -62.331091 
L 266.377337 -63.496277 
L 263.38428 -64.654712 
L 260.391224 -65.859739 
L 257.398168 -67.173154 
L 254.405112 -68.65164 
L 251.412056 -70.336001 
L 248.419 -72.245199 
L 245.425943 -74.365453 
L 242.432887 -76.620738 
L 239.439831 -78.841083 
L 236.446775 -80.787987 
L 233.453719 -82.267993 
L 230.460662 -83.25521 
L 227.467606 -83.901481 
L 224.47455 -84.421882 
L 221.481494 -84.947682 
L 218.488438 -85.448089 
L 215.495381 -85.788273 
L 212.502325 -85.896307 
L 209.509269 -85.88923 
L 206.516213 -86.017951 
L 203.523157 -86.435201 
L 200.530101 -86.92781 
L 197.537044 -86.862553 
L 194.543988 -85.538888 
L 191.550932 -82.737369 
L 188.557876 -78.928072 
L 185.56482 -74.935296 
L 182.571763 -71.409246 
L 179.578707 -68.514015 
L 176.585651 -65.983711 
L 173.592595 -63.46333 
L 170.599539 -60.83496 
L 167.606482 -58.239243 
L 164.613426 -55.852702 
L 161.62037 -53.724156 
L 158.627314 -51.803285 
L 155.634258 -50.044104 
L 152.641201 -48.454289 
L 149.648145 -47.076506 
L 146.655089 -45.944706 
L 143.662033 -45.055268 
L 140.668977 -44.370865 
L 137.675921 -43.843836 
L 134.682864 -43.433602 
L 131.689808 -43.109751 
L 128.696752 -42.849718 
L 125.703696 -42.638237 
L 122.71064 -42.466776 
L 119.717583 -42.33029 
L 116.724527 -42.223856 
L 113.731471 -42.142462 
L 110.738415 -42.082399 
L 107.745359 -42.040812 
L 104.752302 -42.013731 
L 101.759246 -41.995897 
L 98.76619 -41.982978 
L 95.773134 -41.973189 
L 92.780078 -41.966439 
L 89.787021 -41.962589 
L 86.793965 -41.960842 
L 83.800909 -41.96022 
z
" style="stroke: #000000"/>
    </defs>
    <g clip-path="url(#p9fa2e997ca)">
     <use xlink:href="#m19d043cdde" x="0" y="432" style="fill: #ff7f0e; fill-opacity: 0.75; stroke: #000000"/>
    </g>
   </g>
   <g id="PolyCollection_2">
    <defs>
     <path id="m8cf8b8f1a2" d="M 83.800909 -41.960955 
L 83.800909 -41.96022 
L 86.793965 -41.960842 
L 89.787021 -41.962589 
L 92.780078 -41.966439 
L 95.773134 -41.973189 
L 98.76619 -41.982978 
L 101.759246 -41.995897 
L 104.752302 -42.013731 
L 107.745359 -42.040812 
L 110.738415 -42.082399 
L 113.731471 -42.142462 
L 116.724527 -42.223856 
L 119.717583 -42.33029 
L 122.71064 -42.466776 
L 125.703696 -42.638237 
L 128.696752 -42.849718 
L 131.689808 -43.109751 
L 134.682864 -43.433602 
L 137.675921 -43.843836 
L 140.668977 -44.370865 
L 143.662033 -45.055268 
L 146.655089 -45.944706 
L 149.648145 -47.076506 
L 152.641201 -48.454289 
L 155.634258 -50.044104 
L 158.627314 -51.803285 
L 161.62037 -53.724156 
L 164.613426 -55.852702 
L 167.606482 -58.239243 
L 170.599539 -60.83496 
L 173.592595 -63.46333 
L 176.585651 -65.983711 
L 179.578707 -68.514015 
L 182.571763 -71.409246 
L 185.56482 -74.935296 
L 188.557876 -78.928072 
L 191.550932 -82.737369 
L 194.543988 -85.538888 
L 197.537044 -86.862553 
L 200.530101 -86.92781 
L 203.523157 -86.435201 
L 206.516213 -86.017951 
L 209.509269 -85.88923 
L 212.502325 -85.896307 
L 215.495381 -85.788273 
L 218.488438 -85.448089 
L 221.481494 -84.947682 
L 224.47455 -84.421882 
L 227.467606 -83.901481 
L 230.460662 -83.25521 
L 233.453719 -82.267993 
L 236.446775 -80.787987 
L 239.439831 -78.841083 
L 242.432887 -76.620738 
L 245.425943 -74.365453 
L 248.419 -72.245199 
L 251.412056 -70.336001 
L 254.405112 -68.65164 
L 257.398168 -67.173154 
L 260.391224 -65.859739 
L 263.38428 -64.654712 
L 266.377337 -63.496277 
L 269.370393 -62.331091 
L 272.363449 -61.123163 
L 275.356505 -59.85267 
L 278.349561 -58.513238 
L 281.342618 -57.127694 
L 284.335674 -55.777289 
L 287.32873 -54.596441 
L 290.321786 -53.699183 
L 293.314842 -53.08885 
L 296.307899 -52.640466 
L 299.300955 -52.173513 
L 302.294011 -51.558611 
L 305.287067 -50.790525 
L 308.280123 -49.976855 
L 311.27318 -49.247758 
L 314.266236 -48.66646 
L 317.259292 -48.210476 
L 320.252348 -47.81359 
L 323.245404 -47.419239 
L 326.23846 -47.011107 
L 329.231517 -46.609959 
L 332.224573 -46.247965 
L 335.217629 -45.944408 
L 338.210685 -45.695985 
L 341.203741 -45.479203 
L 344.196798 -45.259904 
L 347.189854 -45.008978 
L 350.18291 -44.721055 
L 353.175966 -44.422643 
L 356.169022 -44.155984 
L 359.162079 -43.9482 
L 362.155135 -43.793541 
L 365.148191 -43.662497 
L 368.141247 -43.52807 
L 371.134303 -43.388919 
L 374.12736 -43.267997 
L 377.120416 -43.183411 
L 380.113472 -43.122499 
L 383.106528 -43.051746 
L 386.099584 -42.95051 
L 389.09264 -42.828933 
L 392.085697 -42.715731 
L 395.078753 -42.63383 
L 398.071809 -42.584792 
L 401.064865 -42.552066 
L 404.057921 -42.518849 
L 407.050978 -42.481868 
L 410.044034 -42.446993 
L 413.03709 -42.416501 
L 416.030146 -42.386775 
L 419.023202 -42.356679 
L 422.016259 -42.331572 
L 425.009315 -42.316944 
L 428.002371 -42.310871 
L 430.995427 -42.303999 
L 433.988483 -42.286254 
L 436.98154 -42.254601 
L 439.974596 -42.215798 
L 442.967652 -42.181236 
L 445.960708 -42.158343 
L 448.953764 -42.146539 
L 451.94682 -42.139934 
L 454.939877 -42.132576 
L 457.932933 -42.121961 
L 460.925989 -42.109062 
L 463.919045 -42.095738 
L 466.912101 -42.082747 
L 469.905158 -42.070489 
L 472.898214 -42.060583 
L 475.89127 -42.055117 
L 478.884326 -42.054337 
L 481.877382 -42.056279 
L 484.870439 -42.058833 
L 487.863495 -42.060852 
L 490.856551 -42.060795 
L 493.849607 -42.055869 
L 496.842663 -42.044226 
L 499.83572 -42.028036 
L 502.828776 -42.013486 
L 505.821832 -42.007009 
L 508.814888 -42.01043 
L 511.807944 -42.019034 
L 514.801 -42.025618 
L 517.794057 -42.027764 
L 520.787113 -42.029535 
L 523.780169 -42.034534 
L 526.773225 -42.039846 
L 529.766281 -42.039797 
L 532.759338 -42.033758 
L 535.752394 -42.0266 
L 538.74545 -42.02246 
L 541.738506 -42.021889 
L 544.731562 -42.025141 
L 547.724619 -42.034172 
L 550.717675 -42.049107 
L 553.710731 -42.064776 
L 556.703787 -42.073255 
L 559.696843 -42.070023 
L 562.689899 -42.057449 
L 565.682956 -42.042896 
L 568.676012 -42.032938 
L 571.669068 -42.028129 
L 574.662124 -42.023589 
L 577.65518 -42.015259 
L 580.648237 -42.005027 
L 583.641293 -41.999384 
L 586.634349 -42.003423 
L 589.627405 -42.015465 
L 592.620461 -42.027038 
L 595.613518 -42.02958 
L 598.606574 -42.022105 
L 601.59963 -42.010953 
L 604.592686 -42.001954 
L 607.585742 -41.995255 
L 610.578799 -41.988344 
L 613.571855 -41.981402 
L 616.564911 -41.977869 
L 619.557967 -41.980637 
L 622.551023 -41.988495 
L 625.544079 -41.996029 
L 628.537136 -41.997429 
L 631.530192 -41.991239 
L 634.523248 -41.981318 
L 637.516304 -41.973075 
L 640.50936 -41.969261 
L 643.502417 -41.969014 
L 646.495473 -41.969724 
L 649.488529 -41.969459 
L 652.481585 -41.968379 
L 655.474641 -41.968444 
L 658.467698 -41.971711 
L 661.460754 -41.978252 
L 664.45381 -41.985197 
L 667.446866 -41.988287 
L 670.439922 -41.985295 
L 673.432979 -41.977936 
L 676.426035 -41.970075 
L 679.419091 -41.964483 
L 679.419091 -41.964775 
L 679.419091 -41.964775 
L 676.426035 -41.972316 
L 673.432979 -41.987477 
L 670.439922 -42.00791 
L 667.446866 -42.018166 
L 664.45381 -42.0076 
L 661.460754 -41.990148 
L 658.467698 -41.984822 
L 655.474641 -42.000377 
L 652.481585 -42.043103 
L 649.488529 -42.095804 
L 646.495473 -42.101026 
L 643.502417 -42.047374 
L 640.50936 -41.996715 
L 637.516304 -41.989587 
L 634.523248 -42.041862 
L 631.530192 -42.164135 
L 628.537136 -42.275717 
L 625.544079 -42.249595 
L 622.551023 -42.125912 
L 619.557967 -42.036988 
L 616.564911 -42.023965 
L 613.571855 -42.0855 
L 610.578799 -42.203269 
L 607.585742 -42.272767 
L 604.592686 -42.228691 
L 601.59963 -42.214629 
L 598.606574 -42.385834 
L 595.613518 -42.605614 
L 592.620461 -42.567539 
L 589.627405 -42.300415 
L 586.634349 -42.090165 
L 583.641293 -42.038317 
L 580.648237 -42.120479 
L 577.65518 -42.303146 
L 574.662124 -42.429692 
L 571.669068 -42.35905 
L 568.676012 -42.233038 
L 565.682956 -42.256342 
L 562.689899 -42.41249 
L 559.696843 -42.567821 
L 556.703787 -42.659004 
L 553.710731 -42.608275 
L 550.717675 -42.41766 
L 547.724619 -42.348584 
L 544.731562 -42.563063 
L 541.738506 -42.783215 
L 538.74545 -42.661186 
L 535.752394 -42.391068 
L 532.759338 -42.370091 
L 529.766281 -42.560377 
L 526.773225 -42.605678 
L 523.780169 -42.432762 
L 520.787113 -42.345229 
L 517.794057 -42.490871 
L 514.801 -42.64187 
L 511.807944 -42.575318 
L 508.814888 -42.438516 
L 505.821832 -42.447375 
L 502.828776 -42.552268 
L 499.83572 -42.536314 
L 496.842663 -42.392451 
L 493.849607 -42.351177 
L 490.856551 -42.482156 
L 487.863495 -42.575136 
L 484.870439 -42.470403 
L 481.877382 -42.299479 
L 478.884326 -42.203301 
L 475.89127 -42.176166 
L 472.898214 -42.179489 
L 469.905158 -42.196735 
L 466.912101 -42.218057 
L 463.919045 -42.237358 
L 460.925989 -42.247597 
L 457.932933 -42.243535 
L 454.939877 -42.245622 
L 451.94682 -42.271425 
L 448.953764 -42.319363 
L 445.960708 -42.383319 
L 442.967652 -42.455299 
L 439.974596 -42.497344 
L 436.98154 -42.513815 
L 433.988483 -42.563468 
L 430.995427 -42.660099 
L 428.002371 -42.738045 
L 425.009315 -42.754909 
L 422.016259 -42.775923 
L 419.023202 -42.852351 
L 416.030146 -42.962755 
L 413.03709 -43.039225 
L 410.044034 -43.08949 
L 407.050978 -43.150482 
L 404.057921 -43.237701 
L 401.064865 -43.361644 
L 398.071809 -43.522696 
L 395.078753 -43.696878 
L 392.085697 -43.844751 
L 389.09264 -44.046502 
L 386.099584 -44.347032 
L 383.106528 -44.658978 
L 380.113472 -44.754893 
L 377.120416 -44.711163 
L 374.12736 -44.926101 
L 371.134303 -45.513618 
L 368.141247 -46.066926 
L 365.148191 -46.253893 
L 362.155135 -46.329538 
L 359.162079 -46.525431 
L 356.169022 -46.960874 
L 353.175966 -47.648583 
L 350.18291 -48.517789 
L 347.189854 -49.258527 
L 344.196798 -49.804917 
L 341.203741 -50.340517 
L 338.210685 -50.950347 
L 335.217629 -51.758257 
L 332.224573 -52.727477 
L 329.231517 -53.87285 
L 326.23846 -54.925232 
L 323.245404 -55.948329 
L 320.252348 -56.836593 
L 317.259292 -57.750155 
L 314.266236 -59.056167 
L 311.27318 -60.96633 
L 308.280123 -63.53304 
L 305.287067 -66.513893 
L 302.294011 -69.495872 
L 299.300955 -71.47539 
L 296.307899 -72.941717 
L 293.314842 -74.083312 
L 290.321786 -75.623818 
L 287.32873 -78.322308 
L 284.335674 -82.422369 
L 281.342618 -87.435411 
L 278.349561 -92.776137 
L 275.356505 -98.207527 
L 272.363449 -102.710804 
L 269.370393 -107.559948 
L 266.377337 -112.803742 
L 263.38428 -118.790974 
L 260.391224 -123.872263 
L 257.398168 -128.556418 
L 254.405112 -134.30987 
L 251.412056 -141.689617 
L 248.419 -151.420707 
L 245.425943 -162.822459 
L 242.432887 -176.168915 
L 239.439831 -188.803264 
L 236.446775 -202.177254 
L 233.453719 -214.205917 
L 230.460662 -226.65066 
L 227.467606 -239.391133 
L 224.47455 -252.998367 
L 221.481494 -267.494036 
L 218.488438 -280.335418 
L 215.495381 -292.07689 
L 212.502325 -297.340327 
L 209.509269 -302.579339 
L 206.516213 -309.049969 
L 203.523157 -323.746523 
L 200.530101 -351.306575 
L 197.537044 -386.892527 
L 194.543988 -403.140952 
L 191.550932 -387.831256 
L 188.557876 -363.416521 
L 185.56482 -337.119805 
L 182.571763 -320.321146 
L 179.578707 -314.874029 
L 176.585651 -315.225077 
L 173.592595 -304.457021 
L 170.599539 -283.993233 
L 167.606482 -263.847449 
L 164.613426 -244.569307 
L 161.62037 -226.100318 
L 158.627314 -203.403211 
L 155.634258 -181.177117 
L 152.641201 -158.481018 
L 149.648145 -138.043506 
L 146.655089 -120.852704 
L 143.662033 -106.035821 
L 140.668977 -92.661901 
L 137.675921 -79.669562 
L 134.682864 -69.27401 
L 131.689808 -61.20558 
L 128.696752 -55.421054 
L 125.703696 -51.409716 
L 122.71064 -48.589855 
L 119.717583 -46.531739 
L 116.724527 -44.974727 
L 113.731471 -43.897847 
L 110.738415 -43.156028 
L 107.745359 -42.712762 
L 104.752302 -42.476941 
L 101.759246 -42.332411 
L 98.76619 -42.208701 
L 95.773134 -42.107381 
L 92.780078 -42.035057 
L 89.787021 -41.987821 
L 86.793965 -41.966532 
L 83.800909 -41.960955 
z
" style="stroke: #000000"/>
    </defs>
    <g clip-path="url(#p9fa2e997ca)">
     <use xlink:href="#m8cf8b8f1a2" x="0" y="432" style="fill: #1f77b4; fill-opacity: 0.75; stroke: #000000"/>
    </g>
   </g>
   <g id="matplotlib.axis_1">
    <g id="xtick_1">
     <g id="line2d_1">
      <defs>
       <path id="m524401a35b" d="M 0 0 
L 0 3.5 
" style="stroke: #000000; stroke-width: 0.8"/>
      </defs>
      <g>
       <use xlink:href="#m524401a35b" x="148.885815" y="390.04" style="stroke: #000000; stroke-width: 0.8"/>
      </g>
     </g>
     <g id="text_1">
      <!-- 20 -->
      <g transform="translate(142.523315 404.638438) scale(0.1 -0.1)">
       <defs>
        <path id="DejaVuSans-32" d="M 1228 531 
L 3431 531 
L 3431 0 
L 469 0 
L 469 531 
Q 828 903 1448 1529 
Q 2069 2156 2228 2338 
Q 2531 2678 2651 2914 
Q 2772 3150 2772 3378 
Q 2772 3750 2511 3984 
Q 2250 4219 1831 4219 
Q 1534 4219 1204 4116 
Q 875 4013 500 3803 
L 500 4441 
Q 881 4594 1212 4672 
Q 1544 4750 1819 4750 
Q 2544 4750 2975 4387 
Q 3406 4025 3406 3419 
Q 3406 3131 3298 2873 
Q 3191 2616 2906 2266 
Q 2828 2175 2409 1742 
Q 1991 1309 1228 531 
z
" transform="scale(0.015625)"/>
        <path id="DejaVuSans-30" d="M 2034 4250 
Q 1547 4250 1301 3770 
Q 1056 3291 1056 2328 
Q 1056 1369 1301 889 
Q 1547 409 2034 409 
Q 2525 409 2770 889 
Q 3016 1369 3016 2328 
Q 3016 3291 2770 3770 
Q 2525 4250 2034 4250 
z
M 2034 4750 
Q 2819 4750 3233 4129 
Q 3647 3509 3647 2328 
Q 3647 1150 3233 529 
Q 2819 -91 2034 -91 
Q 1250 -91 836 529 
Q 422 1150 422 2328 
Q 422 3509 836 4129 
Q 1250 4750 2034 4750 
z
" transform="scale(0.015625)"/>
       </defs>
       <use xlink:href="#DejaVuSans-32"/>
       <use xlink:href="#DejaVuSans-30" x="63.623047"/>
      </g>
     </g>
    </g>
    <g id="xtick_2">
     <g id="line2d_2">
      <g>
       <use xlink:href="#m524401a35b" x="281.871064" y="390.04" style="stroke: #000000; stroke-width: 0.8"/>
      </g>
     </g>
     <g id="text_2">
      <!-- 40 -->
      <g transform="translate(275.508564 404.638438) scale(0.1 -0.1)">
       <defs>
        <path id="DejaVuSans-34" d="M 2419 4116 
L 825 1625 
L 2419 1625 
L 2419 4116 
z
M 2253 4666 
L 3047 4666 
L 3047 1625 
L 3713 1625 
L 3713 1100 
L 3047 1100 
L 3047 0 
L 2419 0 
L 2419 1100 
L 313 1100 
L 313 1709 
L 2253 4666 
z
" transform="scale(0.015625)"/>
       </defs>
       <use xlink:href="#DejaVuSans-34"/>
       <use xlink:href="#DejaVuSans-30" x="63.623047"/>
      </g>
     </g>
    </g>
    <g id="xtick_3">
     <g id="line2d_3">
      <g>
       <use xlink:href="#m524401a35b" x="414.856312" y="390.04" style="stroke: #000000; stroke-width: 0.8"/>
      </g>
     </g>
     <g id="text_3">
      <!-- 60 -->
      <g transform="translate(408.493812 404.638438) scale(0.1 -0.1)">
       <defs>
        <path id="DejaVuSans-36" d="M 2113 2584 
Q 1688 2584 1439 2293 
Q 1191 2003 1191 1497 
Q 1191 994 1439 701 
Q 1688 409 2113 409 
Q 2538 409 2786 701 
Q 3034 994 3034 1497 
Q 3034 2003 2786 2293 
Q 2538 2584 2113 2584 
z
M 3366 4563 
L 3366 3988 
Q 3128 4100 2886 4159 
Q 2644 4219 2406 4219 
Q 1781 4219 1451 3797 
Q 1122 3375 1075 2522 
Q 1259 2794 1537 2939 
Q 1816 3084 2150 3084 
Q 2853 3084 3261 2657 
Q 3669 2231 3669 1497 
Q 3669 778 3244 343 
Q 2819 -91 2113 -91 
Q 1303 -91 875 529 
Q 447 1150 447 2328 
Q 447 3434 972 4092 
Q 1497 4750 2381 4750 
Q 2619 4750 2861 4703 
Q 3103 4656 3366 4563 
z
" transform="scale(0.015625)"/>
       </defs>
       <use xlink:href="#DejaVuSans-36"/>
       <use xlink:href="#DejaVuSans-30" x="63.623047"/>
      </g>
     </g>
    </g>
    <g id="xtick_4">
     <g id="line2d_4">
      <g>
       <use xlink:href="#m524401a35b" x="547.841561" y="390.04" style="stroke: #000000; stroke-width: 0.8"/>
      </g>
     </g>
     <g id="text_4">
      <!-- 80 -->
      <g transform="translate(541.479061 404.638438) scale(0.1 -0.1)">
       <defs>
        <path id="DejaVuSans-38" d="M 2034 2216 
Q 1584 2216 1326 1975 
Q 1069 1734 1069 1313 
Q 1069 891 1326 650 
Q 1584 409 2034 409 
Q 2484 409 2743 651 
Q 3003 894 3003 1313 
Q 3003 1734 2745 1975 
Q 2488 2216 2034 2216 
z
M 1403 2484 
Q 997 2584 770 2862 
Q 544 3141 544 3541 
Q 544 4100 942 4425 
Q 1341 4750 2034 4750 
Q 2731 4750 3128 4425 
Q 3525 4100 3525 3541 
Q 3525 3141 3298 2862 
Q 3072 2584 2669 2484 
Q 3125 2378 3379 2068 
Q 3634 1759 3634 1313 
Q 3634 634 3220 271 
Q 2806 -91 2034 -91 
Q 1263 -91 848 271 
Q 434 634 434 1313 
Q 434 1759 690 2068 
Q 947 2378 1403 2484 
z
M 1172 3481 
Q 1172 3119 1398 2916 
Q 1625 2713 2034 2713 
Q 2441 2713 2670 2916 
Q 2900 3119 2900 3481 
Q 2900 3844 2670 4047 
Q 2441 4250 2034 4250 
Q 1625 4250 1398 4047 
Q 1172 3844 1172 3481 
z
" transform="scale(0.015625)"/>
       </defs>
       <use xlink:href="#DejaVuSans-38"/>
       <use xlink:href="#DejaVuSans-30" x="63.623047"/>
      </g>
     </g>
    </g>
    <g id="xtick_5">
     <g id="line2d_5">
      <g>
       <use xlink:href="#m524401a35b" x="680.826809" y="390.04" style="stroke: #000000; stroke-width: 0.8"/>
      </g>
     </g>
     <g id="text_5">
      <!-- 100 -->
      <g transform="translate(671.283059 404.638438) scale(0.1 -0.1)">
       <defs>
        <path id="DejaVuSans-31" d="M 794 531 
L 1825 531 
L 1825 4091 
L 703 3866 
L 703 4441 
L 1819 4666 
L 2450 4666 
L 2450 531 
L 3481 531 
L 3481 0 
L 794 0 
L 794 531 
z
" transform="scale(0.015625)"/>
       </defs>
       <use xlink:href="#DejaVuSans-31"/>
       <use xlink:href="#DejaVuSans-30" x="63.623047"/>
       <use xlink:href="#DejaVuSans-30" x="127.246094"/>
      </g>
     </g>
    </g>
    <g id="text_6">
     <!-- BMI -->
     <g transform="translate(372.390469 418.316562) scale(0.1 -0.1)">
      <defs>
       <path id="DejaVuSans-42" d="M 1259 2228 
L 1259 519 
L 2272 519 
Q 2781 519 3026 730 
Q 3272 941 3272 1375 
Q 3272 1813 3026 2020 
Q 2781 2228 2272 2228 
L 1259 2228 
z
M 1259 4147 
L 1259 2741 
L 2194 2741 
Q 2656 2741 2882 2914 
Q 3109 3088 3109 3444 
Q 3109 3797 2882 3972 
Q 2656 4147 2194 4147 
L 1259 4147 
z
M 628 4666 
L 2241 4666 
Q 2963 4666 3353 4366 
Q 3744 4066 3744 3513 
Q 3744 3084 3544 2831 
Q 3344 2578 2956 2516 
Q 3422 2416 3680 2098 
Q 3938 1781 3938 1306 
Q 3938 681 3513 340 
Q 3088 0 2303 0 
L 628 0 
L 628 4666 
z
" transform="scale(0.015625)"/>
       <path id="DejaVuSans-4d" d="M 628 4666 
L 1569 4666 
L 2759 1491 
L 3956 4666 
L 4897 4666 
L 4897 0 
L 4281 0 
L 4281 4097 
L 3078 897 
L 2444 897 
L 1241 4097 
L 1241 0 
L 628 0 
L 628 4666 
z
" transform="scale(0.015625)"/>
       <path id="DejaVuSans-49" d="M 628 4666 
L 1259 4666 
L 1259 0 
L 628 0 
L 628 4666 
z
" transform="scale(0.015625)"/>
      </defs>
      <use xlink:href="#DejaVuSans-42"/>
      <use xlink:href="#DejaVuSans-4d" x="68.603516"/>
      <use xlink:href="#DejaVuSans-49" x="154.882812"/>
     </g>
    </g>
   </g>
   <g id="matplotlib.axis_2">
    <g id="ytick_1">
     <g id="line2d_6">
      <defs>
       <path id="mae9005b3dc" d="M 0 0 
L -3.5 0 
" style="stroke: #000000; stroke-width: 0.8"/>
      </defs>
      <g>
       <use xlink:href="#mae9005b3dc" x="54.02" y="390.04" style="stroke: #000000; stroke-width: 0.8"/>
      </g>
     </g>
     <g id="text_7">
      <!-- 0.00 -->
      <g transform="translate(24.754375 393.839219) scale(0.1 -0.1)">
       <defs>
        <path id="DejaVuSans-2e" d="M 684 794 
L 1344 794 
L 1344 0 
L 684 0 
L 684 794 
z
" transform="scale(0.015625)"/>
       </defs>
       <use xlink:href="#DejaVuSans-30"/>
       <use xlink:href="#DejaVuSans-2e" x="63.623047"/>
       <use xlink:href="#DejaVuSans-30" x="95.410156"/>
       <use xlink:href="#DejaVuSans-30" x="159.033203"/>
      </g>
     </g>
    </g>
    <g id="ytick_2">
     <g id="line2d_7">
      <g>
       <use xlink:href="#mae9005b3dc" x="54.02" y="306.441621" style="stroke: #000000; stroke-width: 0.8"/>
      </g>
     </g>
     <g id="text_8">
      <!-- 0.02 -->
      <g transform="translate(24.754375 310.24084) scale(0.1 -0.1)">
       <use xlink:href="#DejaVuSans-30"/>
       <use xlink:href="#DejaVuSans-2e" x="63.623047"/>
       <use xlink:href="#DejaVuSans-30" x="95.410156"/>
       <use xlink:href="#DejaVuSans-32" x="159.033203"/>
      </g>
     </g>
    </g>
    <g id="ytick_3">
     <g id="line2d_8">
      <g>
       <use xlink:href="#mae9005b3dc" x="54.02" y="222.843243" style="stroke: #000000; stroke-width: 0.8"/>
      </g>
     </g>
     <g id="text_9">
      <!-- 0.04 -->
      <g transform="translate(24.754375 226.642461) scale(0.1 -0.1)">
       <use xlink:href="#DejaVuSans-30"/>
       <use xlink:href="#DejaVuSans-2e" x="63.623047"/>
       <use xlink:href="#DejaVuSans-30" x="95.410156"/>
       <use xlink:href="#DejaVuSans-34" x="159.033203"/>
      </g>
     </g>
    </g>
    <g id="ytick_4">
     <g id="line2d_9">
      <g>
       <use xlink:href="#mae9005b3dc" x="54.02" y="139.244864" style="stroke: #000000; stroke-width: 0.8"/>
      </g>
     </g>
     <g id="text_10">
      <!-- 0.06 -->
      <g transform="translate(24.754375 143.044083) scale(0.1 -0.1)">
       <use xlink:href="#DejaVuSans-30"/>
       <use xlink:href="#DejaVuSans-2e" x="63.623047"/>
       <use xlink:href="#DejaVuSans-30" x="95.410156"/>
       <use xlink:href="#DejaVuSans-36" x="159.033203"/>
      </g>
     </g>
    </g>
    <g id="ytick_5">
     <g id="line2d_10">
      <g>
       <use xlink:href="#mae9005b3dc" x="54.02" y="55.646485" style="stroke: #000000; stroke-width: 0.8"/>
      </g>
     </g>
     <g id="text_11">
      <!-- 0.08 -->
      <g transform="translate(24.754375 59.445704) scale(0.1 -0.1)">
       <use xlink:href="#DejaVuSans-30"/>
       <use xlink:href="#DejaVuSans-2e" x="63.623047"/>
       <use xlink:href="#DejaVuSans-30" x="95.410156"/>
       <use xlink:href="#DejaVuSans-38" x="159.033203"/>
      </g>
     </g>
    </g>
    <g id="text_12">
     <!-- Density -->
     <g transform="translate(18.674688 219.428594) rotate(-90) scale(0.1 -0.1)">
      <defs>
       <path id="DejaVuSans-44" d="M 1259 4147 
L 1259 519 
L 2022 519 
Q 2988 519 3436 956 
Q 3884 1394 3884 2338 
Q 3884 3275 3436 3711 
Q 2988 4147 2022 4147 
L 1259 4147 
z
M 628 4666 
L 1925 4666 
Q 3281 4666 3915 4102 
Q 4550 3538 4550 2338 
Q 4550 1131 3912 565 
Q 3275 0 1925 0 
L 628 0 
L 628 4666 
z
" transform="scale(0.015625)"/>
       <path id="DejaVuSans-65" d="M 3597 1894 
L 3597 1613 
L 953 1613 
Q 991 1019 1311 708 
Q 1631 397 2203 397 
Q 2534 397 2845 478 
Q 3156 559 3463 722 
L 3463 178 
Q 3153 47 2828 -22 
Q 2503 -91 2169 -91 
Q 1331 -91 842 396 
Q 353 884 353 1716 
Q 353 2575 817 3079 
Q 1281 3584 2069 3584 
Q 2775 3584 3186 3129 
Q 3597 2675 3597 1894 
z
M 3022 2063 
Q 3016 2534 2758 2815 
Q 2500 3097 2075 3097 
Q 1594 3097 1305 2825 
Q 1016 2553 972 2059 
L 3022 2063 
z
" transform="scale(0.015625)"/>
       <path id="DejaVuSans-6e" d="M 3513 2113 
L 3513 0 
L 2938 0 
L 2938 2094 
Q 2938 2591 2744 2837 
Q 2550 3084 2163 3084 
Q 1697 3084 1428 2787 
Q 1159 2491 1159 1978 
L 1159 0 
L 581 0 
L 581 3500 
L 1159 3500 
L 1159 2956 
Q 1366 3272 1645 3428 
Q 1925 3584 2291 3584 
Q 2894 3584 3203 3211 
Q 3513 2838 3513 2113 
z
" transform="scale(0.015625)"/>
       <path id="DejaVuSans-73" d="M 2834 3397 
L 2834 2853 
Q 2591 2978 2328 3040 
Q 2066 3103 1784 3103 
Q 1356 3103 1142 2972 
Q 928 2841 928 2578 
Q 928 2378 1081 2264 
Q 1234 2150 1697 2047 
L 1894 2003 
Q 2506 1872 2764 1633 
Q 3022 1394 3022 966 
Q 3022 478 2636 193 
Q 2250 -91 1575 -91 
Q 1294 -91 989 -36 
Q 684 19 347 128 
L 347 722 
Q 666 556 975 473 
Q 1284 391 1588 391 
Q 1994 391 2212 530 
Q 2431 669 2431 922 
Q 2431 1156 2273 1281 
Q 2116 1406 1581 1522 
L 1381 1569 
Q 847 1681 609 1914 
Q 372 2147 372 2553 
Q 372 3047 722 3315 
Q 1072 3584 1716 3584 
Q 2034 3584 2315 3537 
Q 2597 3491 2834 3397 
z
" transform="scale(0.015625)"/>
       <path id="DejaVuSans-69" d="M 603 3500 
L 1178 3500 
L 1178 0 
L 603 0 
L 603 3500 
z
M 603 4863 
L 1178 4863 
L 1178 4134 
L 603 4134 
L 603 4863 
z
" transform="scale(0.015625)"/>
       <path id="DejaVuSans-74" d="M 1172 4494 
L 1172 3500 
L 2356 3500 
L 2356 3053 
L 1172 3053 
L 1172 1153 
Q 1172 725 1289 603 
Q 1406 481 1766 481 
L 2356 481 
L 2356 0 
L 1766 0 
Q 1100 0 847 248 
Q 594 497 594 1153 
L 594 3053 
L 172 3053 
L 172 3500 
L 594 3500 
L 594 4494 
L 1172 4494 
z
" transform="scale(0.015625)"/>
       <path id="DejaVuSans-79" d="M 2059 -325 
Q 1816 -950 1584 -1140 
Q 1353 -1331 966 -1331 
L 506 -1331 
L 506 -850 
L 844 -850 
Q 1081 -850 1212 -737 
Q 1344 -625 1503 -206 
L 1606 56 
L 191 3500 
L 800 3500 
L 1894 763 
L 2988 3500 
L 3597 3500 
L 2059 -325 
z
" transform="scale(0.015625)"/>
      </defs>
      <use xlink:href="#DejaVuSans-44"/>
      <use xlink:href="#DejaVuSans-65" x="77.001953"/>
      <use xlink:href="#DejaVuSans-6e" x="138.525391"/>
      <use xlink:href="#DejaVuSans-73" x="201.904297"/>
      <use xlink:href="#DejaVuSans-69" x="254.003906"/>
      <use xlink:href="#DejaVuSans-74" x="281.787109"/>
      <use xlink:href="#DejaVuSans-79" x="320.996094"/>
     </g>
    </g>
   </g>
   <g id="patch_3">
    <path d="M 54.02 390.04 
L 54.02 10.8 
" style="fill: none; stroke: #000000; stroke-width: 0.8; stroke-linejoin: miter; stroke-linecap: square"/>
   </g>
   <g id="patch_4">
    <path d="M 709.2 390.04 
L 709.2 10.8 
" style="fill: none; stroke: #000000; stroke-width: 0.8; stroke-linejoin: miter; stroke-linecap: square"/>
   </g>
   <g id="patch_5">
    <path d="M 54.02 390.04 
L 709.2 390.04 
" style="fill: none; stroke: #000000; stroke-width: 0.8; stroke-linejoin: miter; stroke-linecap: square"/>
   </g>
   <g id="patch_6">
    <path d="M 54.02 10.8 
L 709.2 10.8 
" style="fill: none; stroke: #000000; stroke-width: 0.8; stroke-linejoin: miter; stroke-linecap: square"/>
   </g>
   <g id="legend_1">
    <g id="patch_7">
     <path d="M 617.1875 63.1125 
L 702.2 63.1125 
Q 704.2 63.1125 704.2 61.1125 
L 704.2 17.8 
Q 704.2 15.8 702.2 15.8 
L 617.1875 15.8 
Q 615.1875 15.8 615.1875 17.8 
L 615.1875 61.1125 
Q 615.1875 63.1125 617.1875 63.1125 
z
" style="fill: #ffffff; opacity: 0.8; stroke: #cccccc; stroke-linejoin: miter"/>
    </g>
    <g id="text_13">
     <!-- Diabetes_binary -->
     <g transform="translate(619.1875 27.398438) scale(0.1 -0.1)">
      <defs>
       <path id="DejaVuSans-61" d="M 2194 1759 
Q 1497 1759 1228 1600 
Q 959 1441 959 1056 
Q 959 750 1161 570 
Q 1363 391 1709 391 
Q 2188 391 2477 730 
Q 2766 1069 2766 1631 
L 2766 1759 
L 2194 1759 
z
M 3341 1997 
L 3341 0 
L 2766 0 
L 2766 531 
Q 2569 213 2275 61 
Q 1981 -91 1556 -91 
Q 1019 -91 701 211 
Q 384 513 384 1019 
Q 384 1609 779 1909 
Q 1175 2209 1959 2209 
L 2766 2209 
L 2766 2266 
Q 2766 2663 2505 2880 
Q 2244 3097 1772 3097 
Q 1472 3097 1187 3025 
Q 903 2953 641 2809 
L 641 3341 
Q 956 3463 1253 3523 
Q 1550 3584 1831 3584 
Q 2591 3584 2966 3190 
Q 3341 2797 3341 1997 
z
" transform="scale(0.015625)"/>
       <path id="DejaVuSans-62" d="M 3116 1747 
Q 3116 2381 2855 2742 
Q 2594 3103 2138 3103 
Q 1681 3103 1420 2742 
Q 1159 2381 1159 1747 
Q 1159 1113 1420 752 
Q 1681 391 2138 391 
Q 2594 391 2855 752 
Q 3116 1113 3116 1747 
z
M 1159 2969 
Q 1341 3281 1617 3432 
Q 1894 3584 2278 3584 
Q 2916 3584 3314 3078 
Q 3713 2572 3713 1747 
Q 3713 922 3314 415 
Q 2916 -91 2278 -91 
Q 1894 -91 1617 61 
Q 1341 213 1159 525 
L 1159 0 
L 581 0 
L 581 4863 
L 1159 4863 
L 1159 2969 
z
" transform="scale(0.015625)"/>
       <path id="DejaVuSans-5f" d="M 3263 -1063 
L 3263 -1509 
L -63 -1509 
L -63 -1063 
L 3263 -1063 
z
" transform="scale(0.015625)"/>
       <path id="DejaVuSans-72" d="M 2631 2963 
Q 2534 3019 2420 3045 
Q 2306 3072 2169 3072 
Q 1681 3072 1420 2755 
Q 1159 2438 1159 1844 
L 1159 0 
L 581 0 
L 581 3500 
L 1159 3500 
L 1159 2956 
Q 1341 3275 1631 3429 
Q 1922 3584 2338 3584 
Q 2397 3584 2469 3576 
Q 2541 3569 2628 3553 
L 2631 2963 
z
" transform="scale(0.015625)"/>
      </defs>
      <use xlink:href="#DejaVuSans-44"/>
      <use xlink:href="#DejaVuSans-69" x="77.001953"/>
      <use xlink:href="#DejaVuSans-61" x="104.785156"/>
      <use xlink:href="#DejaVuSans-62" x="166.064453"/>
      <use xlink:href="#DejaVuSans-65" x="229.541016"/>
      <use xlink:href="#DejaVuSans-74" x="291.064453"/>
      <use xlink:href="#DejaVuSans-65" x="330.273438"/>
      <use xlink:href="#DejaVuSans-73" x="391.796875"/>
      <use xlink:href="#DejaVuSans-5f" x="443.896484"/>
      <use xlink:href="#DejaVuSans-62" x="493.896484"/>
      <use xlink:href="#DejaVuSans-69" x="557.373047"/>
      <use xlink:href="#DejaVuSans-6e" x="585.15625"/>
      <use xlink:href="#DejaVuSans-61" x="648.535156"/>
      <use xlink:href="#DejaVuSans-72" x="709.814453"/>
      <use xlink:href="#DejaVuSans-79" x="750.927734"/>
     </g>
    </g>
    <g id="patch_8">
     <path d="M 642.5125 42.354688 
L 662.5125 42.354688 
L 662.5125 35.354688 
L 642.5125 35.354688 
z
" style="fill: #1f77b4; fill-opacity: 0.75; stroke: #000000; stroke-linejoin: miter"/>
    </g>
    <g id="text_14">
     <!-- 0 -->
     <g transform="translate(670.5125 42.354688) scale(0.1 -0.1)">
      <use xlink:href="#DejaVuSans-30"/>
     </g>
    </g>
    <g id="patch_9">
     <path d="M 642.5125 57.032813 
L 662.5125 57.032813 
L 662.5125 50.032813 
L 642.5125 50.032813 
z
" style="fill: #ff7f0e; fill-opacity: 0.75; stroke: #000000; stroke-linejoin: miter"/>
    </g>
    <g id="text_15">
     <!-- 1 -->
     <g transform="translate(670.5125 57.032813) scale(0.1 -0.1)">
      <use xlink:href="#DejaVuSans-31"/>
     </g>
    </g>
   </g>
  </g>
 </g>
 <defs>
  <clipPath id="p9fa2e997ca">
   <rect x="54.02" y="10.8" width="655.18" height="379.24"/>
  </clipPath>
 </defs>
</svg>
