<?xml version="1.0" encoding="utf-8" standalone="no"?>
<!DOCTYPE svg PUBLIC "-//W3C//DTD SVG 1.1//EN"
  "http://www.w3.org/Graphics/SVG/1.1/DTD/svg11.dtd">
<svg xmlns:xlink="http://www.w3.org/1999/xlink" width="720pt" height="432pt" viewBox="0 0 720 432" xmlns="http://www.w3.org/2000/svg" version="1.1">
 <metadata>
  <rdf:RDF xmlns:dc="http://purl.org/dc/elements/1.1/" xmlns:cc="http://creativecommons.org/ns#" xmlns:rdf="http://www.w3.org/1999/02/22-rdf-syntax-ns#">
   <cc:Work>
    <dc:type rdf:resource="http://purl.org/dc/dcmitype/StillImage"/>
    <dc:date>2024-02-20T14:55:04.250418</dc:date>
    <dc:format>image/svg+xml</dc:format>
    <dc:creator>
     <cc:Agent>
      <dc:title>Matplotlib v3.8.3, https://matplotlib.org/</dc:title>
     </cc:Agent>
    </dc:creator>
   </cc:Work>
  </rdf:RDF>
 </metadata>
 <defs>
  <style type="text/css">*{stroke-linejoin: round; stroke-linecap: butt}</style>
 </defs>
 <g id="figure_1">
  <g id="patch_1">
   <path d="M 0 432 
L 720 432 
L 720 0 
L 0 0 
z
" style="fill: #ffffff"/>
  </g>
  <g id="axes_1">
   <g id="patch_2">
    <path d="M 54.02 390.04 
L 709.2 390.04 
L 709.2 10.8 
L 54.02 10.8 
z
" style="fill: #ffffff"/>
   </g>
   <g id="PolyCollection_1">
    <defs>
     <path id="m987f56036f" d="M 83.800909 -41.960187 
L 83.800909 -41.96 
L 86.793965 -41.96 
L 89.787021 -41.96 
L 92.780078 -41.96 
L 95.773134 -41.96 
L 98.76619 -41.96 
L 101.759246 -41.96 
L 104.752302 -41.96 
L 107.745359 -41.96 
L 110.738415 -41.96 
L 113.731471 -41.96 
L 116.724527 -41.96 
L 119.717583 -41.96 
L 122.71064 -41.96 
L 125.703696 -41.96 
L 128.696752 -41.96 
L 131.689808 -41.96 
L 134.682864 -41.96 
L 137.675921 -41.96 
L 140.668977 -41.96 
L 143.662033 -41.96 
L 146.655089 -41.96 
L 149.648145 -41.96 
L 152.641201 -41.96 
L 155.634258 -41.96 
L 158.627314 -41.96 
L 161.62037 -41.96 
L 164.613426 -41.96 
L 167.606482 -41.96 
L 170.599539 -41.96 
L 173.592595 -41.96 
L 176.585651 -41.96 
L 179.578707 -41.96 
L 182.571763 -41.96 
L 185.56482 -41.96 
L 188.557876 -41.96 
L 191.550932 -41.96 
L 194.543988 -41.96 
L 197.537044 -41.96 
L 200.530101 -41.96 
L 203.523157 -41.96 
L 206.516213 -41.96 
L 209.509269 -41.96 
L 212.502325 -41.96 
L 215.495381 -41.96 
L 218.488438 -41.96 
L 221.481494 -41.96 
L 224.47455 -41.96 
L 227.467606 -41.96 
L 230.460662 -41.96 
L 233.453719 -41.96 
L 236.446775 -41.96 
L 239.439831 -41.96 
L 242.432887 -41.96 
L 245.425943 -41.96 
L 248.419 -41.96 
L 251.412056 -41.96 
L 254.405112 -41.96 
L 257.398168 -41.96 
L 260.391224 -41.96 
L 263.38428 -41.96 
L 266.377337 -41.96 
L 269.370393 -41.96 
L 272.363449 -41.96 
L 275.356505 -41.96 
L 278.349561 -41.96 
L 281.342618 -41.96 
L 284.335674 -41.96 
L 287.32873 -41.96 
L 290.321786 -41.96 
L 293.314842 -41.96 
L 296.307899 -41.96 
L 299.300955 -41.96 
L 302.294011 -41.96 
L 305.287067 -41.96 
L 308.280123 -41.96 
L 311.27318 -41.96 
L 314.266236 -41.96 
L 317.259292 -41.96 
L 320.252348 -41.96 
L 323.245404 -41.96 
L 326.23846 -41.96 
L 329.231517 -41.96 
L 332.224573 -41.96 
L 335.217629 -41.96 
L 338.210685 -41.96 
L 341.203741 -41.96 
L 344.196798 -41.96 
L 347.189854 -41.96 
L 350.18291 -41.96 
L 353.175966 -41.96 
L 356.169022 -41.96 
L 359.162079 -41.96 
L 362.155135 -41.96 
L 365.148191 -41.96 
L 368.141247 -41.96 
L 371.134303 -41.96 
L 374.12736 -41.96 
L 377.120416 -41.96 
L 380.113472 -41.96 
L 383.106528 -41.96 
L 386.099584 -41.96 
L 389.09264 -41.96 
L 392.085697 -41.96 
L 395.078753 -41.96 
L 398.071809 -41.96 
L 401.064865 -41.96 
L 404.057921 -41.96 
L 407.050978 -41.96 
L 410.044034 -41.96 
L 413.03709 -41.96 
L 416.030146 -41.96 
L 419.023202 -41.96 
L 422.016259 -41.96 
L 425.009315 -41.96 
L 428.002371 -41.96 
L 430.995427 -41.96 
L 433.988483 -41.96 
L 436.98154 -41.96 
L 439.974596 -41.96 
L 442.967652 -41.96 
L 445.960708 -41.96 
L 448.953764 -41.96 
L 451.94682 -41.96 
L 454.939877 -41.96 
L 457.932933 -41.96 
L 460.925989 -41.96 
L 463.919045 -41.96 
L 466.912101 -41.96 
L 469.905158 -41.96 
L 472.898214 -41.96 
L 475.89127 -41.96 
L 478.884326 -41.96 
L 481.877382 -41.96 
L 484.870439 -41.96 
L 487.863495 -41.96 
L 490.856551 -41.96 
L 493.849607 -41.96 
L 496.842663 -41.96 
L 499.83572 -41.96 
L 502.828776 -41.96 
L 505.821832 -41.96 
L 508.814888 -41.96 
L 511.807944 -41.96 
L 514.801 -41.96 
L 517.794057 -41.96 
L 520.787113 -41.96 
L 523.780169 -41.96 
L 526.773225 -41.96 
L 529.766281 -41.96 
L 532.759338 -41.96 
L 535.752394 -41.96 
L 538.74545 -41.96 
L 541.738506 -41.96 
L 544.731562 -41.96 
L 547.724619 -41.96 
L 550.717675 -41.96 
L 553.710731 -41.96 
L 556.703787 -41.96 
L 559.696843 -41.96 
L 562.689899 -41.96 
L 565.682956 -41.96 
L 568.676012 -41.96 
L 571.669068 -41.96 
L 574.662124 -41.96 
L 577.65518 -41.96 
L 580.648237 -41.96 
L 583.641293 -41.96 
L 586.634349 -41.96 
L 589.627405 -41.96 
L 592.620461 -41.96 
L 595.613518 -41.96 
L 598.606574 -41.96 
L 601.59963 -41.96 
L 604.592686 -41.96 
L 607.585742 -41.96 
L 610.578799 -41.96 
L 613.571855 -41.96 
L 616.564911 -41.96 
L 619.557967 -41.96 
L 622.551023 -41.96 
L 625.544079 -41.96 
L 628.537136 -41.96 
L 631.530192 -41.96 
L 634.523248 -41.96 
L 637.516304 -41.96 
L 640.50936 -41.96 
L 643.502417 -41.96 
L 646.495473 -41.96 
L 649.488529 -41.96 
L 652.481585 -41.96 
L 655.474641 -41.96 
L 658.467698 -41.96 
L 661.460754 -41.96 
L 664.45381 -41.96 
L 667.446866 -41.96 
L 670.439922 -41.96 
L 673.432979 -41.96 
L 676.426035 -41.96 
L 679.419091 -41.96 
L 679.419091 -41.96396 
L 679.419091 -41.96396 
L 676.426035 -41.968941 
L 673.432979 -41.975817 
L 670.439922 -41.981929 
L 667.446866 -41.983848 
L 664.45381 -41.980446 
L 661.460754 -41.974163 
L 658.467698 -41.968817 
L 655.474641 -41.966572 
L 652.481585 -41.966959 
L 649.488529 -41.968015 
L 646.495473 -41.968151 
L 643.502417 -41.967578 
L 640.50936 -41.968434 
L 637.516304 -41.973341 
L 634.523248 -41.982901 
L 631.530192 -41.993739 
L 628.537136 -41.999756 
L 625.544079 -41.997079 
L 622.551023 -41.987979 
L 619.557967 -41.979039 
L 616.564911 -41.975655 
L 613.571855 -41.978569 
L 610.578799 -41.984762 
L 607.585742 -41.991394 
L 604.592686 -41.999236 
L 601.59963 -42.011066 
L 598.606574 -42.025445 
L 595.613518 -42.034364 
L 592.620461 -42.030468 
L 589.627405 -42.015872 
L 586.634349 -42.000947 
L 583.641293 -41.994808 
L 580.648237 -41.998652 
L 577.65518 -42.006958 
L 574.662124 -42.0134 
L 571.669068 -42.016476 
L 568.676012 -42.020218 
L 565.682956 -42.028964 
L 562.689899 -42.041729 
L 559.696843 -42.05231 
L 556.703787 -42.054333 
L 553.710731 -42.046184 
L 550.717675 -42.032329 
L 547.724619 -42.01988 
L 544.731562 -42.012949 
L 541.738506 -42.010761 
L 538.74545 -42.011415 
L 535.752394 -42.015064 
L 532.759338 -42.02146 
L 529.766281 -42.026687 
L 526.773225 -42.026287 
L 523.780169 -42.021386 
L 520.787113 -42.01783 
L 517.794057 -42.018403 
L 514.801 -42.019507 
L 511.807944 -42.01713 
L 508.814888 -42.013077 
L 505.821832 -42.013165 
L 502.828776 -42.020939 
L 499.83572 -42.034526 
L 496.842663 -42.048371 
L 493.849607 -42.057198 
L 490.856551 -42.059195 
L 487.863495 -42.056103 
L 484.870439 -42.050684 
L 481.877382 -42.044876 
L 478.884326 -42.040352 
L 475.89127 -42.039313 
L 472.898214 -42.043297 
L 469.905158 -42.051559 
L 466.912101 -42.061885 
L 463.919045 -42.073016 
L 460.925989 -42.085261 
L 457.932933 -42.098668 
L 454.939877 -42.111627 
L 451.94682 -42.121974 
L 448.953764 -42.129579 
L 445.960708 -42.138061 
L 442.967652 -42.153278 
L 439.974596 -42.178043 
L 436.98154 -42.20761 
L 433.988483 -42.232304 
L 430.995427 -42.245984 
L 428.002371 -42.251538 
L 425.009315 -42.258561 
L 422.016259 -42.27603 
L 419.023202 -42.305473 
L 416.030146 -42.340449 
L 413.03709 -42.374087 
L 410.044034 -42.406145 
L 407.050978 -42.439566 
L 404.057921 -42.472104 
L 401.064865 -42.498347 
L 398.071809 -42.52208 
L 395.078753 -42.560225 
L 392.085697 -42.629005 
L 389.09264 -42.727084 
L 386.099584 -42.833457 
L 383.106528 -42.922141 
L 380.113472 -42.984126 
L 377.120416 -43.038489 
L 374.12736 -43.115632 
L 371.134303 -43.225403 
L 368.141247 -43.348497 
L 365.148191 -43.46245 
L 362.155135 -43.568957 
L 359.162079 -43.693312 
L 356.169022 -43.862532 
L 353.175966 -44.082903 
L 350.18291 -44.332461 
L 347.189854 -44.575465 
L 344.196798 -44.788212 
L 341.203741 -44.973457 
L 338.210685 -45.155296 
L 335.217629 -45.364563 
L 332.224573 -45.624468 
L 329.231517 -45.940195 
L 326.23846 -46.295035 
L 323.245404 -46.657884 
L 320.252348 -47.005196 
L 317.259292 -47.346611 
L 314.266236 -47.731867 
L 311.27318 -48.226316 
L 308.280123 -48.860188 
L 305.287067 -49.580631 
L 302.294011 -50.261687 
L 299.300955 -50.792765 
L 296.307899 -51.173304 
L 293.314842 -51.525348 
L 290.321786 -52.02147 
L 287.32873 -52.782097 
L 284.335674 -53.805215 
L 281.342618 -54.985157 
L 278.349561 -56.204712 
L 275.356505 -57.402765 
L 272.363449 -58.563492 
L 269.370393 -59.677862 
L 266.377337 -60.739013 
L 263.38428 -61.765293 
L 260.391224 -62.810539 
L 257.398168 -63.94906 
L 254.405112 -65.249013 
L 251.412056 -66.751399 
L 248.419 -68.467083 
L 245.425943 -70.383093 
L 242.432887 -72.447925 
L 239.439831 -74.533011 
L 236.446775 -76.43106 
L 233.453719 -77.945102 
L 230.460662 -79.012456 
L 227.467606 -79.743719 
L 224.47455 -80.342731 
L 221.481494 -80.966029 
L 218.488438 -81.61187 
L 215.495381 -82.143629 
L 212.502325 -82.461255 
L 209.509269 -82.661206 
L 206.516213 -83.00812 
L 203.523157 -83.706289 
L 200.530101 -84.600212 
L 197.537044 -85.057799 
L 194.543988 -84.297379 
L 191.550932 -81.999822 
L 188.557876 -78.59691 
L 185.56482 -74.940956 
L 182.571763 -71.728435 
L 179.578707 -69.137556 
L 176.585651 -66.85832 
L 173.592595 -64.468747 
L 170.599539 -61.83885 
L 167.606482 -59.174968 
L 164.613426 -56.73352 
L 161.62037 -54.590987 
L 158.627314 -52.667141 
L 155.634258 -50.866679 
L 152.641201 -49.170564 
L 149.648145 -47.636919 
L 146.655089 -46.342983 
L 143.662033 -45.323929 
L 140.668977 -44.5565 
L 137.675921 -43.983926 
L 134.682864 -43.546685 
L 131.689808 -43.199156 
L 128.696752 -42.913637 
L 125.703696 -42.677924 
L 122.71064 -42.489141 
L 119.717583 -42.345303 
L 116.724527 -42.239489 
L 113.731471 -42.161228 
L 110.738415 -42.101934 
L 107.745359 -42.057196 
L 104.752302 -42.024571 
L 101.759246 -42.001352 
L 98.76619 -41.984848 
L 95.773134 -41.973412 
L 92.780078 -41.966221 
L 89.787021 -41.962396 
L 86.793965 -41.960749 
L 83.800909 -41.960187 
z
" style="stroke: #000000"/>
    </defs>
    <g clip-path="url(#pcafe0375c3)">
     <use xlink:href="#m987f56036f" x="0" y="432" style="fill: #ff7f0e; fill-opacity: 0.75; stroke: #000000"/>
    </g>
   </g>
   <g id="PolyCollection_2">
    <defs>
     <path id="m60271c0570" d="M 83.800909 -41.960965 
L 83.800909 -41.960187 
L 86.793965 -41.960749 
L 89.787021 -41.962396 
L 92.780078 -41.966221 
L 95.773134 -41.973412 
L 98.76619 -41.984848 
L 101.759246 -42.001352 
L 104.752302 -42.024571 
L 107.745359 -42.057196 
L 110.738415 -42.101934 
L 113.731471 -42.161228 
L 116.724527 -42.239489 
L 119.717583 -42.345303 
L 122.71064 -42.489141 
L 125.703696 -42.677924 
L 128.696752 -42.913637 
L 131.689808 -43.199156 
L 134.682864 -43.546685 
L 137.675921 -43.983926 
L 140.668977 -44.5565 
L 143.662033 -45.323929 
L 146.655089 -46.342983 
L 149.648145 -47.636919 
L 152.641201 -49.170564 
L 155.634258 -50.866679 
L 158.627314 -52.667141 
L 161.62037 -54.590987 
L 164.613426 -56.73352 
L 167.606482 -59.174968 
L 170.599539 -61.83885 
L 173.592595 -64.468747 
L 176.585651 -66.85832 
L 179.578707 -69.137556 
L 182.571763 -71.728435 
L 185.56482 -74.940956 
L 188.557876 -78.59691 
L 191.550932 -81.999822 
L 194.543988 -84.297379 
L 197.537044 -85.057799 
L 200.530101 -84.600212 
L 203.523157 -83.706289 
L 206.516213 -83.00812 
L 209.509269 -82.661206 
L 212.502325 -82.461255 
L 215.495381 -82.143629 
L 218.488438 -81.61187 
L 221.481494 -80.966029 
L 224.47455 -80.342731 
L 227.467606 -79.743719 
L 230.460662 -79.012456 
L 233.453719 -77.945102 
L 236.446775 -76.43106 
L 239.439831 -74.533011 
L 242.432887 -72.447925 
L 245.425943 -70.383093 
L 248.419 -68.467083 
L 251.412056 -66.751399 
L 254.405112 -65.249013 
L 257.398168 -63.94906 
L 260.391224 -62.810539 
L 263.38428 -61.765293 
L 266.377337 -60.739013 
L 269.370393 -59.677862 
L 272.363449 -58.563492 
L 275.356505 -57.402765 
L 278.349561 -56.204712 
L 281.342618 -54.985157 
L 284.335674 -53.805215 
L 287.32873 -52.782097 
L 290.321786 -52.02147 
L 293.314842 -51.525348 
L 296.307899 -51.173304 
L 299.300955 -50.792765 
L 302.294011 -50.261687 
L 305.287067 -49.580631 
L 308.280123 -48.860188 
L 311.27318 -48.226316 
L 314.266236 -47.731867 
L 317.259292 -47.346611 
L 320.252348 -47.005196 
L 323.245404 -46.657884 
L 326.23846 -46.295035 
L 329.231517 -45.940195 
L 332.224573 -45.624468 
L 335.217629 -45.364563 
L 338.210685 -45.155296 
L 341.203741 -44.973457 
L 344.196798 -44.788212 
L 347.189854 -44.575465 
L 350.18291 -44.332461 
L 353.175966 -44.082903 
L 356.169022 -43.862532 
L 359.162079 -43.693312 
L 362.155135 -43.568957 
L 365.148191 -43.46245 
L 368.141247 -43.348497 
L 371.134303 -43.225403 
L 374.12736 -43.115632 
L 377.120416 -43.038489 
L 380.113472 -42.984126 
L 383.106528 -42.922141 
L 386.099584 -42.833457 
L 389.09264 -42.727084 
L 392.085697 -42.629005 
L 395.078753 -42.560225 
L 398.071809 -42.52208 
L 401.064865 -42.498347 
L 404.057921 -42.472104 
L 407.050978 -42.439566 
L 410.044034 -42.406145 
L 413.03709 -42.374087 
L 416.030146 -42.340449 
L 419.023202 -42.305473 
L 422.016259 -42.27603 
L 425.009315 -42.258561 
L 428.002371 -42.251538 
L 430.995427 -42.245984 
L 433.988483 -42.232304 
L 436.98154 -42.20761 
L 439.974596 -42.178043 
L 442.967652 -42.153278 
L 445.960708 -42.138061 
L 448.953764 -42.129579 
L 451.94682 -42.121974 
L 454.939877 -42.111627 
L 457.932933 -42.098668 
L 460.925989 -42.085261 
L 463.919045 -42.073016 
L 466.912101 -42.061885 
L 469.905158 -42.051559 
L 472.898214 -42.043297 
L 475.89127 -42.039313 
L 478.884326 -42.040352 
L 481.877382 -42.044876 
L 484.870439 -42.050684 
L 487.863495 -42.056103 
L 490.856551 -42.059195 
L 493.849607 -42.057198 
L 496.842663 -42.048371 
L 499.83572 -42.034526 
L 502.828776 -42.020939 
L 505.821832 -42.013165 
L 508.814888 -42.013077 
L 511.807944 -42.01713 
L 514.801 -42.019507 
L 517.794057 -42.018403 
L 520.787113 -42.01783 
L 523.780169 -42.021386 
L 526.773225 -42.026287 
L 529.766281 -42.026687 
L 532.759338 -42.02146 
L 535.752394 -42.015064 
L 538.74545 -42.011415 
L 541.738506 -42.010761 
L 544.731562 -42.012949 
L 547.724619 -42.01988 
L 550.717675 -42.032329 
L 553.710731 -42.046184 
L 556.703787 -42.054333 
L 559.696843 -42.05231 
L 562.689899 -42.041729 
L 565.682956 -42.028964 
L 568.676012 -42.020218 
L 571.669068 -42.016476 
L 574.662124 -42.0134 
L 577.65518 -42.006958 
L 580.648237 -41.998652 
L 583.641293 -41.994808 
L 586.634349 -42.000947 
L 589.627405 -42.015872 
L 592.620461 -42.030468 
L 595.613518 -42.034364 
L 598.606574 -42.025445 
L 601.59963 -42.011066 
L 604.592686 -41.999236 
L 607.585742 -41.991394 
L 610.578799 -41.984762 
L 613.571855 -41.978569 
L 616.564911 -41.975655 
L 619.557967 -41.979039 
L 622.551023 -41.987979 
L 625.544079 -41.997079 
L 628.537136 -41.999756 
L 631.530192 -41.993739 
L 634.523248 -41.982901 
L 637.516304 -41.973341 
L 640.50936 -41.968434 
L 643.502417 -41.967578 
L 646.495473 -41.968151 
L 649.488529 -41.968015 
L 652.481585 -41.966959 
L 655.474641 -41.966572 
L 658.467698 -41.968817 
L 661.460754 -41.974163 
L 664.45381 -41.980446 
L 667.446866 -41.983848 
L 670.439922 -41.981929 
L 673.432979 -41.975817 
L 676.426035 -41.968941 
L 679.419091 -41.96396 
L 679.419091 -41.964477 
L 679.419091 -41.964477 
L 676.426035 -41.973079 
L 673.432979 -41.993583 
L 670.439922 -42.022822 
L 667.446866 -42.034359 
L 664.45381 -42.014296 
L 661.460754 -41.988754 
L 658.467698 -41.981663 
L 655.474641 -41.998794 
L 652.481585 -42.046477 
L 649.488529 -42.102081 
L 646.495473 -42.099354 
L 643.502417 -42.038006 
L 640.50936 -41.990233 
L 637.516304 -41.991029 
L 634.523248 -42.060686 
L 631.530192 -42.215692 
L 628.537136 -42.341649 
L 625.544079 -42.283519 
L 622.551023 -42.124885 
L 619.557967 -42.028164 
L 616.564911 -42.021221 
L 613.571855 -42.100952 
L 610.578799 -42.246101 
L 607.585742 -42.318333 
L 604.592686 -42.251165 
L 601.59963 -42.238367 
L 598.606574 -42.447731 
L 595.613518 -42.687784 
L 592.620461 -42.608627 
L 589.627405 -42.299428 
L 586.634349 -42.085697 
L 583.641293 -42.041781 
L 580.648237 -42.146906 
L 577.65518 -42.374856 
L 574.662124 -42.513164 
L 571.669068 -42.394155 
L 568.676012 -42.235474 
L 565.682956 -42.284787 
L 562.689899 -42.480797 
L 559.696843 -42.637451 
L 556.703787 -42.706067 
L 553.710731 -42.62025 
L 550.717675 -42.39347 
L 547.724619 -42.327537 
L 544.731562 -42.57642 
L 541.738506 -42.802263 
L 538.74545 -42.639165 
L 535.752394 -42.353054 
L 532.759338 -42.367053 
L 529.766281 -42.591819 
L 526.773225 -42.6192 
L 523.780169 -42.407015 
L 520.787113 -42.31817 
L 517.794057 -42.491963 
L 514.801 -42.655845 
L 511.807944 -42.581376 
L 508.814888 -42.456028 
L 505.821832 -42.498292 
L 502.828776 -42.631461 
L 499.83572 -42.604357 
L 496.842663 -42.434281 
L 493.849607 -42.399366 
L 490.856551 -42.561847 
L 487.863495 -42.662972 
L 484.870439 -42.526529 
L 481.877382 -42.327922 
L 478.884326 -42.21408 
L 475.89127 -42.171377 
L 472.898214 -42.168315 
L 469.905158 -42.187161 
L 466.912101 -42.208751 
L 463.919045 -42.225035 
L 460.925989 -42.229384 
L 457.932933 -42.215467 
L 454.939877 -42.212127 
L 451.94682 -42.239544 
L 448.953764 -42.287695 
L 445.960708 -42.343472 
L 442.967652 -42.408541 
L 439.974596 -42.461231 
L 436.98154 -42.506306 
L 433.988483 -42.567654 
L 430.995427 -42.645612 
L 428.002371 -42.698429 
L 425.009315 -42.695952 
L 422.016259 -42.715668 
L 419.023202 -42.812131 
L 416.030146 -42.946824 
L 413.03709 -43.011683 
L 410.044034 -43.023437 
L 407.050978 -43.050467 
L 404.057921 -43.114556 
L 401.064865 -43.232516 
L 398.071809 -43.411202 
L 395.078753 -43.611267 
L 392.085697 -43.769764 
L 389.09264 -43.976022 
L 386.099584 -44.265248 
L 383.106528 -44.567033 
L 380.113472 -44.633657 
L 377.120416 -44.536878 
L 374.12736 -44.711575 
L 371.134303 -45.284058 
L 368.141247 -45.82871 
L 365.148191 -45.984671 
L 362.155135 -46.050747 
L 359.162079 -46.246039 
L 356.169022 -46.667061 
L 353.175966 -47.2665 
L 350.18291 -48.016145 
L 347.189854 -48.661459 
L 344.196798 -49.148149 
L 341.203741 -49.653919 
L 338.210685 -50.216004 
L 335.217629 -50.986242 
L 332.224573 -51.894146 
L 329.231517 -53.001189 
L 326.23846 -53.963835 
L 323.245404 -54.906294 
L 320.252348 -55.721518 
L 317.259292 -56.548278 
L 314.266236 -57.760918 
L 311.27318 -59.525817 
L 308.280123 -61.916101 
L 305.287067 -64.6215 
L 302.294011 -67.484747 
L 299.300955 -69.437913 
L 296.307899 -70.975964 
L 293.314842 -71.901671 
L 290.321786 -72.923709 
L 287.32873 -75.133505 
L 284.335674 -78.826023 
L 281.342618 -83.524345 
L 278.349561 -88.479886 
L 275.356505 -93.724197 
L 272.363449 -97.833667 
L 269.370393 -102.388732 
L 266.377337 -107.289645 
L 263.38428 -113.149492 
L 260.391224 -118.171518 
L 257.398168 -122.647585 
L 254.405112 -128.139795 
L 251.412056 -134.752108 
L 248.419 -143.813653 
L 245.425943 -154.210439 
L 242.432887 -167.017673 
L 239.439831 -178.80614 
L 236.446775 -191.766081 
L 233.453719 -203.364738 
L 230.460662 -215.384245 
L 227.467606 -227.982557 
L 224.47455 -241.1006 
L 221.481494 -255.914099 
L 218.488438 -268.490012 
L 215.495381 -281.317501 
L 212.502325 -286.787787 
L 209.509269 -292.656699 
L 206.516213 -299.629233 
L 203.523157 -314.499715 
L 200.530101 -342.49349 
L 197.537044 -381.02182 
L 194.543988 -403.140952 
L 191.550932 -389.905538 
L 188.557876 -368.072697 
L 185.56482 -342.908366 
L 182.571763 -327.403755 
L 179.578707 -323.92161 
L 176.585651 -328.507907 
L 173.592595 -321.317398 
L 170.599539 -301.402687 
L 167.606482 -282.524381 
L 164.613426 -263.776008 
L 161.62037 -246.598698 
L 158.627314 -222.427541 
L 155.634258 -198.736801 
L 152.641201 -174.675204 
L 149.648145 -152.735693 
L 146.655089 -133.980978 
L 143.662033 -116.992424 
L 140.668977 -101.883182 
L 137.675921 -86.52281 
L 134.682864 -74.239774 
L 131.689808 -64.635067 
L 128.696752 -57.695135 
L 125.703696 -52.948981 
L 122.71064 -49.620418 
L 119.717583 -47.235944 
L 116.724527 -45.403299 
L 113.731471 -44.167514 
L 110.738415 -43.322964 
L 107.745359 -42.808904 
L 104.752302 -42.525494 
L 101.759246 -42.355455 
L 98.76619 -42.221341 
L 95.773134 -42.114871 
L 92.780078 -42.040641 
L 89.787021 -41.990458 
L 86.793965 -41.967039 
L 83.800909 -41.960965 
z
" style="stroke: #000000"/>
    </defs>
    <g clip-path="url(#pcafe0375c3)">
     <use xlink:href="#m60271c0570" x="0" y="432" style="fill: #1f77b4; fill-opacity: 0.75; stroke: #000000"/>
    </g>
   </g>
   <g id="matplotlib.axis_1">
    <g id="xtick_1">
     <g id="line2d_1">
      <defs>
       <path id="mec4ad35343" d="M 0 0 
L 0 3.5 
" style="stroke: #000000; stroke-width: 0.8"/>
      </defs>
      <g>
       <use xlink:href="#mec4ad35343" x="148.556581" y="390.04" style="stroke: #000000; stroke-width: 0.8"/>
      </g>
     </g>
     <g id="text_1">
      <!-- 20 -->
      <g transform="translate(142.194081 404.638438) scale(0.1 -0.1)">
       <defs>
        <path id="DejaVuSans-32" d="M 1228 531 
L 3431 531 
L 3431 0 
L 469 0 
L 469 531 
Q 828 903 1448 1529 
Q 2069 2156 2228 2338 
Q 2531 2678 2651 2914 
Q 2772 3150 2772 3378 
Q 2772 3750 2511 3984 
Q 2250 4219 1831 4219 
Q 1534 4219 1204 4116 
Q 875 4013 500 3803 
L 500 4441 
Q 881 4594 1212 4672 
Q 1544 4750 1819 4750 
Q 2544 4750 2975 4387 
Q 3406 4025 3406 3419 
Q 3406 3131 3298 2873 
Q 3191 2616 2906 2266 
Q 2828 2175 2409 1742 
Q 1991 1309 1228 531 
z
" transform="scale(0.015625)"/>
        <path id="DejaVuSans-30" d="M 2034 4250 
Q 1547 4250 1301 3770 
Q 1056 3291 1056 2328 
Q 1056 1369 1301 889 
Q 1547 409 2034 409 
Q 2525 409 2770 889 
Q 3016 1369 3016 2328 
Q 3016 3291 2770 3770 
Q 2525 4250 2034 4250 
z
M 2034 4750 
Q 2819 4750 3233 4129 
Q 3647 3509 3647 2328 
Q 3647 1150 3233 529 
Q 2819 -91 2034 -91 
Q 1250 -91 836 529 
Q 422 1150 422 2328 
Q 422 3509 836 4129 
Q 1250 4750 2034 4750 
z
" transform="scale(0.015625)"/>
       </defs>
       <use xlink:href="#DejaVuSans-32"/>
       <use xlink:href="#DejaVuSans-30" x="63.623047"/>
      </g>
     </g>
    </g>
    <g id="xtick_2">
     <g id="line2d_2">
      <g>
       <use xlink:href="#mec4ad35343" x="281.729963" y="390.04" style="stroke: #000000; stroke-width: 0.8"/>
      </g>
     </g>
     <g id="text_2">
      <!-- 40 -->
      <g transform="translate(275.367463 404.638438) scale(0.1 -0.1)">
       <defs>
        <path id="DejaVuSans-34" d="M 2419 4116 
L 825 1625 
L 2419 1625 
L 2419 4116 
z
M 2253 4666 
L 3047 4666 
L 3047 1625 
L 3713 1625 
L 3713 1100 
L 3047 1100 
L 3047 0 
L 2419 0 
L 2419 1100 
L 313 1100 
L 313 1709 
L 2253 4666 
z
" transform="scale(0.015625)"/>
       </defs>
       <use xlink:href="#DejaVuSans-34"/>
       <use xlink:href="#DejaVuSans-30" x="63.623047"/>
      </g>
     </g>
    </g>
    <g id="xtick_3">
     <g id="line2d_3">
      <g>
       <use xlink:href="#mec4ad35343" x="414.903346" y="390.04" style="stroke: #000000; stroke-width: 0.8"/>
      </g>
     </g>
     <g id="text_3">
      <!-- 60 -->
      <g transform="translate(408.540846 404.638438) scale(0.1 -0.1)">
       <defs>
        <path id="DejaVuSans-36" d="M 2113 2584 
Q 1688 2584 1439 2293 
Q 1191 2003 1191 1497 
Q 1191 994 1439 701 
Q 1688 409 2113 409 
Q 2538 409 2786 701 
Q 3034 994 3034 1497 
Q 3034 2003 2786 2293 
Q 2538 2584 2113 2584 
z
M 3366 4563 
L 3366 3988 
Q 3128 4100 2886 4159 
Q 2644 4219 2406 4219 
Q 1781 4219 1451 3797 
Q 1122 3375 1075 2522 
Q 1259 2794 1537 2939 
Q 1816 3084 2150 3084 
Q 2853 3084 3261 2657 
Q 3669 2231 3669 1497 
Q 3669 778 3244 343 
Q 2819 -91 2113 -91 
Q 1303 -91 875 529 
Q 447 1150 447 2328 
Q 447 3434 972 4092 
Q 1497 4750 2381 4750 
Q 2619 4750 2861 4703 
Q 3103 4656 3366 4563 
z
" transform="scale(0.015625)"/>
       </defs>
       <use xlink:href="#DejaVuSans-36"/>
       <use xlink:href="#DejaVuSans-30" x="63.623047"/>
      </g>
     </g>
    </g>
    <g id="xtick_4">
     <g id="line2d_4">
      <g>
       <use xlink:href="#mec4ad35343" x="548.076728" y="390.04" style="stroke: #000000; stroke-width: 0.8"/>
      </g>
     </g>
     <g id="text_4">
      <!-- 80 -->
      <g transform="translate(541.714228 404.638438) scale(0.1 -0.1)">
       <defs>
        <path id="DejaVuSans-38" d="M 2034 2216 
Q 1584 2216 1326 1975 
Q 1069 1734 1069 1313 
Q 1069 891 1326 650 
Q 1584 409 2034 409 
Q 2484 409 2743 651 
Q 3003 894 3003 1313 
Q 3003 1734 2745 1975 
Q 2488 2216 2034 2216 
z
M 1403 2484 
Q 997 2584 770 2862 
Q 544 3141 544 3541 
Q 544 4100 942 4425 
Q 1341 4750 2034 4750 
Q 2731 4750 3128 4425 
Q 3525 4100 3525 3541 
Q 3525 3141 3298 2862 
Q 3072 2584 2669 2484 
Q 3125 2378 3379 2068 
Q 3634 1759 3634 1313 
Q 3634 634 3220 271 
Q 2806 -91 2034 -91 
Q 1263 -91 848 271 
Q 434 634 434 1313 
Q 434 1759 690 2068 
Q 947 2378 1403 2484 
z
M 1172 3481 
Q 1172 3119 1398 2916 
Q 1625 2713 2034 2713 
Q 2441 2713 2670 2916 
Q 2900 3119 2900 3481 
Q 2900 3844 2670 4047 
Q 2441 4250 2034 4250 
Q 1625 4250 1398 4047 
Q 1172 3844 1172 3481 
z
" transform="scale(0.015625)"/>
       </defs>
       <use xlink:href="#DejaVuSans-38"/>
       <use xlink:href="#DejaVuSans-30" x="63.623047"/>
      </g>
     </g>
    </g>
    <g id="xtick_5">
     <g id="line2d_5">
      <g>
       <use xlink:href="#mec4ad35343" x="681.25011" y="390.04" style="stroke: #000000; stroke-width: 0.8"/>
      </g>
     </g>
     <g id="text_5">
      <!-- 100 -->
      <g transform="translate(671.70636 404.638438) scale(0.1 -0.1)">
       <defs>
        <path id="DejaVuSans-31" d="M 794 531 
L 1825 531 
L 1825 4091 
L 703 3866 
L 703 4441 
L 1819 4666 
L 2450 4666 
L 2450 531 
L 3481 531 
L 3481 0 
L 794 0 
L 794 531 
z
" transform="scale(0.015625)"/>
       </defs>
       <use xlink:href="#DejaVuSans-31"/>
       <use xlink:href="#DejaVuSans-30" x="63.623047"/>
       <use xlink:href="#DejaVuSans-30" x="127.246094"/>
      </g>
     </g>
    </g>
    <g id="text_6">
     <!-- BMI -->
     <g transform="translate(372.390469 418.316562) scale(0.1 -0.1)">
      <defs>
       <path id="DejaVuSans-42" d="M 1259 2228 
L 1259 519 
L 2272 519 
Q 2781 519 3026 730 
Q 3272 941 3272 1375 
Q 3272 1813 3026 2020 
Q 2781 2228 2272 2228 
L 1259 2228 
z
M 1259 4147 
L 1259 2741 
L 2194 2741 
Q 2656 2741 2882 2914 
Q 3109 3088 3109 3444 
Q 3109 3797 2882 3972 
Q 2656 4147 2194 4147 
L 1259 4147 
z
M 628 4666 
L 2241 4666 
Q 2963 4666 3353 4366 
Q 3744 4066 3744 3513 
Q 3744 3084 3544 2831 
Q 3344 2578 2956 2516 
Q 3422 2416 3680 2098 
Q 3938 1781 3938 1306 
Q 3938 681 3513 340 
Q 3088 0 2303 0 
L 628 0 
L 628 4666 
z
" transform="scale(0.015625)"/>
       <path id="DejaVuSans-4d" d="M 628 4666 
L 1569 4666 
L 2759 1491 
L 3956 4666 
L 4897 4666 
L 4897 0 
L 4281 0 
L 4281 4097 
L 3078 897 
L 2444 897 
L 1241 4097 
L 1241 0 
L 628 0 
L 628 4666 
z
" transform="scale(0.015625)"/>
       <path id="DejaVuSans-49" d="M 628 4666 
L 1259 4666 
L 1259 0 
L 628 0 
L 628 4666 
z
" transform="scale(0.015625)"/>
      </defs>
      <use xlink:href="#DejaVuSans-42"/>
      <use xlink:href="#DejaVuSans-4d" x="68.603516"/>
      <use xlink:href="#DejaVuSans-49" x="154.882812"/>
     </g>
    </g>
   </g>
   <g id="matplotlib.axis_2">
    <g id="ytick_1">
     <g id="line2d_6">
      <defs>
       <path id="maef3674a10" d="M 0 0 
L -3.5 0 
" style="stroke: #000000; stroke-width: 0.8"/>
      </defs>
      <g>
       <use xlink:href="#maef3674a10" x="54.02" y="390.04" style="stroke: #000000; stroke-width: 0.8"/>
      </g>
     </g>
     <g id="text_7">
      <!-- 0.00 -->
      <g transform="translate(24.754375 393.839219) scale(0.1 -0.1)">
       <defs>
        <path id="DejaVuSans-2e" d="M 684 794 
L 1344 794 
L 1344 0 
L 684 0 
L 684 794 
z
" transform="scale(0.015625)"/>
       </defs>
       <use xlink:href="#DejaVuSans-30"/>
       <use xlink:href="#DejaVuSans-2e" x="63.623047"/>
       <use xlink:href="#DejaVuSans-30" x="95.410156"/>
       <use xlink:href="#DejaVuSans-30" x="159.033203"/>
      </g>
     </g>
    </g>
    <g id="ytick_2">
     <g id="line2d_7">
      <g>
       <use xlink:href="#maef3674a10" x="54.02" y="306.712669" style="stroke: #000000; stroke-width: 0.8"/>
      </g>
     </g>
     <g id="text_8">
      <!-- 0.02 -->
      <g transform="translate(24.754375 310.511888) scale(0.1 -0.1)">
       <use xlink:href="#DejaVuSans-30"/>
       <use xlink:href="#DejaVuSans-2e" x="63.623047"/>
       <use xlink:href="#DejaVuSans-30" x="95.410156"/>
       <use xlink:href="#DejaVuSans-32" x="159.033203"/>
      </g>
     </g>
    </g>
    <g id="ytick_3">
     <g id="line2d_8">
      <g>
       <use xlink:href="#maef3674a10" x="54.02" y="223.385339" style="stroke: #000000; stroke-width: 0.8"/>
      </g>
     </g>
     <g id="text_9">
      <!-- 0.04 -->
      <g transform="translate(24.754375 227.184557) scale(0.1 -0.1)">
       <use xlink:href="#DejaVuSans-30"/>
       <use xlink:href="#DejaVuSans-2e" x="63.623047"/>
       <use xlink:href="#DejaVuSans-30" x="95.410156"/>
       <use xlink:href="#DejaVuSans-34" x="159.033203"/>
      </g>
     </g>
    </g>
    <g id="ytick_4">
     <g id="line2d_9">
      <g>
       <use xlink:href="#maef3674a10" x="54.02" y="140.058008" style="stroke: #000000; stroke-width: 0.8"/>
      </g>
     </g>
     <g id="text_10">
      <!-- 0.06 -->
      <g transform="translate(24.754375 143.857227) scale(0.1 -0.1)">
       <use xlink:href="#DejaVuSans-30"/>
       <use xlink:href="#DejaVuSans-2e" x="63.623047"/>
       <use xlink:href="#DejaVuSans-30" x="95.410156"/>
       <use xlink:href="#DejaVuSans-36" x="159.033203"/>
      </g>
     </g>
    </g>
    <g id="ytick_5">
     <g id="line2d_10">
      <g>
       <use xlink:href="#maef3674a10" x="54.02" y="56.730677" style="stroke: #000000; stroke-width: 0.8"/>
      </g>
     </g>
     <g id="text_11">
      <!-- 0.08 -->
      <g transform="translate(24.754375 60.529896) scale(0.1 -0.1)">
       <use xlink:href="#DejaVuSans-30"/>
       <use xlink:href="#DejaVuSans-2e" x="63.623047"/>
       <use xlink:href="#DejaVuSans-30" x="95.410156"/>
       <use xlink:href="#DejaVuSans-38" x="159.033203"/>
      </g>
     </g>
    </g>
    <g id="text_12">
     <!-- Density -->
     <g transform="translate(18.674688 219.428594) rotate(-90) scale(0.1 -0.1)">
      <defs>
       <path id="DejaVuSans-44" d="M 1259 4147 
L 1259 519 
L 2022 519 
Q 2988 519 3436 956 
Q 3884 1394 3884 2338 
Q 3884 3275 3436 3711 
Q 2988 4147 2022 4147 
L 1259 4147 
z
M 628 4666 
L 1925 4666 
Q 3281 4666 3915 4102 
Q 4550 3538 4550 2338 
Q 4550 1131 3912 565 
Q 3275 0 1925 0 
L 628 0 
L 628 4666 
z
" transform="scale(0.015625)"/>
       <path id="DejaVuSans-65" d="M 3597 1894 
L 3597 1613 
L 953 1613 
Q 991 1019 1311 708 
Q 1631 397 2203 397 
Q 2534 397 2845 478 
Q 3156 559 3463 722 
L 3463 178 
Q 3153 47 2828 -22 
Q 2503 -91 2169 -91 
Q 1331 -91 842 396 
Q 353 884 353 1716 
Q 353 2575 817 3079 
Q 1281 3584 2069 3584 
Q 2775 3584 3186 3129 
Q 3597 2675 3597 1894 
z
M 3022 2063 
Q 3016 2534 2758 2815 
Q 2500 3097 2075 3097 
Q 1594 3097 1305 2825 
Q 1016 2553 972 2059 
L 3022 2063 
z
" transform="scale(0.015625)"/>
       <path id="DejaVuSans-6e" d="M 3513 2113 
L 3513 0 
L 2938 0 
L 2938 2094 
Q 2938 2591 2744 2837 
Q 2550 3084 2163 3084 
Q 1697 3084 1428 2787 
Q 1159 2491 1159 1978 
L 1159 0 
L 581 0 
L 581 3500 
L 1159 3500 
L 1159 2956 
Q 1366 3272 1645 3428 
Q 1925 3584 2291 3584 
Q 2894 3584 3203 3211 
Q 3513 2838 3513 2113 
z
" transform="scale(0.015625)"/>
       <path id="DejaVuSans-73" d="M 2834 3397 
L 2834 2853 
Q 2591 2978 2328 3040 
Q 2066 3103 1784 3103 
Q 1356 3103 1142 2972 
Q 928 2841 928 2578 
Q 928 2378 1081 2264 
Q 1234 2150 1697 2047 
L 1894 2003 
Q 2506 1872 2764 1633 
Q 3022 1394 3022 966 
Q 3022 478 2636 193 
Q 2250 -91 1575 -91 
Q 1294 -91 989 -36 
Q 684 19 347 128 
L 347 722 
Q 666 556 975 473 
Q 1284 391 1588 391 
Q 1994 391 2212 530 
Q 2431 669 2431 922 
Q 2431 1156 2273 1281 
Q 2116 1406 1581 1522 
L 1381 1569 
Q 847 1681 609 1914 
Q 372 2147 372 2553 
Q 372 3047 722 3315 
Q 1072 3584 1716 3584 
Q 2034 3584 2315 3537 
Q 2597 3491 2834 3397 
z
" transform="scale(0.015625)"/>
       <path id="DejaVuSans-69" d="M 603 3500 
L 1178 3500 
L 1178 0 
L 603 0 
L 603 3500 
z
M 603 4863 
L 1178 4863 
L 1178 4134 
L 603 4134 
L 603 4863 
z
" transform="scale(0.015625)"/>
       <path id="DejaVuSans-74" d="M 1172 4494 
L 1172 3500 
L 2356 3500 
L 2356 3053 
L 1172 3053 
L 1172 1153 
Q 1172 725 1289 603 
Q 1406 481 1766 481 
L 2356 481 
L 2356 0 
L 1766 0 
Q 1100 0 847 248 
Q 594 497 594 1153 
L 594 3053 
L 172 3053 
L 172 3500 
L 594 3500 
L 594 4494 
L 1172 4494 
z
" transform="scale(0.015625)"/>
       <path id="DejaVuSans-79" d="M 2059 -325 
Q 1816 -950 1584 -1140 
Q 1353 -1331 966 -1331 
L 506 -1331 
L 506 -850 
L 844 -850 
Q 1081 -850 1212 -737 
Q 1344 -625 1503 -206 
L 1606 56 
L 191 3500 
L 800 3500 
L 1894 763 
L 2988 3500 
L 3597 3500 
L 2059 -325 
z
" transform="scale(0.015625)"/>
      </defs>
      <use xlink:href="#DejaVuSans-44"/>
      <use xlink:href="#DejaVuSans-65" x="77.001953"/>
      <use xlink:href="#DejaVuSans-6e" x="138.525391"/>
      <use xlink:href="#DejaVuSans-73" x="201.904297"/>
      <use xlink:href="#DejaVuSans-69" x="254.003906"/>
      <use xlink:href="#DejaVuSans-74" x="281.787109"/>
      <use xlink:href="#DejaVuSans-79" x="320.996094"/>
     </g>
    </g>
   </g>
   <g id="patch_3">
    <path d="M 54.02 390.04 
L 54.02 10.8 
" style="fill: none; stroke: #000000; stroke-width: 0.8; stroke-linejoin: miter; stroke-linecap: square"/>
   </g>
   <g id="patch_4">
    <path d="M 709.2 390.04 
L 709.2 10.8 
" style="fill: none; stroke: #000000; stroke-width: 0.8; stroke-linejoin: miter; stroke-linecap: square"/>
   </g>
   <g id="patch_5">
    <path d="M 54.02 390.04 
L 709.2 390.04 
" style="fill: none; stroke: #000000; stroke-width: 0.8; stroke-linejoin: miter; stroke-linecap: square"/>
   </g>
   <g id="patch_6">
    <path d="M 54.02 10.8 
L 709.2 10.8 
" style="fill: none; stroke: #000000; stroke-width: 0.8; stroke-linejoin: miter; stroke-linecap: square"/>
   </g>
   <g id="legend_1">
    <g id="patch_7">
     <path d="M 617.1875 63.1125 
L 702.2 63.1125 
Q 704.2 63.1125 704.2 61.1125 
L 704.2 17.8 
Q 704.2 15.8 702.2 15.8 
L 617.1875 15.8 
Q 615.1875 15.8 615.1875 17.8 
L 615.1875 61.1125 
Q 615.1875 63.1125 617.1875 63.1125 
z
" style="fill: #ffffff; opacity: 0.8; stroke: #cccccc; stroke-linejoin: miter"/>
    </g>
    <g id="text_13">
     <!-- Diabetes_binary -->
     <g transform="translate(619.1875 27.398438) scale(0.1 -0.1)">
      <defs>
       <path id="DejaVuSans-61" d="M 2194 1759 
Q 1497 1759 1228 1600 
Q 959 1441 959 1056 
Q 959 750 1161 570 
Q 1363 391 1709 391 
Q 2188 391 2477 730 
Q 2766 1069 2766 1631 
L 2766 1759 
L 2194 1759 
z
M 3341 1997 
L 3341 0 
L 2766 0 
L 2766 531 
Q 2569 213 2275 61 
Q 1981 -91 1556 -91 
Q 1019 -91 701 211 
Q 384 513 384 1019 
Q 384 1609 779 1909 
Q 1175 2209 1959 2209 
L 2766 2209 
L 2766 2266 
Q 2766 2663 2505 2880 
Q 2244 3097 1772 3097 
Q 1472 3097 1187 3025 
Q 903 2953 641 2809 
L 641 3341 
Q 956 3463 1253 3523 
Q 1550 3584 1831 3584 
Q 2591 3584 2966 3190 
Q 3341 2797 3341 1997 
z
" transform="scale(0.015625)"/>
       <path id="DejaVuSans-62" d="M 3116 1747 
Q 3116 2381 2855 2742 
Q 2594 3103 2138 3103 
Q 1681 3103 1420 2742 
Q 1159 2381 1159 1747 
Q 1159 1113 1420 752 
Q 1681 391 2138 391 
Q 2594 391 2855 752 
Q 3116 1113 3116 1747 
z
M 1159 2969 
Q 1341 3281 1617 3432 
Q 1894 3584 2278 3584 
Q 2916 3584 3314 3078 
Q 3713 2572 3713 1747 
Q 3713 922 3314 415 
Q 2916 -91 2278 -91 
Q 1894 -91 1617 61 
Q 1341 213 1159 525 
L 1159 0 
L 581 0 
L 581 4863 
L 1159 4863 
L 1159 2969 
z
" transform="scale(0.015625)"/>
       <path id="DejaVuSans-5f" d="M 3263 -1063 
L 3263 -1509 
L -63 -1509 
L -63 -1063 
L 3263 -1063 
z
" transform="scale(0.015625)"/>
       <path id="DejaVuSans-72" d="M 2631 2963 
Q 2534 3019 2420 3045 
Q 2306 3072 2169 3072 
Q 1681 3072 1420 2755 
Q 1159 2438 1159 1844 
L 1159 0 
L 581 0 
L 581 3500 
L 1159 3500 
L 1159 2956 
Q 1341 3275 1631 3429 
Q 1922 3584 2338 3584 
Q 2397 3584 2469 3576 
Q 2541 3569 2628 3553 
L 2631 2963 
z
" transform="scale(0.015625)"/>
      </defs>
      <use xlink:href="#DejaVuSans-44"/>
      <use xlink:href="#DejaVuSans-69" x="77.001953"/>
      <use xlink:href="#DejaVuSans-61" x="104.785156"/>
      <use xlink:href="#DejaVuSans-62" x="166.064453"/>
      <use xlink:href="#DejaVuSans-65" x="229.541016"/>
      <use xlink:href="#DejaVuSans-74" x="291.064453"/>
      <use xlink:href="#DejaVuSans-65" x="330.273438"/>
      <use xlink:href="#DejaVuSans-73" x="391.796875"/>
      <use xlink:href="#DejaVuSans-5f" x="443.896484"/>
      <use xlink:href="#DejaVuSans-62" x="493.896484"/>
      <use xlink:href="#DejaVuSans-69" x="557.373047"/>
      <use xlink:href="#DejaVuSans-6e" x="585.15625"/>
      <use xlink:href="#DejaVuSans-61" x="648.535156"/>
      <use xlink:href="#DejaVuSans-72" x="709.814453"/>
      <use xlink:href="#DejaVuSans-79" x="750.927734"/>
     </g>
    </g>
    <g id="patch_8">
     <path d="M 642.5125 42.354688 
L 662.5125 42.354688 
L 662.5125 35.354688 
L 642.5125 35.354688 
z
" style="fill: #1f77b4; fill-opacity: 0.75; stroke: #000000; stroke-linejoin: miter"/>
    </g>
    <g id="text_14">
     <!-- 0 -->
     <g transform="translate(670.5125 42.354688) scale(0.1 -0.1)">
      <use xlink:href="#DejaVuSans-30"/>
     </g>
    </g>
    <g id="patch_9">
     <path d="M 642.5125 57.032813 
L 662.5125 57.032813 
L 662.5125 50.032813 
L 642.5125 50.032813 
z
" style="fill: #ff7f0e; fill-opacity: 0.75; stroke: #000000; stroke-linejoin: miter"/>
    </g>
    <g id="text_15">
     <!-- 1 -->
     <g transform="translate(670.5125 57.032813) scale(0.1 -0.1)">
      <use xlink:href="#DejaVuSans-31"/>
     </g>
    </g>
   </g>
  </g>
 </g>
 <defs>
  <clipPath id="pcafe0375c3">
   <rect x="54.02" y="10.8" width="655.18" height="379.24"/>
  </clipPath>
 </defs>
</svg>
