<?xml version="1.0" encoding="utf-8" standalone="no"?>
<!DOCTYPE svg PUBLIC "-//W3C//DTD SVG 1.1//EN"
  "http://www.w3.org/Graphics/SVG/1.1/DTD/svg11.dtd">
<svg xmlns:xlink="http://www.w3.org/1999/xlink" width="720pt" height="432pt" viewBox="0 0 720 432" xmlns="http://www.w3.org/2000/svg" version="1.1">
 <metadata>
  <rdf:RDF xmlns:dc="http://purl.org/dc/elements/1.1/" xmlns:cc="http://creativecommons.org/ns#" xmlns:rdf="http://www.w3.org/1999/02/22-rdf-syntax-ns#">
   <cc:Work>
    <dc:type rdf:resource="http://purl.org/dc/dcmitype/StillImage"/>
    <dc:date>2024-04-17T01:57:35.329578</dc:date>
    <dc:format>image/svg+xml</dc:format>
    <dc:creator>
     <cc:Agent>
      <dc:title>Matplotlib v3.8.3, https://matplotlib.org/</dc:title>
     </cc:Agent>
    </dc:creator>
   </cc:Work>
  </rdf:RDF>
 </metadata>
 <defs>
  <style type="text/css">*{stroke-linejoin: round; stroke-linecap: butt}</style>
 </defs>
 <g id="figure_1">
  <g id="patch_1">
   <path d="M 0 432 
L 720 432 
L 720 0 
L 0 0 
z
" style="fill: #ffffff"/>
  </g>
  <g id="axes_1">
   <g id="patch_2">
    <path d="M 54.02 390.04 
L 709.2 390.04 
L 709.2 10.8 
L 54.02 10.8 
z
" style="fill: #ffffff"/>
   </g>
   <g id="PolyCollection_1">
    <defs>
     <path id="m90938f6c0e" d="M 83.800909 -41.960148 
L 83.800909 -41.96 
L 86.793965 -41.96 
L 89.787021 -41.96 
L 92.780078 -41.96 
L 95.773134 -41.96 
L 98.76619 -41.96 
L 101.759246 -41.96 
L 104.752302 -41.96 
L 107.745359 -41.96 
L 110.738415 -41.96 
L 113.731471 -41.96 
L 116.724527 -41.96 
L 119.717583 -41.96 
L 122.71064 -41.96 
L 125.703696 -41.96 
L 128.696752 -41.96 
L 131.689808 -41.96 
L 134.682864 -41.96 
L 137.675921 -41.96 
L 140.668977 -41.96 
L 143.662033 -41.96 
L 146.655089 -41.96 
L 149.648145 -41.96 
L 152.641201 -41.96 
L 155.634258 -41.96 
L 158.627314 -41.96 
L 161.62037 -41.96 
L 164.613426 -41.96 
L 167.606482 -41.96 
L 170.599539 -41.96 
L 173.592595 -41.96 
L 176.585651 -41.96 
L 179.578707 -41.96 
L 182.571763 -41.96 
L 185.56482 -41.96 
L 188.557876 -41.96 
L 191.550932 -41.96 
L 194.543988 -41.96 
L 197.537044 -41.96 
L 200.530101 -41.96 
L 203.523157 -41.96 
L 206.516213 -41.96 
L 209.509269 -41.96 
L 212.502325 -41.96 
L 215.495381 -41.96 
L 218.488438 -41.96 
L 221.481494 -41.96 
L 224.47455 -41.96 
L 227.467606 -41.96 
L 230.460662 -41.96 
L 233.453719 -41.96 
L 236.446775 -41.96 
L 239.439831 -41.96 
L 242.432887 -41.96 
L 245.425943 -41.96 
L 248.419 -41.96 
L 251.412056 -41.96 
L 254.405112 -41.96 
L 257.398168 -41.96 
L 260.391224 -41.96 
L 263.38428 -41.96 
L 266.377337 -41.96 
L 269.370393 -41.96 
L 272.363449 -41.96 
L 275.356505 -41.96 
L 278.349561 -41.96 
L 281.342618 -41.96 
L 284.335674 -41.96 
L 287.32873 -41.96 
L 290.321786 -41.96 
L 293.314842 -41.96 
L 296.307899 -41.96 
L 299.300955 -41.96 
L 302.294011 -41.96 
L 305.287067 -41.96 
L 308.280123 -41.96 
L 311.27318 -41.96 
L 314.266236 -41.96 
L 317.259292 -41.96 
L 320.252348 -41.96 
L 323.245404 -41.96 
L 326.23846 -41.96 
L 329.231517 -41.96 
L 332.224573 -41.96 
L 335.217629 -41.96 
L 338.210685 -41.96 
L 341.203741 -41.96 
L 344.196798 -41.96 
L 347.189854 -41.96 
L 350.18291 -41.96 
L 353.175966 -41.96 
L 356.169022 -41.96 
L 359.162079 -41.96 
L 362.155135 -41.96 
L 365.148191 -41.96 
L 368.141247 -41.96 
L 371.134303 -41.96 
L 374.12736 -41.96 
L 377.120416 -41.96 
L 380.113472 -41.96 
L 383.106528 -41.96 
L 386.099584 -41.96 
L 389.09264 -41.96 
L 392.085697 -41.96 
L 395.078753 -41.96 
L 398.071809 -41.96 
L 401.064865 -41.96 
L 404.057921 -41.96 
L 407.050978 -41.96 
L 410.044034 -41.96 
L 413.03709 -41.96 
L 416.030146 -41.96 
L 419.023202 -41.96 
L 422.016259 -41.96 
L 425.009315 -41.96 
L 428.002371 -41.96 
L 430.995427 -41.96 
L 433.988483 -41.96 
L 436.98154 -41.96 
L 439.974596 -41.96 
L 442.967652 -41.96 
L 445.960708 -41.96 
L 448.953764 -41.96 
L 451.94682 -41.96 
L 454.939877 -41.96 
L 457.932933 -41.96 
L 460.925989 -41.96 
L 463.919045 -41.96 
L 466.912101 -41.96 
L 469.905158 -41.96 
L 472.898214 -41.96 
L 475.89127 -41.96 
L 478.884326 -41.96 
L 481.877382 -41.96 
L 484.870439 -41.96 
L 487.863495 -41.96 
L 490.856551 -41.96 
L 493.849607 -41.96 
L 496.842663 -41.96 
L 499.83572 -41.96 
L 502.828776 -41.96 
L 505.821832 -41.96 
L 508.814888 -41.96 
L 511.807944 -41.96 
L 514.801 -41.96 
L 517.794057 -41.96 
L 520.787113 -41.96 
L 523.780169 -41.96 
L 526.773225 -41.96 
L 529.766281 -41.96 
L 532.759338 -41.96 
L 535.752394 -41.96 
L 538.74545 -41.96 
L 541.738506 -41.96 
L 544.731562 -41.96 
L 547.724619 -41.96 
L 550.717675 -41.96 
L 553.710731 -41.96 
L 556.703787 -41.96 
L 559.696843 -41.96 
L 562.689899 -41.96 
L 565.682956 -41.96 
L 568.676012 -41.96 
L 571.669068 -41.96 
L 574.662124 -41.96 
L 577.65518 -41.96 
L 580.648237 -41.96 
L 583.641293 -41.96 
L 586.634349 -41.96 
L 589.627405 -41.96 
L 592.620461 -41.96 
L 595.613518 -41.96 
L 598.606574 -41.96 
L 601.59963 -41.96 
L 604.592686 -41.96 
L 607.585742 -41.96 
L 610.578799 -41.96 
L 613.571855 -41.96 
L 616.564911 -41.96 
L 619.557967 -41.96 
L 622.551023 -41.96 
L 625.544079 -41.96 
L 628.537136 -41.96 
L 631.530192 -41.96 
L 634.523248 -41.96 
L 637.516304 -41.96 
L 640.50936 -41.96 
L 643.502417 -41.96 
L 646.495473 -41.96 
L 649.488529 -41.96 
L 652.481585 -41.96 
L 655.474641 -41.96 
L 658.467698 -41.96 
L 661.460754 -41.96 
L 664.45381 -41.96 
L 667.446866 -41.96 
L 670.439922 -41.96 
L 673.432979 -41.96 
L 676.426035 -41.96 
L 679.419091 -41.96 
L 679.419091 -41.965689 
L 679.419091 -41.965689 
L 676.426035 -41.972805 
L 673.432979 -41.983178 
L 670.439922 -41.993749 
L 667.446866 -41.999563 
L 664.45381 -41.997477 
L 661.460754 -41.989132 
L 658.467698 -41.979714 
L 655.474641 -41.973779 
L 652.481585 -41.972351 
L 649.488529 -41.973287 
L 646.495473 -41.973733 
L 643.502417 -41.972527 
L 640.50936 -41.970944 
L 637.516304 -41.971426 
L 634.523248 -41.975335 
L 631.530192 -41.981366 
L 628.537136 -41.986025 
L 625.544079 -41.986275 
L 622.551023 -41.982285 
L 619.557967 -41.977539 
L 616.564911 -41.976068 
L 613.571855 -41.979426 
L 610.578799 -41.986013 
L 607.585742 -41.993283 
L 604.592686 -42.000757 
L 601.59963 -42.010097 
L 598.606574 -42.021184 
L 595.613518 -42.029156 
L 592.620461 -42.02783 
L 589.627405 -42.016698 
L 586.634349 -42.003008 
L 583.641293 -41.996218 
L 580.648237 -42.000736 
L 577.65518 -42.013519 
L 574.662124 -42.027914 
L 571.669068 -42.04014 
L 568.676012 -42.05213 
L 565.682956 -42.0674 
L 562.689899 -42.084654 
L 559.696843 -42.096976 
L 556.703787 -42.097524 
L 553.710731 -42.085376 
L 550.717675 -42.066279 
L 547.724619 -42.048443 
L 544.731562 -42.037189 
L 541.738506 -42.033061 
L 538.74545 -42.034513 
L 535.752394 -42.040687 
L 532.759338 -42.04996 
L 529.766281 -42.057387 
L 526.773225 -42.0573 
L 523.780169 -42.049359 
L 520.787113 -42.039208 
L 517.794057 -42.031633 
L 514.801 -42.025479 
L 511.807944 -42.017098 
L 508.814888 -42.006693 
L 505.821832 -41.998881 
L 502.828776 -41.998046 
L 499.83572 -42.005063 
L 496.842663 -42.017877 
L 493.849607 -42.033256 
L 490.856551 -42.047648 
L 487.863495 -42.057902 
L 484.870439 -42.062586 
L 481.877382 -42.06277 
L 478.884326 -42.061164 
L 475.89127 -42.060564 
L 472.898214 -42.063188 
L 469.905158 -42.070867 
L 466.912101 -42.084901 
L 463.919045 -42.105071 
L 460.925989 -42.12867 
L 457.932933 -42.150854 
L 454.939877 -42.167031 
L 451.94682 -42.176359 
L 448.953764 -42.183554 
L 445.960708 -42.196734 
L 442.967652 -42.222247 
L 439.974596 -42.259809 
L 436.98154 -42.301454 
L 433.988483 -42.335898 
L 430.995427 -42.355791 
L 428.002371 -42.362166 
L 425.009315 -42.362774 
L 422.016259 -42.366289 
L 419.023202 -42.377085 
L 416.030146 -42.394759 
L 413.03709 -42.418442 
L 410.044034 -42.449901 
L 407.050978 -42.49014 
L 404.057921 -42.534467 
L 401.064865 -42.576293 
L 398.071809 -42.618366 
L 395.078753 -42.676656 
L 392.085697 -42.768279 
L 389.09264 -42.893435 
L 386.099584 -43.028772 
L 383.106528 -43.141497 
L 380.113472 -43.217161 
L 377.120416 -43.275937 
L 374.12736 -43.355273 
L 371.134303 -43.474324 
L 368.141247 -43.622378 
L 365.148191 -43.783519 
L 362.155135 -43.96275 
L 359.162079 -44.181965 
L 356.169022 -44.454625 
L 353.175966 -44.767705 
L 350.18291 -45.087141 
L 347.189854 -45.38266 
L 344.196798 -45.65152 
L 341.203741 -45.919196 
L 338.210685 -46.21748 
L 335.217629 -46.562552 
L 332.224573 -46.949677 
L 329.231517 -47.361323 
L 326.23846 -47.778744 
L 323.245404 -48.192853 
L 320.252348 -48.614302 
L 317.259292 -49.079818 
L 314.266236 -49.646233 
L 311.27318 -50.362741 
L 308.280123 -51.224616 
L 305.287067 -52.141485 
L 302.294011 -52.96962 
L 299.300955 -53.611078 
L 296.307899 -54.104829 
L 293.314842 -54.628562 
L 290.321786 -55.402707 
L 287.32873 -56.557419 
L 284.335674 -58.05524 
L 281.342618 -59.734098 
L 278.349561 -61.427065 
L 275.356505 -63.038795 
L 272.363449 -64.532703 
L 269.370393 -65.900929 
L 266.377337 -67.178153 
L 263.38428 -68.46028 
L 260.391224 -69.869413 
L 257.398168 -71.49052 
L 254.405112 -73.349275 
L 251.412056 -75.44129 
L 248.419 -77.759078 
L 245.425943 -80.273386 
L 242.432887 -82.877965 
L 239.439831 -85.355288 
L 236.446775 -87.433852 
L 233.453719 -88.937188 
L 230.460662 -89.905571 
L 227.467606 -90.564768 
L 224.47455 -91.160879 
L 221.481494 -91.794553 
L 218.488438 -92.372861 
L 215.495381 -92.716472 
L 212.502325 -92.749363 
L 209.509269 -92.610206 
L 206.516213 -92.561978 
L 203.523157 -92.72268 
L 200.530101 -92.800958 
L 197.537044 -92.120578 
L 194.543988 -90.05845 
L 191.550932 -86.568116 
L 188.557876 -82.261211 
L 185.56482 -77.96645 
L 182.571763 -74.207255 
L 179.578707 -71.004999 
L 176.585651 -68.059757 
L 173.592595 -65.100621 
L 170.599539 -62.108761 
L 167.606482 -59.252305 
L 164.613426 -56.671588 
L 161.62037 -54.371912 
L 158.627314 -52.287946 
L 155.634258 -50.386394 
L 152.641201 -48.695165 
L 149.648145 -47.264252 
L 146.655089 -46.114931 
L 143.662033 -45.220134 
L 140.668977 -44.523636 
L 137.675921 -43.972025 
L 134.682864 -43.529879 
L 131.689808 -43.175016 
L 128.696752 -42.889926 
L 125.703696 -42.659505 
L 122.71064 -42.47263 
L 119.717583 -42.322641 
L 116.724527 -42.205855 
L 113.731471 -42.119479 
L 110.738415 -42.059925 
L 107.745359 -42.021953 
L 104.752302 -41.999029 
L 101.759246 -41.984904 
L 98.76619 -41.975354 
L 95.773134 -41.968583 
L 92.780078 -41.964136 
L 89.787021 -41.961666 
L 86.793965 -41.960551 
L 83.800909 -41.960148 
z
" style="stroke: #000000"/>
    </defs>
    <g clip-path="url(#pe3352482cc)">
     <use xlink:href="#m90938f6c0e" x="0" y="432" style="fill: #ff7f0e; fill-opacity: 0.75; stroke: #000000"/>
    </g>
   </g>
   <g id="PolyCollection_2">
    <defs>
     <path id="m0fb761b49d" d="M 83.800909 -41.960922 
L 83.800909 -41.960148 
L 86.793965 -41.960551 
L 89.787021 -41.961666 
L 92.780078 -41.964136 
L 95.773134 -41.968583 
L 98.76619 -41.975354 
L 101.759246 -41.984904 
L 104.752302 -41.999029 
L 107.745359 -42.021953 
L 110.738415 -42.059925 
L 113.731471 -42.119479 
L 116.724527 -42.205855 
L 119.717583 -42.322641 
L 122.71064 -42.47263 
L 125.703696 -42.659505 
L 128.696752 -42.889926 
L 131.689808 -43.175016 
L 134.682864 -43.529879 
L 137.675921 -43.972025 
L 140.668977 -44.523636 
L 143.662033 -45.220134 
L 146.655089 -46.114931 
L 149.648145 -47.264252 
L 152.641201 -48.695165 
L 155.634258 -50.386394 
L 158.627314 -52.287946 
L 161.62037 -54.371912 
L 164.613426 -56.671588 
L 167.606482 -59.252305 
L 170.599539 -62.108761 
L 173.592595 -65.100621 
L 176.585651 -68.059757 
L 179.578707 -71.004999 
L 182.571763 -74.207255 
L 185.56482 -77.96645 
L 188.557876 -82.261211 
L 191.550932 -86.568116 
L 194.543988 -90.05845 
L 197.537044 -92.120578 
L 200.530101 -92.800958 
L 203.523157 -92.72268 
L 206.516213 -92.561978 
L 209.509269 -92.610206 
L 212.502325 -92.749363 
L 215.495381 -92.716472 
L 218.488438 -92.372861 
L 221.481494 -91.794553 
L 224.47455 -91.160879 
L 227.467606 -90.564768 
L 230.460662 -89.905571 
L 233.453719 -88.937188 
L 236.446775 -87.433852 
L 239.439831 -85.355288 
L 242.432887 -82.877965 
L 245.425943 -80.273386 
L 248.419 -77.759078 
L 251.412056 -75.44129 
L 254.405112 -73.349275 
L 257.398168 -71.49052 
L 260.391224 -69.869413 
L 263.38428 -68.46028 
L 266.377337 -67.178153 
L 269.370393 -65.900929 
L 272.363449 -64.532703 
L 275.356505 -63.038795 
L 278.349561 -61.427065 
L 281.342618 -59.734098 
L 284.335674 -58.05524 
L 287.32873 -56.557419 
L 290.321786 -55.402707 
L 293.314842 -54.628562 
L 296.307899 -54.104829 
L 299.300955 -53.611078 
L 302.294011 -52.96962 
L 305.287067 -52.141485 
L 308.280123 -51.224616 
L 311.27318 -50.362741 
L 314.266236 -49.646233 
L 317.259292 -49.079818 
L 320.252348 -48.614302 
L 323.245404 -48.192853 
L 326.23846 -47.778744 
L 329.231517 -47.361323 
L 332.224573 -46.949677 
L 335.217629 -46.562552 
L 338.210685 -46.21748 
L 341.203741 -45.919196 
L 344.196798 -45.65152 
L 347.189854 -45.38266 
L 350.18291 -45.087141 
L 353.175966 -44.767705 
L 356.169022 -44.454625 
L 359.162079 -44.181965 
L 362.155135 -43.96275 
L 365.148191 -43.783519 
L 368.141247 -43.622378 
L 371.134303 -43.474324 
L 374.12736 -43.355273 
L 377.120416 -43.275937 
L 380.113472 -43.217161 
L 383.106528 -43.141497 
L 386.099584 -43.028772 
L 389.09264 -42.893435 
L 392.085697 -42.768279 
L 395.078753 -42.676656 
L 398.071809 -42.618366 
L 401.064865 -42.576293 
L 404.057921 -42.534467 
L 407.050978 -42.49014 
L 410.044034 -42.449901 
L 413.03709 -42.418442 
L 416.030146 -42.394759 
L 419.023202 -42.377085 
L 422.016259 -42.366289 
L 425.009315 -42.362774 
L 428.002371 -42.362166 
L 430.995427 -42.355791 
L 433.988483 -42.335898 
L 436.98154 -42.301454 
L 439.974596 -42.259809 
L 442.967652 -42.222247 
L 445.960708 -42.196734 
L 448.953764 -42.183554 
L 451.94682 -42.176359 
L 454.939877 -42.167031 
L 457.932933 -42.150854 
L 460.925989 -42.12867 
L 463.919045 -42.105071 
L 466.912101 -42.084901 
L 469.905158 -42.070867 
L 472.898214 -42.063188 
L 475.89127 -42.060564 
L 478.884326 -42.061164 
L 481.877382 -42.06277 
L 484.870439 -42.062586 
L 487.863495 -42.057902 
L 490.856551 -42.047648 
L 493.849607 -42.033256 
L 496.842663 -42.017877 
L 499.83572 -42.005063 
L 502.828776 -41.998046 
L 505.821832 -41.998881 
L 508.814888 -42.006693 
L 511.807944 -42.017098 
L 514.801 -42.025479 
L 517.794057 -42.031633 
L 520.787113 -42.039208 
L 523.780169 -42.049359 
L 526.773225 -42.0573 
L 529.766281 -42.057387 
L 532.759338 -42.04996 
L 535.752394 -42.040687 
L 538.74545 -42.034513 
L 541.738506 -42.033061 
L 544.731562 -42.037189 
L 547.724619 -42.048443 
L 550.717675 -42.066279 
L 553.710731 -42.085376 
L 556.703787 -42.097524 
L 559.696843 -42.096976 
L 562.689899 -42.084654 
L 565.682956 -42.0674 
L 568.676012 -42.05213 
L 571.669068 -42.04014 
L 574.662124 -42.027914 
L 577.65518 -42.013519 
L 580.648237 -42.000736 
L 583.641293 -41.996218 
L 586.634349 -42.003008 
L 589.627405 -42.016698 
L 592.620461 -42.02783 
L 595.613518 -42.029156 
L 598.606574 -42.021184 
L 601.59963 -42.010097 
L 604.592686 -42.000757 
L 607.585742 -41.993283 
L 610.578799 -41.986013 
L 613.571855 -41.979426 
L 616.564911 -41.976068 
L 619.557967 -41.977539 
L 622.551023 -41.982285 
L 625.544079 -41.986275 
L 628.537136 -41.986025 
L 631.530192 -41.981366 
L 634.523248 -41.975335 
L 637.516304 -41.971426 
L 640.50936 -41.970944 
L 643.502417 -41.972527 
L 646.495473 -41.973733 
L 649.488529 -41.973287 
L 652.481585 -41.972351 
L 655.474641 -41.973779 
L 658.467698 -41.979714 
L 661.460754 -41.989132 
L 664.45381 -41.997477 
L 667.446866 -41.999563 
L 670.439922 -41.993749 
L 673.432979 -41.983178 
L 676.426035 -41.972805 
L 679.419091 -41.965689 
L 679.419091 -41.966073 
L 679.419091 -41.966073 
L 676.426035 -41.975508 
L 673.432979 -41.994431 
L 670.439922 -42.021492 
L 667.446866 -42.040069 
L 664.45381 -42.032517 
L 661.460754 -42.007353 
L 658.467698 -41.987993 
L 655.474641 -41.991365 
L 652.481585 -42.029937 
L 649.488529 -42.0911 
L 646.495473 -42.116718 
L 643.502417 -42.075392 
L 640.50936 -42.016056 
L 637.516304 -41.993704 
L 634.523248 -42.031683 
L 631.530192 -42.139247 
L 628.537136 -42.256753 
L 625.544079 -42.265833 
L 622.551023 -42.161757 
L 619.557967 -42.057199 
L 616.564911 -42.017892 
L 613.571855 -42.052422 
L 610.578799 -42.14577 
L 607.585742 -42.219831 
L 604.592686 -42.208141 
L 601.59963 -42.201785 
L 598.606574 -42.343479 
L 595.613518 -42.557414 
L 592.620461 -42.578727 
L 589.627405 -42.359631 
L 586.634349 -42.131763 
L 583.641293 -42.040786 
L 580.648237 -42.075819 
L 577.65518 -42.192701 
L 574.662124 -42.295836 
L 571.669068 -42.291018 
L 568.676012 -42.241344 
L 565.682956 -42.286142 
L 562.689899 -42.428188 
L 559.696843 -42.541716 
L 556.703787 -42.557618 
L 553.710731 -42.483366 
L 550.717675 -42.359798 
L 547.724619 -42.332195 
L 544.731562 -42.506962 
L 541.738506 -42.705092 
L 538.74545 -42.650134 
L 535.752394 -42.435252 
L 532.759338 -42.382701 
L 529.766281 -42.519527 
L 526.773225 -42.57015 
L 523.780169 -42.431239 
L 520.787113 -42.341216 
L 517.794057 -42.46782 
L 514.801 -42.628137 
L 511.807944 -42.587161 
L 508.814888 -42.435561 
L 505.821832 -42.39173 
L 502.828776 -42.455692 
L 499.83572 -42.461286 
L 496.842663 -42.37148 
L 493.849607 -42.33129 
L 490.856551 -42.405082 
L 487.863495 -42.464767 
L 484.870439 -42.390414 
L 481.877382 -42.256623 
L 478.884326 -42.182488 
L 475.89127 -42.171968 
L 472.898214 -42.17649 
L 469.905158 -42.179913 
L 466.912101 -42.192396 
L 463.919045 -42.215351 
L 460.925989 -42.233273 
L 457.932933 -42.234818 
L 454.939877 -42.239273 
L 451.94682 -42.270639 
L 448.953764 -42.325816 
L 445.960708 -42.391513 
L 442.967652 -42.459574 
L 439.974596 -42.509539 
L 436.98154 -42.542722 
L 433.988483 -42.593191 
L 430.995427 -42.668923 
L 428.002371 -42.72838 
L 425.009315 -42.742774 
L 422.016259 -42.746488 
L 419.023202 -42.775408 
L 416.030146 -42.837228 
L 413.03709 -42.92292 
L 410.044034 -43.023219 
L 407.050978 -43.114875 
L 404.057921 -43.204343 
L 401.064865 -43.347601 
L 398.071809 -43.569062 
L 395.078753 -43.800489 
L 392.085697 -43.975935 
L 389.09264 -44.167455 
L 386.099584 -44.4295 
L 383.106528 -44.66554 
L 380.113472 -44.687704 
L 377.120416 -44.581431 
L 374.12736 -44.718115 
L 371.134303 -45.212911 
L 368.141247 -45.739638 
L 365.148191 -46.039708 
L 362.155135 -46.237697 
L 359.162079 -46.496921 
L 356.169022 -46.926663 
L 353.175966 -47.561758 
L 350.18291 -48.331029 
L 347.189854 -49.048832 
L 344.196798 -49.684166 
L 341.203741 -50.330417 
L 338.210685 -51.048898 
L 335.217629 -51.862633 
L 332.224573 -52.722819 
L 329.231517 -53.674439 
L 326.23846 -54.680418 
L 323.245404 -55.739759 
L 320.252348 -56.751149 
L 317.259292 -57.819268 
L 314.266236 -59.142613 
L 311.27318 -60.912176 
L 308.280123 -63.286477 
L 305.287067 -66.161431 
L 302.294011 -69.015407 
L 299.300955 -71.175828 
L 296.307899 -72.759194 
L 293.314842 -73.890244 
L 290.321786 -75.381435 
L 287.32873 -78.203263 
L 284.335674 -82.661078 
L 281.342618 -88.281615 
L 278.349561 -94.470468 
L 275.356505 -100.177778 
L 272.363449 -104.583055 
L 269.370393 -108.985826 
L 266.377337 -114.235821 
L 263.38428 -120.190329 
L 260.391224 -125.431092 
L 257.398168 -130.599523 
L 254.405112 -137.096108 
L 251.412056 -145.636357 
L 248.419 -155.996332 
L 245.425943 -167.754102 
L 242.432887 -180.842999 
L 239.439831 -194.169113 
L 236.446775 -207.734144 
L 233.453719 -220.001061 
L 230.460662 -232.40716 
L 227.467606 -245.480507 
L 224.47455 -260.024655 
L 221.481494 -274.752829 
L 218.488438 -288.163388 
L 215.495381 -298.844032 
L 212.502325 -304.642916 
L 209.509269 -310.141051 
L 206.516213 -318.169671 
L 203.523157 -335.031071 
L 200.530101 -363.368418 
L 197.537044 -394.065641 
L 194.543988 -403.140952 
L 191.550932 -386.557595 
L 188.557876 -360.944628 
L 185.56482 -335.585136 
L 182.571763 -319.442372 
L 179.578707 -313.328239 
L 176.585651 -309.549978 
L 173.592595 -296.105734 
L 170.599539 -276.185606 
L 167.606482 -256.213773 
L 164.613426 -237.325177 
L 161.62037 -217.459086 
L 158.627314 -194.612318 
L 155.634258 -171.962762 
L 152.641201 -150.016747 
L 149.648145 -131.00513 
L 146.655089 -115.227461 
L 143.662033 -101.756395 
L 140.668977 -89.0569 
L 137.675921 -77.116122 
L 134.682864 -67.427506 
L 131.689808 -59.976027 
L 128.696752 -54.647291 
L 125.703696 -50.919055 
L 122.71064 -48.264992 
L 119.717583 -46.267815 
L 116.724527 -44.761096 
L 113.731471 -43.68966 
L 110.738415 -42.972298 
L 107.745359 -42.584847 
L 104.752302 -42.413084 
L 101.759246 -42.306171 
L 98.76619 -42.198094 
L 95.773134 -42.102539 
L 92.780078 -42.030823 
L 89.787021 -41.985588 
L 86.793965 -41.966064 
L 83.800909 -41.960922 
z
" style="stroke: #000000"/>
    </defs>
    <g clip-path="url(#pe3352482cc)">
     <use xlink:href="#m0fb761b49d" x="0" y="432" style="fill: #1f77b4; fill-opacity: 0.75; stroke: #000000"/>
    </g>
   </g>
   <g id="matplotlib.axis_1">
    <g id="xtick_1">
     <g id="line2d_1">
      <defs>
       <path id="m87fcf7a54c" d="M 0 0 
L 0 3.5 
" style="stroke: #000000; stroke-width: 0.8"/>
      </defs>
      <g>
       <use xlink:href="#m87fcf7a54c" x="149.493806" y="390.04" style="stroke: #000000; stroke-width: 0.8"/>
      </g>
     </g>
     <g id="text_1">
      <!-- 20 -->
      <g transform="translate(143.131306 404.638438) scale(0.1 -0.1)">
       <defs>
        <path id="DejaVuSans-32" d="M 1228 531 
L 3431 531 
L 3431 0 
L 469 0 
L 469 531 
Q 828 903 1448 1529 
Q 2069 2156 2228 2338 
Q 2531 2678 2651 2914 
Q 2772 3150 2772 3378 
Q 2772 3750 2511 3984 
Q 2250 4219 1831 4219 
Q 1534 4219 1204 4116 
Q 875 4013 500 3803 
L 500 4441 
Q 881 4594 1212 4672 
Q 1544 4750 1819 4750 
Q 2544 4750 2975 4387 
Q 3406 4025 3406 3419 
Q 3406 3131 3298 2873 
Q 3191 2616 2906 2266 
Q 2828 2175 2409 1742 
Q 1991 1309 1228 531 
z
" transform="scale(0.015625)"/>
        <path id="DejaVuSans-30" d="M 2034 4250 
Q 1547 4250 1301 3770 
Q 1056 3291 1056 2328 
Q 1056 1369 1301 889 
Q 1547 409 2034 409 
Q 2525 409 2770 889 
Q 3016 1369 3016 2328 
Q 3016 3291 2770 3770 
Q 2525 4250 2034 4250 
z
M 2034 4750 
Q 2819 4750 3233 4129 
Q 3647 3509 3647 2328 
Q 3647 1150 3233 529 
Q 2819 -91 2034 -91 
Q 1250 -91 836 529 
Q 422 1150 422 2328 
Q 422 3509 836 4129 
Q 1250 4750 2034 4750 
z
" transform="scale(0.015625)"/>
       </defs>
       <use xlink:href="#DejaVuSans-32"/>
       <use xlink:href="#DejaVuSans-30" x="63.623047"/>
      </g>
     </g>
    </g>
    <g id="xtick_2">
     <g id="line2d_2">
      <g>
       <use xlink:href="#m87fcf7a54c" x="282.131631" y="390.04" style="stroke: #000000; stroke-width: 0.8"/>
      </g>
     </g>
     <g id="text_2">
      <!-- 40 -->
      <g transform="translate(275.769131 404.638438) scale(0.1 -0.1)">
       <defs>
        <path id="DejaVuSans-34" d="M 2419 4116 
L 825 1625 
L 2419 1625 
L 2419 4116 
z
M 2253 4666 
L 3047 4666 
L 3047 1625 
L 3713 1625 
L 3713 1100 
L 3047 1100 
L 3047 0 
L 2419 0 
L 2419 1100 
L 313 1100 
L 313 1709 
L 2253 4666 
z
" transform="scale(0.015625)"/>
       </defs>
       <use xlink:href="#DejaVuSans-34"/>
       <use xlink:href="#DejaVuSans-30" x="63.623047"/>
      </g>
     </g>
    </g>
    <g id="xtick_3">
     <g id="line2d_3">
      <g>
       <use xlink:href="#m87fcf7a54c" x="414.769456" y="390.04" style="stroke: #000000; stroke-width: 0.8"/>
      </g>
     </g>
     <g id="text_3">
      <!-- 60 -->
      <g transform="translate(408.406956 404.638438) scale(0.1 -0.1)">
       <defs>
        <path id="DejaVuSans-36" d="M 2113 2584 
Q 1688 2584 1439 2293 
Q 1191 2003 1191 1497 
Q 1191 994 1439 701 
Q 1688 409 2113 409 
Q 2538 409 2786 701 
Q 3034 994 3034 1497 
Q 3034 2003 2786 2293 
Q 2538 2584 2113 2584 
z
M 3366 4563 
L 3366 3988 
Q 3128 4100 2886 4159 
Q 2644 4219 2406 4219 
Q 1781 4219 1451 3797 
Q 1122 3375 1075 2522 
Q 1259 2794 1537 2939 
Q 1816 3084 2150 3084 
Q 2853 3084 3261 2657 
Q 3669 2231 3669 1497 
Q 3669 778 3244 343 
Q 2819 -91 2113 -91 
Q 1303 -91 875 529 
Q 447 1150 447 2328 
Q 447 3434 972 4092 
Q 1497 4750 2381 4750 
Q 2619 4750 2861 4703 
Q 3103 4656 3366 4563 
z
" transform="scale(0.015625)"/>
       </defs>
       <use xlink:href="#DejaVuSans-36"/>
       <use xlink:href="#DejaVuSans-30" x="63.623047"/>
      </g>
     </g>
    </g>
    <g id="xtick_4">
     <g id="line2d_4">
      <g>
       <use xlink:href="#m87fcf7a54c" x="547.407281" y="390.04" style="stroke: #000000; stroke-width: 0.8"/>
      </g>
     </g>
     <g id="text_4">
      <!-- 80 -->
      <g transform="translate(541.044781 404.638438) scale(0.1 -0.1)">
       <defs>
        <path id="DejaVuSans-38" d="M 2034 2216 
Q 1584 2216 1326 1975 
Q 1069 1734 1069 1313 
Q 1069 891 1326 650 
Q 1584 409 2034 409 
Q 2484 409 2743 651 
Q 3003 894 3003 1313 
Q 3003 1734 2745 1975 
Q 2488 2216 2034 2216 
z
M 1403 2484 
Q 997 2584 770 2862 
Q 544 3141 544 3541 
Q 544 4100 942 4425 
Q 1341 4750 2034 4750 
Q 2731 4750 3128 4425 
Q 3525 4100 3525 3541 
Q 3525 3141 3298 2862 
Q 3072 2584 2669 2484 
Q 3125 2378 3379 2068 
Q 3634 1759 3634 1313 
Q 3634 634 3220 271 
Q 2806 -91 2034 -91 
Q 1263 -91 848 271 
Q 434 634 434 1313 
Q 434 1759 690 2068 
Q 947 2378 1403 2484 
z
M 1172 3481 
Q 1172 3119 1398 2916 
Q 1625 2713 2034 2713 
Q 2441 2713 2670 2916 
Q 2900 3119 2900 3481 
Q 2900 3844 2670 4047 
Q 2441 4250 2034 4250 
Q 1625 4250 1398 4047 
Q 1172 3844 1172 3481 
z
" transform="scale(0.015625)"/>
       </defs>
       <use xlink:href="#DejaVuSans-38"/>
       <use xlink:href="#DejaVuSans-30" x="63.623047"/>
      </g>
     </g>
    </g>
    <g id="xtick_5">
     <g id="line2d_5">
      <g>
       <use xlink:href="#m87fcf7a54c" x="680.045106" y="390.04" style="stroke: #000000; stroke-width: 0.8"/>
      </g>
     </g>
     <g id="text_5">
      <!-- 100 -->
      <g transform="translate(670.501356 404.638438) scale(0.1 -0.1)">
       <defs>
        <path id="DejaVuSans-31" d="M 794 531 
L 1825 531 
L 1825 4091 
L 703 3866 
L 703 4441 
L 1819 4666 
L 2450 4666 
L 2450 531 
L 3481 531 
L 3481 0 
L 794 0 
L 794 531 
z
" transform="scale(0.015625)"/>
       </defs>
       <use xlink:href="#DejaVuSans-31"/>
       <use xlink:href="#DejaVuSans-30" x="63.623047"/>
       <use xlink:href="#DejaVuSans-30" x="127.246094"/>
      </g>
     </g>
    </g>
    <g id="text_6">
     <!-- BMI -->
     <g transform="translate(372.390469 418.316562) scale(0.1 -0.1)">
      <defs>
       <path id="DejaVuSans-42" d="M 1259 2228 
L 1259 519 
L 2272 519 
Q 2781 519 3026 730 
Q 3272 941 3272 1375 
Q 3272 1813 3026 2020 
Q 2781 2228 2272 2228 
L 1259 2228 
z
M 1259 4147 
L 1259 2741 
L 2194 2741 
Q 2656 2741 2882 2914 
Q 3109 3088 3109 3444 
Q 3109 3797 2882 3972 
Q 2656 4147 2194 4147 
L 1259 4147 
z
M 628 4666 
L 2241 4666 
Q 2963 4666 3353 4366 
Q 3744 4066 3744 3513 
Q 3744 3084 3544 2831 
Q 3344 2578 2956 2516 
Q 3422 2416 3680 2098 
Q 3938 1781 3938 1306 
Q 3938 681 3513 340 
Q 3088 0 2303 0 
L 628 0 
L 628 4666 
z
" transform="scale(0.015625)"/>
       <path id="DejaVuSans-4d" d="M 628 4666 
L 1569 4666 
L 2759 1491 
L 3956 4666 
L 4897 4666 
L 4897 0 
L 4281 0 
L 4281 4097 
L 3078 897 
L 2444 897 
L 1241 4097 
L 1241 0 
L 628 0 
L 628 4666 
z
" transform="scale(0.015625)"/>
       <path id="DejaVuSans-49" d="M 628 4666 
L 1259 4666 
L 1259 0 
L 628 0 
L 628 4666 
z
" transform="scale(0.015625)"/>
      </defs>
      <use xlink:href="#DejaVuSans-42"/>
      <use xlink:href="#DejaVuSans-4d" x="68.603516"/>
      <use xlink:href="#DejaVuSans-49" x="154.882812"/>
     </g>
    </g>
   </g>
   <g id="matplotlib.axis_2">
    <g id="ytick_1">
     <g id="line2d_6">
      <defs>
       <path id="ma852265da4" d="M 0 0 
L -3.5 0 
" style="stroke: #000000; stroke-width: 0.8"/>
      </defs>
      <g>
       <use xlink:href="#ma852265da4" x="54.02" y="390.04" style="stroke: #000000; stroke-width: 0.8"/>
      </g>
     </g>
     <g id="text_7">
      <!-- 0.00 -->
      <g transform="translate(24.754375 393.839219) scale(0.1 -0.1)">
       <defs>
        <path id="DejaVuSans-2e" d="M 684 794 
L 1344 794 
L 1344 0 
L 684 0 
L 684 794 
z
" transform="scale(0.015625)"/>
       </defs>
       <use xlink:href="#DejaVuSans-30"/>
       <use xlink:href="#DejaVuSans-2e" x="63.623047"/>
       <use xlink:href="#DejaVuSans-30" x="95.410156"/>
       <use xlink:href="#DejaVuSans-30" x="159.033203"/>
      </g>
     </g>
    </g>
    <g id="ytick_2">
     <g id="line2d_7">
      <g>
       <use xlink:href="#ma852265da4" x="54.02" y="305.925659" style="stroke: #000000; stroke-width: 0.8"/>
      </g>
     </g>
     <g id="text_8">
      <!-- 0.02 -->
      <g transform="translate(24.754375 309.724878) scale(0.1 -0.1)">
       <use xlink:href="#DejaVuSans-30"/>
       <use xlink:href="#DejaVuSans-2e" x="63.623047"/>
       <use xlink:href="#DejaVuSans-30" x="95.410156"/>
       <use xlink:href="#DejaVuSans-32" x="159.033203"/>
      </g>
     </g>
    </g>
    <g id="ytick_3">
     <g id="line2d_8">
      <g>
       <use xlink:href="#ma852265da4" x="54.02" y="221.811318" style="stroke: #000000; stroke-width: 0.8"/>
      </g>
     </g>
     <g id="text_9">
      <!-- 0.04 -->
      <g transform="translate(24.754375 225.610537) scale(0.1 -0.1)">
       <use xlink:href="#DejaVuSans-30"/>
       <use xlink:href="#DejaVuSans-2e" x="63.623047"/>
       <use xlink:href="#DejaVuSans-30" x="95.410156"/>
       <use xlink:href="#DejaVuSans-34" x="159.033203"/>
      </g>
     </g>
    </g>
    <g id="ytick_4">
     <g id="line2d_9">
      <g>
       <use xlink:href="#ma852265da4" x="54.02" y="137.696977" style="stroke: #000000; stroke-width: 0.8"/>
      </g>
     </g>
     <g id="text_10">
      <!-- 0.06 -->
      <g transform="translate(24.754375 141.496196) scale(0.1 -0.1)">
       <use xlink:href="#DejaVuSans-30"/>
       <use xlink:href="#DejaVuSans-2e" x="63.623047"/>
       <use xlink:href="#DejaVuSans-30" x="95.410156"/>
       <use xlink:href="#DejaVuSans-36" x="159.033203"/>
      </g>
     </g>
    </g>
    <g id="ytick_5">
     <g id="line2d_10">
      <g>
       <use xlink:href="#ma852265da4" x="54.02" y="53.582636" style="stroke: #000000; stroke-width: 0.8"/>
      </g>
     </g>
     <g id="text_11">
      <!-- 0.08 -->
      <g transform="translate(24.754375 57.381855) scale(0.1 -0.1)">
       <use xlink:href="#DejaVuSans-30"/>
       <use xlink:href="#DejaVuSans-2e" x="63.623047"/>
       <use xlink:href="#DejaVuSans-30" x="95.410156"/>
       <use xlink:href="#DejaVuSans-38" x="159.033203"/>
      </g>
     </g>
    </g>
    <g id="text_12">
     <!-- Density -->
     <g transform="translate(18.674688 219.428594) rotate(-90) scale(0.1 -0.1)">
      <defs>
       <path id="DejaVuSans-44" d="M 1259 4147 
L 1259 519 
L 2022 519 
Q 2988 519 3436 956 
Q 3884 1394 3884 2338 
Q 3884 3275 3436 3711 
Q 2988 4147 2022 4147 
L 1259 4147 
z
M 628 4666 
L 1925 4666 
Q 3281 4666 3915 4102 
Q 4550 3538 4550 2338 
Q 4550 1131 3912 565 
Q 3275 0 1925 0 
L 628 0 
L 628 4666 
z
" transform="scale(0.015625)"/>
       <path id="DejaVuSans-65" d="M 3597 1894 
L 3597 1613 
L 953 1613 
Q 991 1019 1311 708 
Q 1631 397 2203 397 
Q 2534 397 2845 478 
Q 3156 559 3463 722 
L 3463 178 
Q 3153 47 2828 -22 
Q 2503 -91 2169 -91 
Q 1331 -91 842 396 
Q 353 884 353 1716 
Q 353 2575 817 3079 
Q 1281 3584 2069 3584 
Q 2775 3584 3186 3129 
Q 3597 2675 3597 1894 
z
M 3022 2063 
Q 3016 2534 2758 2815 
Q 2500 3097 2075 3097 
Q 1594 3097 1305 2825 
Q 1016 2553 972 2059 
L 3022 2063 
z
" transform="scale(0.015625)"/>
       <path id="DejaVuSans-6e" d="M 3513 2113 
L 3513 0 
L 2938 0 
L 2938 2094 
Q 2938 2591 2744 2837 
Q 2550 3084 2163 3084 
Q 1697 3084 1428 2787 
Q 1159 2491 1159 1978 
L 1159 0 
L 581 0 
L 581 3500 
L 1159 3500 
L 1159 2956 
Q 1366 3272 1645 3428 
Q 1925 3584 2291 3584 
Q 2894 3584 3203 3211 
Q 3513 2838 3513 2113 
z
" transform="scale(0.015625)"/>
       <path id="DejaVuSans-73" d="M 2834 3397 
L 2834 2853 
Q 2591 2978 2328 3040 
Q 2066 3103 1784 3103 
Q 1356 3103 1142 2972 
Q 928 2841 928 2578 
Q 928 2378 1081 2264 
Q 1234 2150 1697 2047 
L 1894 2003 
Q 2506 1872 2764 1633 
Q 3022 1394 3022 966 
Q 3022 478 2636 193 
Q 2250 -91 1575 -91 
Q 1294 -91 989 -36 
Q 684 19 347 128 
L 347 722 
Q 666 556 975 473 
Q 1284 391 1588 391 
Q 1994 391 2212 530 
Q 2431 669 2431 922 
Q 2431 1156 2273 1281 
Q 2116 1406 1581 1522 
L 1381 1569 
Q 847 1681 609 1914 
Q 372 2147 372 2553 
Q 372 3047 722 3315 
Q 1072 3584 1716 3584 
Q 2034 3584 2315 3537 
Q 2597 3491 2834 3397 
z
" transform="scale(0.015625)"/>
       <path id="DejaVuSans-69" d="M 603 3500 
L 1178 3500 
L 1178 0 
L 603 0 
L 603 3500 
z
M 603 4863 
L 1178 4863 
L 1178 4134 
L 603 4134 
L 603 4863 
z
" transform="scale(0.015625)"/>
       <path id="DejaVuSans-74" d="M 1172 4494 
L 1172 3500 
L 2356 3500 
L 2356 3053 
L 1172 3053 
L 1172 1153 
Q 1172 725 1289 603 
Q 1406 481 1766 481 
L 2356 481 
L 2356 0 
L 1766 0 
Q 1100 0 847 248 
Q 594 497 594 1153 
L 594 3053 
L 172 3053 
L 172 3500 
L 594 3500 
L 594 4494 
L 1172 4494 
z
" transform="scale(0.015625)"/>
       <path id="DejaVuSans-79" d="M 2059 -325 
Q 1816 -950 1584 -1140 
Q 1353 -1331 966 -1331 
L 506 -1331 
L 506 -850 
L 844 -850 
Q 1081 -850 1212 -737 
Q 1344 -625 1503 -206 
L 1606 56 
L 191 3500 
L 800 3500 
L 1894 763 
L 2988 3500 
L 3597 3500 
L 2059 -325 
z
" transform="scale(0.015625)"/>
      </defs>
      <use xlink:href="#DejaVuSans-44"/>
      <use xlink:href="#DejaVuSans-65" x="77.001953"/>
      <use xlink:href="#DejaVuSans-6e" x="138.525391"/>
      <use xlink:href="#DejaVuSans-73" x="201.904297"/>
      <use xlink:href="#DejaVuSans-69" x="254.003906"/>
      <use xlink:href="#DejaVuSans-74" x="281.787109"/>
      <use xlink:href="#DejaVuSans-79" x="320.996094"/>
     </g>
    </g>
   </g>
   <g id="patch_3">
    <path d="M 54.02 390.04 
L 54.02 10.8 
" style="fill: none; stroke: #000000; stroke-width: 0.8; stroke-linejoin: miter; stroke-linecap: square"/>
   </g>
   <g id="patch_4">
    <path d="M 709.2 390.04 
L 709.2 10.8 
" style="fill: none; stroke: #000000; stroke-width: 0.8; stroke-linejoin: miter; stroke-linecap: square"/>
   </g>
   <g id="patch_5">
    <path d="M 54.02 390.04 
L 709.2 390.04 
" style="fill: none; stroke: #000000; stroke-width: 0.8; stroke-linejoin: miter; stroke-linecap: square"/>
   </g>
   <g id="patch_6">
    <path d="M 54.02 10.8 
L 709.2 10.8 
" style="fill: none; stroke: #000000; stroke-width: 0.8; stroke-linejoin: miter; stroke-linecap: square"/>
   </g>
   <g id="legend_1">
    <g id="patch_7">
     <path d="M 617.1875 63.1125 
L 702.2 63.1125 
Q 704.2 63.1125 704.2 61.1125 
L 704.2 17.8 
Q 704.2 15.8 702.2 15.8 
L 617.1875 15.8 
Q 615.1875 15.8 615.1875 17.8 
L 615.1875 61.1125 
Q 615.1875 63.1125 617.1875 63.1125 
z
" style="fill: #ffffff; opacity: 0.8; stroke: #cccccc; stroke-linejoin: miter"/>
    </g>
    <g id="text_13">
     <!-- Diabetes_binary -->
     <g transform="translate(619.1875 27.398438) scale(0.1 -0.1)">
      <defs>
       <path id="DejaVuSans-61" d="M 2194 1759 
Q 1497 1759 1228 1600 
Q 959 1441 959 1056 
Q 959 750 1161 570 
Q 1363 391 1709 391 
Q 2188 391 2477 730 
Q 2766 1069 2766 1631 
L 2766 1759 
L 2194 1759 
z
M 3341 1997 
L 3341 0 
L 2766 0 
L 2766 531 
Q 2569 213 2275 61 
Q 1981 -91 1556 -91 
Q 1019 -91 701 211 
Q 384 513 384 1019 
Q 384 1609 779 1909 
Q 1175 2209 1959 2209 
L 2766 2209 
L 2766 2266 
Q 2766 2663 2505 2880 
Q 2244 3097 1772 3097 
Q 1472 3097 1187 3025 
Q 903 2953 641 2809 
L 641 3341 
Q 956 3463 1253 3523 
Q 1550 3584 1831 3584 
Q 2591 3584 2966 3190 
Q 3341 2797 3341 1997 
z
" transform="scale(0.015625)"/>
       <path id="DejaVuSans-62" d="M 3116 1747 
Q 3116 2381 2855 2742 
Q 2594 3103 2138 3103 
Q 1681 3103 1420 2742 
Q 1159 2381 1159 1747 
Q 1159 1113 1420 752 
Q 1681 391 2138 391 
Q 2594 391 2855 752 
Q 3116 1113 3116 1747 
z
M 1159 2969 
Q 1341 3281 1617 3432 
Q 1894 3584 2278 3584 
Q 2916 3584 3314 3078 
Q 3713 2572 3713 1747 
Q 3713 922 3314 415 
Q 2916 -91 2278 -91 
Q 1894 -91 1617 61 
Q 1341 213 1159 525 
L 1159 0 
L 581 0 
L 581 4863 
L 1159 4863 
L 1159 2969 
z
" transform="scale(0.015625)"/>
       <path id="DejaVuSans-5f" d="M 3263 -1063 
L 3263 -1509 
L -63 -1509 
L -63 -1063 
L 3263 -1063 
z
" transform="scale(0.015625)"/>
       <path id="DejaVuSans-72" d="M 2631 2963 
Q 2534 3019 2420 3045 
Q 2306 3072 2169 3072 
Q 1681 3072 1420 2755 
Q 1159 2438 1159 1844 
L 1159 0 
L 581 0 
L 581 3500 
L 1159 3500 
L 1159 2956 
Q 1341 3275 1631 3429 
Q 1922 3584 2338 3584 
Q 2397 3584 2469 3576 
Q 2541 3569 2628 3553 
L 2631 2963 
z
" transform="scale(0.015625)"/>
      </defs>
      <use xlink:href="#DejaVuSans-44"/>
      <use xlink:href="#DejaVuSans-69" x="77.001953"/>
      <use xlink:href="#DejaVuSans-61" x="104.785156"/>
      <use xlink:href="#DejaVuSans-62" x="166.064453"/>
      <use xlink:href="#DejaVuSans-65" x="229.541016"/>
      <use xlink:href="#DejaVuSans-74" x="291.064453"/>
      <use xlink:href="#DejaVuSans-65" x="330.273438"/>
      <use xlink:href="#DejaVuSans-73" x="391.796875"/>
      <use xlink:href="#DejaVuSans-5f" x="443.896484"/>
      <use xlink:href="#DejaVuSans-62" x="493.896484"/>
      <use xlink:href="#DejaVuSans-69" x="557.373047"/>
      <use xlink:href="#DejaVuSans-6e" x="585.15625"/>
      <use xlink:href="#DejaVuSans-61" x="648.535156"/>
      <use xlink:href="#DejaVuSans-72" x="709.814453"/>
      <use xlink:href="#DejaVuSans-79" x="750.927734"/>
     </g>
    </g>
    <g id="patch_8">
     <path d="M 642.5125 42.354688 
L 662.5125 42.354688 
L 662.5125 35.354688 
L 642.5125 35.354688 
z
" style="fill: #1f77b4; fill-opacity: 0.75; stroke: #000000; stroke-linejoin: miter"/>
    </g>
    <g id="text_14">
     <!-- 0 -->
     <g transform="translate(670.5125 42.354688) scale(0.1 -0.1)">
      <use xlink:href="#DejaVuSans-30"/>
     </g>
    </g>
    <g id="patch_9">
     <path d="M 642.5125 57.032813 
L 662.5125 57.032813 
L 662.5125 50.032813 
L 642.5125 50.032813 
z
" style="fill: #ff7f0e; fill-opacity: 0.75; stroke: #000000; stroke-linejoin: miter"/>
    </g>
    <g id="text_15">
     <!-- 1 -->
     <g transform="translate(670.5125 57.032813) scale(0.1 -0.1)">
      <use xlink:href="#DejaVuSans-31"/>
     </g>
    </g>
   </g>
  </g>
 </g>
 <defs>
  <clipPath id="pe3352482cc">
   <rect x="54.02" y="10.8" width="655.18" height="379.24"/>
  </clipPath>
 </defs>
</svg>
