<?xml version="1.0" encoding="utf-8" standalone="no"?>
<!DOCTYPE svg PUBLIC "-//W3C//DTD SVG 1.1//EN"
  "http://www.w3.org/Graphics/SVG/1.1/DTD/svg11.dtd">
<svg xmlns:xlink="http://www.w3.org/1999/xlink" width="720pt" height="432pt" viewBox="0 0 720 432" xmlns="http://www.w3.org/2000/svg" version="1.1">
 <metadata>
  <rdf:RDF xmlns:dc="http://purl.org/dc/elements/1.1/" xmlns:cc="http://creativecommons.org/ns#" xmlns:rdf="http://www.w3.org/1999/02/22-rdf-syntax-ns#">
   <cc:Work>
    <dc:type rdf:resource="http://purl.org/dc/dcmitype/StillImage"/>
    <dc:date>2024-02-21T16:32:07.468448</dc:date>
    <dc:format>image/svg+xml</dc:format>
    <dc:creator>
     <cc:Agent>
      <dc:title>Matplotlib v3.8.3, https://matplotlib.org/</dc:title>
     </cc:Agent>
    </dc:creator>
   </cc:Work>
  </rdf:RDF>
 </metadata>
 <defs>
  <style type="text/css">*{stroke-linejoin: round; stroke-linecap: butt}</style>
 </defs>
 <g id="figure_1">
  <g id="patch_1">
   <path d="M 0 432 
L 720 432 
L 720 0 
L 0 0 
z
" style="fill: #ffffff"/>
  </g>
  <g id="axes_1">
   <g id="patch_2">
    <path d="M 54.02 390.04 
L 709.2 390.04 
L 709.2 10.8 
L 54.02 10.8 
z
" style="fill: #ffffff"/>
   </g>
   <g id="PolyCollection_1">
    <defs>
     <path id="m7d929eb4cf" d="M 83.800909 -41.960215 
L 83.800909 -41.96 
L 86.793965 -41.96 
L 89.787021 -41.96 
L 92.780078 -41.96 
L 95.773134 -41.96 
L 98.76619 -41.96 
L 101.759246 -41.96 
L 104.752302 -41.96 
L 107.745359 -41.96 
L 110.738415 -41.96 
L 113.731471 -41.96 
L 116.724527 -41.96 
L 119.717583 -41.96 
L 122.71064 -41.96 
L 125.703696 -41.96 
L 128.696752 -41.96 
L 131.689808 -41.96 
L 134.682864 -41.96 
L 137.675921 -41.96 
L 140.668977 -41.96 
L 143.662033 -41.96 
L 146.655089 -41.96 
L 149.648145 -41.96 
L 152.641201 -41.96 
L 155.634258 -41.96 
L 158.627314 -41.96 
L 161.62037 -41.96 
L 164.613426 -41.96 
L 167.606482 -41.96 
L 170.599539 -41.96 
L 173.592595 -41.96 
L 176.585651 -41.96 
L 179.578707 -41.96 
L 182.571763 -41.96 
L 185.56482 -41.96 
L 188.557876 -41.96 
L 191.550932 -41.96 
L 194.543988 -41.96 
L 197.537044 -41.96 
L 200.530101 -41.96 
L 203.523157 -41.96 
L 206.516213 -41.96 
L 209.509269 -41.96 
L 212.502325 -41.96 
L 215.495381 -41.96 
L 218.488438 -41.96 
L 221.481494 -41.96 
L 224.47455 -41.96 
L 227.467606 -41.96 
L 230.460662 -41.96 
L 233.453719 -41.96 
L 236.446775 -41.96 
L 239.439831 -41.96 
L 242.432887 -41.96 
L 245.425943 -41.96 
L 248.419 -41.96 
L 251.412056 -41.96 
L 254.405112 -41.96 
L 257.398168 -41.96 
L 260.391224 -41.96 
L 263.38428 -41.96 
L 266.377337 -41.96 
L 269.370393 -41.96 
L 272.363449 -41.96 
L 275.356505 -41.96 
L 278.349561 -41.96 
L 281.342618 -41.96 
L 284.335674 -41.96 
L 287.32873 -41.96 
L 290.321786 -41.96 
L 293.314842 -41.96 
L 296.307899 -41.96 
L 299.300955 -41.96 
L 302.294011 -41.96 
L 305.287067 -41.96 
L 308.280123 -41.96 
L 311.27318 -41.96 
L 314.266236 -41.96 
L 317.259292 -41.96 
L 320.252348 -41.96 
L 323.245404 -41.96 
L 326.23846 -41.96 
L 329.231517 -41.96 
L 332.224573 -41.96 
L 335.217629 -41.96 
L 338.210685 -41.96 
L 341.203741 -41.96 
L 344.196798 -41.96 
L 347.189854 -41.96 
L 350.18291 -41.96 
L 353.175966 -41.96 
L 356.169022 -41.96 
L 359.162079 -41.96 
L 362.155135 -41.96 
L 365.148191 -41.96 
L 368.141247 -41.96 
L 371.134303 -41.96 
L 374.12736 -41.96 
L 377.120416 -41.96 
L 380.113472 -41.96 
L 383.106528 -41.96 
L 386.099584 -41.96 
L 389.09264 -41.96 
L 392.085697 -41.96 
L 395.078753 -41.96 
L 398.071809 -41.96 
L 401.064865 -41.96 
L 404.057921 -41.96 
L 407.050978 -41.96 
L 410.044034 -41.96 
L 413.03709 -41.96 
L 416.030146 -41.96 
L 419.023202 -41.96 
L 422.016259 -41.96 
L 425.009315 -41.96 
L 428.002371 -41.96 
L 430.995427 -41.96 
L 433.988483 -41.96 
L 436.98154 -41.96 
L 439.974596 -41.96 
L 442.967652 -41.96 
L 445.960708 -41.96 
L 448.953764 -41.96 
L 451.94682 -41.96 
L 454.939877 -41.96 
L 457.932933 -41.96 
L 460.925989 -41.96 
L 463.919045 -41.96 
L 466.912101 -41.96 
L 469.905158 -41.96 
L 472.898214 -41.96 
L 475.89127 -41.96 
L 478.884326 -41.96 
L 481.877382 -41.96 
L 484.870439 -41.96 
L 487.863495 -41.96 
L 490.856551 -41.96 
L 493.849607 -41.96 
L 496.842663 -41.96 
L 499.83572 -41.96 
L 502.828776 -41.96 
L 505.821832 -41.96 
L 508.814888 -41.96 
L 511.807944 -41.96 
L 514.801 -41.96 
L 517.794057 -41.96 
L 520.787113 -41.96 
L 523.780169 -41.96 
L 526.773225 -41.96 
L 529.766281 -41.96 
L 532.759338 -41.96 
L 535.752394 -41.96 
L 538.74545 -41.96 
L 541.738506 -41.96 
L 544.731562 -41.96 
L 547.724619 -41.96 
L 550.717675 -41.96 
L 553.710731 -41.96 
L 556.703787 -41.96 
L 559.696843 -41.96 
L 562.689899 -41.96 
L 565.682956 -41.96 
L 568.676012 -41.96 
L 571.669068 -41.96 
L 574.662124 -41.96 
L 577.65518 -41.96 
L 580.648237 -41.96 
L 583.641293 -41.96 
L 586.634349 -41.96 
L 589.627405 -41.96 
L 592.620461 -41.96 
L 595.613518 -41.96 
L 598.606574 -41.96 
L 601.59963 -41.96 
L 604.592686 -41.96 
L 607.585742 -41.96 
L 610.578799 -41.96 
L 613.571855 -41.96 
L 616.564911 -41.96 
L 619.557967 -41.96 
L 622.551023 -41.96 
L 625.544079 -41.96 
L 628.537136 -41.96 
L 631.530192 -41.96 
L 634.523248 -41.96 
L 637.516304 -41.96 
L 640.50936 -41.96 
L 643.502417 -41.96 
L 646.495473 -41.96 
L 649.488529 -41.96 
L 652.481585 -41.96 
L 655.474641 -41.96 
L 658.467698 -41.96 
L 661.460754 -41.96 
L 664.45381 -41.96 
L 667.446866 -41.96 
L 670.439922 -41.96 
L 673.432979 -41.96 
L 676.426035 -41.96 
L 679.419091 -41.96 
L 679.419091 -41.964222 
L 679.419091 -41.964222 
L 676.426035 -41.969358 
L 673.432979 -41.976463 
L 670.439922 -41.982992 
L 667.446866 -41.985516 
L 664.45381 -41.98261 
L 661.460754 -41.976349 
L 658.467698 -41.970533 
L 655.474641 -41.967667 
L 652.481585 -41.96763 
L 649.488529 -41.968574 
L 646.495473 -41.968781 
L 643.502417 -41.968164 
L 640.50936 -41.96849 
L 637.516304 -41.972067 
L 634.523248 -41.979572 
L 631.530192 -41.988441 
L 628.537136 -41.993834 
L 625.544079 -41.992414 
L 622.551023 -41.985612 
L 619.557967 -41.978656 
L 616.564911 -41.976337 
L 613.571855 -41.979721 
L 610.578799 -41.986417 
L 607.585742 -41.993899 
L 604.592686 -42.002705 
L 601.59963 -42.015198 
L 598.606574 -42.03 
L 595.613518 -42.039603 
L 592.620461 -42.036673 
L 589.627405 -42.02255 
L 586.634349 -42.007019 
L 583.641293 -41.999621 
L 580.648237 -42.002482 
L 577.65518 -42.010647 
L 574.662124 -42.01775 
L 571.669068 -42.021804 
L 568.676012 -42.026283 
L 565.682956 -42.035393 
L 562.689899 -42.04849 
L 559.696843 -42.059649 
L 556.703787 -42.062345 
L 553.710731 -42.054576 
L 550.717675 -42.040471 
L 547.724619 -42.027098 
L 544.731562 -42.019012 
L 541.738506 -42.016101 
L 538.74545 -42.016668 
L 535.752394 -42.020468 
L 532.759338 -42.026904 
L 529.766281 -42.032245 
L 526.773225 -42.032277 
L 523.780169 -42.027783 
L 520.787113 -42.024031 
L 517.794057 -42.023825 
L 514.801 -42.024015 
L 511.807944 -42.020562 
L 508.814888 -42.014776 
L 505.821832 -42.012612 
L 502.828776 -42.018846 
L 499.83572 -42.032874 
L 496.842663 -42.049195 
L 493.849607 -42.061358 
L 490.856551 -42.066125 
L 487.863495 -42.064502 
L 484.870439 -42.059418 
L 481.877382 -42.05343 
L 478.884326 -42.048711 
L 475.89127 -42.047621 
L 472.898214 -42.051715 
L 469.905158 -42.060358 
L 466.912101 -42.071414 
L 463.919045 -42.083405 
L 460.925989 -42.096142 
L 457.932933 -42.109209 
L 454.939877 -42.120988 
L 451.94682 -42.130042 
L 448.953764 -42.137519 
L 445.960708 -42.14794 
L 442.967652 -42.16679 
L 439.974596 -42.195595 
L 436.98154 -42.228652 
L 433.988483 -42.256138 
L 430.995427 -42.271979 
L 428.002371 -42.278908 
L 425.009315 -42.286238 
L 422.016259 -42.302793 
L 419.023202 -42.330563 
L 416.030146 -42.364494 
L 413.03709 -42.399228 
L 410.044034 -42.434858 
L 407.050978 -42.473475 
L 404.057921 -42.51202 
L 401.064865 -42.544917 
L 398.071809 -42.57583 
L 395.078753 -42.621192 
L 392.085697 -42.696779 
L 389.09264 -42.800934 
L 386.099584 -42.912119 
L 383.106528 -43.004155 
L 380.113472 -43.068871 
L 377.120416 -43.12645 
L 374.12736 -43.207785 
L 371.134303 -43.323124 
L 368.141247 -43.45395 
L 365.148191 -43.578395 
L 362.155135 -43.698298 
L 359.162079 -43.838855 
L 356.169022 -44.026373 
L 353.175966 -44.265981 
L 350.18291 -44.535423 
L 347.189854 -44.799676 
L 344.196798 -45.035198 
L 341.203741 -45.243962 
L 338.210685 -45.449506 
L 335.217629 -45.682601 
L 332.224573 -45.965929 
L 329.231517 -46.303123 
L 326.23846 -46.676093 
L 323.245404 -47.054756 
L 320.252348 -47.419589 
L 317.259292 -47.785075 
L 314.266236 -48.203504 
L 311.27318 -48.737866 
L 308.280123 -49.411491 
L 305.287067 -50.16622 
L 302.294011 -50.878192 
L 299.300955 -51.442614 
L 296.307899 -51.861159 
L 293.314842 -52.254739 
L 290.321786 -52.794923 
L 287.32873 -53.602356 
L 284.335674 -54.677126 
L 281.342618 -55.914326 
L 278.349561 -57.18824 
L 275.356505 -58.421376 
L 272.363449 -59.589589 
L 269.370393 -60.69533 
L 266.377337 -61.754811 
L 263.38428 -62.802477 
L 260.391224 -63.891603 
L 257.398168 -65.083135 
L 254.405112 -66.430541 
L 251.412056 -67.969629 
L 248.419 -69.71522 
L 245.425943 -71.653892 
L 242.432887 -73.717518 
L 239.439831 -75.752035 
L 236.446775 -77.538921 
L 233.453719 -78.90044 
L 230.460662 -79.813659 
L 227.467606 -80.417846 
L 224.47455 -80.905645 
L 221.481494 -81.390403 
L 218.488438 -81.842625 
L 215.495381 -82.145319 
L 212.502325 -82.238447 
L 209.509269 -82.227632 
L 206.516213 -82.338322 
L 203.523157 -82.712327 
L 200.530101 -83.165309 
L 197.537044 -83.130307 
L 194.543988 -81.968454 
L 191.550932 -79.464928 
L 188.557876 -76.028798 
L 185.56482 -72.401269 
L 182.571763 -69.178211 
L 179.578707 -66.52088 
L 176.585651 -64.199174 
L 173.592595 -61.894337 
L 170.599539 -59.49456 
L 167.606482 -57.121995 
L 164.613426 -54.936826 
L 161.62037 -52.98615 
L 158.627314 -51.223942 
L 155.634258 -49.604204 
L 152.641201 -48.130073 
L 149.648145 -46.840671 
L 146.655089 -45.77138 
L 143.662033 -44.924571 
L 140.668977 -44.269652 
L 137.675921 -43.763038 
L 134.682864 -43.365846 
L 131.689808 -43.0497 
L 128.696752 -42.795443 
L 125.703696 -42.59075 
L 122.71064 -42.427755 
L 119.717583 -42.300279 
L 116.724527 -42.202084 
L 113.731471 -42.127457 
L 110.738415 -42.07246 
L 107.745359 -42.0343 
L 104.752302 -42.00938 
L 101.759246 -41.992982 
L 98.76619 -41.98116 
L 95.773134 -41.972218 
L 92.780078 -41.966022 
L 89.787021 -41.962452 
L 86.793965 -41.96081 
L 83.800909 -41.960215 
z
" style="stroke: #000000"/>
    </defs>
    <g clip-path="url(#p1ca72c7374)">
     <use xlink:href="#m7d929eb4cf" x="0" y="432" style="fill: #ff7f0e; fill-opacity: 0.75; stroke: #000000"/>
    </g>
   </g>
   <g id="PolyCollection_2">
    <defs>
     <path id="m4bb4b59a9a" d="M 83.800909 -41.960901 
L 83.800909 -41.960215 
L 86.793965 -41.96081 
L 89.787021 -41.962452 
L 92.780078 -41.966022 
L 95.773134 -41.972218 
L 98.76619 -41.98116 
L 101.759246 -41.992982 
L 104.752302 -42.00938 
L 107.745359 -42.0343 
L 110.738415 -42.07246 
L 113.731471 -42.127457 
L 116.724527 -42.202084 
L 119.717583 -42.300279 
L 122.71064 -42.427755 
L 125.703696 -42.59075 
L 128.696752 -42.795443 
L 131.689808 -43.0497 
L 134.682864 -43.365846 
L 137.675921 -43.763038 
L 140.668977 -44.269652 
L 143.662033 -44.924571 
L 146.655089 -45.77138 
L 149.648145 -46.840671 
L 152.641201 -48.130073 
L 155.634258 -49.604204 
L 158.627314 -51.223942 
L 161.62037 -52.98615 
L 164.613426 -54.936826 
L 167.606482 -57.121995 
L 170.599539 -59.49456 
L 173.592595 -61.894337 
L 176.585651 -64.199174 
L 179.578707 -66.52088 
L 182.571763 -69.178211 
L 185.56482 -72.401269 
L 188.557876 -76.028798 
L 191.550932 -79.464928 
L 194.543988 -81.968454 
L 197.537044 -83.130307 
L 200.530101 -83.165309 
L 203.523157 -82.712327 
L 206.516213 -82.338322 
L 209.509269 -82.227632 
L 212.502325 -82.238447 
L 215.495381 -82.145319 
L 218.488438 -81.842625 
L 221.481494 -81.390403 
L 224.47455 -80.905645 
L 227.467606 -80.417846 
L 230.460662 -79.813659 
L 233.453719 -78.90044 
L 236.446775 -77.538921 
L 239.439831 -75.752035 
L 242.432887 -73.717518 
L 245.425943 -71.653892 
L 248.419 -69.71522 
L 251.412056 -67.969629 
L 254.405112 -66.430541 
L 257.398168 -65.083135 
L 260.391224 -63.891603 
L 263.38428 -62.802477 
L 266.377337 -61.754811 
L 269.370393 -60.69533 
L 272.363449 -59.589589 
L 275.356505 -58.421376 
L 278.349561 -57.18824 
L 281.342618 -55.914326 
L 284.335674 -54.677126 
L 287.32873 -53.602356 
L 290.321786 -52.794923 
L 293.314842 -52.254739 
L 296.307899 -51.861159 
L 299.300955 -51.442614 
L 302.294011 -50.878192 
L 305.287067 -50.16622 
L 308.280123 -49.411491 
L 311.27318 -48.737866 
L 314.266236 -48.203504 
L 317.259292 -47.785075 
L 320.252348 -47.419589 
L 323.245404 -47.054756 
L 326.23846 -46.676093 
L 329.231517 -46.303123 
L 332.224573 -45.965929 
L 335.217629 -45.682601 
L 338.210685 -45.449506 
L 341.203741 -45.243962 
L 344.196798 -45.035198 
L 347.189854 -44.799676 
L 350.18291 -44.535423 
L 353.175966 -44.265981 
L 356.169022 -44.026373 
L 359.162079 -43.838855 
L 362.155135 -43.698298 
L 365.148191 -43.578395 
L 368.141247 -43.45395 
L 371.134303 -43.323124 
L 374.12736 -43.207785 
L 377.120416 -43.12645 
L 380.113472 -43.068871 
L 383.106528 -43.004155 
L 386.099584 -42.912119 
L 389.09264 -42.800934 
L 392.085697 -42.696779 
L 395.078753 -42.621192 
L 398.071809 -42.57583 
L 401.064865 -42.544917 
L 404.057921 -42.51202 
L 407.050978 -42.473475 
L 410.044034 -42.434858 
L 413.03709 -42.399228 
L 416.030146 -42.364494 
L 419.023202 -42.330563 
L 422.016259 -42.302793 
L 425.009315 -42.286238 
L 428.002371 -42.278908 
L 430.995427 -42.271979 
L 433.988483 -42.256138 
L 436.98154 -42.228652 
L 439.974596 -42.195595 
L 442.967652 -42.16679 
L 445.960708 -42.14794 
L 448.953764 -42.137519 
L 451.94682 -42.130042 
L 454.939877 -42.120988 
L 457.932933 -42.109209 
L 460.925989 -42.096142 
L 463.919045 -42.083405 
L 466.912101 -42.071414 
L 469.905158 -42.060358 
L 472.898214 -42.051715 
L 475.89127 -42.047621 
L 478.884326 -42.048711 
L 481.877382 -42.05343 
L 484.870439 -42.059418 
L 487.863495 -42.064502 
L 490.856551 -42.066125 
L 493.849607 -42.061358 
L 496.842663 -42.049195 
L 499.83572 -42.032874 
L 502.828776 -42.018846 
L 505.821832 -42.012612 
L 508.814888 -42.014776 
L 511.807944 -42.020562 
L 514.801 -42.024015 
L 517.794057 -42.023825 
L 520.787113 -42.024031 
L 523.780169 -42.027783 
L 526.773225 -42.032277 
L 529.766281 -42.032245 
L 532.759338 -42.026904 
L 535.752394 -42.020468 
L 538.74545 -42.016668 
L 541.738506 -42.016101 
L 544.731562 -42.019012 
L 547.724619 -42.027098 
L 550.717675 -42.040471 
L 553.710731 -42.054576 
L 556.703787 -42.062345 
L 559.696843 -42.059649 
L 562.689899 -42.04849 
L 565.682956 -42.035393 
L 568.676012 -42.026283 
L 571.669068 -42.021804 
L 574.662124 -42.01775 
L 577.65518 -42.010647 
L 580.648237 -42.002482 
L 583.641293 -41.999621 
L 586.634349 -42.007019 
L 589.627405 -42.02255 
L 592.620461 -42.036673 
L 595.613518 -42.039603 
L 598.606574 -42.03 
L 601.59963 -42.015198 
L 604.592686 -42.002705 
L 607.585742 -41.993899 
L 610.578799 -41.986417 
L 613.571855 -41.979721 
L 616.564911 -41.976337 
L 619.557967 -41.978656 
L 622.551023 -41.985612 
L 625.544079 -41.992414 
L 628.537136 -41.993834 
L 631.530192 -41.988441 
L 634.523248 -41.979572 
L 637.516304 -41.972067 
L 640.50936 -41.96849 
L 643.502417 -41.968164 
L 646.495473 -41.968781 
L 649.488529 -41.968574 
L 652.481585 -41.96763 
L 655.474641 -41.967667 
L 658.467698 -41.970533 
L 661.460754 -41.976349 
L 664.45381 -41.98261 
L 667.446866 -41.985516 
L 670.439922 -41.982992 
L 673.432979 -41.976463 
L 676.426035 -41.969358 
L 679.419091 -41.964222 
L 679.419091 -41.964632 
L 679.419091 -41.964632 
L 676.426035 -41.9725 
L 673.432979 -41.989797 
L 670.439922 -42.014311 
L 667.446866 -42.02627 
L 664.45381 -42.012366 
L 661.460754 -41.990802 
L 658.467698 -41.983949 
L 655.474641 -42.000888 
L 652.481585 -42.049207 
L 649.488529 -42.108703 
L 646.495473 -42.113425 
L 643.502417 -42.052915 
L 640.50936 -41.997675 
L 637.516304 -41.991802 
L 634.523248 -42.056313 
L 631.530192 -42.206864 
L 628.537136 -42.341224 
L 625.544079 -42.302165 
L 622.551023 -42.146717 
L 619.557967 -42.039715 
L 616.564911 -42.026989 
L 613.571855 -42.106859 
L 610.578799 -42.257645 
L 607.585742 -42.345164 
L 604.592686 -42.288299 
L 601.59963 -42.265124 
L 598.606574 -42.457913 
L 595.613518 -42.703603 
L 592.620461 -42.653605 
L 589.627405 -42.350228 
L 586.634349 -42.114287 
L 583.641293 -42.054273 
L 580.648237 -42.154341 
L 577.65518 -42.38317 
L 574.662124 -42.537392 
L 571.669068 -42.437024 
L 568.676012 -42.270929 
L 565.682956 -42.298537 
L 562.689899 -42.487466 
L 559.696843 -42.659176 
L 556.703787 -42.743672 
L 553.710731 -42.670202 
L 550.717675 -42.448217 
L 547.724619 -42.371769 
L 544.731562 -42.615309 
L 541.738506 -42.858929 
L 538.74545 -42.716705 
L 535.752394 -42.417034 
L 532.759338 -42.402113 
L 529.766281 -42.618977 
L 526.773225 -42.663289 
L 523.780169 -42.460347 
L 520.787113 -42.35853 
L 517.794057 -42.520711 
L 514.801 -42.692375 
L 511.807944 -42.633457 
L 508.814888 -42.505945 
L 505.821832 -42.536106 
L 502.828776 -42.663204 
L 499.83572 -42.643951 
L 496.842663 -42.480234 
L 493.849607 -42.442648 
L 490.856551 -42.606501 
L 487.863495 -42.717685 
L 484.870439 -42.586741 
L 481.877382 -42.375012 
L 478.884326 -42.245425 
L 475.89127 -42.194987 
L 472.898214 -42.189641 
L 469.905158 -42.208646 
L 466.912101 -42.231954 
L 463.919045 -42.249552 
L 460.925989 -42.253729 
L 457.932933 -42.238767 
L 454.939877 -42.23301 
L 451.94682 -42.259326 
L 448.953764 -42.309999 
L 445.960708 -42.37226 
L 442.967652 -42.444549 
L 439.974596 -42.505177 
L 436.98154 -42.556959 
L 433.988483 -42.62447 
L 430.995427 -42.708335 
L 428.002371 -42.765554 
L 425.009315 -42.767082 
L 422.016259 -42.78797 
L 419.023202 -42.886977 
L 416.030146 -43.024754 
L 413.03709 -43.096139 
L 410.044034 -43.113154 
L 407.050978 -43.145282 
L 404.057921 -43.21848 
L 401.064865 -43.348718 
L 398.071809 -43.540998 
L 395.078753 -43.755548 
L 392.085697 -43.938799 
L 389.09264 -44.169919 
L 386.099584 -44.48381 
L 383.106528 -44.795598 
L 380.113472 -44.863693 
L 377.120416 -44.771889 
L 374.12736 -44.965885 
L 371.134303 -45.572103 
L 368.141247 -46.144712 
L 365.148191 -46.323176 
L 362.155135 -46.396914 
L 359.162079 -46.620455 
L 356.169022 -47.087129 
L 353.175966 -47.749424 
L 350.18291 -48.554731 
L 347.189854 -49.249285 
L 344.196798 -49.78546 
L 341.203741 -50.342766 
L 338.210685 -50.993049 
L 335.217629 -51.853088 
L 332.224573 -52.864925 
L 329.231517 -54.039358 
L 326.23846 -55.059615 
L 323.245404 -56.027133 
L 320.252348 -56.886738 
L 317.259292 -57.80518 
L 314.266236 -59.129528 
L 311.27318 -61.047106 
L 308.280123 -63.59451 
L 305.287067 -66.505485 
L 302.294011 -69.487716 
L 299.300955 -71.583976 
L 296.307899 -73.189946 
L 293.314842 -74.214986 
L 290.321786 -75.429362 
L 287.32873 -77.896797 
L 284.335674 -81.929043 
L 281.342618 -86.908755 
L 278.349561 -92.140242 
L 275.356505 -97.46262 
L 272.363449 -101.800088 
L 269.370393 -106.5515 
L 266.377337 -111.832585 
L 263.38428 -118.02289 
L 260.391224 -123.326395 
L 257.398168 -128.154142 
L 254.405112 -133.83564 
L 251.412056 -140.807729 
L 248.419 -150.169929 
L 245.425943 -161.310563 
L 242.432887 -174.524473 
L 239.439831 -186.841936 
L 236.446775 -199.882539 
L 233.453719 -211.552109 
L 230.460662 -223.682713 
L 227.467606 -236.339496 
L 224.47455 -249.964884 
L 221.481494 -264.525822 
L 218.488438 -277.116797 
L 215.495381 -288.780735 
L 212.502325 -293.911715 
L 209.509269 -299.239552 
L 206.516213 -306.032468 
L 203.523157 -321.118941 
L 200.530101 -348.987976 
L 197.537044 -385.335478 
L 194.543988 -403.140952 
L 191.550932 -389.065269 
L 188.557876 -365.878284 
L 185.56482 -340.315386 
L 182.571763 -324.567186 
L 179.578707 -321.222595 
L 176.585651 -324.539577 
L 173.592595 -315.764232 
L 170.599539 -296.093697 
L 167.606482 -276.894375 
L 164.613426 -258.633371 
L 161.62037 -240.806444 
L 158.627314 -217.270377 
L 155.634258 -193.995214 
L 152.641201 -170.356228 
L 149.648145 -148.95829 
L 146.655089 -130.313302 
L 143.662033 -113.628948 
L 140.668977 -98.61568 
L 137.675921 -84.065005 
L 134.682864 -72.427003 
L 131.689808 -63.331137 
L 128.696752 -56.765305 
L 125.703696 -52.206216 
L 122.71064 -49.007169 
L 119.717583 -46.724374 
L 116.724527 -45.033938 
L 113.731471 -43.90771 
L 110.738415 -43.164655 
L 107.745359 -42.725766 
L 104.752302 -42.487425 
L 101.759246 -42.337931 
L 98.76619 -42.208248 
L 95.773134 -42.102595 
L 92.780078 -42.030914 
L 89.787021 -41.98612 
L 86.793965 -41.966138 
L 83.800909 -41.960901 
z
" style="stroke: #000000"/>
    </defs>
    <g clip-path="url(#p1ca72c7374)">
     <use xlink:href="#m4bb4b59a9a" x="0" y="432" style="fill: #1f77b4; fill-opacity: 0.75; stroke: #000000"/>
    </g>
   </g>
   <g id="matplotlib.axis_1">
    <g id="xtick_1">
     <g id="line2d_1">
      <defs>
       <path id="m0ddb37db72" d="M 0 0 
L 0 3.5 
" style="stroke: #000000; stroke-width: 0.8"/>
      </defs>
      <g>
       <use xlink:href="#m0ddb37db72" x="148.814033" y="390.04" style="stroke: #000000; stroke-width: 0.8"/>
      </g>
     </g>
     <g id="text_1">
      <!-- 20 -->
      <g transform="translate(142.451533 404.638438) scale(0.1 -0.1)">
       <defs>
        <path id="DejaVuSans-32" d="M 1228 531 
L 3431 531 
L 3431 0 
L 469 0 
L 469 531 
Q 828 903 1448 1529 
Q 2069 2156 2228 2338 
Q 2531 2678 2651 2914 
Q 2772 3150 2772 3378 
Q 2772 3750 2511 3984 
Q 2250 4219 1831 4219 
Q 1534 4219 1204 4116 
Q 875 4013 500 3803 
L 500 4441 
Q 881 4594 1212 4672 
Q 1544 4750 1819 4750 
Q 2544 4750 2975 4387 
Q 3406 4025 3406 3419 
Q 3406 3131 3298 2873 
Q 3191 2616 2906 2266 
Q 2828 2175 2409 1742 
Q 1991 1309 1228 531 
z
" transform="scale(0.015625)"/>
        <path id="DejaVuSans-30" d="M 2034 4250 
Q 1547 4250 1301 3770 
Q 1056 3291 1056 2328 
Q 1056 1369 1301 889 
Q 1547 409 2034 409 
Q 2525 409 2770 889 
Q 3016 1369 3016 2328 
Q 3016 3291 2770 3770 
Q 2525 4250 2034 4250 
z
M 2034 4750 
Q 2819 4750 3233 4129 
Q 3647 3509 3647 2328 
Q 3647 1150 3233 529 
Q 2819 -91 2034 -91 
Q 1250 -91 836 529 
Q 422 1150 422 2328 
Q 422 3509 836 4129 
Q 1250 4750 2034 4750 
z
" transform="scale(0.015625)"/>
       </defs>
       <use xlink:href="#DejaVuSans-32"/>
       <use xlink:href="#DejaVuSans-30" x="63.623047"/>
      </g>
     </g>
    </g>
    <g id="xtick_2">
     <g id="line2d_2">
      <g>
       <use xlink:href="#m0ddb37db72" x="281.8403" y="390.04" style="stroke: #000000; stroke-width: 0.8"/>
      </g>
     </g>
     <g id="text_2">
      <!-- 40 -->
      <g transform="translate(275.4778 404.638438) scale(0.1 -0.1)">
       <defs>
        <path id="DejaVuSans-34" d="M 2419 4116 
L 825 1625 
L 2419 1625 
L 2419 4116 
z
M 2253 4666 
L 3047 4666 
L 3047 1625 
L 3713 1625 
L 3713 1100 
L 3047 1100 
L 3047 0 
L 2419 0 
L 2419 1100 
L 313 1100 
L 313 1709 
L 2253 4666 
z
" transform="scale(0.015625)"/>
       </defs>
       <use xlink:href="#DejaVuSans-34"/>
       <use xlink:href="#DejaVuSans-30" x="63.623047"/>
      </g>
     </g>
    </g>
    <g id="xtick_3">
     <g id="line2d_3">
      <g>
       <use xlink:href="#m0ddb37db72" x="414.866567" y="390.04" style="stroke: #000000; stroke-width: 0.8"/>
      </g>
     </g>
     <g id="text_3">
      <!-- 60 -->
      <g transform="translate(408.504067 404.638438) scale(0.1 -0.1)">
       <defs>
        <path id="DejaVuSans-36" d="M 2113 2584 
Q 1688 2584 1439 2293 
Q 1191 2003 1191 1497 
Q 1191 994 1439 701 
Q 1688 409 2113 409 
Q 2538 409 2786 701 
Q 3034 994 3034 1497 
Q 3034 2003 2786 2293 
Q 2538 2584 2113 2584 
z
M 3366 4563 
L 3366 3988 
Q 3128 4100 2886 4159 
Q 2644 4219 2406 4219 
Q 1781 4219 1451 3797 
Q 1122 3375 1075 2522 
Q 1259 2794 1537 2939 
Q 1816 3084 2150 3084 
Q 2853 3084 3261 2657 
Q 3669 2231 3669 1497 
Q 3669 778 3244 343 
Q 2819 -91 2113 -91 
Q 1303 -91 875 529 
Q 447 1150 447 2328 
Q 447 3434 972 4092 
Q 1497 4750 2381 4750 
Q 2619 4750 2861 4703 
Q 3103 4656 3366 4563 
z
" transform="scale(0.015625)"/>
       </defs>
       <use xlink:href="#DejaVuSans-36"/>
       <use xlink:href="#DejaVuSans-30" x="63.623047"/>
      </g>
     </g>
    </g>
    <g id="xtick_4">
     <g id="line2d_4">
      <g>
       <use xlink:href="#m0ddb37db72" x="547.892834" y="390.04" style="stroke: #000000; stroke-width: 0.8"/>
      </g>
     </g>
     <g id="text_4">
      <!-- 80 -->
      <g transform="translate(541.530334 404.638438) scale(0.1 -0.1)">
       <defs>
        <path id="DejaVuSans-38" d="M 2034 2216 
Q 1584 2216 1326 1975 
Q 1069 1734 1069 1313 
Q 1069 891 1326 650 
Q 1584 409 2034 409 
Q 2484 409 2743 651 
Q 3003 894 3003 1313 
Q 3003 1734 2745 1975 
Q 2488 2216 2034 2216 
z
M 1403 2484 
Q 997 2584 770 2862 
Q 544 3141 544 3541 
Q 544 4100 942 4425 
Q 1341 4750 2034 4750 
Q 2731 4750 3128 4425 
Q 3525 4100 3525 3541 
Q 3525 3141 3298 2862 
Q 3072 2584 2669 2484 
Q 3125 2378 3379 2068 
Q 3634 1759 3634 1313 
Q 3634 634 3220 271 
Q 2806 -91 2034 -91 
Q 1263 -91 848 271 
Q 434 634 434 1313 
Q 434 1759 690 2068 
Q 947 2378 1403 2484 
z
M 1172 3481 
Q 1172 3119 1398 2916 
Q 1625 2713 2034 2713 
Q 2441 2713 2670 2916 
Q 2900 3119 2900 3481 
Q 2900 3844 2670 4047 
Q 2441 4250 2034 4250 
Q 1625 4250 1398 4047 
Q 1172 3844 1172 3481 
z
" transform="scale(0.015625)"/>
       </defs>
       <use xlink:href="#DejaVuSans-38"/>
       <use xlink:href="#DejaVuSans-30" x="63.623047"/>
      </g>
     </g>
    </g>
    <g id="xtick_5">
     <g id="line2d_5">
      <g>
       <use xlink:href="#m0ddb37db72" x="680.9191" y="390.04" style="stroke: #000000; stroke-width: 0.8"/>
      </g>
     </g>
     <g id="text_5">
      <!-- 100 -->
      <g transform="translate(671.37535 404.638438) scale(0.1 -0.1)">
       <defs>
        <path id="DejaVuSans-31" d="M 794 531 
L 1825 531 
L 1825 4091 
L 703 3866 
L 703 4441 
L 1819 4666 
L 2450 4666 
L 2450 531 
L 3481 531 
L 3481 0 
L 794 0 
L 794 531 
z
" transform="scale(0.015625)"/>
       </defs>
       <use xlink:href="#DejaVuSans-31"/>
       <use xlink:href="#DejaVuSans-30" x="63.623047"/>
       <use xlink:href="#DejaVuSans-30" x="127.246094"/>
      </g>
     </g>
    </g>
    <g id="text_6">
     <!-- BMI -->
     <g transform="translate(372.390469 418.316562) scale(0.1 -0.1)">
      <defs>
       <path id="DejaVuSans-42" d="M 1259 2228 
L 1259 519 
L 2272 519 
Q 2781 519 3026 730 
Q 3272 941 3272 1375 
Q 3272 1813 3026 2020 
Q 2781 2228 2272 2228 
L 1259 2228 
z
M 1259 4147 
L 1259 2741 
L 2194 2741 
Q 2656 2741 2882 2914 
Q 3109 3088 3109 3444 
Q 3109 3797 2882 3972 
Q 2656 4147 2194 4147 
L 1259 4147 
z
M 628 4666 
L 2241 4666 
Q 2963 4666 3353 4366 
Q 3744 4066 3744 3513 
Q 3744 3084 3544 2831 
Q 3344 2578 2956 2516 
Q 3422 2416 3680 2098 
Q 3938 1781 3938 1306 
Q 3938 681 3513 340 
Q 3088 0 2303 0 
L 628 0 
L 628 4666 
z
" transform="scale(0.015625)"/>
       <path id="DejaVuSans-4d" d="M 628 4666 
L 1569 4666 
L 2759 1491 
L 3956 4666 
L 4897 4666 
L 4897 0 
L 4281 0 
L 4281 4097 
L 3078 897 
L 2444 897 
L 1241 4097 
L 1241 0 
L 628 0 
L 628 4666 
z
" transform="scale(0.015625)"/>
       <path id="DejaVuSans-49" d="M 628 4666 
L 1259 4666 
L 1259 0 
L 628 0 
L 628 4666 
z
" transform="scale(0.015625)"/>
      </defs>
      <use xlink:href="#DejaVuSans-42"/>
      <use xlink:href="#DejaVuSans-4d" x="68.603516"/>
      <use xlink:href="#DejaVuSans-49" x="154.882812"/>
     </g>
    </g>
   </g>
   <g id="matplotlib.axis_2">
    <g id="ytick_1">
     <g id="line2d_6">
      <defs>
       <path id="m83153c7513" d="M 0 0 
L -3.5 0 
" style="stroke: #000000; stroke-width: 0.8"/>
      </defs>
      <g>
       <use xlink:href="#m83153c7513" x="54.02" y="390.04" style="stroke: #000000; stroke-width: 0.8"/>
      </g>
     </g>
     <g id="text_7">
      <!-- 0.00 -->
      <g transform="translate(24.754375 393.839219) scale(0.1 -0.1)">
       <defs>
        <path id="DejaVuSans-2e" d="M 684 794 
L 1344 794 
L 1344 0 
L 684 0 
L 684 794 
z
" transform="scale(0.015625)"/>
       </defs>
       <use xlink:href="#DejaVuSans-30"/>
       <use xlink:href="#DejaVuSans-2e" x="63.623047"/>
       <use xlink:href="#DejaVuSans-30" x="95.410156"/>
       <use xlink:href="#DejaVuSans-30" x="159.033203"/>
      </g>
     </g>
    </g>
    <g id="ytick_2">
     <g id="line2d_7">
      <g>
       <use xlink:href="#m83153c7513" x="54.02" y="347.676343" style="stroke: #000000; stroke-width: 0.8"/>
      </g>
     </g>
     <g id="text_8">
      <!-- 0.01 -->
      <g transform="translate(24.754375 351.475562) scale(0.1 -0.1)">
       <use xlink:href="#DejaVuSans-30"/>
       <use xlink:href="#DejaVuSans-2e" x="63.623047"/>
       <use xlink:href="#DejaVuSans-30" x="95.410156"/>
       <use xlink:href="#DejaVuSans-31" x="159.033203"/>
      </g>
     </g>
    </g>
    <g id="ytick_3">
     <g id="line2d_8">
      <g>
       <use xlink:href="#m83153c7513" x="54.02" y="305.312686" style="stroke: #000000; stroke-width: 0.8"/>
      </g>
     </g>
     <g id="text_9">
      <!-- 0.02 -->
      <g transform="translate(24.754375 309.111905) scale(0.1 -0.1)">
       <use xlink:href="#DejaVuSans-30"/>
       <use xlink:href="#DejaVuSans-2e" x="63.623047"/>
       <use xlink:href="#DejaVuSans-30" x="95.410156"/>
       <use xlink:href="#DejaVuSans-32" x="159.033203"/>
      </g>
     </g>
    </g>
    <g id="ytick_4">
     <g id="line2d_9">
      <g>
       <use xlink:href="#m83153c7513" x="54.02" y="262.949029" style="stroke: #000000; stroke-width: 0.8"/>
      </g>
     </g>
     <g id="text_10">
      <!-- 0.03 -->
      <g transform="translate(24.754375 266.748247) scale(0.1 -0.1)">
       <defs>
        <path id="DejaVuSans-33" d="M 2597 2516 
Q 3050 2419 3304 2112 
Q 3559 1806 3559 1356 
Q 3559 666 3084 287 
Q 2609 -91 1734 -91 
Q 1441 -91 1130 -33 
Q 819 25 488 141 
L 488 750 
Q 750 597 1062 519 
Q 1375 441 1716 441 
Q 2309 441 2620 675 
Q 2931 909 2931 1356 
Q 2931 1769 2642 2001 
Q 2353 2234 1838 2234 
L 1294 2234 
L 1294 2753 
L 1863 2753 
Q 2328 2753 2575 2939 
Q 2822 3125 2822 3475 
Q 2822 3834 2567 4026 
Q 2313 4219 1838 4219 
Q 1578 4219 1281 4162 
Q 984 4106 628 3988 
L 628 4550 
Q 988 4650 1302 4700 
Q 1616 4750 1894 4750 
Q 2613 4750 3031 4423 
Q 3450 4097 3450 3541 
Q 3450 3153 3228 2886 
Q 3006 2619 2597 2516 
z
" transform="scale(0.015625)"/>
       </defs>
       <use xlink:href="#DejaVuSans-30"/>
       <use xlink:href="#DejaVuSans-2e" x="63.623047"/>
       <use xlink:href="#DejaVuSans-30" x="95.410156"/>
       <use xlink:href="#DejaVuSans-33" x="159.033203"/>
      </g>
     </g>
    </g>
    <g id="ytick_5">
     <g id="line2d_10">
      <g>
       <use xlink:href="#m83153c7513" x="54.02" y="220.585372" style="stroke: #000000; stroke-width: 0.8"/>
      </g>
     </g>
     <g id="text_11">
      <!-- 0.04 -->
      <g transform="translate(24.754375 224.38459) scale(0.1 -0.1)">
       <use xlink:href="#DejaVuSans-30"/>
       <use xlink:href="#DejaVuSans-2e" x="63.623047"/>
       <use xlink:href="#DejaVuSans-30" x="95.410156"/>
       <use xlink:href="#DejaVuSans-34" x="159.033203"/>
      </g>
     </g>
    </g>
    <g id="ytick_6">
     <g id="line2d_11">
      <g>
       <use xlink:href="#m83153c7513" x="54.02" y="178.221715" style="stroke: #000000; stroke-width: 0.8"/>
      </g>
     </g>
     <g id="text_12">
      <!-- 0.05 -->
      <g transform="translate(24.754375 182.020933) scale(0.1 -0.1)">
       <defs>
        <path id="DejaVuSans-35" d="M 691 4666 
L 3169 4666 
L 3169 4134 
L 1269 4134 
L 1269 2991 
Q 1406 3038 1543 3061 
Q 1681 3084 1819 3084 
Q 2600 3084 3056 2656 
Q 3513 2228 3513 1497 
Q 3513 744 3044 326 
Q 2575 -91 1722 -91 
Q 1428 -91 1123 -41 
Q 819 9 494 109 
L 494 744 
Q 775 591 1075 516 
Q 1375 441 1709 441 
Q 2250 441 2565 725 
Q 2881 1009 2881 1497 
Q 2881 1984 2565 2268 
Q 2250 2553 1709 2553 
Q 1456 2553 1204 2497 
Q 953 2441 691 2322 
L 691 4666 
z
" transform="scale(0.015625)"/>
       </defs>
       <use xlink:href="#DejaVuSans-30"/>
       <use xlink:href="#DejaVuSans-2e" x="63.623047"/>
       <use xlink:href="#DejaVuSans-30" x="95.410156"/>
       <use xlink:href="#DejaVuSans-35" x="159.033203"/>
      </g>
     </g>
    </g>
    <g id="ytick_7">
     <g id="line2d_12">
      <g>
       <use xlink:href="#m83153c7513" x="54.02" y="135.858057" style="stroke: #000000; stroke-width: 0.8"/>
      </g>
     </g>
     <g id="text_13">
      <!-- 0.06 -->
      <g transform="translate(24.754375 139.657276) scale(0.1 -0.1)">
       <use xlink:href="#DejaVuSans-30"/>
       <use xlink:href="#DejaVuSans-2e" x="63.623047"/>
       <use xlink:href="#DejaVuSans-30" x="95.410156"/>
       <use xlink:href="#DejaVuSans-36" x="159.033203"/>
      </g>
     </g>
    </g>
    <g id="ytick_8">
     <g id="line2d_13">
      <g>
       <use xlink:href="#m83153c7513" x="54.02" y="93.4944" style="stroke: #000000; stroke-width: 0.8"/>
      </g>
     </g>
     <g id="text_14">
      <!-- 0.07 -->
      <g transform="translate(24.754375 97.293619) scale(0.1 -0.1)">
       <defs>
        <path id="DejaVuSans-37" d="M 525 4666 
L 3525 4666 
L 3525 4397 
L 1831 0 
L 1172 0 
L 2766 4134 
L 525 4134 
L 525 4666 
z
" transform="scale(0.015625)"/>
       </defs>
       <use xlink:href="#DejaVuSans-30"/>
       <use xlink:href="#DejaVuSans-2e" x="63.623047"/>
       <use xlink:href="#DejaVuSans-30" x="95.410156"/>
       <use xlink:href="#DejaVuSans-37" x="159.033203"/>
      </g>
     </g>
    </g>
    <g id="ytick_9">
     <g id="line2d_14">
      <g>
       <use xlink:href="#m83153c7513" x="54.02" y="51.130743" style="stroke: #000000; stroke-width: 0.8"/>
      </g>
     </g>
     <g id="text_15">
      <!-- 0.08 -->
      <g transform="translate(24.754375 54.929962) scale(0.1 -0.1)">
       <use xlink:href="#DejaVuSans-30"/>
       <use xlink:href="#DejaVuSans-2e" x="63.623047"/>
       <use xlink:href="#DejaVuSans-30" x="95.410156"/>
       <use xlink:href="#DejaVuSans-38" x="159.033203"/>
      </g>
     </g>
    </g>
    <g id="text_16">
     <!-- Density -->
     <g transform="translate(18.674688 219.428594) rotate(-90) scale(0.1 -0.1)">
      <defs>
       <path id="DejaVuSans-44" d="M 1259 4147 
L 1259 519 
L 2022 519 
Q 2988 519 3436 956 
Q 3884 1394 3884 2338 
Q 3884 3275 3436 3711 
Q 2988 4147 2022 4147 
L 1259 4147 
z
M 628 4666 
L 1925 4666 
Q 3281 4666 3915 4102 
Q 4550 3538 4550 2338 
Q 4550 1131 3912 565 
Q 3275 0 1925 0 
L 628 0 
L 628 4666 
z
" transform="scale(0.015625)"/>
       <path id="DejaVuSans-65" d="M 3597 1894 
L 3597 1613 
L 953 1613 
Q 991 1019 1311 708 
Q 1631 397 2203 397 
Q 2534 397 2845 478 
Q 3156 559 3463 722 
L 3463 178 
Q 3153 47 2828 -22 
Q 2503 -91 2169 -91 
Q 1331 -91 842 396 
Q 353 884 353 1716 
Q 353 2575 817 3079 
Q 1281 3584 2069 3584 
Q 2775 3584 3186 3129 
Q 3597 2675 3597 1894 
z
M 3022 2063 
Q 3016 2534 2758 2815 
Q 2500 3097 2075 3097 
Q 1594 3097 1305 2825 
Q 1016 2553 972 2059 
L 3022 2063 
z
" transform="scale(0.015625)"/>
       <path id="DejaVuSans-6e" d="M 3513 2113 
L 3513 0 
L 2938 0 
L 2938 2094 
Q 2938 2591 2744 2837 
Q 2550 3084 2163 3084 
Q 1697 3084 1428 2787 
Q 1159 2491 1159 1978 
L 1159 0 
L 581 0 
L 581 3500 
L 1159 3500 
L 1159 2956 
Q 1366 3272 1645 3428 
Q 1925 3584 2291 3584 
Q 2894 3584 3203 3211 
Q 3513 2838 3513 2113 
z
" transform="scale(0.015625)"/>
       <path id="DejaVuSans-73" d="M 2834 3397 
L 2834 2853 
Q 2591 2978 2328 3040 
Q 2066 3103 1784 3103 
Q 1356 3103 1142 2972 
Q 928 2841 928 2578 
Q 928 2378 1081 2264 
Q 1234 2150 1697 2047 
L 1894 2003 
Q 2506 1872 2764 1633 
Q 3022 1394 3022 966 
Q 3022 478 2636 193 
Q 2250 -91 1575 -91 
Q 1294 -91 989 -36 
Q 684 19 347 128 
L 347 722 
Q 666 556 975 473 
Q 1284 391 1588 391 
Q 1994 391 2212 530 
Q 2431 669 2431 922 
Q 2431 1156 2273 1281 
Q 2116 1406 1581 1522 
L 1381 1569 
Q 847 1681 609 1914 
Q 372 2147 372 2553 
Q 372 3047 722 3315 
Q 1072 3584 1716 3584 
Q 2034 3584 2315 3537 
Q 2597 3491 2834 3397 
z
" transform="scale(0.015625)"/>
       <path id="DejaVuSans-69" d="M 603 3500 
L 1178 3500 
L 1178 0 
L 603 0 
L 603 3500 
z
M 603 4863 
L 1178 4863 
L 1178 4134 
L 603 4134 
L 603 4863 
z
" transform="scale(0.015625)"/>
       <path id="DejaVuSans-74" d="M 1172 4494 
L 1172 3500 
L 2356 3500 
L 2356 3053 
L 1172 3053 
L 1172 1153 
Q 1172 725 1289 603 
Q 1406 481 1766 481 
L 2356 481 
L 2356 0 
L 1766 0 
Q 1100 0 847 248 
Q 594 497 594 1153 
L 594 3053 
L 172 3053 
L 172 3500 
L 594 3500 
L 594 4494 
L 1172 4494 
z
" transform="scale(0.015625)"/>
       <path id="DejaVuSans-79" d="M 2059 -325 
Q 1816 -950 1584 -1140 
Q 1353 -1331 966 -1331 
L 506 -1331 
L 506 -850 
L 844 -850 
Q 1081 -850 1212 -737 
Q 1344 -625 1503 -206 
L 1606 56 
L 191 3500 
L 800 3500 
L 1894 763 
L 2988 3500 
L 3597 3500 
L 2059 -325 
z
" transform="scale(0.015625)"/>
      </defs>
      <use xlink:href="#DejaVuSans-44"/>
      <use xlink:href="#DejaVuSans-65" x="77.001953"/>
      <use xlink:href="#DejaVuSans-6e" x="138.525391"/>
      <use xlink:href="#DejaVuSans-73" x="201.904297"/>
      <use xlink:href="#DejaVuSans-69" x="254.003906"/>
      <use xlink:href="#DejaVuSans-74" x="281.787109"/>
      <use xlink:href="#DejaVuSans-79" x="320.996094"/>
     </g>
    </g>
   </g>
   <g id="patch_3">
    <path d="M 54.02 390.04 
L 54.02 10.8 
" style="fill: none; stroke: #000000; stroke-width: 0.8; stroke-linejoin: miter; stroke-linecap: square"/>
   </g>
   <g id="patch_4">
    <path d="M 709.2 390.04 
L 709.2 10.8 
" style="fill: none; stroke: #000000; stroke-width: 0.8; stroke-linejoin: miter; stroke-linecap: square"/>
   </g>
   <g id="patch_5">
    <path d="M 54.02 390.04 
L 709.2 390.04 
" style="fill: none; stroke: #000000; stroke-width: 0.8; stroke-linejoin: miter; stroke-linecap: square"/>
   </g>
   <g id="patch_6">
    <path d="M 54.02 10.8 
L 709.2 10.8 
" style="fill: none; stroke: #000000; stroke-width: 0.8; stroke-linejoin: miter; stroke-linecap: square"/>
   </g>
   <g id="legend_1">
    <g id="patch_7">
     <path d="M 617.1875 63.1125 
L 702.2 63.1125 
Q 704.2 63.1125 704.2 61.1125 
L 704.2 17.8 
Q 704.2 15.8 702.2 15.8 
L 617.1875 15.8 
Q 615.1875 15.8 615.1875 17.8 
L 615.1875 61.1125 
Q 615.1875 63.1125 617.1875 63.1125 
z
" style="fill: #ffffff; opacity: 0.8; stroke: #cccccc; stroke-linejoin: miter"/>
    </g>
    <g id="text_17">
     <!-- Diabetes_binary -->
     <g transform="translate(619.1875 27.398438) scale(0.1 -0.1)">
      <defs>
       <path id="DejaVuSans-61" d="M 2194 1759 
Q 1497 1759 1228 1600 
Q 959 1441 959 1056 
Q 959 750 1161 570 
Q 1363 391 1709 391 
Q 2188 391 2477 730 
Q 2766 1069 2766 1631 
L 2766 1759 
L 2194 1759 
z
M 3341 1997 
L 3341 0 
L 2766 0 
L 2766 531 
Q 2569 213 2275 61 
Q 1981 -91 1556 -91 
Q 1019 -91 701 211 
Q 384 513 384 1019 
Q 384 1609 779 1909 
Q 1175 2209 1959 2209 
L 2766 2209 
L 2766 2266 
Q 2766 2663 2505 2880 
Q 2244 3097 1772 3097 
Q 1472 3097 1187 3025 
Q 903 2953 641 2809 
L 641 3341 
Q 956 3463 1253 3523 
Q 1550 3584 1831 3584 
Q 2591 3584 2966 3190 
Q 3341 2797 3341 1997 
z
" transform="scale(0.015625)"/>
       <path id="DejaVuSans-62" d="M 3116 1747 
Q 3116 2381 2855 2742 
Q 2594 3103 2138 3103 
Q 1681 3103 1420 2742 
Q 1159 2381 1159 1747 
Q 1159 1113 1420 752 
Q 1681 391 2138 391 
Q 2594 391 2855 752 
Q 3116 1113 3116 1747 
z
M 1159 2969 
Q 1341 3281 1617 3432 
Q 1894 3584 2278 3584 
Q 2916 3584 3314 3078 
Q 3713 2572 3713 1747 
Q 3713 922 3314 415 
Q 2916 -91 2278 -91 
Q 1894 -91 1617 61 
Q 1341 213 1159 525 
L 1159 0 
L 581 0 
L 581 4863 
L 1159 4863 
L 1159 2969 
z
" transform="scale(0.015625)"/>
       <path id="DejaVuSans-5f" d="M 3263 -1063 
L 3263 -1509 
L -63 -1509 
L -63 -1063 
L 3263 -1063 
z
" transform="scale(0.015625)"/>
       <path id="DejaVuSans-72" d="M 2631 2963 
Q 2534 3019 2420 3045 
Q 2306 3072 2169 3072 
Q 1681 3072 1420 2755 
Q 1159 2438 1159 1844 
L 1159 0 
L 581 0 
L 581 3500 
L 1159 3500 
L 1159 2956 
Q 1341 3275 1631 3429 
Q 1922 3584 2338 3584 
Q 2397 3584 2469 3576 
Q 2541 3569 2628 3553 
L 2631 2963 
z
" transform="scale(0.015625)"/>
      </defs>
      <use xlink:href="#DejaVuSans-44"/>
      <use xlink:href="#DejaVuSans-69" x="77.001953"/>
      <use xlink:href="#DejaVuSans-61" x="104.785156"/>
      <use xlink:href="#DejaVuSans-62" x="166.064453"/>
      <use xlink:href="#DejaVuSans-65" x="229.541016"/>
      <use xlink:href="#DejaVuSans-74" x="291.064453"/>
      <use xlink:href="#DejaVuSans-65" x="330.273438"/>
      <use xlink:href="#DejaVuSans-73" x="391.796875"/>
      <use xlink:href="#DejaVuSans-5f" x="443.896484"/>
      <use xlink:href="#DejaVuSans-62" x="493.896484"/>
      <use xlink:href="#DejaVuSans-69" x="557.373047"/>
      <use xlink:href="#DejaVuSans-6e" x="585.15625"/>
      <use xlink:href="#DejaVuSans-61" x="648.535156"/>
      <use xlink:href="#DejaVuSans-72" x="709.814453"/>
      <use xlink:href="#DejaVuSans-79" x="750.927734"/>
     </g>
    </g>
    <g id="patch_8">
     <path d="M 642.5125 42.354688 
L 662.5125 42.354688 
L 662.5125 35.354688 
L 642.5125 35.354688 
z
" style="fill: #1f77b4; fill-opacity: 0.75; stroke: #000000; stroke-linejoin: miter"/>
    </g>
    <g id="text_18">
     <!-- 0 -->
     <g transform="translate(670.5125 42.354688) scale(0.1 -0.1)">
      <use xlink:href="#DejaVuSans-30"/>
     </g>
    </g>
    <g id="patch_9">
     <path d="M 642.5125 57.032813 
L 662.5125 57.032813 
L 662.5125 50.032813 
L 642.5125 50.032813 
z
" style="fill: #ff7f0e; fill-opacity: 0.75; stroke: #000000; stroke-linejoin: miter"/>
    </g>
    <g id="text_19">
     <!-- 1 -->
     <g transform="translate(670.5125 57.032813) scale(0.1 -0.1)">
      <use xlink:href="#DejaVuSans-31"/>
     </g>
    </g>
   </g>
  </g>
 </g>
 <defs>
  <clipPath id="p1ca72c7374">
   <rect x="54.02" y="10.8" width="655.18" height="379.24"/>
  </clipPath>
 </defs>
</svg>
