<?xml version="1.0" encoding="utf-8" standalone="no"?>
<!DOCTYPE svg PUBLIC "-//W3C//DTD SVG 1.1//EN"
  "http://www.w3.org/Graphics/SVG/1.1/DTD/svg11.dtd">
<svg xmlns:xlink="http://www.w3.org/1999/xlink" width="720pt" height="432pt" viewBox="0 0 720 432" xmlns="http://www.w3.org/2000/svg" version="1.1">
 <metadata>
  <rdf:RDF xmlns:dc="http://purl.org/dc/elements/1.1/" xmlns:cc="http://creativecommons.org/ns#" xmlns:rdf="http://www.w3.org/1999/02/22-rdf-syntax-ns#">
   <cc:Work>
    <dc:type rdf:resource="http://purl.org/dc/dcmitype/StillImage"/>
    <dc:date>2024-04-19T18:16:48.063499</dc:date>
    <dc:format>image/svg+xml</dc:format>
    <dc:creator>
     <cc:Agent>
      <dc:title>Matplotlib v3.8.3, https://matplotlib.org/</dc:title>
     </cc:Agent>
    </dc:creator>
   </cc:Work>
  </rdf:RDF>
 </metadata>
 <defs>
  <style type="text/css">*{stroke-linejoin: round; stroke-linecap: butt}</style>
 </defs>
 <g id="figure_1">
  <g id="patch_1">
   <path d="M 0 432 
L 720 432 
L 720 0 
L 0 0 
z
" style="fill: #ffffff"/>
  </g>
  <g id="axes_1">
   <g id="patch_2">
    <path d="M 54.02 390.04 
L 709.2 390.04 
L 709.2 10.8 
L 54.02 10.8 
z
" style="fill: #ffffff"/>
   </g>
   <g id="PolyCollection_1">
    <defs>
     <path id="m2dc91e3f9a" d="M 83.800909 -41.960215 
L 83.800909 -41.96 
L 86.793965 -41.96 
L 89.787021 -41.96 
L 92.780078 -41.96 
L 95.773134 -41.96 
L 98.76619 -41.96 
L 101.759246 -41.96 
L 104.752302 -41.96 
L 107.745359 -41.96 
L 110.738415 -41.96 
L 113.731471 -41.96 
L 116.724527 -41.96 
L 119.717583 -41.96 
L 122.71064 -41.96 
L 125.703696 -41.96 
L 128.696752 -41.96 
L 131.689808 -41.96 
L 134.682864 -41.96 
L 137.675921 -41.96 
L 140.668977 -41.96 
L 143.662033 -41.96 
L 146.655089 -41.96 
L 149.648145 -41.96 
L 152.641201 -41.96 
L 155.634258 -41.96 
L 158.627314 -41.96 
L 161.62037 -41.96 
L 164.613426 -41.96 
L 167.606482 -41.96 
L 170.599539 -41.96 
L 173.592595 -41.96 
L 176.585651 -41.96 
L 179.578707 -41.96 
L 182.571763 -41.96 
L 185.56482 -41.96 
L 188.557876 -41.96 
L 191.550932 -41.96 
L 194.543988 -41.96 
L 197.537044 -41.96 
L 200.530101 -41.96 
L 203.523157 -41.96 
L 206.516213 -41.96 
L 209.509269 -41.96 
L 212.502325 -41.96 
L 215.495381 -41.96 
L 218.488438 -41.96 
L 221.481494 -41.96 
L 224.47455 -41.96 
L 227.467606 -41.96 
L 230.460662 -41.96 
L 233.453719 -41.96 
L 236.446775 -41.96 
L 239.439831 -41.96 
L 242.432887 -41.96 
L 245.425943 -41.96 
L 248.419 -41.96 
L 251.412056 -41.96 
L 254.405112 -41.96 
L 257.398168 -41.96 
L 260.391224 -41.96 
L 263.38428 -41.96 
L 266.377337 -41.96 
L 269.370393 -41.96 
L 272.363449 -41.96 
L 275.356505 -41.96 
L 278.349561 -41.96 
L 281.342618 -41.96 
L 284.335674 -41.96 
L 287.32873 -41.96 
L 290.321786 -41.96 
L 293.314842 -41.96 
L 296.307899 -41.96 
L 299.300955 -41.96 
L 302.294011 -41.96 
L 305.287067 -41.96 
L 308.280123 -41.96 
L 311.27318 -41.96 
L 314.266236 -41.96 
L 317.259292 -41.96 
L 320.252348 -41.96 
L 323.245404 -41.96 
L 326.23846 -41.96 
L 329.231517 -41.96 
L 332.224573 -41.96 
L 335.217629 -41.96 
L 338.210685 -41.96 
L 341.203741 -41.96 
L 344.196798 -41.96 
L 347.189854 -41.96 
L 350.18291 -41.96 
L 353.175966 -41.96 
L 356.169022 -41.96 
L 359.162079 -41.96 
L 362.155135 -41.96 
L 365.148191 -41.96 
L 368.141247 -41.96 
L 371.134303 -41.96 
L 374.12736 -41.96 
L 377.120416 -41.96 
L 380.113472 -41.96 
L 383.106528 -41.96 
L 386.099584 -41.96 
L 389.09264 -41.96 
L 392.085697 -41.96 
L 395.078753 -41.96 
L 398.071809 -41.96 
L 401.064865 -41.96 
L 404.057921 -41.96 
L 407.050978 -41.96 
L 410.044034 -41.96 
L 413.03709 -41.96 
L 416.030146 -41.96 
L 419.023202 -41.96 
L 422.016259 -41.96 
L 425.009315 -41.96 
L 428.002371 -41.96 
L 430.995427 -41.96 
L 433.988483 -41.96 
L 436.98154 -41.96 
L 439.974596 -41.96 
L 442.967652 -41.96 
L 445.960708 -41.96 
L 448.953764 -41.96 
L 451.94682 -41.96 
L 454.939877 -41.96 
L 457.932933 -41.96 
L 460.925989 -41.96 
L 463.919045 -41.96 
L 466.912101 -41.96 
L 469.905158 -41.96 
L 472.898214 -41.96 
L 475.89127 -41.96 
L 478.884326 -41.96 
L 481.877382 -41.96 
L 484.870439 -41.96 
L 487.863495 -41.96 
L 490.856551 -41.96 
L 493.849607 -41.96 
L 496.842663 -41.96 
L 499.83572 -41.96 
L 502.828776 -41.96 
L 505.821832 -41.96 
L 508.814888 -41.96 
L 511.807944 -41.96 
L 514.801 -41.96 
L 517.794057 -41.96 
L 520.787113 -41.96 
L 523.780169 -41.96 
L 526.773225 -41.96 
L 529.766281 -41.96 
L 532.759338 -41.96 
L 535.752394 -41.96 
L 538.74545 -41.96 
L 541.738506 -41.96 
L 544.731562 -41.96 
L 547.724619 -41.96 
L 550.717675 -41.96 
L 553.710731 -41.96 
L 556.703787 -41.96 
L 559.696843 -41.96 
L 562.689899 -41.96 
L 565.682956 -41.96 
L 568.676012 -41.96 
L 571.669068 -41.96 
L 574.662124 -41.96 
L 577.65518 -41.96 
L 580.648237 -41.96 
L 583.641293 -41.96 
L 586.634349 -41.96 
L 589.627405 -41.96 
L 592.620461 -41.96 
L 595.613518 -41.96 
L 598.606574 -41.96 
L 601.59963 -41.96 
L 604.592686 -41.96 
L 607.585742 -41.96 
L 610.578799 -41.96 
L 613.571855 -41.96 
L 616.564911 -41.96 
L 619.557967 -41.96 
L 622.551023 -41.96 
L 625.544079 -41.96 
L 628.537136 -41.96 
L 631.530192 -41.96 
L 634.523248 -41.96 
L 637.516304 -41.96 
L 640.50936 -41.96 
L 643.502417 -41.96 
L 646.495473 -41.96 
L 649.488529 -41.96 
L 652.481585 -41.96 
L 655.474641 -41.96 
L 658.467698 -41.96 
L 661.460754 -41.96 
L 664.45381 -41.96 
L 667.446866 -41.96 
L 670.439922 -41.96 
L 673.432979 -41.96 
L 676.426035 -41.96 
L 679.419091 -41.96 
L 679.419091 -41.964259 
L 679.419091 -41.964259 
L 676.426035 -41.96947 
L 673.432979 -41.976713 
L 670.439922 -41.983416 
L 667.446866 -41.986071 
L 664.45381 -41.983176 
L 661.460754 -41.976803 
L 658.467698 -41.970832 
L 655.474641 -41.967855 
L 652.481585 -41.967787 
L 649.488529 -41.968751 
L 646.495473 -41.968977 
L 643.502417 -41.968352 
L 640.50936 -41.968658 
L 637.516304 -41.972262 
L 634.523248 -41.979887 
L 631.530192 -41.988958 
L 628.537136 -41.994539 
L 625.544079 -41.993177 
L 622.551023 -41.986269 
L 619.557967 -41.979133 
L 616.564911 -41.976693 
L 613.571855 -41.98009 
L 610.578799 -41.98691 
L 607.585742 -41.994553 
L 604.592686 -42.003527 
L 601.59963 -42.016247 
L 598.606574 -42.031374 
L 595.613518 -42.041287 
L 592.620461 -42.038443 
L 589.627405 -42.024097 
L 586.634349 -42.00819 
L 583.641293 -42.00052 
L 580.648237 -42.00335 
L 577.65518 -42.01167 
L 574.662124 -42.018958 
L 571.669068 -42.023125 
L 568.676012 -42.027679 
L 565.682956 -42.036938 
L 562.689899 -42.050302 
L 559.696843 -42.061751 
L 556.703787 -42.064599 
L 553.710731 -42.056746 
L 550.717675 -42.042363 
L 547.724619 -42.028667 
L 544.731562 -42.020353 
L 541.738506 -42.017341 
L 538.74545 -42.017896 
L 535.752394 -42.021752 
L 532.759338 -42.028315 
L 529.766281 -42.033797 
L 526.773225 -42.033876 
L 523.780169 -42.029305 
L 520.787113 -42.025451 
L 517.794057 -42.025217 
L 514.801 -42.025421 
L 511.807944 -42.021921 
L 508.814888 -42.016012 
L 505.821832 -42.013763 
L 502.828776 -42.020077 
L 499.83572 -42.034373 
L 496.842663 -42.051054 
L 493.849607 -42.06352 
L 490.856551 -42.068435 
L 487.863495 -42.066808 
L 484.870439 -42.061625 
L 481.877382 -42.055506 
L 478.884326 -42.050674 
L 475.89127 -42.049538 
L 472.898214 -42.053697 
L 469.905158 -42.062512 
L 466.912101 -42.073804 
L 463.919045 -42.086057 
L 460.925989 -42.09907 
L 457.932933 -42.112425 
L 454.939877 -42.124471 
L 451.94682 -42.133736 
L 448.953764 -42.141382 
L 445.960708 -42.152019 
L 442.967652 -42.171254 
L 439.974596 -42.200662 
L 436.98154 -42.234438 
L 433.988483 -42.26255 
L 430.995427 -42.278774 
L 428.002371 -42.285879 
L 425.009315 -42.293368 
L 422.016259 -42.310265 
L 419.023202 -42.338622 
L 416.030146 -42.37329 
L 413.03709 -42.408791 
L 410.044034 -42.445206 
L 407.050978 -42.484667 
L 404.057921 -42.524059 
L 401.064865 -42.557691 
L 398.071809 -42.589301 
L 395.078753 -42.635662 
L 392.085697 -42.712883 
L 389.09264 -42.819247 
L 386.099584 -42.932629 
L 383.106528 -43.025952 
L 380.113472 -43.090272 
L 377.120416 -43.145661 
L 374.12736 -43.223974 
L 371.134303 -43.337407 
L 368.141247 -43.469402 
L 365.148191 -43.598677 
L 362.155135 -43.725863 
L 359.162079 -43.874328 
L 356.169022 -44.069311 
L 353.175966 -44.315727 
L 350.18291 -44.591072 
L 347.189854 -44.859523 
L 344.196798 -45.096662 
L 341.203741 -45.304578 
L 338.210685 -45.50865 
L 335.217629 -45.742664 
L 332.224573 -46.031652 
L 329.231517 -46.379367 
L 326.23846 -46.765628 
L 323.245404 -47.15736 
L 320.252348 -47.532676 
L 317.259292 -47.905515 
L 314.266236 -48.330006 
L 311.27318 -48.872739 
L 308.280123 -49.560047 
L 305.287067 -50.333338 
L 302.294011 -51.064563 
L 299.300955 -51.644298 
L 296.307899 -52.073046 
L 293.314842 -52.474963 
L 290.321786 -53.026947 
L 287.32873 -53.85332 
L 284.335674 -54.953616 
L 281.342618 -56.218685 
L 278.349561 -57.517927 
L 275.356505 -58.771304 
L 272.363449 -59.955587 
L 269.370393 -61.076694 
L 266.377337 -62.154595 
L 263.38428 -63.225703 
L 260.391224 -64.343049 
L 257.398168 -65.566072 
L 254.405112 -66.946511 
L 251.412056 -68.518953 
L 248.419 -70.298269 
L 245.425943 -72.272614 
L 242.432887 -74.375266 
L 239.439831 -76.45035 
L 236.446775 -78.273713 
L 233.453719 -79.662103 
L 230.460662 -80.591768 
L 227.467606 -81.205887 
L 224.47455 -81.701554 
L 221.481494 -82.192974 
L 218.488438 -82.647344 
L 215.495381 -82.943918 
L 212.502325 -83.023769 
L 209.509269 -83.000083 
L 206.516213 -83.10746 
L 203.523157 -83.490265 
L 200.530101 -83.95496 
L 197.537044 -83.9169 
L 194.543988 -82.722528 
L 191.550932 -80.156054 
L 188.557876 -76.639534 
L 185.56482 -72.931923 
L 182.571763 -69.641432 
L 179.578707 -66.931159 
L 176.585651 -64.564567 
L 173.592595 -62.215662 
L 170.599539 -59.770303 
L 167.606482 -57.352589 
L 164.613426 -55.125295 
L 161.62037 -53.136864 
L 158.627314 -51.341597 
L 155.634258 -49.693358 
L 152.641201 -48.19508 
L 149.648145 -46.885818 
L 146.655089 -45.801014 
L 143.662033 -44.943104 
L 140.668977 -44.281375 
L 137.675921 -43.771653 
L 134.682864 -43.3739 
L 131.689808 -43.058279 
L 128.696752 -42.804365 
L 125.703696 -42.599196 
L 122.71064 -42.434961 
L 119.717583 -42.305898 
L 116.724527 -42.206159 
L 113.731471 -42.130245 
L 110.738415 -42.0743 
L 107.745359 -42.035511 
L 104.752302 -42.01019 
L 101.759246 -41.993514 
L 98.76619 -41.981478 
L 95.773134 -41.972378 
L 92.780078 -41.966086 
L 89.787021 -41.962471 
L 86.793965 -41.960814 
L 83.800909 -41.960215 
z
" style="stroke: #000000"/>
    </defs>
    <g clip-path="url(#p36bd6877f0)">
     <use xlink:href="#m2dc91e3f9a" x="0" y="432" style="fill: #ff7f0e; fill-opacity: 0.75; stroke: #000000"/>
    </g>
   </g>
   <g id="PolyCollection_2">
    <defs>
     <path id="m6611c9426e" d="M 83.800909 -41.960915 
L 83.800909 -41.960215 
L 86.793965 -41.960814 
L 89.787021 -41.962471 
L 92.780078 -41.966086 
L 95.773134 -41.972378 
L 98.76619 -41.981478 
L 101.759246 -41.993514 
L 104.752302 -42.01019 
L 107.745359 -42.035511 
L 110.738415 -42.0743 
L 113.731471 -42.130245 
L 116.724527 -42.206159 
L 119.717583 -42.305898 
L 122.71064 -42.434961 
L 125.703696 -42.599196 
L 128.696752 -42.804365 
L 131.689808 -43.058279 
L 134.682864 -43.3739 
L 137.675921 -43.771653 
L 140.668977 -44.281375 
L 143.662033 -44.943104 
L 146.655089 -45.801014 
L 149.648145 -46.885818 
L 152.641201 -48.19508 
L 155.634258 -49.693358 
L 158.627314 -51.341597 
L 161.62037 -53.136864 
L 164.613426 -55.125295 
L 167.606482 -57.352589 
L 170.599539 -59.770303 
L 173.592595 -62.215662 
L 176.585651 -64.564567 
L 179.578707 -66.931159 
L 182.571763 -69.641432 
L 185.56482 -72.931923 
L 188.557876 -76.639534 
L 191.550932 -80.156054 
L 194.543988 -82.722528 
L 197.537044 -83.9169 
L 200.530101 -83.95496 
L 203.523157 -83.490265 
L 206.516213 -83.10746 
L 209.509269 -83.000083 
L 212.502325 -83.023769 
L 215.495381 -82.943918 
L 218.488438 -82.647344 
L 221.481494 -82.192974 
L 224.47455 -81.701554 
L 227.467606 -81.205887 
L 230.460662 -80.591768 
L 233.453719 -79.662103 
L 236.446775 -78.273713 
L 239.439831 -76.45035 
L 242.432887 -74.375266 
L 245.425943 -72.272614 
L 248.419 -70.298269 
L 251.412056 -68.518953 
L 254.405112 -66.946511 
L 257.398168 -65.566072 
L 260.391224 -64.343049 
L 263.38428 -63.225703 
L 266.377337 -62.154595 
L 269.370393 -61.076694 
L 272.363449 -59.955587 
L 275.356505 -58.771304 
L 278.349561 -57.517927 
L 281.342618 -56.218685 
L 284.335674 -54.953616 
L 287.32873 -53.85332 
L 290.321786 -53.026947 
L 293.314842 -52.474963 
L 296.307899 -52.073046 
L 299.300955 -51.644298 
L 302.294011 -51.064563 
L 305.287067 -50.333338 
L 308.280123 -49.560047 
L 311.27318 -48.872739 
L 314.266236 -48.330006 
L 317.259292 -47.905515 
L 320.252348 -47.532676 
L 323.245404 -47.15736 
L 326.23846 -46.765628 
L 329.231517 -46.379367 
L 332.224573 -46.031652 
L 335.217629 -45.742664 
L 338.210685 -45.50865 
L 341.203741 -45.304578 
L 344.196798 -45.096662 
L 347.189854 -44.859523 
L 350.18291 -44.591072 
L 353.175966 -44.315727 
L 356.169022 -44.069311 
L 359.162079 -43.874328 
L 362.155135 -43.725863 
L 365.148191 -43.598677 
L 368.141247 -43.469402 
L 371.134303 -43.337407 
L 374.12736 -43.223974 
L 377.120416 -43.145661 
L 380.113472 -43.090272 
L 383.106528 -43.025952 
L 386.099584 -42.932629 
L 389.09264 -42.819247 
L 392.085697 -42.712883 
L 395.078753 -42.635662 
L 398.071809 -42.589301 
L 401.064865 -42.557691 
L 404.057921 -42.524059 
L 407.050978 -42.484667 
L 410.044034 -42.445206 
L 413.03709 -42.408791 
L 416.030146 -42.37329 
L 419.023202 -42.338622 
L 422.016259 -42.310265 
L 425.009315 -42.293368 
L 428.002371 -42.285879 
L 430.995427 -42.278774 
L 433.988483 -42.26255 
L 436.98154 -42.234438 
L 439.974596 -42.200662 
L 442.967652 -42.171254 
L 445.960708 -42.152019 
L 448.953764 -42.141382 
L 451.94682 -42.133736 
L 454.939877 -42.124471 
L 457.932933 -42.112425 
L 460.925989 -42.09907 
L 463.919045 -42.086057 
L 466.912101 -42.073804 
L 469.905158 -42.062512 
L 472.898214 -42.053697 
L 475.89127 -42.049538 
L 478.884326 -42.050674 
L 481.877382 -42.055506 
L 484.870439 -42.061625 
L 487.863495 -42.066808 
L 490.856551 -42.068435 
L 493.849607 -42.06352 
L 496.842663 -42.051054 
L 499.83572 -42.034373 
L 502.828776 -42.020077 
L 505.821832 -42.013763 
L 508.814888 -42.016012 
L 511.807944 -42.021921 
L 514.801 -42.025421 
L 517.794057 -42.025217 
L 520.787113 -42.025451 
L 523.780169 -42.029305 
L 526.773225 -42.033876 
L 529.766281 -42.033797 
L 532.759338 -42.028315 
L 535.752394 -42.021752 
L 538.74545 -42.017896 
L 541.738506 -42.017341 
L 544.731562 -42.020353 
L 547.724619 -42.028667 
L 550.717675 -42.042363 
L 553.710731 -42.056746 
L 556.703787 -42.064599 
L 559.696843 -42.061751 
L 562.689899 -42.050302 
L 565.682956 -42.036938 
L 568.676012 -42.027679 
L 571.669068 -42.023125 
L 574.662124 -42.018958 
L 577.65518 -42.01167 
L 580.648237 -42.00335 
L 583.641293 -42.00052 
L 586.634349 -42.00819 
L 589.627405 -42.024097 
L 592.620461 -42.038443 
L 595.613518 -42.041287 
L 598.606574 -42.031374 
L 601.59963 -42.016247 
L 604.592686 -42.003527 
L 607.585742 -41.994553 
L 610.578799 -41.98691 
L 613.571855 -41.98009 
L 616.564911 -41.976693 
L 619.557967 -41.979133 
L 622.551023 -41.986269 
L 625.544079 -41.993177 
L 628.537136 -41.994539 
L 631.530192 -41.988958 
L 634.523248 -41.979887 
L 637.516304 -41.972262 
L 640.50936 -41.968658 
L 643.502417 -41.968352 
L 646.495473 -41.968977 
L 649.488529 -41.968751 
L 652.481585 -41.967787 
L 655.474641 -41.967855 
L 658.467698 -41.970832 
L 661.460754 -41.976803 
L 664.45381 -41.983176 
L 667.446866 -41.986071 
L 670.439922 -41.983416 
L 673.432979 -41.976713 
L 676.426035 -41.96947 
L 679.419091 -41.964259 
L 679.419091 -41.964676 
L 679.419091 -41.964676 
L 676.426035 -41.972651 
L 673.432979 -41.990178 
L 670.439922 -42.015105 
L 667.446866 -42.027572 
L 664.45381 -42.013802 
L 661.460754 -41.991823 
L 658.467698 -41.984562 
L 655.474641 -42.001551 
L 652.481585 -42.050413 
L 649.488529 -42.110962 
L 646.495473 -42.116758 
L 643.502417 -42.055939 
L 640.50936 -41.999154 
L 637.516304 -41.991473 
L 634.523248 -42.051726 
L 631.530192 -42.193068 
L 628.537136 -42.32049 
L 625.544079 -42.286549 
L 622.551023 -42.141362 
L 619.557967 -42.039339 
L 616.564911 -42.026051 
L 613.571855 -42.10009 
L 610.578799 -42.240815 
L 607.585742 -42.324629 
L 604.592686 -42.276109 
L 601.59963 -42.261996 
L 598.606574 -42.456691 
L 595.613518 -42.7027 
L 592.620461 -42.656908 
L 589.627405 -42.356237 
L 586.634349 -42.118521 
L 583.641293 -42.056836 
L 580.648237 -42.157736 
L 577.65518 -42.389552 
L 574.662124 -42.547661 
L 571.669068 -42.448052 
L 568.676012 -42.275702 
L 565.682956 -42.29097 
L 562.689899 -42.466636 
L 559.696843 -42.629778 
L 556.703787 -42.709723 
L 553.710731 -42.640839 
L 550.717675 -42.433723 
L 547.724619 -42.36639 
L 544.731562 -42.606718 
L 541.738506 -42.847222 
L 538.74545 -42.711251 
L 535.752394 -42.416825 
L 532.759338 -42.396956 
L 529.766281 -42.605483 
L 526.773225 -42.651053 
L 523.780169 -42.457906 
L 520.787113 -42.363807 
L 517.794057 -42.530497 
L 514.801 -42.705906 
L 511.807944 -42.647547 
L 508.814888 -42.513011 
L 505.821832 -42.527432 
L 502.828776 -42.638323 
L 499.83572 -42.619453 
L 496.842663 -42.468744 
L 493.849607 -42.43413 
L 490.856551 -42.586243 
L 487.863495 -42.690813 
L 484.870439 -42.5706 
L 481.877382 -42.371052 
L 478.884326 -42.242096 
L 475.89127 -42.186967 
L 472.898214 -42.182335 
L 469.905158 -42.207509 
L 466.912101 -42.235892 
L 463.919045 -42.255442 
L 460.925989 -42.259999 
L 457.932933 -42.245012 
L 454.939877 -42.239211 
L 451.94682 -42.265914 
L 448.953764 -42.317514 
L 445.960708 -42.381103 
L 442.967652 -42.454753 
L 439.974596 -42.516572 
L 436.98154 -42.567865 
L 433.988483 -42.629931 
L 430.995427 -42.703137 
L 428.002371 -42.754984 
L 425.009315 -42.764429 
L 422.016259 -42.795897 
L 419.023202 -42.897686 
L 416.030146 -43.033862 
L 413.03709 -43.10815 
L 410.044034 -43.132032 
L 407.050978 -43.169464 
L 404.057921 -43.24516 
L 401.064865 -43.375276 
L 398.071809 -43.564396 
L 395.078753 -43.774246 
L 392.085697 -43.953335 
L 389.09264 -44.18044 
L 386.099584 -44.492267 
L 383.106528 -44.801499 
L 380.113472 -44.869652 
L 377.120416 -44.782401 
L 374.12736 -44.985233 
L 371.134303 -45.605214 
L 368.141247 -46.188933 
L 365.148191 -46.371394 
L 362.155135 -46.442567 
L 359.162079 -46.663655 
L 356.169022 -47.135055 
L 353.175966 -47.824245 
L 350.18291 -48.666905 
L 347.189854 -49.377146 
L 344.196798 -49.89945 
L 341.203741 -50.432885 
L 338.210685 -51.065835 
L 335.217629 -51.921158 
L 332.224573 -52.952417 
L 329.231517 -54.149588 
L 326.23846 -55.181853 
L 323.245404 -56.148462 
L 320.252348 -57.015971 
L 317.259292 -57.949646 
L 314.266236 -59.269757 
L 311.27318 -61.161982 
L 308.280123 -63.694759 
L 305.287067 -66.633089 
L 302.294011 -69.652236 
L 299.300955 -71.803737 
L 296.307899 -73.456373 
L 293.314842 -74.527615 
L 290.321786 -75.79653 
L 287.32873 -78.318612 
L 284.335674 -82.395829 
L 281.342618 -87.374126 
L 278.349561 -92.557119 
L 275.356505 -97.836359 
L 272.363449 -102.256689 
L 269.370393 -107.102843 
L 266.377337 -112.399492 
L 263.38428 -118.513018 
L 260.391224 -123.76404 
L 257.398168 -128.602585 
L 254.405112 -134.351286 
L 251.412056 -141.482825 
L 248.419 -150.951768 
L 245.425943 -162.143561 
L 242.432887 -175.351083 
L 239.439831 -187.797374 
L 236.446775 -200.964284 
L 233.453719 -212.734083 
L 230.460662 -224.906292 
L 227.467606 -237.565105 
L 224.47455 -251.234747 
L 221.481494 -265.85009 
L 218.488438 -278.685119 
L 215.495381 -290.4413 
L 212.502325 -295.643877 
L 209.509269 -300.8953 
L 206.516213 -307.58675 
L 203.523157 -322.570239 
L 200.530101 -350.305638 
L 197.537044 -386.172648 
L 194.543988 -403.140952 
L 191.550932 -388.515726 
L 188.557876 -364.777473 
L 185.56482 -339.037969 
L 182.571763 -323.031783 
L 179.578707 -319.023213 
L 176.585651 -321.20406 
L 173.592595 -311.563232 
L 170.599539 -291.419191 
L 167.606482 -271.599169 
L 164.613426 -252.700465 
L 161.62037 -234.418396 
L 158.627314 -211.213334 
L 155.634258 -188.344726 
L 152.641201 -165.037833 
L 149.648145 -143.935433 
L 146.655089 -125.799892 
L 143.662033 -109.84655 
L 140.668977 -95.561809 
L 137.675921 -81.814436 
L 134.682864 -70.800584 
L 131.689808 -62.175591 
L 128.696752 -55.967569 
L 125.703696 -51.707619 
L 122.71064 -48.743831 
L 119.717583 -46.599147 
L 116.724527 -44.984535 
L 113.731471 -43.885449 
L 110.738415 -43.145066 
L 107.745359 -42.709158 
L 104.752302 -42.480877 
L 101.759246 -42.339195 
L 98.76619 -42.21115 
L 95.773134 -42.104578 
L 92.780078 -42.031771 
L 89.787021 -41.98639 
L 86.793965 -41.96621 
L 83.800909 -41.960915 
z
" style="stroke: #000000"/>
    </defs>
    <g clip-path="url(#p36bd6877f0)">
     <use xlink:href="#m6611c9426e" x="0" y="432" style="fill: #1f77b4; fill-opacity: 0.75; stroke: #000000"/>
    </g>
   </g>
   <g id="matplotlib.axis_1">
    <g id="xtick_1">
     <g id="line2d_1">
      <defs>
       <path id="mbbd7fa3ced" d="M 0 0 
L 0 3.5 
" style="stroke: #000000; stroke-width: 0.8"/>
      </defs>
      <g>
       <use xlink:href="#mbbd7fa3ced" x="148.848897" y="390.04" style="stroke: #000000; stroke-width: 0.8"/>
      </g>
     </g>
     <g id="text_1">
      <!-- 20 -->
      <g transform="translate(142.486397 404.638438) scale(0.1 -0.1)">
       <defs>
        <path id="DejaVuSans-32" d="M 1228 531 
L 3431 531 
L 3431 0 
L 469 0 
L 469 531 
Q 828 903 1448 1529 
Q 2069 2156 2228 2338 
Q 2531 2678 2651 2914 
Q 2772 3150 2772 3378 
Q 2772 3750 2511 3984 
Q 2250 4219 1831 4219 
Q 1534 4219 1204 4116 
Q 875 4013 500 3803 
L 500 4441 
Q 881 4594 1212 4672 
Q 1544 4750 1819 4750 
Q 2544 4750 2975 4387 
Q 3406 4025 3406 3419 
Q 3406 3131 3298 2873 
Q 3191 2616 2906 2266 
Q 2828 2175 2409 1742 
Q 1991 1309 1228 531 
z
" transform="scale(0.015625)"/>
        <path id="DejaVuSans-30" d="M 2034 4250 
Q 1547 4250 1301 3770 
Q 1056 3291 1056 2328 
Q 1056 1369 1301 889 
Q 1547 409 2034 409 
Q 2525 409 2770 889 
Q 3016 1369 3016 2328 
Q 3016 3291 2770 3770 
Q 2525 4250 2034 4250 
z
M 2034 4750 
Q 2819 4750 3233 4129 
Q 3647 3509 3647 2328 
Q 3647 1150 3233 529 
Q 2819 -91 2034 -91 
Q 1250 -91 836 529 
Q 422 1150 422 2328 
Q 422 3509 836 4129 
Q 1250 4750 2034 4750 
z
" transform="scale(0.015625)"/>
       </defs>
       <use xlink:href="#DejaVuSans-32"/>
       <use xlink:href="#DejaVuSans-30" x="63.623047"/>
      </g>
     </g>
    </g>
    <g id="xtick_2">
     <g id="line2d_2">
      <g>
       <use xlink:href="#mbbd7fa3ced" x="281.855242" y="390.04" style="stroke: #000000; stroke-width: 0.8"/>
      </g>
     </g>
     <g id="text_2">
      <!-- 40 -->
      <g transform="translate(275.492742 404.638438) scale(0.1 -0.1)">
       <defs>
        <path id="DejaVuSans-34" d="M 2419 4116 
L 825 1625 
L 2419 1625 
L 2419 4116 
z
M 2253 4666 
L 3047 4666 
L 3047 1625 
L 3713 1625 
L 3713 1100 
L 3047 1100 
L 3047 0 
L 2419 0 
L 2419 1100 
L 313 1100 
L 313 1709 
L 2253 4666 
z
" transform="scale(0.015625)"/>
       </defs>
       <use xlink:href="#DejaVuSans-34"/>
       <use xlink:href="#DejaVuSans-30" x="63.623047"/>
      </g>
     </g>
    </g>
    <g id="xtick_3">
     <g id="line2d_3">
      <g>
       <use xlink:href="#mbbd7fa3ced" x="414.861586" y="390.04" style="stroke: #000000; stroke-width: 0.8"/>
      </g>
     </g>
     <g id="text_3">
      <!-- 60 -->
      <g transform="translate(408.499086 404.638438) scale(0.1 -0.1)">
       <defs>
        <path id="DejaVuSans-36" d="M 2113 2584 
Q 1688 2584 1439 2293 
Q 1191 2003 1191 1497 
Q 1191 994 1439 701 
Q 1688 409 2113 409 
Q 2538 409 2786 701 
Q 3034 994 3034 1497 
Q 3034 2003 2786 2293 
Q 2538 2584 2113 2584 
z
M 3366 4563 
L 3366 3988 
Q 3128 4100 2886 4159 
Q 2644 4219 2406 4219 
Q 1781 4219 1451 3797 
Q 1122 3375 1075 2522 
Q 1259 2794 1537 2939 
Q 1816 3084 2150 3084 
Q 2853 3084 3261 2657 
Q 3669 2231 3669 1497 
Q 3669 778 3244 343 
Q 2819 -91 2113 -91 
Q 1303 -91 875 529 
Q 447 1150 447 2328 
Q 447 3434 972 4092 
Q 1497 4750 2381 4750 
Q 2619 4750 2861 4703 
Q 3103 4656 3366 4563 
z
" transform="scale(0.015625)"/>
       </defs>
       <use xlink:href="#DejaVuSans-36"/>
       <use xlink:href="#DejaVuSans-30" x="63.623047"/>
      </g>
     </g>
    </g>
    <g id="xtick_4">
     <g id="line2d_4">
      <g>
       <use xlink:href="#mbbd7fa3ced" x="547.867931" y="390.04" style="stroke: #000000; stroke-width: 0.8"/>
      </g>
     </g>
     <g id="text_4">
      <!-- 80 -->
      <g transform="translate(541.505431 404.638438) scale(0.1 -0.1)">
       <defs>
        <path id="DejaVuSans-38" d="M 2034 2216 
Q 1584 2216 1326 1975 
Q 1069 1734 1069 1313 
Q 1069 891 1326 650 
Q 1584 409 2034 409 
Q 2484 409 2743 651 
Q 3003 894 3003 1313 
Q 3003 1734 2745 1975 
Q 2488 2216 2034 2216 
z
M 1403 2484 
Q 997 2584 770 2862 
Q 544 3141 544 3541 
Q 544 4100 942 4425 
Q 1341 4750 2034 4750 
Q 2731 4750 3128 4425 
Q 3525 4100 3525 3541 
Q 3525 3141 3298 2862 
Q 3072 2584 2669 2484 
Q 3125 2378 3379 2068 
Q 3634 1759 3634 1313 
Q 3634 634 3220 271 
Q 2806 -91 2034 -91 
Q 1263 -91 848 271 
Q 434 634 434 1313 
Q 434 1759 690 2068 
Q 947 2378 1403 2484 
z
M 1172 3481 
Q 1172 3119 1398 2916 
Q 1625 2713 2034 2713 
Q 2441 2713 2670 2916 
Q 2900 3119 2900 3481 
Q 2900 3844 2670 4047 
Q 2441 4250 2034 4250 
Q 1625 4250 1398 4047 
Q 1172 3844 1172 3481 
z
" transform="scale(0.015625)"/>
       </defs>
       <use xlink:href="#DejaVuSans-38"/>
       <use xlink:href="#DejaVuSans-30" x="63.623047"/>
      </g>
     </g>
    </g>
    <g id="xtick_5">
     <g id="line2d_5">
      <g>
       <use xlink:href="#mbbd7fa3ced" x="680.874275" y="390.04" style="stroke: #000000; stroke-width: 0.8"/>
      </g>
     </g>
     <g id="text_5">
      <!-- 100 -->
      <g transform="translate(671.330525 404.638438) scale(0.1 -0.1)">
       <defs>
        <path id="DejaVuSans-31" d="M 794 531 
L 1825 531 
L 1825 4091 
L 703 3866 
L 703 4441 
L 1819 4666 
L 2450 4666 
L 2450 531 
L 3481 531 
L 3481 0 
L 794 0 
L 794 531 
z
" transform="scale(0.015625)"/>
       </defs>
       <use xlink:href="#DejaVuSans-31"/>
       <use xlink:href="#DejaVuSans-30" x="63.623047"/>
       <use xlink:href="#DejaVuSans-30" x="127.246094"/>
      </g>
     </g>
    </g>
    <g id="text_6">
     <!-- BMI -->
     <g transform="translate(372.390469 418.316562) scale(0.1 -0.1)">
      <defs>
       <path id="DejaVuSans-42" d="M 1259 2228 
L 1259 519 
L 2272 519 
Q 2781 519 3026 730 
Q 3272 941 3272 1375 
Q 3272 1813 3026 2020 
Q 2781 2228 2272 2228 
L 1259 2228 
z
M 1259 4147 
L 1259 2741 
L 2194 2741 
Q 2656 2741 2882 2914 
Q 3109 3088 3109 3444 
Q 3109 3797 2882 3972 
Q 2656 4147 2194 4147 
L 1259 4147 
z
M 628 4666 
L 2241 4666 
Q 2963 4666 3353 4366 
Q 3744 4066 3744 3513 
Q 3744 3084 3544 2831 
Q 3344 2578 2956 2516 
Q 3422 2416 3680 2098 
Q 3938 1781 3938 1306 
Q 3938 681 3513 340 
Q 3088 0 2303 0 
L 628 0 
L 628 4666 
z
" transform="scale(0.015625)"/>
       <path id="DejaVuSans-4d" d="M 628 4666 
L 1569 4666 
L 2759 1491 
L 3956 4666 
L 4897 4666 
L 4897 0 
L 4281 0 
L 4281 4097 
L 3078 897 
L 2444 897 
L 1241 4097 
L 1241 0 
L 628 0 
L 628 4666 
z
" transform="scale(0.015625)"/>
       <path id="DejaVuSans-49" d="M 628 4666 
L 1259 4666 
L 1259 0 
L 628 0 
L 628 4666 
z
" transform="scale(0.015625)"/>
      </defs>
      <use xlink:href="#DejaVuSans-42"/>
      <use xlink:href="#DejaVuSans-4d" x="68.603516"/>
      <use xlink:href="#DejaVuSans-49" x="154.882812"/>
     </g>
    </g>
   </g>
   <g id="matplotlib.axis_2">
    <g id="ytick_1">
     <g id="line2d_6">
      <defs>
       <path id="mc8961abc56" d="M 0 0 
L -3.5 0 
" style="stroke: #000000; stroke-width: 0.8"/>
      </defs>
      <g>
       <use xlink:href="#mc8961abc56" x="54.02" y="390.04" style="stroke: #000000; stroke-width: 0.8"/>
      </g>
     </g>
     <g id="text_7">
      <!-- 0.00 -->
      <g transform="translate(24.754375 393.839219) scale(0.1 -0.1)">
       <defs>
        <path id="DejaVuSans-2e" d="M 684 794 
L 1344 794 
L 1344 0 
L 684 0 
L 684 794 
z
" transform="scale(0.015625)"/>
       </defs>
       <use xlink:href="#DejaVuSans-30"/>
       <use xlink:href="#DejaVuSans-2e" x="63.623047"/>
       <use xlink:href="#DejaVuSans-30" x="95.410156"/>
       <use xlink:href="#DejaVuSans-30" x="159.033203"/>
      </g>
     </g>
    </g>
    <g id="ytick_2">
     <g id="line2d_7">
      <g>
       <use xlink:href="#mc8961abc56" x="54.02" y="347.870452" style="stroke: #000000; stroke-width: 0.8"/>
      </g>
     </g>
     <g id="text_8">
      <!-- 0.01 -->
      <g transform="translate(24.754375 351.669671) scale(0.1 -0.1)">
       <use xlink:href="#DejaVuSans-30"/>
       <use xlink:href="#DejaVuSans-2e" x="63.623047"/>
       <use xlink:href="#DejaVuSans-30" x="95.410156"/>
       <use xlink:href="#DejaVuSans-31" x="159.033203"/>
      </g>
     </g>
    </g>
    <g id="ytick_3">
     <g id="line2d_8">
      <g>
       <use xlink:href="#mc8961abc56" x="54.02" y="305.700905" style="stroke: #000000; stroke-width: 0.8"/>
      </g>
     </g>
     <g id="text_9">
      <!-- 0.02 -->
      <g transform="translate(24.754375 309.500123) scale(0.1 -0.1)">
       <use xlink:href="#DejaVuSans-30"/>
       <use xlink:href="#DejaVuSans-2e" x="63.623047"/>
       <use xlink:href="#DejaVuSans-30" x="95.410156"/>
       <use xlink:href="#DejaVuSans-32" x="159.033203"/>
      </g>
     </g>
    </g>
    <g id="ytick_4">
     <g id="line2d_9">
      <g>
       <use xlink:href="#mc8961abc56" x="54.02" y="263.531357" style="stroke: #000000; stroke-width: 0.8"/>
      </g>
     </g>
     <g id="text_10">
      <!-- 0.03 -->
      <g transform="translate(24.754375 267.330576) scale(0.1 -0.1)">
       <defs>
        <path id="DejaVuSans-33" d="M 2597 2516 
Q 3050 2419 3304 2112 
Q 3559 1806 3559 1356 
Q 3559 666 3084 287 
Q 2609 -91 1734 -91 
Q 1441 -91 1130 -33 
Q 819 25 488 141 
L 488 750 
Q 750 597 1062 519 
Q 1375 441 1716 441 
Q 2309 441 2620 675 
Q 2931 909 2931 1356 
Q 2931 1769 2642 2001 
Q 2353 2234 1838 2234 
L 1294 2234 
L 1294 2753 
L 1863 2753 
Q 2328 2753 2575 2939 
Q 2822 3125 2822 3475 
Q 2822 3834 2567 4026 
Q 2313 4219 1838 4219 
Q 1578 4219 1281 4162 
Q 984 4106 628 3988 
L 628 4550 
Q 988 4650 1302 4700 
Q 1616 4750 1894 4750 
Q 2613 4750 3031 4423 
Q 3450 4097 3450 3541 
Q 3450 3153 3228 2886 
Q 3006 2619 2597 2516 
z
" transform="scale(0.015625)"/>
       </defs>
       <use xlink:href="#DejaVuSans-30"/>
       <use xlink:href="#DejaVuSans-2e" x="63.623047"/>
       <use xlink:href="#DejaVuSans-30" x="95.410156"/>
       <use xlink:href="#DejaVuSans-33" x="159.033203"/>
      </g>
     </g>
    </g>
    <g id="ytick_5">
     <g id="line2d_10">
      <g>
       <use xlink:href="#mc8961abc56" x="54.02" y="221.361809" style="stroke: #000000; stroke-width: 0.8"/>
      </g>
     </g>
     <g id="text_11">
      <!-- 0.04 -->
      <g transform="translate(24.754375 225.161028) scale(0.1 -0.1)">
       <use xlink:href="#DejaVuSans-30"/>
       <use xlink:href="#DejaVuSans-2e" x="63.623047"/>
       <use xlink:href="#DejaVuSans-30" x="95.410156"/>
       <use xlink:href="#DejaVuSans-34" x="159.033203"/>
      </g>
     </g>
    </g>
    <g id="ytick_6">
     <g id="line2d_11">
      <g>
       <use xlink:href="#mc8961abc56" x="54.02" y="179.192261" style="stroke: #000000; stroke-width: 0.8"/>
      </g>
     </g>
     <g id="text_12">
      <!-- 0.05 -->
      <g transform="translate(24.754375 182.99148) scale(0.1 -0.1)">
       <defs>
        <path id="DejaVuSans-35" d="M 691 4666 
L 3169 4666 
L 3169 4134 
L 1269 4134 
L 1269 2991 
Q 1406 3038 1543 3061 
Q 1681 3084 1819 3084 
Q 2600 3084 3056 2656 
Q 3513 2228 3513 1497 
Q 3513 744 3044 326 
Q 2575 -91 1722 -91 
Q 1428 -91 1123 -41 
Q 819 9 494 109 
L 494 744 
Q 775 591 1075 516 
Q 1375 441 1709 441 
Q 2250 441 2565 725 
Q 2881 1009 2881 1497 
Q 2881 1984 2565 2268 
Q 2250 2553 1709 2553 
Q 1456 2553 1204 2497 
Q 953 2441 691 2322 
L 691 4666 
z
" transform="scale(0.015625)"/>
       </defs>
       <use xlink:href="#DejaVuSans-30"/>
       <use xlink:href="#DejaVuSans-2e" x="63.623047"/>
       <use xlink:href="#DejaVuSans-30" x="95.410156"/>
       <use xlink:href="#DejaVuSans-35" x="159.033203"/>
      </g>
     </g>
    </g>
    <g id="ytick_7">
     <g id="line2d_12">
      <g>
       <use xlink:href="#mc8961abc56" x="54.02" y="137.022714" style="stroke: #000000; stroke-width: 0.8"/>
      </g>
     </g>
     <g id="text_13">
      <!-- 0.06 -->
      <g transform="translate(24.754375 140.821932) scale(0.1 -0.1)">
       <use xlink:href="#DejaVuSans-30"/>
       <use xlink:href="#DejaVuSans-2e" x="63.623047"/>
       <use xlink:href="#DejaVuSans-30" x="95.410156"/>
       <use xlink:href="#DejaVuSans-36" x="159.033203"/>
      </g>
     </g>
    </g>
    <g id="ytick_8">
     <g id="line2d_13">
      <g>
       <use xlink:href="#mc8961abc56" x="54.02" y="94.853166" style="stroke: #000000; stroke-width: 0.8"/>
      </g>
     </g>
     <g id="text_14">
      <!-- 0.07 -->
      <g transform="translate(24.754375 98.652385) scale(0.1 -0.1)">
       <defs>
        <path id="DejaVuSans-37" d="M 525 4666 
L 3525 4666 
L 3525 4397 
L 1831 0 
L 1172 0 
L 2766 4134 
L 525 4134 
L 525 4666 
z
" transform="scale(0.015625)"/>
       </defs>
       <use xlink:href="#DejaVuSans-30"/>
       <use xlink:href="#DejaVuSans-2e" x="63.623047"/>
       <use xlink:href="#DejaVuSans-30" x="95.410156"/>
       <use xlink:href="#DejaVuSans-37" x="159.033203"/>
      </g>
     </g>
    </g>
    <g id="ytick_9">
     <g id="line2d_14">
      <g>
       <use xlink:href="#mc8961abc56" x="54.02" y="52.683618" style="stroke: #000000; stroke-width: 0.8"/>
      </g>
     </g>
     <g id="text_15">
      <!-- 0.08 -->
      <g transform="translate(24.754375 56.482837) scale(0.1 -0.1)">
       <use xlink:href="#DejaVuSans-30"/>
       <use xlink:href="#DejaVuSans-2e" x="63.623047"/>
       <use xlink:href="#DejaVuSans-30" x="95.410156"/>
       <use xlink:href="#DejaVuSans-38" x="159.033203"/>
      </g>
     </g>
    </g>
    <g id="text_16">
     <!-- Density -->
     <g transform="translate(18.674688 219.428594) rotate(-90) scale(0.1 -0.1)">
      <defs>
       <path id="DejaVuSans-44" d="M 1259 4147 
L 1259 519 
L 2022 519 
Q 2988 519 3436 956 
Q 3884 1394 3884 2338 
Q 3884 3275 3436 3711 
Q 2988 4147 2022 4147 
L 1259 4147 
z
M 628 4666 
L 1925 4666 
Q 3281 4666 3915 4102 
Q 4550 3538 4550 2338 
Q 4550 1131 3912 565 
Q 3275 0 1925 0 
L 628 0 
L 628 4666 
z
" transform="scale(0.015625)"/>
       <path id="DejaVuSans-65" d="M 3597 1894 
L 3597 1613 
L 953 1613 
Q 991 1019 1311 708 
Q 1631 397 2203 397 
Q 2534 397 2845 478 
Q 3156 559 3463 722 
L 3463 178 
Q 3153 47 2828 -22 
Q 2503 -91 2169 -91 
Q 1331 -91 842 396 
Q 353 884 353 1716 
Q 353 2575 817 3079 
Q 1281 3584 2069 3584 
Q 2775 3584 3186 3129 
Q 3597 2675 3597 1894 
z
M 3022 2063 
Q 3016 2534 2758 2815 
Q 2500 3097 2075 3097 
Q 1594 3097 1305 2825 
Q 1016 2553 972 2059 
L 3022 2063 
z
" transform="scale(0.015625)"/>
       <path id="DejaVuSans-6e" d="M 3513 2113 
L 3513 0 
L 2938 0 
L 2938 2094 
Q 2938 2591 2744 2837 
Q 2550 3084 2163 3084 
Q 1697 3084 1428 2787 
Q 1159 2491 1159 1978 
L 1159 0 
L 581 0 
L 581 3500 
L 1159 3500 
L 1159 2956 
Q 1366 3272 1645 3428 
Q 1925 3584 2291 3584 
Q 2894 3584 3203 3211 
Q 3513 2838 3513 2113 
z
" transform="scale(0.015625)"/>
       <path id="DejaVuSans-73" d="M 2834 3397 
L 2834 2853 
Q 2591 2978 2328 3040 
Q 2066 3103 1784 3103 
Q 1356 3103 1142 2972 
Q 928 2841 928 2578 
Q 928 2378 1081 2264 
Q 1234 2150 1697 2047 
L 1894 2003 
Q 2506 1872 2764 1633 
Q 3022 1394 3022 966 
Q 3022 478 2636 193 
Q 2250 -91 1575 -91 
Q 1294 -91 989 -36 
Q 684 19 347 128 
L 347 722 
Q 666 556 975 473 
Q 1284 391 1588 391 
Q 1994 391 2212 530 
Q 2431 669 2431 922 
Q 2431 1156 2273 1281 
Q 2116 1406 1581 1522 
L 1381 1569 
Q 847 1681 609 1914 
Q 372 2147 372 2553 
Q 372 3047 722 3315 
Q 1072 3584 1716 3584 
Q 2034 3584 2315 3537 
Q 2597 3491 2834 3397 
z
" transform="scale(0.015625)"/>
       <path id="DejaVuSans-69" d="M 603 3500 
L 1178 3500 
L 1178 0 
L 603 0 
L 603 3500 
z
M 603 4863 
L 1178 4863 
L 1178 4134 
L 603 4134 
L 603 4863 
z
" transform="scale(0.015625)"/>
       <path id="DejaVuSans-74" d="M 1172 4494 
L 1172 3500 
L 2356 3500 
L 2356 3053 
L 1172 3053 
L 1172 1153 
Q 1172 725 1289 603 
Q 1406 481 1766 481 
L 2356 481 
L 2356 0 
L 1766 0 
Q 1100 0 847 248 
Q 594 497 594 1153 
L 594 3053 
L 172 3053 
L 172 3500 
L 594 3500 
L 594 4494 
L 1172 4494 
z
" transform="scale(0.015625)"/>
       <path id="DejaVuSans-79" d="M 2059 -325 
Q 1816 -950 1584 -1140 
Q 1353 -1331 966 -1331 
L 506 -1331 
L 506 -850 
L 844 -850 
Q 1081 -850 1212 -737 
Q 1344 -625 1503 -206 
L 1606 56 
L 191 3500 
L 800 3500 
L 1894 763 
L 2988 3500 
L 3597 3500 
L 2059 -325 
z
" transform="scale(0.015625)"/>
      </defs>
      <use xlink:href="#DejaVuSans-44"/>
      <use xlink:href="#DejaVuSans-65" x="77.001953"/>
      <use xlink:href="#DejaVuSans-6e" x="138.525391"/>
      <use xlink:href="#DejaVuSans-73" x="201.904297"/>
      <use xlink:href="#DejaVuSans-69" x="254.003906"/>
      <use xlink:href="#DejaVuSans-74" x="281.787109"/>
      <use xlink:href="#DejaVuSans-79" x="320.996094"/>
     </g>
    </g>
   </g>
   <g id="patch_3">
    <path d="M 54.02 390.04 
L 54.02 10.8 
" style="fill: none; stroke: #000000; stroke-width: 0.8; stroke-linejoin: miter; stroke-linecap: square"/>
   </g>
   <g id="patch_4">
    <path d="M 709.2 390.04 
L 709.2 10.8 
" style="fill: none; stroke: #000000; stroke-width: 0.8; stroke-linejoin: miter; stroke-linecap: square"/>
   </g>
   <g id="patch_5">
    <path d="M 54.02 390.04 
L 709.2 390.04 
" style="fill: none; stroke: #000000; stroke-width: 0.8; stroke-linejoin: miter; stroke-linecap: square"/>
   </g>
   <g id="patch_6">
    <path d="M 54.02 10.8 
L 709.2 10.8 
" style="fill: none; stroke: #000000; stroke-width: 0.8; stroke-linejoin: miter; stroke-linecap: square"/>
   </g>
   <g id="legend_1">
    <g id="patch_7">
     <path d="M 617.1875 63.1125 
L 702.2 63.1125 
Q 704.2 63.1125 704.2 61.1125 
L 704.2 17.8 
Q 704.2 15.8 702.2 15.8 
L 617.1875 15.8 
Q 615.1875 15.8 615.1875 17.8 
L 615.1875 61.1125 
Q 615.1875 63.1125 617.1875 63.1125 
z
" style="fill: #ffffff; opacity: 0.8; stroke: #cccccc; stroke-linejoin: miter"/>
    </g>
    <g id="text_17">
     <!-- Diabetes_binary -->
     <g transform="translate(619.1875 27.398438) scale(0.1 -0.1)">
      <defs>
       <path id="DejaVuSans-61" d="M 2194 1759 
Q 1497 1759 1228 1600 
Q 959 1441 959 1056 
Q 959 750 1161 570 
Q 1363 391 1709 391 
Q 2188 391 2477 730 
Q 2766 1069 2766 1631 
L 2766 1759 
L 2194 1759 
z
M 3341 1997 
L 3341 0 
L 2766 0 
L 2766 531 
Q 2569 213 2275 61 
Q 1981 -91 1556 -91 
Q 1019 -91 701 211 
Q 384 513 384 1019 
Q 384 1609 779 1909 
Q 1175 2209 1959 2209 
L 2766 2209 
L 2766 2266 
Q 2766 2663 2505 2880 
Q 2244 3097 1772 3097 
Q 1472 3097 1187 3025 
Q 903 2953 641 2809 
L 641 3341 
Q 956 3463 1253 3523 
Q 1550 3584 1831 3584 
Q 2591 3584 2966 3190 
Q 3341 2797 3341 1997 
z
" transform="scale(0.015625)"/>
       <path id="DejaVuSans-62" d="M 3116 1747 
Q 3116 2381 2855 2742 
Q 2594 3103 2138 3103 
Q 1681 3103 1420 2742 
Q 1159 2381 1159 1747 
Q 1159 1113 1420 752 
Q 1681 391 2138 391 
Q 2594 391 2855 752 
Q 3116 1113 3116 1747 
z
M 1159 2969 
Q 1341 3281 1617 3432 
Q 1894 3584 2278 3584 
Q 2916 3584 3314 3078 
Q 3713 2572 3713 1747 
Q 3713 922 3314 415 
Q 2916 -91 2278 -91 
Q 1894 -91 1617 61 
Q 1341 213 1159 525 
L 1159 0 
L 581 0 
L 581 4863 
L 1159 4863 
L 1159 2969 
z
" transform="scale(0.015625)"/>
       <path id="DejaVuSans-5f" d="M 3263 -1063 
L 3263 -1509 
L -63 -1509 
L -63 -1063 
L 3263 -1063 
z
" transform="scale(0.015625)"/>
       <path id="DejaVuSans-72" d="M 2631 2963 
Q 2534 3019 2420 3045 
Q 2306 3072 2169 3072 
Q 1681 3072 1420 2755 
Q 1159 2438 1159 1844 
L 1159 0 
L 581 0 
L 581 3500 
L 1159 3500 
L 1159 2956 
Q 1341 3275 1631 3429 
Q 1922 3584 2338 3584 
Q 2397 3584 2469 3576 
Q 2541 3569 2628 3553 
L 2631 2963 
z
" transform="scale(0.015625)"/>
      </defs>
      <use xlink:href="#DejaVuSans-44"/>
      <use xlink:href="#DejaVuSans-69" x="77.001953"/>
      <use xlink:href="#DejaVuSans-61" x="104.785156"/>
      <use xlink:href="#DejaVuSans-62" x="166.064453"/>
      <use xlink:href="#DejaVuSans-65" x="229.541016"/>
      <use xlink:href="#DejaVuSans-74" x="291.064453"/>
      <use xlink:href="#DejaVuSans-65" x="330.273438"/>
      <use xlink:href="#DejaVuSans-73" x="391.796875"/>
      <use xlink:href="#DejaVuSans-5f" x="443.896484"/>
      <use xlink:href="#DejaVuSans-62" x="493.896484"/>
      <use xlink:href="#DejaVuSans-69" x="557.373047"/>
      <use xlink:href="#DejaVuSans-6e" x="585.15625"/>
      <use xlink:href="#DejaVuSans-61" x="648.535156"/>
      <use xlink:href="#DejaVuSans-72" x="709.814453"/>
      <use xlink:href="#DejaVuSans-79" x="750.927734"/>
     </g>
    </g>
    <g id="patch_8">
     <path d="M 642.5125 42.354688 
L 662.5125 42.354688 
L 662.5125 35.354688 
L 642.5125 35.354688 
z
" style="fill: #1f77b4; fill-opacity: 0.75; stroke: #000000; stroke-linejoin: miter"/>
    </g>
    <g id="text_18">
     <!-- 0 -->
     <g transform="translate(670.5125 42.354688) scale(0.1 -0.1)">
      <use xlink:href="#DejaVuSans-30"/>
     </g>
    </g>
    <g id="patch_9">
     <path d="M 642.5125 57.032813 
L 662.5125 57.032813 
L 662.5125 50.032813 
L 642.5125 50.032813 
z
" style="fill: #ff7f0e; fill-opacity: 0.75; stroke: #000000; stroke-linejoin: miter"/>
    </g>
    <g id="text_19">
     <!-- 1 -->
     <g transform="translate(670.5125 57.032813) scale(0.1 -0.1)">
      <use xlink:href="#DejaVuSans-31"/>
     </g>
    </g>
   </g>
  </g>
 </g>
 <defs>
  <clipPath id="p36bd6877f0">
   <rect x="54.02" y="10.8" width="655.18" height="379.24"/>
  </clipPath>
 </defs>
</svg>
