<?xml version="1.0" encoding="utf-8" standalone="no"?>
<!DOCTYPE svg PUBLIC "-//W3C//DTD SVG 1.1//EN"
  "http://www.w3.org/Graphics/SVG/1.1/DTD/svg11.dtd">
<svg xmlns:xlink="http://www.w3.org/1999/xlink" width="1080pt" height="864pt" viewBox="0 0 1080 864" xmlns="http://www.w3.org/2000/svg" version="1.1">
 <metadata>
  <rdf:RDF xmlns:dc="http://purl.org/dc/elements/1.1/" xmlns:cc="http://creativecommons.org/ns#" xmlns:rdf="http://www.w3.org/1999/02/22-rdf-syntax-ns#">
   <cc:Work>
    <dc:type rdf:resource="http://purl.org/dc/dcmitype/StillImage"/>
    <dc:date>2024-02-20T14:50:43.463380</dc:date>
    <dc:format>image/svg+xml</dc:format>
    <dc:creator>
     <cc:Agent>
      <dc:title>Matplotlib v3.8.3, https://matplotlib.org/</dc:title>
     </cc:Agent>
    </dc:creator>
   </cc:Work>
  </rdf:RDF>
 </metadata>
 <defs>
  <style type="text/css">*{stroke-linejoin: round; stroke-linecap: butt}</style>
 </defs>
 <g id="figure_1">
  <g id="patch_1">
   <path d="M 0 864 
L 1080 864 
L 1080 0 
L 0 0 
z
" style="fill: #ffffff"/>
  </g>
  <g id="axes_1">
   <g id="patch_2">
    <path d="M 41.96 396.109375 
L 538.76 396.109375 
L 538.76 28.32 
L 41.96 28.32 
z
" style="fill: #ffffff"/>
   </g>
   <g id="PolyCollection_1">
    <defs>
     <path id="mdf1703ff02" d="M 64.541818 -470.1451 
L 64.541818 -467.890625 
L 66.811348 -467.890625 
L 69.080877 -467.890625 
L 71.350407 -467.890625 
L 73.619936 -467.890625 
L 75.889466 -467.890625 
L 78.158995 -467.890625 
L 80.428524 -467.890625 
L 82.698054 -467.890625 
L 84.967583 -467.890625 
L 87.237113 -467.890625 
L 89.506642 -467.890625 
L 91.776172 -467.890625 
L 94.045701 -467.890625 
L 96.315231 -467.890625 
L 98.58476 -467.890625 
L 100.85429 -467.890625 
L 103.123819 -467.890625 
L 105.393349 -467.890625 
L 107.662878 -467.890625 
L 109.932407 -467.890625 
L 112.201937 -467.890625 
L 114.471466 -467.890625 
L 116.740996 -467.890625 
L 119.010525 -467.890625 
L 121.280055 -467.890625 
L 123.549584 -467.890625 
L 125.819114 -467.890625 
L 128.088643 -467.890625 
L 130.358173 -467.890625 
L 132.627702 -467.890625 
L 134.897232 -467.890625 
L 137.166761 -467.890625 
L 139.436291 -467.890625 
L 141.70582 -467.890625 
L 143.975349 -467.890625 
L 146.244879 -467.890625 
L 148.514408 -467.890625 
L 150.783938 -467.890625 
L 153.053467 -467.890625 
L 155.322997 -467.890625 
L 157.592526 -467.890625 
L 159.862056 -467.890625 
L 162.131585 -467.890625 
L 164.401115 -467.890625 
L 166.670644 -467.890625 
L 168.940174 -467.890625 
L 171.209703 -467.890625 
L 173.479233 -467.890625 
L 175.748762 -467.890625 
L 178.018291 -467.890625 
L 180.287821 -467.890625 
L 182.55735 -467.890625 
L 184.82688 -467.890625 
L 187.096409 -467.890625 
L 189.365939 -467.890625 
L 191.635468 -467.890625 
L 193.904998 -467.890625 
L 196.174527 -467.890625 
L 198.444057 -467.890625 
L 200.713586 -467.890625 
L 202.983116 -467.890625 
L 205.252645 -467.890625 
L 207.522175 -467.890625 
L 209.791704 -467.890625 
L 212.061233 -467.890625 
L 214.330763 -467.890625 
L 216.600292 -467.890625 
L 218.869822 -467.890625 
L 221.139351 -467.890625 
L 223.408881 -467.890625 
L 225.67841 -467.890625 
L 227.94794 -467.890625 
L 230.217469 -467.890625 
L 232.486999 -467.890625 
L 234.756528 -467.890625 
L 237.026058 -467.890625 
L 239.295587 -467.890625 
L 241.565116 -467.890625 
L 243.834646 -467.890625 
L 246.104175 -467.890625 
L 248.373705 -467.890625 
L 250.643234 -467.890625 
L 252.912764 -467.890625 
L 255.182293 -467.890625 
L 257.451823 -467.890625 
L 259.721352 -467.890625 
L 261.990882 -467.890625 
L 264.260411 -467.890625 
L 266.529941 -467.890625 
L 268.79947 -467.890625 
L 271.069 -467.890625 
L 273.338529 -467.890625 
L 275.608058 -467.890625 
L 277.877588 -467.890625 
L 280.147117 -467.890625 
L 282.416647 -467.890625 
L 284.686176 -467.890625 
L 286.955706 -467.890625 
L 289.225235 -467.890625 
L 291.494765 -467.890625 
L 293.764294 -467.890625 
L 296.033824 -467.890625 
L 298.303353 -467.890625 
L 300.572883 -467.890625 
L 302.842412 -467.890625 
L 305.111942 -467.890625 
L 307.381471 -467.890625 
L 309.651 -467.890625 
L 311.92053 -467.890625 
L 314.190059 -467.890625 
L 316.459589 -467.890625 
L 318.729118 -467.890625 
L 320.998648 -467.890625 
L 323.268177 -467.890625 
L 325.537707 -467.890625 
L 327.807236 -467.890625 
L 330.076766 -467.890625 
L 332.346295 -467.890625 
L 334.615825 -467.890625 
L 336.885354 -467.890625 
L 339.154884 -467.890625 
L 341.424413 -467.890625 
L 343.693942 -467.890625 
L 345.963472 -467.890625 
L 348.233001 -467.890625 
L 350.502531 -467.890625 
L 352.77206 -467.890625 
L 355.04159 -467.890625 
L 357.311119 -467.890625 
L 359.580649 -467.890625 
L 361.850178 -467.890625 
L 364.119708 -467.890625 
L 366.389237 -467.890625 
L 368.658767 -467.890625 
L 370.928296 -467.890625 
L 373.197825 -467.890625 
L 375.467355 -467.890625 
L 377.736884 -467.890625 
L 380.006414 -467.890625 
L 382.275943 -467.890625 
L 384.545473 -467.890625 
L 386.815002 -467.890625 
L 389.084532 -467.890625 
L 391.354061 -467.890625 
L 393.623591 -467.890625 
L 395.89312 -467.890625 
L 398.16265 -467.890625 
L 400.432179 -467.890625 
L 402.701709 -467.890625 
L 404.971238 -467.890625 
L 407.240767 -467.890625 
L 409.510297 -467.890625 
L 411.779826 -467.890625 
L 414.049356 -467.890625 
L 416.318885 -467.890625 
L 418.588415 -467.890625 
L 420.857944 -467.890625 
L 423.127474 -467.890625 
L 425.397003 -467.890625 
L 427.666533 -467.890625 
L 429.936062 -467.890625 
L 432.205592 -467.890625 
L 434.475121 -467.890625 
L 436.744651 -467.890625 
L 439.01418 -467.890625 
L 441.283709 -467.890625 
L 443.553239 -467.890625 
L 445.822768 -467.890625 
L 448.092298 -467.890625 
L 450.361827 -467.890625 
L 452.631357 -467.890625 
L 454.900886 -467.890625 
L 457.170416 -467.890625 
L 459.439945 -467.890625 
L 461.709475 -467.890625 
L 463.979004 -467.890625 
L 466.248534 -467.890625 
L 468.518063 -467.890625 
L 470.787593 -467.890625 
L 473.057122 -467.890625 
L 475.326651 -467.890625 
L 477.596181 -467.890625 
L 479.86571 -467.890625 
L 482.13524 -467.890625 
L 484.404769 -467.890625 
L 486.674299 -467.890625 
L 488.943828 -467.890625 
L 491.213358 -467.890625 
L 493.482887 -467.890625 
L 495.752417 -467.890625 
L 498.021946 -467.890625 
L 500.291476 -467.890625 
L 502.561005 -467.890625 
L 504.830534 -467.890625 
L 507.100064 -467.890625 
L 509.369593 -467.890625 
L 511.639123 -467.890625 
L 513.908652 -467.890625 
L 516.178182 -467.890625 
L 516.178182 -472.45671 
L 516.178182 -472.45671 
L 513.908652 -473.638378 
L 511.639123 -475.041172 
L 509.369593 -476.682215 
L 507.100064 -478.573365 
L 504.830534 -480.719391 
L 502.561005 -483.116216 
L 500.291476 -485.749351 
L 498.021946 -488.592696 
L 495.752417 -491.607866 
L 493.482887 -494.744165 
L 491.213358 -497.939345 
L 488.943828 -501.121167 
L 486.674299 -504.209794 
L 484.404769 -507.120906 
L 482.13524 -509.769399 
L 479.86571 -512.073455 
L 477.596181 -513.958707 
L 475.326651 -515.362213 
L 473.057122 -516.235943 
L 470.787593 -516.549505 
L 468.518063 -516.291903 
L 466.248534 -515.472174 
L 463.979004 -514.118864 
L 461.709475 -512.278378 
L 459.439945 -510.012335 
L 457.170416 -507.394151 
L 454.900886 -504.505096 
L 452.631357 -501.430133 
L 450.361827 -498.253832 
L 448.092298 -495.056621 
L 445.822768 -491.911601 
L 443.553239 -488.882087 
L 441.283709 -486.019956 
L 439.01418 -483.364813 
L 436.744651 -480.943946 
L 434.475121 -478.772937 
L 432.205592 -476.856824 
L 429.936062 -475.191629 
L 427.666533 -473.766112 
L 425.397003 -472.563586 
L 423.127474 -471.56368 
L 420.857944 -470.74394 
L 418.588415 -470.081205 
L 416.318885 -469.552719 
L 414.049356 -469.136972 
L 411.779826 -468.814279 
L 409.510297 -468.567124 
L 407.240767 -468.380304 
L 404.971238 -468.240927 
L 402.701709 -468.138288 
L 400.432179 -468.063673 
L 398.16265 -468.010123 
L 395.89312 -467.972178 
L 393.623591 -467.945631 
L 391.354061 -467.927291 
L 389.084532 -467.91478 
L 386.815002 -467.906351 
L 384.545473 -467.900744 
L 382.275943 -467.89706 
L 380.006414 -467.894669 
L 377.736884 -467.893137 
L 375.467355 -467.892167 
L 373.197825 -467.89156 
L 370.928296 -467.891186 
L 368.658767 -467.890957 
L 366.389237 -467.89082 
L 364.119708 -467.890738 
L 361.850178 -467.890689 
L 359.580649 -467.890661 
L 357.311119 -467.890645 
L 355.04159 -467.890636 
L 352.77206 -467.890631 
L 350.502531 -467.890628 
L 348.233001 -467.890627 
L 345.963472 -467.890626 
L 343.693942 -467.890625 
L 341.424413 -467.890625 
L 339.154884 -467.890625 
L 336.885354 -467.890625 
L 334.615825 -467.890625 
L 332.346295 -467.890625 
L 330.076766 -467.890625 
L 327.807236 -467.890625 
L 325.537707 -467.890625 
L 323.268177 -467.890625 
L 320.998648 -467.890625 
L 318.729118 -467.890625 
L 316.459589 -467.890625 
L 314.190059 -467.890625 
L 311.92053 -467.890625 
L 309.651 -467.890625 
L 307.381471 -467.890625 
L 305.111942 -467.890625 
L 302.842412 -467.890625 
L 300.572883 -467.890625 
L 298.303353 -467.890625 
L 296.033824 -467.890625 
L 293.764294 -467.890625 
L 291.494765 -467.890625 
L 289.225235 -467.890625 
L 286.955706 -467.890625 
L 284.686176 -467.890625 
L 282.416647 -467.890625 
L 280.147117 -467.890625 
L 277.877588 -467.890625 
L 275.608058 -467.890625 
L 273.338529 -467.890625 
L 271.069 -467.890625 
L 268.79947 -467.890625 
L 266.529941 -467.890625 
L 264.260411 -467.890625 
L 261.990882 -467.890625 
L 259.721352 -467.890625 
L 257.451823 -467.890625 
L 255.182293 -467.890625 
L 252.912764 -467.890625 
L 250.643234 -467.890625 
L 248.373705 -467.890625 
L 246.104175 -467.890625 
L 243.834646 -467.890625 
L 241.565116 -467.890625 
L 239.295587 -467.890625 
L 237.026058 -467.890625 
L 234.756528 -467.890625 
L 232.486999 -467.890626 
L 230.217469 -467.890627 
L 227.94794 -467.890628 
L 225.67841 -467.890631 
L 223.408881 -467.890635 
L 221.139351 -467.890643 
L 218.869822 -467.890657 
L 216.600292 -467.890681 
L 214.330763 -467.890721 
L 212.061233 -467.890789 
L 209.791704 -467.890902 
L 207.522175 -467.891087 
L 205.252645 -467.891386 
L 202.983116 -467.891865 
L 200.713586 -467.892622 
L 198.444057 -467.893802 
L 196.174527 -467.895621 
L 193.904998 -467.89839 
L 191.635468 -467.902551 
L 189.365939 -467.908728 
L 187.096409 -467.917784 
L 184.82688 -467.930891 
L 182.55735 -467.949626 
L 180.287821 -467.976066 
L 178.018291 -468.012907 
L 175.748762 -468.063585 
L 173.479233 -468.132401 
L 171.209703 -468.224642 
L 168.940174 -468.346673 
L 166.670644 -468.506001 
L 164.401115 -468.711273 
L 162.131585 -468.97221 
L 159.862056 -469.299431 
L 157.592526 -469.704173 
L 155.322997 -470.19787 
L 153.053467 -470.791609 
L 150.783938 -471.495449 
L 148.514408 -472.317628 
L 146.244879 -473.263697 
L 143.975349 -474.335619 
L 141.70582 -475.530907 
L 139.436291 -476.841866 
L 137.166761 -478.255026 
L 134.897232 -479.750829 
L 132.627702 -481.303662 
L 130.358173 -482.882265 
L 128.088643 -484.450543 
L 125.819114 -485.968786 
L 123.549584 -487.395239 
L 121.280055 -488.687951 
L 119.010525 -489.806795 
L 116.740996 -490.715523 
L 114.471466 -491.383711 
L 112.201937 -491.788447 
L 109.932407 -491.915636 
L 107.662878 -491.760817 
L 105.393349 -491.329418 
L 103.123819 -490.636446 
L 100.85429 -489.705615 
L 98.58476 -488.568002 
L 96.315231 -487.260326 
L 94.045701 -485.822983 
L 91.776172 -484.297993 
L 89.506642 -482.726989 
L 87.237113 -481.149389 
L 84.967583 -479.600861 
L 82.698054 -478.11214 
L 80.428524 -476.708257 
L 78.158995 -475.408163 
L 75.889466 -474.224746 
L 73.619936 -473.165159 
L 71.350407 -472.231416 
L 69.080877 -471.421162 
L 66.811348 -470.728541 
L 64.541818 -470.1451 
z
" style="stroke: #000000"/>
    </defs>
    <g clip-path="url(#p23df34c774)">
     <use xlink:href="#mdf1703ff02" x="0" y="864" style="fill: #ff7f0e; fill-opacity: 0.75; stroke: #000000"/>
    </g>
   </g>
   <g id="PolyCollection_2">
    <defs>
     <path id="m39716aea75" d="M 64.541818 -474.463533 
L 64.541818 -470.1451 
L 66.811348 -470.728541 
L 69.080877 -471.421162 
L 71.350407 -472.231416 
L 73.619936 -473.165159 
L 75.889466 -474.224746 
L 78.158995 -475.408163 
L 80.428524 -476.708257 
L 82.698054 -478.11214 
L 84.967583 -479.600861 
L 87.237113 -481.149389 
L 89.506642 -482.726989 
L 91.776172 -484.297993 
L 94.045701 -485.822983 
L 96.315231 -487.260326 
L 98.58476 -488.568002 
L 100.85429 -489.705615 
L 103.123819 -490.636446 
L 105.393349 -491.329418 
L 107.662878 -491.760817 
L 109.932407 -491.915636 
L 112.201937 -491.788447 
L 114.471466 -491.383711 
L 116.740996 -490.715523 
L 119.010525 -489.806795 
L 121.280055 -488.687951 
L 123.549584 -487.395239 
L 125.819114 -485.968786 
L 128.088643 -484.450543 
L 130.358173 -482.882265 
L 132.627702 -481.303662 
L 134.897232 -479.750829 
L 137.166761 -478.255026 
L 139.436291 -476.841866 
L 141.70582 -475.530907 
L 143.975349 -474.335619 
L 146.244879 -473.263697 
L 148.514408 -472.317628 
L 150.783938 -471.495449 
L 153.053467 -470.791609 
L 155.322997 -470.19787 
L 157.592526 -469.704173 
L 159.862056 -469.299431 
L 162.131585 -468.97221 
L 164.401115 -468.711273 
L 166.670644 -468.506001 
L 168.940174 -468.346673 
L 171.209703 -468.224642 
L 173.479233 -468.132401 
L 175.748762 -468.063585 
L 178.018291 -468.012907 
L 180.287821 -467.976066 
L 182.55735 -467.949626 
L 184.82688 -467.930891 
L 187.096409 -467.917784 
L 189.365939 -467.908728 
L 191.635468 -467.902551 
L 193.904998 -467.89839 
L 196.174527 -467.895621 
L 198.444057 -467.893802 
L 200.713586 -467.892622 
L 202.983116 -467.891865 
L 205.252645 -467.891386 
L 207.522175 -467.891087 
L 209.791704 -467.890902 
L 212.061233 -467.890789 
L 214.330763 -467.890721 
L 216.600292 -467.890681 
L 218.869822 -467.890657 
L 221.139351 -467.890643 
L 223.408881 -467.890635 
L 225.67841 -467.890631 
L 227.94794 -467.890628 
L 230.217469 -467.890627 
L 232.486999 -467.890626 
L 234.756528 -467.890625 
L 237.026058 -467.890625 
L 239.295587 -467.890625 
L 241.565116 -467.890625 
L 243.834646 -467.890625 
L 246.104175 -467.890625 
L 248.373705 -467.890625 
L 250.643234 -467.890625 
L 252.912764 -467.890625 
L 255.182293 -467.890625 
L 257.451823 -467.890625 
L 259.721352 -467.890625 
L 261.990882 -467.890625 
L 264.260411 -467.890625 
L 266.529941 -467.890625 
L 268.79947 -467.890625 
L 271.069 -467.890625 
L 273.338529 -467.890625 
L 275.608058 -467.890625 
L 277.877588 -467.890625 
L 280.147117 -467.890625 
L 282.416647 -467.890625 
L 284.686176 -467.890625 
L 286.955706 -467.890625 
L 289.225235 -467.890625 
L 291.494765 -467.890625 
L 293.764294 -467.890625 
L 296.033824 -467.890625 
L 298.303353 -467.890625 
L 300.572883 -467.890625 
L 302.842412 -467.890625 
L 305.111942 -467.890625 
L 307.381471 -467.890625 
L 309.651 -467.890625 
L 311.92053 -467.890625 
L 314.190059 -467.890625 
L 316.459589 -467.890625 
L 318.729118 -467.890625 
L 320.998648 -467.890625 
L 323.268177 -467.890625 
L 325.537707 -467.890625 
L 327.807236 -467.890625 
L 330.076766 -467.890625 
L 332.346295 -467.890625 
L 334.615825 -467.890625 
L 336.885354 -467.890625 
L 339.154884 -467.890625 
L 341.424413 -467.890625 
L 343.693942 -467.890625 
L 345.963472 -467.890626 
L 348.233001 -467.890627 
L 350.502531 -467.890628 
L 352.77206 -467.890631 
L 355.04159 -467.890636 
L 357.311119 -467.890645 
L 359.580649 -467.890661 
L 361.850178 -467.890689 
L 364.119708 -467.890738 
L 366.389237 -467.89082 
L 368.658767 -467.890957 
L 370.928296 -467.891186 
L 373.197825 -467.89156 
L 375.467355 -467.892167 
L 377.736884 -467.893137 
L 380.006414 -467.894669 
L 382.275943 -467.89706 
L 384.545473 -467.900744 
L 386.815002 -467.906351 
L 389.084532 -467.91478 
L 391.354061 -467.927291 
L 393.623591 -467.945631 
L 395.89312 -467.972178 
L 398.16265 -468.010123 
L 400.432179 -468.063673 
L 402.701709 -468.138288 
L 404.971238 -468.240927 
L 407.240767 -468.380304 
L 409.510297 -468.567124 
L 411.779826 -468.814279 
L 414.049356 -469.136972 
L 416.318885 -469.552719 
L 418.588415 -470.081205 
L 420.857944 -470.74394 
L 423.127474 -471.56368 
L 425.397003 -472.563586 
L 427.666533 -473.766112 
L 429.936062 -475.191629 
L 432.205592 -476.856824 
L 434.475121 -478.772937 
L 436.744651 -480.943946 
L 439.01418 -483.364813 
L 441.283709 -486.019956 
L 443.553239 -488.882087 
L 445.822768 -491.911601 
L 448.092298 -495.056621 
L 450.361827 -498.253832 
L 452.631357 -501.430133 
L 454.900886 -504.505096 
L 457.170416 -507.394151 
L 459.439945 -510.012335 
L 461.709475 -512.278378 
L 463.979004 -514.118864 
L 466.248534 -515.472174 
L 468.518063 -516.291903 
L 470.787593 -516.549505 
L 473.057122 -516.235943 
L 475.326651 -515.362213 
L 477.596181 -513.958707 
L 479.86571 -512.073455 
L 482.13524 -509.769399 
L 484.404769 -507.120906 
L 486.674299 -504.209794 
L 488.943828 -501.121167 
L 491.213358 -497.939345 
L 493.482887 -494.744165 
L 495.752417 -491.607866 
L 498.021946 -488.592696 
L 500.291476 -485.749351 
L 502.561005 -483.116216 
L 504.830534 -480.719391 
L 507.100064 -478.573365 
L 509.369593 -476.682215 
L 511.639123 -475.041172 
L 513.908652 -473.638378 
L 516.178182 -472.45671 
L 516.178182 -475.34173 
L 516.178182 -475.34173 
L 513.908652 -478.032172 
L 511.639123 -481.590327 
L 509.369593 -486.236223 
L 507.100064 -492.214193 
L 504.830534 -499.780609 
L 502.561005 -509.184675 
L 500.291476 -520.642073 
L 498.021946 -534.302478 
L 495.752417 -550.213344 
L 493.482887 -568.283904 
L 491.213358 -588.25452 
L 488.943828 -609.677251 
L 486.674299 -631.913174 
L 484.404769 -654.150719 
L 482.13524 -675.446775 
L 479.86571 -694.789127 
L 477.596181 -711.175175 
L 475.326651 -723.698704 
L 473.057122 -731.634257 
L 470.787593 -734.508122 
L 468.518063 -732.146138 
L 466.248534 -724.691546 
L 463.979004 -712.590296 
L 461.709475 -696.545944 
L 459.439945 -677.450549 
L 457.170416 -656.301131 
L 454.900886 -634.11265 
L 452.631357 -611.838088 
L 450.361827 -590.304131 
L 448.092298 -570.167843 
L 445.822768 -551.896128 
L 443.553239 -535.766496 
L 441.283709 -521.885088 
L 439.01418 -510.216478 
L 436.744651 -500.6194 
L 434.475121 -492.883136 
L 432.205592 -486.760496 
L 429.936062 -481.994844 
L 427.666533 -478.340014 
L 425.397003 -475.573225 
L 423.127474 -473.501872 
L 420.857944 -471.965554 
L 418.588415 -470.834779 
L 416.318885 -470.007678 
L 414.049356 -469.4058 
L 411.779826 -468.969743 
L 409.510297 -468.655115 
L 407.240767 -468.429046 
L 404.971238 -468.267353 
L 402.701709 -468.15231 
L 400.432179 -468.070955 
L 398.16265 -468.013824 
L 395.89312 -467.974019 
L 393.623591 -467.946527 
L 391.354061 -467.927718 
L 389.084532 -467.914979 
L 386.815002 -467.906442 
L 384.545473 -467.900785 
L 382.275943 -467.897078 
L 380.006414 -467.894677 
L 377.736884 -467.89314 
L 375.467355 -467.892168 
L 373.197825 -467.891561 
L 370.928296 -467.891186 
L 368.658767 -467.890957 
L 366.389237 -467.89082 
L 364.119708 -467.890738 
L 361.850178 -467.890689 
L 359.580649 -467.890661 
L 357.311119 -467.890645 
L 355.04159 -467.890636 
L 352.77206 -467.890631 
L 350.502531 -467.890628 
L 348.233001 -467.890627 
L 345.963472 -467.890626 
L 343.693942 -467.890625 
L 341.424413 -467.890625 
L 339.154884 -467.890625 
L 336.885354 -467.890625 
L 334.615825 -467.890625 
L 332.346295 -467.890625 
L 330.076766 -467.890625 
L 327.807236 -467.890625 
L 325.537707 -467.890625 
L 323.268177 -467.890625 
L 320.998648 -467.890625 
L 318.729118 -467.890625 
L 316.459589 -467.890625 
L 314.190059 -467.890625 
L 311.92053 -467.890625 
L 309.651 -467.890625 
L 307.381471 -467.890625 
L 305.111942 -467.890625 
L 302.842412 -467.890625 
L 300.572883 -467.890625 
L 298.303353 -467.890625 
L 296.033824 -467.890625 
L 293.764294 -467.890625 
L 291.494765 -467.890625 
L 289.225235 -467.890625 
L 286.955706 -467.890625 
L 284.686176 -467.890625 
L 282.416647 -467.890625 
L 280.147117 -467.890625 
L 277.877588 -467.890625 
L 275.608058 -467.890625 
L 273.338529 -467.890625 
L 271.069 -467.890625 
L 268.79947 -467.890625 
L 266.529941 -467.890625 
L 264.260411 -467.890625 
L 261.990882 -467.890625 
L 259.721352 -467.890625 
L 257.451823 -467.890625 
L 255.182293 -467.890625 
L 252.912764 -467.890625 
L 250.643234 -467.890625 
L 248.373705 -467.890625 
L 246.104175 -467.890625 
L 243.834646 -467.890625 
L 241.565116 -467.890625 
L 239.295587 -467.890625 
L 237.026058 -467.890625 
L 234.756528 -467.890625 
L 232.486999 -467.890626 
L 230.217469 -467.890627 
L 227.94794 -467.890628 
L 225.67841 -467.890631 
L 223.408881 -467.890635 
L 221.139351 -467.890643 
L 218.869822 -467.890657 
L 216.600292 -467.890681 
L 214.330763 -467.890721 
L 212.061233 -467.890789 
L 209.791704 -467.890902 
L 207.522175 -467.891088 
L 205.252645 -467.891388 
L 202.983116 -467.89187 
L 200.713586 -467.892633 
L 198.444057 -467.893829 
L 196.174527 -467.895682 
L 193.904998 -467.898526 
L 191.635468 -467.902849 
L 189.365939 -467.909368 
L 187.096409 -467.919125 
L 184.82688 -467.933647 
L 182.55735 -467.955166 
L 180.287821 -467.986966 
L 178.018291 -468.033896 
L 175.748762 -468.10314 
L 173.479233 -468.205361 
L 171.209703 -468.356352 
L 168.940174 -468.579379 
L 166.670644 -468.908394 
L 164.401115 -469.392277 
L 162.131585 -470.100194 
L 159.862056 -471.127999 
L 157.592526 -472.605348 
L 155.322997 -474.702837 
L 153.053467 -477.638039 
L 150.783938 -481.678818 
L 148.514408 -487.141906 
L 146.244879 -494.384498 
L 143.975349 -503.786753 
L 141.70582 -515.723725 
L 139.436291 -530.526462 
L 137.166761 -548.433787 
L 134.897232 -569.538456 
L 132.627702 -593.733629 
L 130.358173 -620.667428 
L 128.088643 -649.714299 
L 125.819114 -679.971395 
L 123.549584 -710.286124 
L 121.280055 -739.317248 
L 119.010525 -765.627048 
L 116.740996 -787.796783 
L 114.471466 -804.552987 
L 112.201937 -814.889095 
L 109.932407 -818.16622 
L 107.662878 -814.179021 
L 105.393349 -803.177157 
L 103.123819 -785.839219 
L 100.85429 -763.202922 
L 98.58476 -736.561597 
L 96.315231 -707.341382 
L 94.045701 -676.975335 
L 91.776172 -646.789782 
L 89.506642 -617.914939 
L 87.237113 -591.227086 
L 84.967583 -567.324265 
L 82.698054 -546.532665 
L 80.428524 -528.937305 
L 78.158995 -514.428644 
L 75.889466 -502.756463 
L 73.619936 -493.583385 
L 71.350407 -486.5323 
L 69.080877 -481.224241 
L 66.811348 -477.305376 
L 64.541818 -474.463533 
z
" style="stroke: #000000"/>
    </defs>
    <g clip-path="url(#p23df34c774)">
     <use xlink:href="#m39716aea75" x="0" y="864" style="fill: #1f77b4; fill-opacity: 0.75; stroke: #000000"/>
    </g>
   </g>
   <g id="matplotlib.axis_1">
    <g id="xtick_1">
     <g id="line2d_1">
      <defs>
       <path id="m1f58fadd41" d="M 0 0 
L 0 3.5 
" style="stroke: #000000; stroke-width: 0.8"/>
      </defs>
      <g>
       <use xlink:href="#m1f58fadd41" x="110.043911" y="396.109375" style="stroke: #000000; stroke-width: 0.8"/>
      </g>
     </g>
     <g id="text_1">
      <!-- 0.0 -->
      <g transform="translate(102.092349 410.707813) scale(0.1 -0.1)">
       <defs>
        <path id="DejaVuSans-30" d="M 2034 4250 
Q 1547 4250 1301 3770 
Q 1056 3291 1056 2328 
Q 1056 1369 1301 889 
Q 1547 409 2034 409 
Q 2525 409 2770 889 
Q 3016 1369 3016 2328 
Q 3016 3291 2770 3770 
Q 2525 4250 2034 4250 
z
M 2034 4750 
Q 2819 4750 3233 4129 
Q 3647 3509 3647 2328 
Q 3647 1150 3233 529 
Q 2819 -91 2034 -91 
Q 1250 -91 836 529 
Q 422 1150 422 2328 
Q 422 3509 836 4129 
Q 1250 4750 2034 4750 
z
" transform="scale(0.015625)"/>
        <path id="DejaVuSans-2e" d="M 684 794 
L 1344 794 
L 1344 0 
L 684 0 
L 684 794 
z
" transform="scale(0.015625)"/>
       </defs>
       <use xlink:href="#DejaVuSans-30"/>
       <use xlink:href="#DejaVuSans-2e" x="63.623047"/>
       <use xlink:href="#DejaVuSans-30" x="95.410156"/>
      </g>
     </g>
    </g>
    <g id="xtick_2">
     <g id="line2d_2">
      <g>
       <use xlink:href="#m1f58fadd41" x="182.170347" y="396.109375" style="stroke: #000000; stroke-width: 0.8"/>
      </g>
     </g>
     <g id="text_2">
      <!-- 0.2 -->
      <g transform="translate(174.218784 410.707813) scale(0.1 -0.1)">
       <defs>
        <path id="DejaVuSans-32" d="M 1228 531 
L 3431 531 
L 3431 0 
L 469 0 
L 469 531 
Q 828 903 1448 1529 
Q 2069 2156 2228 2338 
Q 2531 2678 2651 2914 
Q 2772 3150 2772 3378 
Q 2772 3750 2511 3984 
Q 2250 4219 1831 4219 
Q 1534 4219 1204 4116 
Q 875 4013 500 3803 
L 500 4441 
Q 881 4594 1212 4672 
Q 1544 4750 1819 4750 
Q 2544 4750 2975 4387 
Q 3406 4025 3406 3419 
Q 3406 3131 3298 2873 
Q 3191 2616 2906 2266 
Q 2828 2175 2409 1742 
Q 1991 1309 1228 531 
z
" transform="scale(0.015625)"/>
       </defs>
       <use xlink:href="#DejaVuSans-30"/>
       <use xlink:href="#DejaVuSans-2e" x="63.623047"/>
       <use xlink:href="#DejaVuSans-32" x="95.410156"/>
      </g>
     </g>
    </g>
    <g id="xtick_3">
     <g id="line2d_3">
      <g>
       <use xlink:href="#m1f58fadd41" x="254.296782" y="396.109375" style="stroke: #000000; stroke-width: 0.8"/>
      </g>
     </g>
     <g id="text_3">
      <!-- 0.4 -->
      <g transform="translate(246.34522 410.707813) scale(0.1 -0.1)">
       <defs>
        <path id="DejaVuSans-34" d="M 2419 4116 
L 825 1625 
L 2419 1625 
L 2419 4116 
z
M 2253 4666 
L 3047 4666 
L 3047 1625 
L 3713 1625 
L 3713 1100 
L 3047 1100 
L 3047 0 
L 2419 0 
L 2419 1100 
L 313 1100 
L 313 1709 
L 2253 4666 
z
" transform="scale(0.015625)"/>
       </defs>
       <use xlink:href="#DejaVuSans-30"/>
       <use xlink:href="#DejaVuSans-2e" x="63.623047"/>
       <use xlink:href="#DejaVuSans-34" x="95.410156"/>
      </g>
     </g>
    </g>
    <g id="xtick_4">
     <g id="line2d_4">
      <g>
       <use xlink:href="#m1f58fadd41" x="326.423218" y="396.109375" style="stroke: #000000; stroke-width: 0.8"/>
      </g>
     </g>
     <g id="text_4">
      <!-- 0.6 -->
      <g transform="translate(318.471655 410.707813) scale(0.1 -0.1)">
       <defs>
        <path id="DejaVuSans-36" d="M 2113 2584 
Q 1688 2584 1439 2293 
Q 1191 2003 1191 1497 
Q 1191 994 1439 701 
Q 1688 409 2113 409 
Q 2538 409 2786 701 
Q 3034 994 3034 1497 
Q 3034 2003 2786 2293 
Q 2538 2584 2113 2584 
z
M 3366 4563 
L 3366 3988 
Q 3128 4100 2886 4159 
Q 2644 4219 2406 4219 
Q 1781 4219 1451 3797 
Q 1122 3375 1075 2522 
Q 1259 2794 1537 2939 
Q 1816 3084 2150 3084 
Q 2853 3084 3261 2657 
Q 3669 2231 3669 1497 
Q 3669 778 3244 343 
Q 2819 -91 2113 -91 
Q 1303 -91 875 529 
Q 447 1150 447 2328 
Q 447 3434 972 4092 
Q 1497 4750 2381 4750 
Q 2619 4750 2861 4703 
Q 3103 4656 3366 4563 
z
" transform="scale(0.015625)"/>
       </defs>
       <use xlink:href="#DejaVuSans-30"/>
       <use xlink:href="#DejaVuSans-2e" x="63.623047"/>
       <use xlink:href="#DejaVuSans-36" x="95.410156"/>
      </g>
     </g>
    </g>
    <g id="xtick_5">
     <g id="line2d_5">
      <g>
       <use xlink:href="#m1f58fadd41" x="398.549653" y="396.109375" style="stroke: #000000; stroke-width: 0.8"/>
      </g>
     </g>
     <g id="text_5">
      <!-- 0.8 -->
      <g transform="translate(390.598091 410.707813) scale(0.1 -0.1)">
       <defs>
        <path id="DejaVuSans-38" d="M 2034 2216 
Q 1584 2216 1326 1975 
Q 1069 1734 1069 1313 
Q 1069 891 1326 650 
Q 1584 409 2034 409 
Q 2484 409 2743 651 
Q 3003 894 3003 1313 
Q 3003 1734 2745 1975 
Q 2488 2216 2034 2216 
z
M 1403 2484 
Q 997 2584 770 2862 
Q 544 3141 544 3541 
Q 544 4100 942 4425 
Q 1341 4750 2034 4750 
Q 2731 4750 3128 4425 
Q 3525 4100 3525 3541 
Q 3525 3141 3298 2862 
Q 3072 2584 2669 2484 
Q 3125 2378 3379 2068 
Q 3634 1759 3634 1313 
Q 3634 634 3220 271 
Q 2806 -91 2034 -91 
Q 1263 -91 848 271 
Q 434 634 434 1313 
Q 434 1759 690 2068 
Q 947 2378 1403 2484 
z
M 1172 3481 
Q 1172 3119 1398 2916 
Q 1625 2713 2034 2713 
Q 2441 2713 2670 2916 
Q 2900 3119 2900 3481 
Q 2900 3844 2670 4047 
Q 2441 4250 2034 4250 
Q 1625 4250 1398 4047 
Q 1172 3844 1172 3481 
z
" transform="scale(0.015625)"/>
       </defs>
       <use xlink:href="#DejaVuSans-30"/>
       <use xlink:href="#DejaVuSans-2e" x="63.623047"/>
       <use xlink:href="#DejaVuSans-38" x="95.410156"/>
      </g>
     </g>
    </g>
    <g id="xtick_6">
     <g id="line2d_6">
      <g>
       <use xlink:href="#m1f58fadd41" x="470.676089" y="396.109375" style="stroke: #000000; stroke-width: 0.8"/>
      </g>
     </g>
     <g id="text_6">
      <!-- 1.0 -->
      <g transform="translate(462.724526 410.707813) scale(0.1 -0.1)">
       <defs>
        <path id="DejaVuSans-31" d="M 794 531 
L 1825 531 
L 1825 4091 
L 703 3866 
L 703 4441 
L 1819 4666 
L 2450 4666 
L 2450 531 
L 3481 531 
L 3481 0 
L 794 0 
L 794 531 
z
" transform="scale(0.015625)"/>
       </defs>
       <use xlink:href="#DejaVuSans-31"/>
       <use xlink:href="#DejaVuSans-2e" x="63.623047"/>
       <use xlink:href="#DejaVuSans-30" x="95.410156"/>
      </g>
     </g>
    </g>
    <g id="text_7">
     <!-- HighChol -->
     <g transform="translate(267.759219 424.385938) scale(0.1 -0.1)">
      <defs>
       <path id="DejaVuSans-48" d="M 628 4666 
L 1259 4666 
L 1259 2753 
L 3553 2753 
L 3553 4666 
L 4184 4666 
L 4184 0 
L 3553 0 
L 3553 2222 
L 1259 2222 
L 1259 0 
L 628 0 
L 628 4666 
z
" transform="scale(0.015625)"/>
       <path id="DejaVuSans-69" d="M 603 3500 
L 1178 3500 
L 1178 0 
L 603 0 
L 603 3500 
z
M 603 4863 
L 1178 4863 
L 1178 4134 
L 603 4134 
L 603 4863 
z
" transform="scale(0.015625)"/>
       <path id="DejaVuSans-67" d="M 2906 1791 
Q 2906 2416 2648 2759 
Q 2391 3103 1925 3103 
Q 1463 3103 1205 2759 
Q 947 2416 947 1791 
Q 947 1169 1205 825 
Q 1463 481 1925 481 
Q 2391 481 2648 825 
Q 2906 1169 2906 1791 
z
M 3481 434 
Q 3481 -459 3084 -895 
Q 2688 -1331 1869 -1331 
Q 1566 -1331 1297 -1286 
Q 1028 -1241 775 -1147 
L 775 -588 
Q 1028 -725 1275 -790 
Q 1522 -856 1778 -856 
Q 2344 -856 2625 -561 
Q 2906 -266 2906 331 
L 2906 616 
Q 2728 306 2450 153 
Q 2172 0 1784 0 
Q 1141 0 747 490 
Q 353 981 353 1791 
Q 353 2603 747 3093 
Q 1141 3584 1784 3584 
Q 2172 3584 2450 3431 
Q 2728 3278 2906 2969 
L 2906 3500 
L 3481 3500 
L 3481 434 
z
" transform="scale(0.015625)"/>
       <path id="DejaVuSans-68" d="M 3513 2113 
L 3513 0 
L 2938 0 
L 2938 2094 
Q 2938 2591 2744 2837 
Q 2550 3084 2163 3084 
Q 1697 3084 1428 2787 
Q 1159 2491 1159 1978 
L 1159 0 
L 581 0 
L 581 4863 
L 1159 4863 
L 1159 2956 
Q 1366 3272 1645 3428 
Q 1925 3584 2291 3584 
Q 2894 3584 3203 3211 
Q 3513 2838 3513 2113 
z
" transform="scale(0.015625)"/>
       <path id="DejaVuSans-43" d="M 4122 4306 
L 4122 3641 
Q 3803 3938 3442 4084 
Q 3081 4231 2675 4231 
Q 1875 4231 1450 3742 
Q 1025 3253 1025 2328 
Q 1025 1406 1450 917 
Q 1875 428 2675 428 
Q 3081 428 3442 575 
Q 3803 722 4122 1019 
L 4122 359 
Q 3791 134 3420 21 
Q 3050 -91 2638 -91 
Q 1578 -91 968 557 
Q 359 1206 359 2328 
Q 359 3453 968 4101 
Q 1578 4750 2638 4750 
Q 3056 4750 3426 4639 
Q 3797 4528 4122 4306 
z
" transform="scale(0.015625)"/>
       <path id="DejaVuSans-6f" d="M 1959 3097 
Q 1497 3097 1228 2736 
Q 959 2375 959 1747 
Q 959 1119 1226 758 
Q 1494 397 1959 397 
Q 2419 397 2687 759 
Q 2956 1122 2956 1747 
Q 2956 2369 2687 2733 
Q 2419 3097 1959 3097 
z
M 1959 3584 
Q 2709 3584 3137 3096 
Q 3566 2609 3566 1747 
Q 3566 888 3137 398 
Q 2709 -91 1959 -91 
Q 1206 -91 779 398 
Q 353 888 353 1747 
Q 353 2609 779 3096 
Q 1206 3584 1959 3584 
z
" transform="scale(0.015625)"/>
       <path id="DejaVuSans-6c" d="M 603 4863 
L 1178 4863 
L 1178 0 
L 603 0 
L 603 4863 
z
" transform="scale(0.015625)"/>
      </defs>
      <use xlink:href="#DejaVuSans-48"/>
      <use xlink:href="#DejaVuSans-69" x="75.195312"/>
      <use xlink:href="#DejaVuSans-67" x="102.978516"/>
      <use xlink:href="#DejaVuSans-68" x="166.455078"/>
      <use xlink:href="#DejaVuSans-43" x="229.833984"/>
      <use xlink:href="#DejaVuSans-68" x="299.658203"/>
      <use xlink:href="#DejaVuSans-6f" x="363.037109"/>
      <use xlink:href="#DejaVuSans-6c" x="424.21875"/>
     </g>
    </g>
   </g>
   <g id="matplotlib.axis_2">
    <g id="ytick_1">
     <g id="line2d_7">
      <defs>
       <path id="m2752c1df8f" d="M 0 0 
L -3.5 0 
" style="stroke: #000000; stroke-width: 0.8"/>
      </defs>
      <g>
       <use xlink:href="#m2752c1df8f" x="41.96" y="396.109375" style="stroke: #000000; stroke-width: 0.8"/>
      </g>
     </g>
     <g id="text_8">
      <!-- 0 -->
      <g transform="translate(28.5975 399.908594) scale(0.1 -0.1)">
       <use xlink:href="#DejaVuSans-30"/>
      </g>
     </g>
    </g>
    <g id="ytick_2">
     <g id="line2d_8">
      <g>
       <use xlink:href="#m2752c1df8f" x="41.96" y="327.017873" style="stroke: #000000; stroke-width: 0.8"/>
      </g>
     </g>
     <g id="text_9">
      <!-- 1 -->
      <g transform="translate(28.5975 330.817091) scale(0.1 -0.1)">
       <use xlink:href="#DejaVuSans-31"/>
      </g>
     </g>
    </g>
    <g id="ytick_3">
     <g id="line2d_9">
      <g>
       <use xlink:href="#m2752c1df8f" x="41.96" y="257.92637" style="stroke: #000000; stroke-width: 0.8"/>
      </g>
     </g>
     <g id="text_10">
      <!-- 2 -->
      <g transform="translate(28.5975 261.725589) scale(0.1 -0.1)">
       <use xlink:href="#DejaVuSans-32"/>
      </g>
     </g>
    </g>
    <g id="ytick_4">
     <g id="line2d_10">
      <g>
       <use xlink:href="#m2752c1df8f" x="41.96" y="188.834868" style="stroke: #000000; stroke-width: 0.8"/>
      </g>
     </g>
     <g id="text_11">
      <!-- 3 -->
      <g transform="translate(28.5975 192.634086) scale(0.1 -0.1)">
       <defs>
        <path id="DejaVuSans-33" d="M 2597 2516 
Q 3050 2419 3304 2112 
Q 3559 1806 3559 1356 
Q 3559 666 3084 287 
Q 2609 -91 1734 -91 
Q 1441 -91 1130 -33 
Q 819 25 488 141 
L 488 750 
Q 750 597 1062 519 
Q 1375 441 1716 441 
Q 2309 441 2620 675 
Q 2931 909 2931 1356 
Q 2931 1769 2642 2001 
Q 2353 2234 1838 2234 
L 1294 2234 
L 1294 2753 
L 1863 2753 
Q 2328 2753 2575 2939 
Q 2822 3125 2822 3475 
Q 2822 3834 2567 4026 
Q 2313 4219 1838 4219 
Q 1578 4219 1281 4162 
Q 984 4106 628 3988 
L 628 4550 
Q 988 4650 1302 4700 
Q 1616 4750 1894 4750 
Q 2613 4750 3031 4423 
Q 3450 4097 3450 3541 
Q 3450 3153 3228 2886 
Q 3006 2619 2597 2516 
z
" transform="scale(0.015625)"/>
       </defs>
       <use xlink:href="#DejaVuSans-33"/>
      </g>
     </g>
    </g>
    <g id="ytick_5">
     <g id="line2d_11">
      <g>
       <use xlink:href="#m2752c1df8f" x="41.96" y="119.743365" style="stroke: #000000; stroke-width: 0.8"/>
      </g>
     </g>
     <g id="text_12">
      <!-- 4 -->
      <g transform="translate(28.5975 123.542584) scale(0.1 -0.1)">
       <use xlink:href="#DejaVuSans-34"/>
      </g>
     </g>
    </g>
    <g id="ytick_6">
     <g id="line2d_12">
      <g>
       <use xlink:href="#m2752c1df8f" x="41.96" y="50.651863" style="stroke: #000000; stroke-width: 0.8"/>
      </g>
     </g>
     <g id="text_13">
      <!-- 5 -->
      <g transform="translate(28.5975 54.451082) scale(0.1 -0.1)">
       <defs>
        <path id="DejaVuSans-35" d="M 691 4666 
L 3169 4666 
L 3169 4134 
L 1269 4134 
L 1269 2991 
Q 1406 3038 1543 3061 
Q 1681 3084 1819 3084 
Q 2600 3084 3056 2656 
Q 3513 2228 3513 1497 
Q 3513 744 3044 326 
Q 2575 -91 1722 -91 
Q 1428 -91 1123 -41 
Q 819 9 494 109 
L 494 744 
Q 775 591 1075 516 
Q 1375 441 1709 441 
Q 2250 441 2565 725 
Q 2881 1009 2881 1497 
Q 2881 1984 2565 2268 
Q 2250 2553 1709 2553 
Q 1456 2553 1204 2497 
Q 953 2441 691 2322 
L 691 4666 
z
" transform="scale(0.015625)"/>
       </defs>
       <use xlink:href="#DejaVuSans-35"/>
      </g>
     </g>
    </g>
    <g id="text_14">
     <!-- Density -->
     <g transform="translate(22.517812 231.223281) rotate(-90) scale(0.1 -0.1)">
      <defs>
       <path id="DejaVuSans-44" d="M 1259 4147 
L 1259 519 
L 2022 519 
Q 2988 519 3436 956 
Q 3884 1394 3884 2338 
Q 3884 3275 3436 3711 
Q 2988 4147 2022 4147 
L 1259 4147 
z
M 628 4666 
L 1925 4666 
Q 3281 4666 3915 4102 
Q 4550 3538 4550 2338 
Q 4550 1131 3912 565 
Q 3275 0 1925 0 
L 628 0 
L 628 4666 
z
" transform="scale(0.015625)"/>
       <path id="DejaVuSans-65" d="M 3597 1894 
L 3597 1613 
L 953 1613 
Q 991 1019 1311 708 
Q 1631 397 2203 397 
Q 2534 397 2845 478 
Q 3156 559 3463 722 
L 3463 178 
Q 3153 47 2828 -22 
Q 2503 -91 2169 -91 
Q 1331 -91 842 396 
Q 353 884 353 1716 
Q 353 2575 817 3079 
Q 1281 3584 2069 3584 
Q 2775 3584 3186 3129 
Q 3597 2675 3597 1894 
z
M 3022 2063 
Q 3016 2534 2758 2815 
Q 2500 3097 2075 3097 
Q 1594 3097 1305 2825 
Q 1016 2553 972 2059 
L 3022 2063 
z
" transform="scale(0.015625)"/>
       <path id="DejaVuSans-6e" d="M 3513 2113 
L 3513 0 
L 2938 0 
L 2938 2094 
Q 2938 2591 2744 2837 
Q 2550 3084 2163 3084 
Q 1697 3084 1428 2787 
Q 1159 2491 1159 1978 
L 1159 0 
L 581 0 
L 581 3500 
L 1159 3500 
L 1159 2956 
Q 1366 3272 1645 3428 
Q 1925 3584 2291 3584 
Q 2894 3584 3203 3211 
Q 3513 2838 3513 2113 
z
" transform="scale(0.015625)"/>
       <path id="DejaVuSans-73" d="M 2834 3397 
L 2834 2853 
Q 2591 2978 2328 3040 
Q 2066 3103 1784 3103 
Q 1356 3103 1142 2972 
Q 928 2841 928 2578 
Q 928 2378 1081 2264 
Q 1234 2150 1697 2047 
L 1894 2003 
Q 2506 1872 2764 1633 
Q 3022 1394 3022 966 
Q 3022 478 2636 193 
Q 2250 -91 1575 -91 
Q 1294 -91 989 -36 
Q 684 19 347 128 
L 347 722 
Q 666 556 975 473 
Q 1284 391 1588 391 
Q 1994 391 2212 530 
Q 2431 669 2431 922 
Q 2431 1156 2273 1281 
Q 2116 1406 1581 1522 
L 1381 1569 
Q 847 1681 609 1914 
Q 372 2147 372 2553 
Q 372 3047 722 3315 
Q 1072 3584 1716 3584 
Q 2034 3584 2315 3537 
Q 2597 3491 2834 3397 
z
" transform="scale(0.015625)"/>
       <path id="DejaVuSans-74" d="M 1172 4494 
L 1172 3500 
L 2356 3500 
L 2356 3053 
L 1172 3053 
L 1172 1153 
Q 1172 725 1289 603 
Q 1406 481 1766 481 
L 2356 481 
L 2356 0 
L 1766 0 
Q 1100 0 847 248 
Q 594 497 594 1153 
L 594 3053 
L 172 3053 
L 172 3500 
L 594 3500 
L 594 4494 
L 1172 4494 
z
" transform="scale(0.015625)"/>
       <path id="DejaVuSans-79" d="M 2059 -325 
Q 1816 -950 1584 -1140 
Q 1353 -1331 966 -1331 
L 506 -1331 
L 506 -850 
L 844 -850 
Q 1081 -850 1212 -737 
Q 1344 -625 1503 -206 
L 1606 56 
L 191 3500 
L 800 3500 
L 1894 763 
L 2988 3500 
L 3597 3500 
L 2059 -325 
z
" transform="scale(0.015625)"/>
      </defs>
      <use xlink:href="#DejaVuSans-44"/>
      <use xlink:href="#DejaVuSans-65" x="77.001953"/>
      <use xlink:href="#DejaVuSans-6e" x="138.525391"/>
      <use xlink:href="#DejaVuSans-73" x="201.904297"/>
      <use xlink:href="#DejaVuSans-69" x="254.003906"/>
      <use xlink:href="#DejaVuSans-74" x="281.787109"/>
      <use xlink:href="#DejaVuSans-79" x="320.996094"/>
     </g>
    </g>
   </g>
   <g id="patch_3">
    <path d="M 41.96 396.109375 
L 41.96 28.32 
" style="fill: none; stroke: #000000; stroke-width: 0.8; stroke-linejoin: miter; stroke-linecap: square"/>
   </g>
   <g id="patch_4">
    <path d="M 538.76 396.109375 
L 538.76 28.32 
" style="fill: none; stroke: #000000; stroke-width: 0.8; stroke-linejoin: miter; stroke-linecap: square"/>
   </g>
   <g id="patch_5">
    <path d="M 41.96 396.109375 
L 538.76 396.109375 
" style="fill: none; stroke: #000000; stroke-width: 0.8; stroke-linejoin: miter; stroke-linecap: square"/>
   </g>
   <g id="patch_6">
    <path d="M 41.96 28.32 
L 538.76 28.32 
" style="fill: none; stroke: #000000; stroke-width: 0.8; stroke-linejoin: miter; stroke-linecap: square"/>
   </g>
   <g id="text_15">
    <!-- KDE Plot: HighChol vs Diabetes_binary -->
    <g transform="translate(136.0825 22.32) scale(0.16 -0.16)">
     <defs>
      <path id="DejaVuSans-4b" d="M 628 4666 
L 1259 4666 
L 1259 2694 
L 3353 4666 
L 4166 4666 
L 1850 2491 
L 4331 0 
L 3500 0 
L 1259 2247 
L 1259 0 
L 628 0 
L 628 4666 
z
" transform="scale(0.015625)"/>
      <path id="DejaVuSans-45" d="M 628 4666 
L 3578 4666 
L 3578 4134 
L 1259 4134 
L 1259 2753 
L 3481 2753 
L 3481 2222 
L 1259 2222 
L 1259 531 
L 3634 531 
L 3634 0 
L 628 0 
L 628 4666 
z
" transform="scale(0.015625)"/>
      <path id="DejaVuSans-20" transform="scale(0.015625)"/>
      <path id="DejaVuSans-50" d="M 1259 4147 
L 1259 2394 
L 2053 2394 
Q 2494 2394 2734 2622 
Q 2975 2850 2975 3272 
Q 2975 3691 2734 3919 
Q 2494 4147 2053 4147 
L 1259 4147 
z
M 628 4666 
L 2053 4666 
Q 2838 4666 3239 4311 
Q 3641 3956 3641 3272 
Q 3641 2581 3239 2228 
Q 2838 1875 2053 1875 
L 1259 1875 
L 1259 0 
L 628 0 
L 628 4666 
z
" transform="scale(0.015625)"/>
      <path id="DejaVuSans-3a" d="M 750 794 
L 1409 794 
L 1409 0 
L 750 0 
L 750 794 
z
M 750 3309 
L 1409 3309 
L 1409 2516 
L 750 2516 
L 750 3309 
z
" transform="scale(0.015625)"/>
      <path id="DejaVuSans-76" d="M 191 3500 
L 800 3500 
L 1894 563 
L 2988 3500 
L 3597 3500 
L 2284 0 
L 1503 0 
L 191 3500 
z
" transform="scale(0.015625)"/>
      <path id="DejaVuSans-61" d="M 2194 1759 
Q 1497 1759 1228 1600 
Q 959 1441 959 1056 
Q 959 750 1161 570 
Q 1363 391 1709 391 
Q 2188 391 2477 730 
Q 2766 1069 2766 1631 
L 2766 1759 
L 2194 1759 
z
M 3341 1997 
L 3341 0 
L 2766 0 
L 2766 531 
Q 2569 213 2275 61 
Q 1981 -91 1556 -91 
Q 1019 -91 701 211 
Q 384 513 384 1019 
Q 384 1609 779 1909 
Q 1175 2209 1959 2209 
L 2766 2209 
L 2766 2266 
Q 2766 2663 2505 2880 
Q 2244 3097 1772 3097 
Q 1472 3097 1187 3025 
Q 903 2953 641 2809 
L 641 3341 
Q 956 3463 1253 3523 
Q 1550 3584 1831 3584 
Q 2591 3584 2966 3190 
Q 3341 2797 3341 1997 
z
" transform="scale(0.015625)"/>
      <path id="DejaVuSans-62" d="M 3116 1747 
Q 3116 2381 2855 2742 
Q 2594 3103 2138 3103 
Q 1681 3103 1420 2742 
Q 1159 2381 1159 1747 
Q 1159 1113 1420 752 
Q 1681 391 2138 391 
Q 2594 391 2855 752 
Q 3116 1113 3116 1747 
z
M 1159 2969 
Q 1341 3281 1617 3432 
Q 1894 3584 2278 3584 
Q 2916 3584 3314 3078 
Q 3713 2572 3713 1747 
Q 3713 922 3314 415 
Q 2916 -91 2278 -91 
Q 1894 -91 1617 61 
Q 1341 213 1159 525 
L 1159 0 
L 581 0 
L 581 4863 
L 1159 4863 
L 1159 2969 
z
" transform="scale(0.015625)"/>
      <path id="DejaVuSans-5f" d="M 3263 -1063 
L 3263 -1509 
L -63 -1509 
L -63 -1063 
L 3263 -1063 
z
" transform="scale(0.015625)"/>
      <path id="DejaVuSans-72" d="M 2631 2963 
Q 2534 3019 2420 3045 
Q 2306 3072 2169 3072 
Q 1681 3072 1420 2755 
Q 1159 2438 1159 1844 
L 1159 0 
L 581 0 
L 581 3500 
L 1159 3500 
L 1159 2956 
Q 1341 3275 1631 3429 
Q 1922 3584 2338 3584 
Q 2397 3584 2469 3576 
Q 2541 3569 2628 3553 
L 2631 2963 
z
" transform="scale(0.015625)"/>
     </defs>
     <use xlink:href="#DejaVuSans-4b"/>
     <use xlink:href="#DejaVuSans-44" x="65.576172"/>
     <use xlink:href="#DejaVuSans-45" x="142.578125"/>
     <use xlink:href="#DejaVuSans-20" x="205.761719"/>
     <use xlink:href="#DejaVuSans-50" x="237.548828"/>
     <use xlink:href="#DejaVuSans-6c" x="297.851562"/>
     <use xlink:href="#DejaVuSans-6f" x="325.634766"/>
     <use xlink:href="#DejaVuSans-74" x="386.816406"/>
     <use xlink:href="#DejaVuSans-3a" x="426.025391"/>
     <use xlink:href="#DejaVuSans-20" x="459.716797"/>
     <use xlink:href="#DejaVuSans-48" x="491.503906"/>
     <use xlink:href="#DejaVuSans-69" x="566.699219"/>
     <use xlink:href="#DejaVuSans-67" x="594.482422"/>
     <use xlink:href="#DejaVuSans-68" x="657.958984"/>
     <use xlink:href="#DejaVuSans-43" x="721.337891"/>
     <use xlink:href="#DejaVuSans-68" x="791.162109"/>
     <use xlink:href="#DejaVuSans-6f" x="854.541016"/>
     <use xlink:href="#DejaVuSans-6c" x="915.722656"/>
     <use xlink:href="#DejaVuSans-20" x="943.505859"/>
     <use xlink:href="#DejaVuSans-76" x="975.292969"/>
     <use xlink:href="#DejaVuSans-73" x="1034.472656"/>
     <use xlink:href="#DejaVuSans-20" x="1086.572266"/>
     <use xlink:href="#DejaVuSans-44" x="1118.359375"/>
     <use xlink:href="#DejaVuSans-69" x="1195.361328"/>
     <use xlink:href="#DejaVuSans-61" x="1223.144531"/>
     <use xlink:href="#DejaVuSans-62" x="1284.423828"/>
     <use xlink:href="#DejaVuSans-65" x="1347.900391"/>
     <use xlink:href="#DejaVuSans-74" x="1409.423828"/>
     <use xlink:href="#DejaVuSans-65" x="1448.632812"/>
     <use xlink:href="#DejaVuSans-73" x="1510.15625"/>
     <use xlink:href="#DejaVuSans-5f" x="1562.255859"/>
     <use xlink:href="#DejaVuSans-62" x="1612.255859"/>
     <use xlink:href="#DejaVuSans-69" x="1675.732422"/>
     <use xlink:href="#DejaVuSans-6e" x="1703.515625"/>
     <use xlink:href="#DejaVuSans-61" x="1766.894531"/>
     <use xlink:href="#DejaVuSans-72" x="1828.173828"/>
     <use xlink:href="#DejaVuSans-79" x="1869.287109"/>
    </g>
   </g>
   <g id="legend_1">
    <g id="patch_7">
     <path d="M 446.7475 80.6325 
L 531.76 80.6325 
Q 533.76 80.6325 533.76 78.6325 
L 533.76 35.32 
Q 533.76 33.32 531.76 33.32 
L 446.7475 33.32 
Q 444.7475 33.32 444.7475 35.32 
L 444.7475 78.6325 
Q 444.7475 80.6325 446.7475 80.6325 
z
" style="fill: #ffffff; opacity: 0.8; stroke: #cccccc; stroke-linejoin: miter"/>
    </g>
    <g id="text_16">
     <!-- Diabetes_binary -->
     <g transform="translate(448.7475 44.918438) scale(0.1 -0.1)">
      <use xlink:href="#DejaVuSans-44"/>
      <use xlink:href="#DejaVuSans-69" x="77.001953"/>
      <use xlink:href="#DejaVuSans-61" x="104.785156"/>
      <use xlink:href="#DejaVuSans-62" x="166.064453"/>
      <use xlink:href="#DejaVuSans-65" x="229.541016"/>
      <use xlink:href="#DejaVuSans-74" x="291.064453"/>
      <use xlink:href="#DejaVuSans-65" x="330.273438"/>
      <use xlink:href="#DejaVuSans-73" x="391.796875"/>
      <use xlink:href="#DejaVuSans-5f" x="443.896484"/>
      <use xlink:href="#DejaVuSans-62" x="493.896484"/>
      <use xlink:href="#DejaVuSans-69" x="557.373047"/>
      <use xlink:href="#DejaVuSans-6e" x="585.15625"/>
      <use xlink:href="#DejaVuSans-61" x="648.535156"/>
      <use xlink:href="#DejaVuSans-72" x="709.814453"/>
      <use xlink:href="#DejaVuSans-79" x="750.927734"/>
     </g>
    </g>
    <g id="patch_8">
     <path d="M 472.0725 59.874688 
L 492.0725 59.874688 
L 492.0725 52.874688 
L 472.0725 52.874688 
z
" style="fill: #1f77b4; fill-opacity: 0.75; stroke: #000000; stroke-linejoin: miter"/>
    </g>
    <g id="text_17">
     <!-- 0 -->
     <g transform="translate(500.0725 59.874688) scale(0.1 -0.1)">
      <use xlink:href="#DejaVuSans-30"/>
     </g>
    </g>
    <g id="patch_9">
     <path d="M 472.0725 74.552813 
L 492.0725 74.552813 
L 492.0725 67.552813 
L 472.0725 67.552813 
z
" style="fill: #ff7f0e; fill-opacity: 0.75; stroke: #000000; stroke-linejoin: miter"/>
    </g>
    <g id="text_18">
     <!-- 1 -->
     <g transform="translate(500.0725 74.552813) scale(0.1 -0.1)">
      <use xlink:href="#DejaVuSans-31"/>
     </g>
    </g>
   </g>
  </g>
  <g id="axes_2">
   <g id="patch_10">
    <path d="M 572.4 396.109375 
L 1069.2 396.109375 
L 1069.2 28.32 
L 572.4 28.32 
z
" style="fill: #ffffff"/>
   </g>
   <g id="patch_11">
    <path d="M 634.5 396.109375 
L 696.6 396.109375 
L 696.6 45.83378 
L 634.5 45.83378 
z
" clip-path="url(#p3f627a5dc2)" style="fill: #1f77b4"/>
   </g>
   <g id="patch_12">
    <path d="M 882.9 396.109375 
L 945 396.109375 
L 945 100.255178 
L 882.9 100.255178 
z
" clip-path="url(#p3f627a5dc2)" style="fill: #1f77b4"/>
   </g>
   <g id="patch_13">
    <path d="M 696.6 396.109375 
L 758.7 396.109375 
L 758.7 361.237523 
L 696.6 361.237523 
z
" clip-path="url(#p3f627a5dc2)" style="fill: #ff7f0e"/>
   </g>
   <g id="patch_14">
    <path d="M 945 396.109375 
L 1007.1 396.109375 
L 1007.1 306.816125 
L 945 306.816125 
z
" clip-path="url(#p3f627a5dc2)" style="fill: #ff7f0e"/>
   </g>
   <g id="matplotlib.axis_3">
    <g id="xtick_7">
     <g id="line2d_13">
      <g>
       <use xlink:href="#m1f58fadd41" x="696.6" y="396.109375" style="stroke: #000000; stroke-width: 0.8"/>
      </g>
     </g>
     <g id="text_19">
      <!-- 0 -->
      <g transform="translate(699.359375 409.471875) rotate(-90) scale(0.1 -0.1)">
       <use xlink:href="#DejaVuSans-30"/>
      </g>
     </g>
    </g>
    <g id="xtick_8">
     <g id="line2d_14">
      <g>
       <use xlink:href="#m1f58fadd41" x="945" y="396.109375" style="stroke: #000000; stroke-width: 0.8"/>
      </g>
     </g>
     <g id="text_20">
      <!-- 1 -->
      <g transform="translate(947.759375 409.471875) rotate(-90) scale(0.1 -0.1)">
       <use xlink:href="#DejaVuSans-31"/>
      </g>
     </g>
    </g>
    <g id="text_21">
     <!-- HighChol -->
     <g transform="translate(798.199219 421.070313) scale(0.1 -0.1)">
      <use xlink:href="#DejaVuSans-48"/>
      <use xlink:href="#DejaVuSans-69" x="75.195312"/>
      <use xlink:href="#DejaVuSans-67" x="102.978516"/>
      <use xlink:href="#DejaVuSans-68" x="166.455078"/>
      <use xlink:href="#DejaVuSans-43" x="229.833984"/>
      <use xlink:href="#DejaVuSans-68" x="299.658203"/>
      <use xlink:href="#DejaVuSans-6f" x="363.037109"/>
      <use xlink:href="#DejaVuSans-6c" x="424.21875"/>
     </g>
    </g>
   </g>
   <g id="matplotlib.axis_4">
    <g id="ytick_7">
     <g id="line2d_15">
      <g>
       <use xlink:href="#m2752c1df8f" x="572.4" y="396.109375" style="stroke: #000000; stroke-width: 0.8"/>
      </g>
     </g>
     <g id="text_22">
      <!-- 0.0 -->
      <g transform="translate(549.496875 399.908594) scale(0.1 -0.1)">
       <use xlink:href="#DejaVuSans-30"/>
       <use xlink:href="#DejaVuSans-2e" x="63.623047"/>
       <use xlink:href="#DejaVuSans-30" x="95.410156"/>
      </g>
     </g>
    </g>
    <g id="ytick_8">
     <g id="line2d_16">
      <g>
       <use xlink:href="#m2752c1df8f" x="572.4" y="319.079886" style="stroke: #000000; stroke-width: 0.8"/>
      </g>
     </g>
     <g id="text_23">
      <!-- 0.2 -->
      <g transform="translate(549.496875 322.879104) scale(0.1 -0.1)">
       <use xlink:href="#DejaVuSans-30"/>
       <use xlink:href="#DejaVuSans-2e" x="63.623047"/>
       <use xlink:href="#DejaVuSans-32" x="95.410156"/>
      </g>
     </g>
    </g>
    <g id="ytick_9">
     <g id="line2d_17">
      <g>
       <use xlink:href="#m2752c1df8f" x="572.4" y="242.050396" style="stroke: #000000; stroke-width: 0.8"/>
      </g>
     </g>
     <g id="text_24">
      <!-- 0.4 -->
      <g transform="translate(549.496875 245.849615) scale(0.1 -0.1)">
       <use xlink:href="#DejaVuSans-30"/>
       <use xlink:href="#DejaVuSans-2e" x="63.623047"/>
       <use xlink:href="#DejaVuSans-34" x="95.410156"/>
      </g>
     </g>
    </g>
    <g id="ytick_10">
     <g id="line2d_18">
      <g>
       <use xlink:href="#m2752c1df8f" x="572.4" y="165.020907" style="stroke: #000000; stroke-width: 0.8"/>
      </g>
     </g>
     <g id="text_25">
      <!-- 0.6 -->
      <g transform="translate(549.496875 168.820125) scale(0.1 -0.1)">
       <use xlink:href="#DejaVuSans-30"/>
       <use xlink:href="#DejaVuSans-2e" x="63.623047"/>
       <use xlink:href="#DejaVuSans-36" x="95.410156"/>
      </g>
     </g>
    </g>
    <g id="ytick_11">
     <g id="line2d_19">
      <g>
       <use xlink:href="#m2752c1df8f" x="572.4" y="87.991417" style="stroke: #000000; stroke-width: 0.8"/>
      </g>
     </g>
     <g id="text_26">
      <!-- 0.8 -->
      <g transform="translate(549.496875 91.790636) scale(0.1 -0.1)">
       <use xlink:href="#DejaVuSans-30"/>
       <use xlink:href="#DejaVuSans-2e" x="63.623047"/>
       <use xlink:href="#DejaVuSans-38" x="95.410156"/>
      </g>
     </g>
    </g>
   </g>
   <g id="patch_15">
    <path d="M 572.4 396.109375 
L 572.4 28.32 
" style="fill: none; stroke: #000000; stroke-width: 0.8; stroke-linejoin: miter; stroke-linecap: square"/>
   </g>
   <g id="patch_16">
    <path d="M 1069.2 396.109375 
L 1069.2 28.32 
" style="fill: none; stroke: #000000; stroke-width: 0.8; stroke-linejoin: miter; stroke-linecap: square"/>
   </g>
   <g id="patch_17">
    <path d="M 572.4 396.109375 
L 1069.2 396.109375 
" style="fill: none; stroke: #000000; stroke-width: 0.8; stroke-linejoin: miter; stroke-linecap: square"/>
   </g>
   <g id="patch_18">
    <path d="M 572.4 28.32 
L 1069.2 28.32 
" style="fill: none; stroke: #000000; stroke-width: 0.8; stroke-linejoin: miter; stroke-linecap: square"/>
   </g>
   <g id="text_27">
    <!-- Bar plot: HighChol Vs Diabetes_binary -->
    <g transform="translate(706.433437 22.32) scale(0.12 -0.12)">
     <defs>
      <path id="DejaVuSans-42" d="M 1259 2228 
L 1259 519 
L 2272 519 
Q 2781 519 3026 730 
Q 3272 941 3272 1375 
Q 3272 1813 3026 2020 
Q 2781 2228 2272 2228 
L 1259 2228 
z
M 1259 4147 
L 1259 2741 
L 2194 2741 
Q 2656 2741 2882 2914 
Q 3109 3088 3109 3444 
Q 3109 3797 2882 3972 
Q 2656 4147 2194 4147 
L 1259 4147 
z
M 628 4666 
L 2241 4666 
Q 2963 4666 3353 4366 
Q 3744 4066 3744 3513 
Q 3744 3084 3544 2831 
Q 3344 2578 2956 2516 
Q 3422 2416 3680 2098 
Q 3938 1781 3938 1306 
Q 3938 681 3513 340 
Q 3088 0 2303 0 
L 628 0 
L 628 4666 
z
" transform="scale(0.015625)"/>
      <path id="DejaVuSans-70" d="M 1159 525 
L 1159 -1331 
L 581 -1331 
L 581 3500 
L 1159 3500 
L 1159 2969 
Q 1341 3281 1617 3432 
Q 1894 3584 2278 3584 
Q 2916 3584 3314 3078 
Q 3713 2572 3713 1747 
Q 3713 922 3314 415 
Q 2916 -91 2278 -91 
Q 1894 -91 1617 61 
Q 1341 213 1159 525 
z
M 3116 1747 
Q 3116 2381 2855 2742 
Q 2594 3103 2138 3103 
Q 1681 3103 1420 2742 
Q 1159 2381 1159 1747 
Q 1159 1113 1420 752 
Q 1681 391 2138 391 
Q 2594 391 2855 752 
Q 3116 1113 3116 1747 
z
" transform="scale(0.015625)"/>
      <path id="DejaVuSans-56" d="M 1831 0 
L 50 4666 
L 709 4666 
L 2188 738 
L 3669 4666 
L 4325 4666 
L 2547 0 
L 1831 0 
z
" transform="scale(0.015625)"/>
     </defs>
     <use xlink:href="#DejaVuSans-42"/>
     <use xlink:href="#DejaVuSans-61" x="68.603516"/>
     <use xlink:href="#DejaVuSans-72" x="129.882812"/>
     <use xlink:href="#DejaVuSans-20" x="170.996094"/>
     <use xlink:href="#DejaVuSans-70" x="202.783203"/>
     <use xlink:href="#DejaVuSans-6c" x="266.259766"/>
     <use xlink:href="#DejaVuSans-6f" x="294.042969"/>
     <use xlink:href="#DejaVuSans-74" x="355.224609"/>
     <use xlink:href="#DejaVuSans-3a" x="394.433594"/>
     <use xlink:href="#DejaVuSans-20" x="428.125"/>
     <use xlink:href="#DejaVuSans-48" x="459.912109"/>
     <use xlink:href="#DejaVuSans-69" x="535.107422"/>
     <use xlink:href="#DejaVuSans-67" x="562.890625"/>
     <use xlink:href="#DejaVuSans-68" x="626.367188"/>
     <use xlink:href="#DejaVuSans-43" x="689.746094"/>
     <use xlink:href="#DejaVuSans-68" x="759.570312"/>
     <use xlink:href="#DejaVuSans-6f" x="822.949219"/>
     <use xlink:href="#DejaVuSans-6c" x="884.130859"/>
     <use xlink:href="#DejaVuSans-20" x="911.914062"/>
     <use xlink:href="#DejaVuSans-56" x="943.701172"/>
     <use xlink:href="#DejaVuSans-73" x="1012.109375"/>
     <use xlink:href="#DejaVuSans-20" x="1064.208984"/>
     <use xlink:href="#DejaVuSans-44" x="1095.996094"/>
     <use xlink:href="#DejaVuSans-69" x="1172.998047"/>
     <use xlink:href="#DejaVuSans-61" x="1200.78125"/>
     <use xlink:href="#DejaVuSans-62" x="1262.060547"/>
     <use xlink:href="#DejaVuSans-65" x="1325.537109"/>
     <use xlink:href="#DejaVuSans-74" x="1387.060547"/>
     <use xlink:href="#DejaVuSans-65" x="1426.269531"/>
     <use xlink:href="#DejaVuSans-73" x="1487.792969"/>
     <use xlink:href="#DejaVuSans-5f" x="1539.892578"/>
     <use xlink:href="#DejaVuSans-62" x="1589.892578"/>
     <use xlink:href="#DejaVuSans-69" x="1653.369141"/>
     <use xlink:href="#DejaVuSans-6e" x="1681.152344"/>
     <use xlink:href="#DejaVuSans-61" x="1744.53125"/>
     <use xlink:href="#DejaVuSans-72" x="1805.810547"/>
     <use xlink:href="#DejaVuSans-79" x="1846.923828"/>
    </g>
   </g>
   <g id="legend_2">
    <g id="patch_19">
     <path d="M 977.1875 80.6325 
L 1062.2 80.6325 
Q 1064.2 80.6325 1064.2 78.6325 
L 1064.2 35.32 
Q 1064.2 33.32 1062.2 33.32 
L 977.1875 33.32 
Q 975.1875 33.32 975.1875 35.32 
L 975.1875 78.6325 
Q 975.1875 80.6325 977.1875 80.6325 
z
" style="fill: #ffffff; opacity: 0.8; stroke: #cccccc; stroke-linejoin: miter"/>
    </g>
    <g id="text_28">
     <!-- Diabetes_binary -->
     <g transform="translate(979.1875 44.918438) scale(0.1 -0.1)">
      <use xlink:href="#DejaVuSans-44"/>
      <use xlink:href="#DejaVuSans-69" x="77.001953"/>
      <use xlink:href="#DejaVuSans-61" x="104.785156"/>
      <use xlink:href="#DejaVuSans-62" x="166.064453"/>
      <use xlink:href="#DejaVuSans-65" x="229.541016"/>
      <use xlink:href="#DejaVuSans-74" x="291.064453"/>
      <use xlink:href="#DejaVuSans-65" x="330.273438"/>
      <use xlink:href="#DejaVuSans-73" x="391.796875"/>
      <use xlink:href="#DejaVuSans-5f" x="443.896484"/>
      <use xlink:href="#DejaVuSans-62" x="493.896484"/>
      <use xlink:href="#DejaVuSans-69" x="557.373047"/>
      <use xlink:href="#DejaVuSans-6e" x="585.15625"/>
      <use xlink:href="#DejaVuSans-61" x="648.535156"/>
      <use xlink:href="#DejaVuSans-72" x="709.814453"/>
      <use xlink:href="#DejaVuSans-79" x="750.927734"/>
     </g>
    </g>
    <g id="patch_20">
     <path d="M 1002.5125 59.874688 
L 1022.5125 59.874688 
L 1022.5125 52.874688 
L 1002.5125 52.874688 
z
" style="fill: #1f77b4"/>
    </g>
    <g id="text_29">
     <!-- 0 -->
     <g transform="translate(1030.5125 59.874688) scale(0.1 -0.1)">
      <use xlink:href="#DejaVuSans-30"/>
     </g>
    </g>
    <g id="patch_21">
     <path d="M 1002.5125 74.552813 
L 1022.5125 74.552813 
L 1022.5125 67.552813 
L 1002.5125 67.552813 
z
" style="fill: #ff7f0e"/>
    </g>
    <g id="text_30">
     <!-- 1 -->
     <g transform="translate(1030.5125 74.552813) scale(0.1 -0.1)">
      <use xlink:href="#DejaVuSans-31"/>
     </g>
    </g>
   </g>
  </g>
  <g id="axes_3">
   <g id="patch_22">
    <path d="M 41.96 821.93875 
L 538.76 821.93875 
L 538.76 454.149375 
L 41.96 454.149375 
z
" style="fill: #ffffff"/>
   </g>
   <g id="QuadMesh_1">
    <path d="M 41.96 454.149375 
L 290.36 454.149375 
L 290.36 638.044063 
L 41.96 638.044063 
L 41.96 454.149375 
" clip-path="url(#p28ed845183)" style="fill: #081d58"/>
    <path d="M 290.36 454.149375 
L 538.76 454.149375 
L 538.76 638.044063 
L 290.36 638.044063 
L 290.36 454.149375 
" clip-path="url(#p28ed845183)" style="fill: #ffffd9"/>
    <path d="M 41.96 638.044063 
L 290.36 638.044063 
L 290.36 821.93875 
L 41.96 821.93875 
L 41.96 638.044063 
" clip-path="url(#p28ed845183)" style="fill: #24449c"/>
    <path d="M 290.36 638.044063 
L 538.76 638.044063 
L 538.76 821.93875 
L 290.36 821.93875 
L 290.36 638.044063 
" clip-path="url(#p28ed845183)" style="fill: #dff2b2"/>
   </g>
   <g id="matplotlib.axis_5">
    <g id="xtick_9">
     <g id="line2d_20">
      <g>
       <use xlink:href="#m1f58fadd41" x="166.16" y="821.93875" style="stroke: #000000; stroke-width: 0.8"/>
      </g>
     </g>
     <g id="text_31">
      <!-- 0 -->
      <g transform="translate(162.97875 836.537188) scale(0.1 -0.1)">
       <use xlink:href="#DejaVuSans-30"/>
      </g>
     </g>
    </g>
    <g id="xtick_10">
     <g id="line2d_21">
      <g>
       <use xlink:href="#m1f58fadd41" x="414.56" y="821.93875" style="stroke: #000000; stroke-width: 0.8"/>
      </g>
     </g>
     <g id="text_32">
      <!-- 1 -->
      <g transform="translate(411.37875 836.537188) scale(0.1 -0.1)">
       <use xlink:href="#DejaVuSans-31"/>
      </g>
     </g>
    </g>
    <g id="text_33">
     <!-- Diabetes_binary -->
     <g transform="translate(249.85375 850.215312) scale(0.1 -0.1)">
      <use xlink:href="#DejaVuSans-44"/>
      <use xlink:href="#DejaVuSans-69" x="77.001953"/>
      <use xlink:href="#DejaVuSans-61" x="104.785156"/>
      <use xlink:href="#DejaVuSans-62" x="166.064453"/>
      <use xlink:href="#DejaVuSans-65" x="229.541016"/>
      <use xlink:href="#DejaVuSans-74" x="291.064453"/>
      <use xlink:href="#DejaVuSans-65" x="330.273438"/>
      <use xlink:href="#DejaVuSans-73" x="391.796875"/>
      <use xlink:href="#DejaVuSans-5f" x="443.896484"/>
      <use xlink:href="#DejaVuSans-62" x="493.896484"/>
      <use xlink:href="#DejaVuSans-69" x="557.373047"/>
      <use xlink:href="#DejaVuSans-6e" x="585.15625"/>
      <use xlink:href="#DejaVuSans-61" x="648.535156"/>
      <use xlink:href="#DejaVuSans-72" x="709.814453"/>
      <use xlink:href="#DejaVuSans-79" x="750.927734"/>
     </g>
    </g>
   </g>
   <g id="matplotlib.axis_6">
    <g id="ytick_12">
     <g id="line2d_22">
      <g>
       <use xlink:href="#m2752c1df8f" x="41.96" y="546.096719" style="stroke: #000000; stroke-width: 0.8"/>
      </g>
     </g>
     <g id="text_34">
      <!-- 0 -->
      <g transform="translate(32.880313 549.277969) rotate(-90) scale(0.1 -0.1)">
       <use xlink:href="#DejaVuSans-30"/>
      </g>
     </g>
    </g>
    <g id="ytick_13">
     <g id="line2d_23">
      <g>
       <use xlink:href="#m2752c1df8f" x="41.96" y="729.991406" style="stroke: #000000; stroke-width: 0.8"/>
      </g>
     </g>
     <g id="text_35">
      <!-- 1 -->
      <g transform="translate(32.880313 733.172656) rotate(-90) scale(0.1 -0.1)">
       <use xlink:href="#DejaVuSans-31"/>
      </g>
     </g>
    </g>
    <g id="text_36">
     <!-- HighChol -->
     <g transform="translate(19.202187 660.644844) rotate(-90) scale(0.1 -0.1)">
      <use xlink:href="#DejaVuSans-48"/>
      <use xlink:href="#DejaVuSans-69" x="75.195312"/>
      <use xlink:href="#DejaVuSans-67" x="102.978516"/>
      <use xlink:href="#DejaVuSans-68" x="166.455078"/>
      <use xlink:href="#DejaVuSans-43" x="229.833984"/>
      <use xlink:href="#DejaVuSans-68" x="299.658203"/>
      <use xlink:href="#DejaVuSans-6f" x="363.037109"/>
      <use xlink:href="#DejaVuSans-6c" x="424.21875"/>
     </g>
    </g>
   </g>
   <g id="text_37">
    <!-- 90.95% -->
    <g style="fill: #ffffff" transform="translate(147.095156 548.856094) scale(0.1 -0.1)">
     <defs>
      <path id="DejaVuSans-39" d="M 703 97 
L 703 672 
Q 941 559 1184 500 
Q 1428 441 1663 441 
Q 2288 441 2617 861 
Q 2947 1281 2994 2138 
Q 2813 1869 2534 1725 
Q 2256 1581 1919 1581 
Q 1219 1581 811 2004 
Q 403 2428 403 3163 
Q 403 3881 828 4315 
Q 1253 4750 1959 4750 
Q 2769 4750 3195 4129 
Q 3622 3509 3622 2328 
Q 3622 1225 3098 567 
Q 2575 -91 1691 -91 
Q 1453 -91 1209 -44 
Q 966 3 703 97 
z
M 1959 2075 
Q 2384 2075 2632 2365 
Q 2881 2656 2881 3163 
Q 2881 3666 2632 3958 
Q 2384 4250 1959 4250 
Q 1534 4250 1286 3958 
Q 1038 3666 1038 3163 
Q 1038 2656 1286 2365 
Q 1534 2075 1959 2075 
z
" transform="scale(0.015625)"/>
      <path id="DejaVuSans-25" d="M 4653 2053 
Q 4381 2053 4226 1822 
Q 4072 1591 4072 1178 
Q 4072 772 4226 539 
Q 4381 306 4653 306 
Q 4919 306 5073 539 
Q 5228 772 5228 1178 
Q 5228 1588 5073 1820 
Q 4919 2053 4653 2053 
z
M 4653 2450 
Q 5147 2450 5437 2106 
Q 5728 1763 5728 1178 
Q 5728 594 5436 251 
Q 5144 -91 4653 -91 
Q 4153 -91 3862 251 
Q 3572 594 3572 1178 
Q 3572 1766 3864 2108 
Q 4156 2450 4653 2450 
z
M 1428 4353 
Q 1159 4353 1004 4120 
Q 850 3888 850 3481 
Q 850 3069 1003 2837 
Q 1156 2606 1428 2606 
Q 1700 2606 1854 2837 
Q 2009 3069 2009 3481 
Q 2009 3884 1853 4118 
Q 1697 4353 1428 4353 
z
M 4250 4750 
L 4750 4750 
L 1831 -91 
L 1331 -91 
L 4250 4750 
z
M 1428 4750 
Q 1922 4750 2215 4408 
Q 2509 4066 2509 3481 
Q 2509 2891 2217 2550 
Q 1925 2209 1428 2209 
Q 931 2209 642 2551 
Q 353 2894 353 3481 
Q 353 4063 643 4406 
Q 934 4750 1428 4750 
z
" transform="scale(0.015625)"/>
     </defs>
     <use xlink:href="#DejaVuSans-39"/>
     <use xlink:href="#DejaVuSans-30" x="63.623047"/>
     <use xlink:href="#DejaVuSans-2e" x="127.246094"/>
     <use xlink:href="#DejaVuSans-39" x="159.033203"/>
     <use xlink:href="#DejaVuSans-35" x="222.65625"/>
     <use xlink:href="#DejaVuSans-25" x="286.279297"/>
    </g>
   </g>
   <g id="text_38">
    <!-- 9.05% -->
    <g style="fill: #262626" transform="translate(398.676406 548.856094) scale(0.1 -0.1)">
     <use xlink:href="#DejaVuSans-39"/>
     <use xlink:href="#DejaVuSans-2e" x="63.623047"/>
     <use xlink:href="#DejaVuSans-30" x="95.410156"/>
     <use xlink:href="#DejaVuSans-35" x="159.033203"/>
     <use xlink:href="#DejaVuSans-25" x="222.65625"/>
    </g>
   </g>
   <g id="text_39">
    <!-- Cross-Tabulation: HighChol vs Diabetes_binary (%) -->
    <g transform="translate(139.0625 448.149375) scale(0.12 -0.12)">
     <defs>
      <path id="DejaVuSans-2d" d="M 313 2009 
L 1997 2009 
L 1997 1497 
L 313 1497 
L 313 2009 
z
" transform="scale(0.015625)"/>
      <path id="DejaVuSans-54" d="M -19 4666 
L 3928 4666 
L 3928 4134 
L 2272 4134 
L 2272 0 
L 1638 0 
L 1638 4134 
L -19 4134 
L -19 4666 
z
" transform="scale(0.015625)"/>
      <path id="DejaVuSans-75" d="M 544 1381 
L 544 3500 
L 1119 3500 
L 1119 1403 
Q 1119 906 1312 657 
Q 1506 409 1894 409 
Q 2359 409 2629 706 
Q 2900 1003 2900 1516 
L 2900 3500 
L 3475 3500 
L 3475 0 
L 2900 0 
L 2900 538 
Q 2691 219 2414 64 
Q 2138 -91 1772 -91 
Q 1169 -91 856 284 
Q 544 659 544 1381 
z
M 1991 3584 
L 1991 3584 
z
" transform="scale(0.015625)"/>
      <path id="DejaVuSans-28" d="M 1984 4856 
Q 1566 4138 1362 3434 
Q 1159 2731 1159 2009 
Q 1159 1288 1364 580 
Q 1569 -128 1984 -844 
L 1484 -844 
Q 1016 -109 783 600 
Q 550 1309 550 2009 
Q 550 2706 781 3412 
Q 1013 4119 1484 4856 
L 1984 4856 
z
" transform="scale(0.015625)"/>
      <path id="DejaVuSans-29" d="M 513 4856 
L 1013 4856 
Q 1481 4119 1714 3412 
Q 1947 2706 1947 2009 
Q 1947 1309 1714 600 
Q 1481 -109 1013 -844 
L 513 -844 
Q 928 -128 1133 580 
Q 1338 1288 1338 2009 
Q 1338 2731 1133 3434 
Q 928 4138 513 4856 
z
" transform="scale(0.015625)"/>
     </defs>
     <use xlink:href="#DejaVuSans-43"/>
     <use xlink:href="#DejaVuSans-72" x="69.824219"/>
     <use xlink:href="#DejaVuSans-6f" x="108.6875"/>
     <use xlink:href="#DejaVuSans-73" x="169.869141"/>
     <use xlink:href="#DejaVuSans-73" x="221.96875"/>
     <use xlink:href="#DejaVuSans-2d" x="274.068359"/>
     <use xlink:href="#DejaVuSans-54" x="301.027344"/>
     <use xlink:href="#DejaVuSans-61" x="345.611328"/>
     <use xlink:href="#DejaVuSans-62" x="406.890625"/>
     <use xlink:href="#DejaVuSans-75" x="470.367188"/>
     <use xlink:href="#DejaVuSans-6c" x="533.746094"/>
     <use xlink:href="#DejaVuSans-61" x="561.529297"/>
     <use xlink:href="#DejaVuSans-74" x="622.808594"/>
     <use xlink:href="#DejaVuSans-69" x="662.017578"/>
     <use xlink:href="#DejaVuSans-6f" x="689.800781"/>
     <use xlink:href="#DejaVuSans-6e" x="750.982422"/>
     <use xlink:href="#DejaVuSans-3a" x="814.361328"/>
     <use xlink:href="#DejaVuSans-20" x="848.052734"/>
     <use xlink:href="#DejaVuSans-48" x="879.839844"/>
     <use xlink:href="#DejaVuSans-69" x="955.035156"/>
     <use xlink:href="#DejaVuSans-67" x="982.818359"/>
     <use xlink:href="#DejaVuSans-68" x="1046.294922"/>
     <use xlink:href="#DejaVuSans-43" x="1109.673828"/>
     <use xlink:href="#DejaVuSans-68" x="1179.498047"/>
     <use xlink:href="#DejaVuSans-6f" x="1242.876953"/>
     <use xlink:href="#DejaVuSans-6c" x="1304.058594"/>
     <use xlink:href="#DejaVuSans-20" x="1331.841797"/>
     <use xlink:href="#DejaVuSans-76" x="1363.628906"/>
     <use xlink:href="#DejaVuSans-73" x="1422.808594"/>
     <use xlink:href="#DejaVuSans-20" x="1474.908203"/>
     <use xlink:href="#DejaVuSans-44" x="1506.695312"/>
     <use xlink:href="#DejaVuSans-69" x="1583.697266"/>
     <use xlink:href="#DejaVuSans-61" x="1611.480469"/>
     <use xlink:href="#DejaVuSans-62" x="1672.759766"/>
     <use xlink:href="#DejaVuSans-65" x="1736.236328"/>
     <use xlink:href="#DejaVuSans-74" x="1797.759766"/>
     <use xlink:href="#DejaVuSans-65" x="1836.96875"/>
     <use xlink:href="#DejaVuSans-73" x="1898.492188"/>
     <use xlink:href="#DejaVuSans-5f" x="1950.591797"/>
     <use xlink:href="#DejaVuSans-62" x="2000.591797"/>
     <use xlink:href="#DejaVuSans-69" x="2064.068359"/>
     <use xlink:href="#DejaVuSans-6e" x="2091.851562"/>
     <use xlink:href="#DejaVuSans-61" x="2155.230469"/>
     <use xlink:href="#DejaVuSans-72" x="2216.509766"/>
     <use xlink:href="#DejaVuSans-79" x="2257.623047"/>
     <use xlink:href="#DejaVuSans-20" x="2316.802734"/>
     <use xlink:href="#DejaVuSans-28" x="2348.589844"/>
     <use xlink:href="#DejaVuSans-25" x="2387.603516"/>
     <use xlink:href="#DejaVuSans-29" x="2482.623047"/>
    </g>
   </g>
  </g>
 </g>
 <defs>
  <clipPath id="p23df34c774">
   <rect x="41.96" y="28.32" width="496.8" height="367.789375"/>
  </clipPath>
  <clipPath id="p3f627a5dc2">
   <rect x="572.4" y="28.32" width="496.8" height="367.789375"/>
  </clipPath>
  <clipPath id="p28ed845183">
   <rect x="41.96" y="454.149375" width="496.8" height="367.789375"/>
  </clipPath>
 </defs>
</svg>
