<?xml version="1.0" encoding="utf-8" standalone="no"?>
<!DOCTYPE svg PUBLIC "-//W3C//DTD SVG 1.1//EN"
  "http://www.w3.org/Graphics/SVG/1.1/DTD/svg11.dtd">
<svg xmlns:xlink="http://www.w3.org/1999/xlink" width="1080pt" height="864pt" viewBox="0 0 1080 864" xmlns="http://www.w3.org/2000/svg" version="1.1">
 <metadata>
  <rdf:RDF xmlns:dc="http://purl.org/dc/elements/1.1/" xmlns:cc="http://creativecommons.org/ns#" xmlns:rdf="http://www.w3.org/1999/02/22-rdf-syntax-ns#">
   <cc:Work>
    <dc:type rdf:resource="http://purl.org/dc/dcmitype/StillImage"/>
    <dc:date>2024-04-19T18:16:56.818523</dc:date>
    <dc:format>image/svg+xml</dc:format>
    <dc:creator>
     <cc:Agent>
      <dc:title>Matplotlib v3.8.3, https://matplotlib.org/</dc:title>
     </cc:Agent>
    </dc:creator>
   </cc:Work>
  </rdf:RDF>
 </metadata>
 <defs>
  <style type="text/css">*{stroke-linejoin: round; stroke-linecap: butt}</style>
 </defs>
 <g id="figure_1">
  <g id="patch_1">
   <path d="M 0 864 
L 1080 864 
L 1080 0 
L 0 0 
z
" style="fill: #ffffff"/>
  </g>
  <g id="axes_1">
   <g id="patch_2">
    <path d="M 44.66 395.389375 
L 540.11 395.389375 
L 540.11 32.64 
L 44.66 32.64 
z
" style="fill: #ffffff"/>
   </g>
   <g id="PolyCollection_1">
    <defs>
     <path id="mef04d1aecc" d="M 67.180455 -468.953315 
L 67.180455 -468.610625 
L 69.443817 -468.610625 
L 71.707179 -468.610625 
L 73.970541 -468.610625 
L 76.233904 -468.610625 
L 78.497266 -468.610625 
L 80.760628 -468.610625 
L 83.02399 -468.610625 
L 85.287353 -468.610625 
L 87.550715 -468.610625 
L 89.814077 -468.610625 
L 92.077439 -468.610625 
L 94.340802 -468.610625 
L 96.604164 -468.610625 
L 98.867526 -468.610625 
L 101.130889 -468.610625 
L 103.394251 -468.610625 
L 105.657613 -468.610625 
L 107.920975 -468.610625 
L 110.184338 -468.610625 
L 112.4477 -468.610625 
L 114.711062 -468.610625 
L 116.974424 -468.610625 
L 119.237787 -468.610625 
L 121.501149 -468.610625 
L 123.764511 -468.610625 
L 126.027873 -468.610625 
L 128.291236 -468.610625 
L 130.554598 -468.610625 
L 132.81796 -468.610625 
L 135.081323 -468.610625 
L 137.344685 -468.610625 
L 139.608047 -468.610625 
L 141.871409 -468.610625 
L 144.134772 -468.610625 
L 146.398134 -468.610625 
L 148.661496 -468.610625 
L 150.924858 -468.610625 
L 153.188221 -468.610625 
L 155.451583 -468.610625 
L 157.714945 -468.610625 
L 159.978307 -468.610625 
L 162.24167 -468.610625 
L 164.505032 -468.610625 
L 166.768394 -468.610625 
L 169.031757 -468.610625 
L 171.295119 -468.610625 
L 173.558481 -468.610625 
L 175.821843 -468.610625 
L 178.085206 -468.610625 
L 180.348568 -468.610625 
L 182.61193 -468.610625 
L 184.875292 -468.610625 
L 187.138655 -468.610625 
L 189.402017 -468.610625 
L 191.665379 -468.610625 
L 193.928741 -468.610625 
L 196.192104 -468.610625 
L 198.455466 -468.610625 
L 200.718828 -468.610625 
L 202.98219 -468.610625 
L 205.245553 -468.610625 
L 207.508915 -468.610625 
L 209.772277 -468.610625 
L 212.03564 -468.610625 
L 214.299002 -468.610625 
L 216.562364 -468.610625 
L 218.825726 -468.610625 
L 221.089089 -468.610625 
L 223.352451 -468.610625 
L 225.615813 -468.610625 
L 227.879175 -468.610625 
L 230.142538 -468.610625 
L 232.4059 -468.610625 
L 234.669262 -468.610625 
L 236.932624 -468.610625 
L 239.195987 -468.610625 
L 241.459349 -468.610625 
L 243.722711 -468.610625 
L 245.986074 -468.610625 
L 248.249436 -468.610625 
L 250.512798 -468.610625 
L 252.77616 -468.610625 
L 255.039523 -468.610625 
L 257.302885 -468.610625 
L 259.566247 -468.610625 
L 261.829609 -468.610625 
L 264.092972 -468.610625 
L 266.356334 -468.610625 
L 268.619696 -468.610625 
L 270.883058 -468.610625 
L 273.146421 -468.610625 
L 275.409783 -468.610625 
L 277.673145 -468.610625 
L 279.936508 -468.610625 
L 282.19987 -468.610625 
L 284.463232 -468.610625 
L 286.726594 -468.610625 
L 288.989957 -468.610625 
L 291.253319 -468.610625 
L 293.516681 -468.610625 
L 295.780043 -468.610625 
L 298.043406 -468.610625 
L 300.306768 -468.610625 
L 302.57013 -468.610625 
L 304.833492 -468.610625 
L 307.096855 -468.610625 
L 309.360217 -468.610625 
L 311.623579 -468.610625 
L 313.886942 -468.610625 
L 316.150304 -468.610625 
L 318.413666 -468.610625 
L 320.677028 -468.610625 
L 322.940391 -468.610625 
L 325.203753 -468.610625 
L 327.467115 -468.610625 
L 329.730477 -468.610625 
L 331.99384 -468.610625 
L 334.257202 -468.610625 
L 336.520564 -468.610625 
L 338.783926 -468.610625 
L 341.047289 -468.610625 
L 343.310651 -468.610625 
L 345.574013 -468.610625 
L 347.837376 -468.610625 
L 350.100738 -468.610625 
L 352.3641 -468.610625 
L 354.627462 -468.610625 
L 356.890825 -468.610625 
L 359.154187 -468.610625 
L 361.417549 -468.610625 
L 363.680911 -468.610625 
L 365.944274 -468.610625 
L 368.207636 -468.610625 
L 370.470998 -468.610625 
L 372.73436 -468.610625 
L 374.997723 -468.610625 
L 377.261085 -468.610625 
L 379.524447 -468.610625 
L 381.78781 -468.610625 
L 384.051172 -468.610625 
L 386.314534 -468.610625 
L 388.577896 -468.610625 
L 390.841259 -468.610625 
L 393.104621 -468.610625 
L 395.367983 -468.610625 
L 397.631345 -468.610625 
L 399.894708 -468.610625 
L 402.15807 -468.610625 
L 404.421432 -468.610625 
L 406.684794 -468.610625 
L 408.948157 -468.610625 
L 411.211519 -468.610625 
L 413.474881 -468.610625 
L 415.738243 -468.610625 
L 418.001606 -468.610625 
L 420.264968 -468.610625 
L 422.52833 -468.610625 
L 424.791693 -468.610625 
L 427.055055 -468.610625 
L 429.318417 -468.610625 
L 431.581779 -468.610625 
L 433.845142 -468.610625 
L 436.108504 -468.610625 
L 438.371866 -468.610625 
L 440.635228 -468.610625 
L 442.898591 -468.610625 
L 445.161953 -468.610625 
L 447.425315 -468.610625 
L 449.688677 -468.610625 
L 451.95204 -468.610625 
L 454.215402 -468.610625 
L 456.478764 -468.610625 
L 458.742127 -468.610625 
L 461.005489 -468.610625 
L 463.268851 -468.610625 
L 465.532213 -468.610625 
L 467.795576 -468.610625 
L 470.058938 -468.610625 
L 472.3223 -468.610625 
L 474.585662 -468.610625 
L 476.849025 -468.610625 
L 479.112387 -468.610625 
L 481.375749 -468.610625 
L 483.639111 -468.610625 
L 485.902474 -468.610625 
L 488.165836 -468.610625 
L 490.429198 -468.610625 
L 492.692561 -468.610625 
L 494.955923 -468.610625 
L 497.219285 -468.610625 
L 499.482647 -468.610625 
L 501.74601 -468.610625 
L 504.009372 -468.610625 
L 506.272734 -468.610625 
L 508.536096 -468.610625 
L 510.799459 -468.610625 
L 513.062821 -468.610625 
L 515.326183 -468.610625 
L 517.589545 -468.610625 
L 517.589545 -468.619282 
L 517.589545 -468.619282 
L 515.326183 -468.63181 
L 513.062821 -468.658281 
L 510.799459 -468.709165 
L 508.536096 -468.797919 
L 506.272734 -468.937851 
L 504.009372 -469.136142 
L 501.74601 -469.386405 
L 499.482647 -469.663325 
L 497.219285 -469.923686 
L 494.955923 -470.116118 
L 492.692561 -470.197295 
L 490.429198 -470.147747 
L 488.165836 -469.979437 
L 485.902474 -469.731078 
L 483.639111 -469.453682 
L 481.375749 -469.193713 
L 479.112387 -468.981328 
L 476.849025 -468.827261 
L 474.585662 -468.726997 
L 472.3223 -468.668087 
L 470.058938 -468.636706 
L 467.795576 -468.621507 
L 465.532213 -468.614798 
L 463.268851 -468.612096 
L 461.005489 -468.611102 
L 458.742127 -468.610767 
L 456.478764 -468.610664 
L 454.215402 -468.610635 
L 451.95204 -468.610627 
L 449.688677 -468.610625 
L 447.425315 -468.610625 
L 445.161953 -468.610625 
L 442.898591 -468.610625 
L 440.635228 -468.610625 
L 438.371866 -468.610625 
L 436.108504 -468.610625 
L 433.845142 -468.610625 
L 431.581779 -468.610625 
L 429.318417 -468.610625 
L 427.055055 -468.610625 
L 424.791693 -468.610625 
L 422.52833 -468.610625 
L 420.264968 -468.610625 
L 418.001606 -468.610625 
L 415.738243 -468.610625 
L 413.474881 -468.610625 
L 411.211519 -468.610625 
L 408.948157 -468.610625 
L 406.684794 -468.610625 
L 404.421432 -468.610625 
L 402.15807 -468.610625 
L 399.894708 -468.610625 
L 397.631345 -468.610625 
L 395.367983 -468.610625 
L 393.104621 -468.610625 
L 390.841259 -468.610625 
L 388.577896 -468.610625 
L 386.314534 -468.610625 
L 384.051172 -468.610625 
L 381.78781 -468.610625 
L 379.524447 -468.610625 
L 377.261085 -468.610625 
L 374.997723 -468.610625 
L 372.73436 -468.610625 
L 370.470998 -468.610625 
L 368.207636 -468.610625 
L 365.944274 -468.610625 
L 363.680911 -468.610625 
L 361.417549 -468.610625 
L 359.154187 -468.610625 
L 356.890825 -468.610625 
L 354.627462 -468.610625 
L 352.3641 -468.610625 
L 350.100738 -468.610625 
L 347.837376 -468.610625 
L 345.574013 -468.610625 
L 343.310651 -468.610625 
L 341.047289 -468.610625 
L 338.783926 -468.610625 
L 336.520564 -468.610625 
L 334.257202 -468.610625 
L 331.99384 -468.610625 
L 329.730477 -468.610625 
L 327.467115 -468.610625 
L 325.203753 -468.610625 
L 322.940391 -468.610625 
L 320.677028 -468.610625 
L 318.413666 -468.610625 
L 316.150304 -468.610625 
L 313.886942 -468.610625 
L 311.623579 -468.610625 
L 309.360217 -468.610625 
L 307.096855 -468.610625 
L 304.833492 -468.610625 
L 302.57013 -468.610625 
L 300.306768 -468.610625 
L 298.043406 -468.610625 
L 295.780043 -468.610625 
L 293.516681 -468.610625 
L 291.253319 -468.610625 
L 288.989957 -468.610625 
L 286.726594 -468.610625 
L 284.463232 -468.610625 
L 282.19987 -468.610625 
L 279.936508 -468.610625 
L 277.673145 -468.610625 
L 275.409783 -468.610625 
L 273.146421 -468.610625 
L 270.883058 -468.610625 
L 268.619696 -468.610625 
L 266.356334 -468.610625 
L 264.092972 -468.610625 
L 261.829609 -468.610625 
L 259.566247 -468.610625 
L 257.302885 -468.610625 
L 255.039523 -468.610625 
L 252.77616 -468.610625 
L 250.512798 -468.610625 
L 248.249436 -468.610625 
L 245.986074 -468.610625 
L 243.722711 -468.610625 
L 241.459349 -468.610625 
L 239.195987 -468.610625 
L 236.932624 -468.610625 
L 234.669262 -468.610625 
L 232.4059 -468.610625 
L 230.142538 -468.610625 
L 227.879175 -468.610625 
L 225.615813 -468.610625 
L 223.352451 -468.610625 
L 221.089089 -468.610625 
L 218.825726 -468.610625 
L 216.562364 -468.610625 
L 214.299002 -468.610625 
L 212.03564 -468.610625 
L 209.772277 -468.610625 
L 207.508915 -468.610625 
L 205.245553 -468.610625 
L 202.98219 -468.610625 
L 200.718828 -468.610625 
L 198.455466 -468.610625 
L 196.192104 -468.610625 
L 193.928741 -468.610625 
L 191.665379 -468.610625 
L 189.402017 -468.610625 
L 187.138655 -468.610625 
L 184.875292 -468.610625 
L 182.61193 -468.610625 
L 180.348568 -468.610625 
L 178.085206 -468.610625 
L 175.821843 -468.610625 
L 173.558481 -468.610625 
L 171.295119 -468.610625 
L 169.031757 -468.610625 
L 166.768394 -468.610625 
L 164.505032 -468.610625 
L 162.24167 -468.610625 
L 159.978307 -468.610625 
L 157.714945 -468.610625 
L 155.451583 -468.610625 
L 153.188221 -468.610625 
L 150.924858 -468.610625 
L 148.661496 -468.610625 
L 146.398134 -468.610625 
L 144.134772 -468.610625 
L 141.871409 -468.610625 
L 139.608047 -468.610626 
L 137.344685 -468.610629 
L 135.081323 -468.610644 
L 132.81796 -468.610715 
L 130.554598 -468.611012 
L 128.291236 -468.612164 
L 126.027873 -468.616246 
L 123.764511 -468.629496 
L 121.501149 -468.668861 
L 119.237787 -468.775822 
L 116.974424 -469.041376 
L 114.711062 -469.643067 
L 112.4477 -470.885297 
L 110.184338 -473.21728 
L 107.920975 -477.186265 
L 105.657613 -483.285058 
L 103.394251 -491.692444 
L 101.130889 -501.983425 
L 98.867526 -512.964255 
L 96.604164 -522.795691 
L 94.340802 -529.458296 
L 92.077439 -531.419674 
L 89.814077 -528.206253 
L 87.550715 -520.588736 
L 85.287353 -510.282255 
L 83.02399 -499.320243 
L 80.760628 -489.413446 
L 78.497266 -481.564031 
L 76.233904 -476.024746 
L 73.970541 -472.511385 
L 71.707179 -470.497107 
L 69.443817 -469.449254 
L 67.180455 -468.953315 
z
" style="stroke: #000000"/>
    </defs>
    <g clip-path="url(#p49f553af98)">
     <use xlink:href="#mef04d1aecc" x="0" y="864" style="fill: #ff7f0e; fill-opacity: 0.75; stroke: #000000"/>
    </g>
   </g>
   <g id="PolyCollection_2">
    <defs>
     <path id="m2ccbd80ac3" d="M 67.180455 -475.156477 
L 67.180455 -468.953315 
L 69.443817 -469.449254 
L 71.707179 -470.497107 
L 73.970541 -472.511385 
L 76.233904 -476.024746 
L 78.497266 -481.564031 
L 80.760628 -489.413446 
L 83.02399 -499.320243 
L 85.287353 -510.282255 
L 87.550715 -520.588736 
L 89.814077 -528.206253 
L 92.077439 -531.419674 
L 94.340802 -529.458296 
L 96.604164 -522.795691 
L 98.867526 -512.964255 
L 101.130889 -501.983425 
L 103.394251 -491.692444 
L 105.657613 -483.285058 
L 107.920975 -477.186265 
L 110.184338 -473.21728 
L 112.4477 -470.885297 
L 114.711062 -469.643067 
L 116.974424 -469.041376 
L 119.237787 -468.775822 
L 121.501149 -468.668861 
L 123.764511 -468.629496 
L 126.027873 -468.616246 
L 128.291236 -468.612164 
L 130.554598 -468.611012 
L 132.81796 -468.610715 
L 135.081323 -468.610644 
L 137.344685 -468.610629 
L 139.608047 -468.610626 
L 141.871409 -468.610625 
L 144.134772 -468.610625 
L 146.398134 -468.610625 
L 148.661496 -468.610625 
L 150.924858 -468.610625 
L 153.188221 -468.610625 
L 155.451583 -468.610625 
L 157.714945 -468.610625 
L 159.978307 -468.610625 
L 162.24167 -468.610625 
L 164.505032 -468.610625 
L 166.768394 -468.610625 
L 169.031757 -468.610625 
L 171.295119 -468.610625 
L 173.558481 -468.610625 
L 175.821843 -468.610625 
L 178.085206 -468.610625 
L 180.348568 -468.610625 
L 182.61193 -468.610625 
L 184.875292 -468.610625 
L 187.138655 -468.610625 
L 189.402017 -468.610625 
L 191.665379 -468.610625 
L 193.928741 -468.610625 
L 196.192104 -468.610625 
L 198.455466 -468.610625 
L 200.718828 -468.610625 
L 202.98219 -468.610625 
L 205.245553 -468.610625 
L 207.508915 -468.610625 
L 209.772277 -468.610625 
L 212.03564 -468.610625 
L 214.299002 -468.610625 
L 216.562364 -468.610625 
L 218.825726 -468.610625 
L 221.089089 -468.610625 
L 223.352451 -468.610625 
L 225.615813 -468.610625 
L 227.879175 -468.610625 
L 230.142538 -468.610625 
L 232.4059 -468.610625 
L 234.669262 -468.610625 
L 236.932624 -468.610625 
L 239.195987 -468.610625 
L 241.459349 -468.610625 
L 243.722711 -468.610625 
L 245.986074 -468.610625 
L 248.249436 -468.610625 
L 250.512798 -468.610625 
L 252.77616 -468.610625 
L 255.039523 -468.610625 
L 257.302885 -468.610625 
L 259.566247 -468.610625 
L 261.829609 -468.610625 
L 264.092972 -468.610625 
L 266.356334 -468.610625 
L 268.619696 -468.610625 
L 270.883058 -468.610625 
L 273.146421 -468.610625 
L 275.409783 -468.610625 
L 277.673145 -468.610625 
L 279.936508 -468.610625 
L 282.19987 -468.610625 
L 284.463232 -468.610625 
L 286.726594 -468.610625 
L 288.989957 -468.610625 
L 291.253319 -468.610625 
L 293.516681 -468.610625 
L 295.780043 -468.610625 
L 298.043406 -468.610625 
L 300.306768 -468.610625 
L 302.57013 -468.610625 
L 304.833492 -468.610625 
L 307.096855 -468.610625 
L 309.360217 -468.610625 
L 311.623579 -468.610625 
L 313.886942 -468.610625 
L 316.150304 -468.610625 
L 318.413666 -468.610625 
L 320.677028 -468.610625 
L 322.940391 -468.610625 
L 325.203753 -468.610625 
L 327.467115 -468.610625 
L 329.730477 -468.610625 
L 331.99384 -468.610625 
L 334.257202 -468.610625 
L 336.520564 -468.610625 
L 338.783926 -468.610625 
L 341.047289 -468.610625 
L 343.310651 -468.610625 
L 345.574013 -468.610625 
L 347.837376 -468.610625 
L 350.100738 -468.610625 
L 352.3641 -468.610625 
L 354.627462 -468.610625 
L 356.890825 -468.610625 
L 359.154187 -468.610625 
L 361.417549 -468.610625 
L 363.680911 -468.610625 
L 365.944274 -468.610625 
L 368.207636 -468.610625 
L 370.470998 -468.610625 
L 372.73436 -468.610625 
L 374.997723 -468.610625 
L 377.261085 -468.610625 
L 379.524447 -468.610625 
L 381.78781 -468.610625 
L 384.051172 -468.610625 
L 386.314534 -468.610625 
L 388.577896 -468.610625 
L 390.841259 -468.610625 
L 393.104621 -468.610625 
L 395.367983 -468.610625 
L 397.631345 -468.610625 
L 399.894708 -468.610625 
L 402.15807 -468.610625 
L 404.421432 -468.610625 
L 406.684794 -468.610625 
L 408.948157 -468.610625 
L 411.211519 -468.610625 
L 413.474881 -468.610625 
L 415.738243 -468.610625 
L 418.001606 -468.610625 
L 420.264968 -468.610625 
L 422.52833 -468.610625 
L 424.791693 -468.610625 
L 427.055055 -468.610625 
L 429.318417 -468.610625 
L 431.581779 -468.610625 
L 433.845142 -468.610625 
L 436.108504 -468.610625 
L 438.371866 -468.610625 
L 440.635228 -468.610625 
L 442.898591 -468.610625 
L 445.161953 -468.610625 
L 447.425315 -468.610625 
L 449.688677 -468.610625 
L 451.95204 -468.610627 
L 454.215402 -468.610635 
L 456.478764 -468.610664 
L 458.742127 -468.610767 
L 461.005489 -468.611102 
L 463.268851 -468.612096 
L 465.532213 -468.614798 
L 467.795576 -468.621507 
L 470.058938 -468.636706 
L 472.3223 -468.668087 
L 474.585662 -468.726997 
L 476.849025 -468.827261 
L 479.112387 -468.981328 
L 481.375749 -469.193713 
L 483.639111 -469.453682 
L 485.902474 -469.731078 
L 488.165836 -469.979437 
L 490.429198 -470.147747 
L 492.692561 -470.197295 
L 494.955923 -470.116118 
L 497.219285 -469.923686 
L 499.482647 -469.663325 
L 501.74601 -469.386405 
L 504.009372 -469.136142 
L 506.272734 -468.937851 
L 508.536096 -468.797919 
L 510.799459 -468.709165 
L 513.062821 -468.658281 
L 515.326183 -468.63181 
L 517.589545 -468.619282 
L 517.589545 -469.084522 
L 517.589545 -469.084522 
L 515.326183 -469.52828 
L 513.062821 -470.282259 
L 510.799459 -471.474899 
L 508.536096 -473.22611 
L 506.272734 -475.603279 
L 504.009372 -478.568394 
L 501.74601 -481.93481 
L 499.482647 -485.357821 
L 497.219285 -488.377747 
L 494.955923 -490.515748 
L 492.692561 -491.397416 
L 490.429198 -490.860609 
L 488.165836 -489.004568 
L 485.902474 -486.159691 
L 483.639111 -482.790735 
L 481.375749 -479.372701 
L 479.112387 -476.284895 
L 476.849025 -473.753906 
L 474.585662 -471.851301 
L 472.3223 -470.530778 
L 470.058938 -469.680739 
L 467.795576 -469.171647 
L 465.532213 -468.887331 
L 463.268851 -468.739022 
L 461.005489 -468.666675 
L 458.742127 -468.633642 
L 456.478764 -468.619516 
L 454.215402 -468.613855 
L 451.95204 -468.611729 
L 449.688677 -468.61098 
L 447.425315 -468.610732 
L 445.161953 -468.610655 
L 442.898591 -468.610633 
L 440.635228 -468.610627 
L 438.371866 -468.610625 
L 436.108504 -468.610625 
L 433.845142 -468.610625 
L 431.581779 -468.610625 
L 429.318417 -468.610625 
L 427.055055 -468.610625 
L 424.791693 -468.610625 
L 422.52833 -468.610625 
L 420.264968 -468.610625 
L 418.001606 -468.610625 
L 415.738243 -468.610625 
L 413.474881 -468.610625 
L 411.211519 -468.610625 
L 408.948157 -468.610625 
L 406.684794 -468.610625 
L 404.421432 -468.610625 
L 402.15807 -468.610625 
L 399.894708 -468.610625 
L 397.631345 -468.610625 
L 395.367983 -468.610625 
L 393.104621 -468.610625 
L 390.841259 -468.610625 
L 388.577896 -468.610625 
L 386.314534 -468.610625 
L 384.051172 -468.610625 
L 381.78781 -468.610625 
L 379.524447 -468.610625 
L 377.261085 -468.610625 
L 374.997723 -468.610625 
L 372.73436 -468.610625 
L 370.470998 -468.610625 
L 368.207636 -468.610625 
L 365.944274 -468.610625 
L 363.680911 -468.610625 
L 361.417549 -468.610625 
L 359.154187 -468.610625 
L 356.890825 -468.610625 
L 354.627462 -468.610625 
L 352.3641 -468.610625 
L 350.100738 -468.610625 
L 347.837376 -468.610625 
L 345.574013 -468.610625 
L 343.310651 -468.610625 
L 341.047289 -468.610625 
L 338.783926 -468.610625 
L 336.520564 -468.610625 
L 334.257202 -468.610625 
L 331.99384 -468.610625 
L 329.730477 -468.610625 
L 327.467115 -468.610625 
L 325.203753 -468.610625 
L 322.940391 -468.610625 
L 320.677028 -468.610625 
L 318.413666 -468.610625 
L 316.150304 -468.610625 
L 313.886942 -468.610625 
L 311.623579 -468.610625 
L 309.360217 -468.610625 
L 307.096855 -468.610625 
L 304.833492 -468.610625 
L 302.57013 -468.610625 
L 300.306768 -468.610625 
L 298.043406 -468.610625 
L 295.780043 -468.610625 
L 293.516681 -468.610625 
L 291.253319 -468.610625 
L 288.989957 -468.610625 
L 286.726594 -468.610625 
L 284.463232 -468.610625 
L 282.19987 -468.610625 
L 279.936508 -468.610625 
L 277.673145 -468.610625 
L 275.409783 -468.610625 
L 273.146421 -468.610625 
L 270.883058 -468.610625 
L 268.619696 -468.610625 
L 266.356334 -468.610625 
L 264.092972 -468.610625 
L 261.829609 -468.610625 
L 259.566247 -468.610625 
L 257.302885 -468.610625 
L 255.039523 -468.610625 
L 252.77616 -468.610625 
L 250.512798 -468.610625 
L 248.249436 -468.610625 
L 245.986074 -468.610625 
L 243.722711 -468.610625 
L 241.459349 -468.610625 
L 239.195987 -468.610625 
L 236.932624 -468.610625 
L 234.669262 -468.610625 
L 232.4059 -468.610625 
L 230.142538 -468.610625 
L 227.879175 -468.610625 
L 225.615813 -468.610625 
L 223.352451 -468.610625 
L 221.089089 -468.610625 
L 218.825726 -468.610625 
L 216.562364 -468.610625 
L 214.299002 -468.610625 
L 212.03564 -468.610625 
L 209.772277 -468.610625 
L 207.508915 -468.610625 
L 205.245553 -468.610625 
L 202.98219 -468.610625 
L 200.718828 -468.610625 
L 198.455466 -468.610625 
L 196.192104 -468.610625 
L 193.928741 -468.610625 
L 191.665379 -468.610625 
L 189.402017 -468.610625 
L 187.138655 -468.610625 
L 184.875292 -468.610625 
L 182.61193 -468.610625 
L 180.348568 -468.610625 
L 178.085206 -468.610625 
L 175.821843 -468.610625 
L 173.558481 -468.610625 
L 171.295119 -468.610625 
L 169.031757 -468.610625 
L 166.768394 -468.610625 
L 164.505032 -468.610625 
L 162.24167 -468.610625 
L 159.978307 -468.610625 
L 157.714945 -468.610625 
L 155.451583 -468.610625 
L 153.188221 -468.610625 
L 150.924858 -468.610625 
L 148.661496 -468.610626 
L 146.398134 -468.610631 
L 144.134772 -468.610652 
L 141.871409 -468.610734 
L 139.608047 -468.611031 
L 137.344685 -468.612056 
L 135.081323 -468.615367 
L 132.81796 -468.625401 
L 130.554598 -468.653953 
L 128.291236 -468.730194 
L 126.027873 -468.921248 
L 123.764511 -469.370467 
L 121.501149 -470.36119 
L 119.237787 -472.409565 
L 116.974424 -476.376533 
L 114.711062 -483.563421 
L 112.4477 -495.721024 
L 110.184338 -514.874399 
L 107.920975 -542.874458 
L 105.657613 -580.665364 
L 103.394251 -627.411453 
L 101.130889 -679.809712 
L 98.867526 -732.011086 
L 96.604164 -776.462544 
L 94.340802 -805.628105 
L 92.077439 -814.08622 
L 89.814077 -800.199647 
L 87.550715 -766.641378 
L 85.287353 -719.540917 
L 83.02399 -666.631278 
L 80.760628 -615.176033 
L 78.497266 -570.43585 
L 76.233904 -535.066929 
L 73.970541 -509.387612 
L 71.707179 -492.150018 
L 69.443817 -481.402114 
L 67.180455 -475.156477 
z
" style="stroke: #000000"/>
    </defs>
    <g clip-path="url(#p49f553af98)">
     <use xlink:href="#m2ccbd80ac3" x="0" y="864" style="fill: #1f77b4; fill-opacity: 0.75; stroke: #000000"/>
    </g>
   </g>
   <g id="matplotlib.axis_1">
    <g id="xtick_1">
     <g id="line2d_1">
      <defs>
       <path id="md0d249ca63" d="M 0 0 
L 0 3.5 
" style="stroke: #000000; stroke-width: 0.8"/>
      </defs>
      <g>
       <use xlink:href="#md0d249ca63" x="92.356742" y="395.389375" style="stroke: #000000; stroke-width: 0.8"/>
      </g>
     </g>
     <g id="text_1">
      <!-- 0.0 -->
      <g transform="translate(84.405179 409.987813) scale(0.1 -0.1)">
       <defs>
        <path id="DejaVuSans-30" d="M 2034 4250 
Q 1547 4250 1301 3770 
Q 1056 3291 1056 2328 
Q 1056 1369 1301 889 
Q 1547 409 2034 409 
Q 2525 409 2770 889 
Q 3016 1369 3016 2328 
Q 3016 3291 2770 3770 
Q 2525 4250 2034 4250 
z
M 2034 4750 
Q 2819 4750 3233 4129 
Q 3647 3509 3647 2328 
Q 3647 1150 3233 529 
Q 2819 -91 2034 -91 
Q 1250 -91 836 529 
Q 422 1150 422 2328 
Q 422 3509 836 4129 
Q 1250 4750 2034 4750 
z
" transform="scale(0.015625)"/>
        <path id="DejaVuSans-2e" d="M 684 794 
L 1344 794 
L 1344 0 
L 684 0 
L 684 794 
z
" transform="scale(0.015625)"/>
       </defs>
       <use xlink:href="#DejaVuSans-30"/>
       <use xlink:href="#DejaVuSans-2e" x="63.623047"/>
       <use xlink:href="#DejaVuSans-30" x="95.410156"/>
      </g>
     </g>
    </g>
    <g id="xtick_2">
     <g id="line2d_2">
      <g>
       <use xlink:href="#md0d249ca63" x="172.368045" y="395.389375" style="stroke: #000000; stroke-width: 0.8"/>
      </g>
     </g>
     <g id="text_2">
      <!-- 0.2 -->
      <g transform="translate(164.416483 409.987813) scale(0.1 -0.1)">
       <defs>
        <path id="DejaVuSans-32" d="M 1228 531 
L 3431 531 
L 3431 0 
L 469 0 
L 469 531 
Q 828 903 1448 1529 
Q 2069 2156 2228 2338 
Q 2531 2678 2651 2914 
Q 2772 3150 2772 3378 
Q 2772 3750 2511 3984 
Q 2250 4219 1831 4219 
Q 1534 4219 1204 4116 
Q 875 4013 500 3803 
L 500 4441 
Q 881 4594 1212 4672 
Q 1544 4750 1819 4750 
Q 2544 4750 2975 4387 
Q 3406 4025 3406 3419 
Q 3406 3131 3298 2873 
Q 3191 2616 2906 2266 
Q 2828 2175 2409 1742 
Q 1991 1309 1228 531 
z
" transform="scale(0.015625)"/>
       </defs>
       <use xlink:href="#DejaVuSans-30"/>
       <use xlink:href="#DejaVuSans-2e" x="63.623047"/>
       <use xlink:href="#DejaVuSans-32" x="95.410156"/>
      </g>
     </g>
    </g>
    <g id="xtick_3">
     <g id="line2d_3">
      <g>
       <use xlink:href="#md0d249ca63" x="252.379348" y="395.389375" style="stroke: #000000; stroke-width: 0.8"/>
      </g>
     </g>
     <g id="text_3">
      <!-- 0.4 -->
      <g transform="translate(244.427786 409.987813) scale(0.1 -0.1)">
       <defs>
        <path id="DejaVuSans-34" d="M 2419 4116 
L 825 1625 
L 2419 1625 
L 2419 4116 
z
M 2253 4666 
L 3047 4666 
L 3047 1625 
L 3713 1625 
L 3713 1100 
L 3047 1100 
L 3047 0 
L 2419 0 
L 2419 1100 
L 313 1100 
L 313 1709 
L 2253 4666 
z
" transform="scale(0.015625)"/>
       </defs>
       <use xlink:href="#DejaVuSans-30"/>
       <use xlink:href="#DejaVuSans-2e" x="63.623047"/>
       <use xlink:href="#DejaVuSans-34" x="95.410156"/>
      </g>
     </g>
    </g>
    <g id="xtick_4">
     <g id="line2d_4">
      <g>
       <use xlink:href="#md0d249ca63" x="332.390652" y="395.389375" style="stroke: #000000; stroke-width: 0.8"/>
      </g>
     </g>
     <g id="text_4">
      <!-- 0.6 -->
      <g transform="translate(324.439089 409.987813) scale(0.1 -0.1)">
       <defs>
        <path id="DejaVuSans-36" d="M 2113 2584 
Q 1688 2584 1439 2293 
Q 1191 2003 1191 1497 
Q 1191 994 1439 701 
Q 1688 409 2113 409 
Q 2538 409 2786 701 
Q 3034 994 3034 1497 
Q 3034 2003 2786 2293 
Q 2538 2584 2113 2584 
z
M 3366 4563 
L 3366 3988 
Q 3128 4100 2886 4159 
Q 2644 4219 2406 4219 
Q 1781 4219 1451 3797 
Q 1122 3375 1075 2522 
Q 1259 2794 1537 2939 
Q 1816 3084 2150 3084 
Q 2853 3084 3261 2657 
Q 3669 2231 3669 1497 
Q 3669 778 3244 343 
Q 2819 -91 2113 -91 
Q 1303 -91 875 529 
Q 447 1150 447 2328 
Q 447 3434 972 4092 
Q 1497 4750 2381 4750 
Q 2619 4750 2861 4703 
Q 3103 4656 3366 4563 
z
" transform="scale(0.015625)"/>
       </defs>
       <use xlink:href="#DejaVuSans-30"/>
       <use xlink:href="#DejaVuSans-2e" x="63.623047"/>
       <use xlink:href="#DejaVuSans-36" x="95.410156"/>
      </g>
     </g>
    </g>
    <g id="xtick_5">
     <g id="line2d_5">
      <g>
       <use xlink:href="#md0d249ca63" x="412.401955" y="395.389375" style="stroke: #000000; stroke-width: 0.8"/>
      </g>
     </g>
     <g id="text_5">
      <!-- 0.8 -->
      <g transform="translate(404.450392 409.987813) scale(0.1 -0.1)">
       <defs>
        <path id="DejaVuSans-38" d="M 2034 2216 
Q 1584 2216 1326 1975 
Q 1069 1734 1069 1313 
Q 1069 891 1326 650 
Q 1584 409 2034 409 
Q 2484 409 2743 651 
Q 3003 894 3003 1313 
Q 3003 1734 2745 1975 
Q 2488 2216 2034 2216 
z
M 1403 2484 
Q 997 2584 770 2862 
Q 544 3141 544 3541 
Q 544 4100 942 4425 
Q 1341 4750 2034 4750 
Q 2731 4750 3128 4425 
Q 3525 4100 3525 3541 
Q 3525 3141 3298 2862 
Q 3072 2584 2669 2484 
Q 3125 2378 3379 2068 
Q 3634 1759 3634 1313 
Q 3634 634 3220 271 
Q 2806 -91 2034 -91 
Q 1263 -91 848 271 
Q 434 634 434 1313 
Q 434 1759 690 2068 
Q 947 2378 1403 2484 
z
M 1172 3481 
Q 1172 3119 1398 2916 
Q 1625 2713 2034 2713 
Q 2441 2713 2670 2916 
Q 2900 3119 2900 3481 
Q 2900 3844 2670 4047 
Q 2441 4250 2034 4250 
Q 1625 4250 1398 4047 
Q 1172 3844 1172 3481 
z
" transform="scale(0.015625)"/>
       </defs>
       <use xlink:href="#DejaVuSans-30"/>
       <use xlink:href="#DejaVuSans-2e" x="63.623047"/>
       <use xlink:href="#DejaVuSans-38" x="95.410156"/>
      </g>
     </g>
    </g>
    <g id="xtick_6">
     <g id="line2d_6">
      <g>
       <use xlink:href="#md0d249ca63" x="492.413258" y="395.389375" style="stroke: #000000; stroke-width: 0.8"/>
      </g>
     </g>
     <g id="text_6">
      <!-- 1.0 -->
      <g transform="translate(484.461696 409.987813) scale(0.1 -0.1)">
       <defs>
        <path id="DejaVuSans-31" d="M 794 531 
L 1825 531 
L 1825 4091 
L 703 3866 
L 703 4441 
L 1819 4666 
L 2450 4666 
L 2450 531 
L 3481 531 
L 3481 0 
L 794 0 
L 794 531 
z
" transform="scale(0.015625)"/>
       </defs>
       <use xlink:href="#DejaVuSans-31"/>
       <use xlink:href="#DejaVuSans-2e" x="63.623047"/>
       <use xlink:href="#DejaVuSans-30" x="95.410156"/>
      </g>
     </g>
    </g>
    <g id="text_7">
     <!-- HvyAlcoholConsump -->
     <g transform="translate(240.933437 423.665938) scale(0.1 -0.1)">
      <defs>
       <path id="DejaVuSans-48" d="M 628 4666 
L 1259 4666 
L 1259 2753 
L 3553 2753 
L 3553 4666 
L 4184 4666 
L 4184 0 
L 3553 0 
L 3553 2222 
L 1259 2222 
L 1259 0 
L 628 0 
L 628 4666 
z
" transform="scale(0.015625)"/>
       <path id="DejaVuSans-76" d="M 191 3500 
L 800 3500 
L 1894 563 
L 2988 3500 
L 3597 3500 
L 2284 0 
L 1503 0 
L 191 3500 
z
" transform="scale(0.015625)"/>
       <path id="DejaVuSans-79" d="M 2059 -325 
Q 1816 -950 1584 -1140 
Q 1353 -1331 966 -1331 
L 506 -1331 
L 506 -850 
L 844 -850 
Q 1081 -850 1212 -737 
Q 1344 -625 1503 -206 
L 1606 56 
L 191 3500 
L 800 3500 
L 1894 763 
L 2988 3500 
L 3597 3500 
L 2059 -325 
z
" transform="scale(0.015625)"/>
       <path id="DejaVuSans-41" d="M 2188 4044 
L 1331 1722 
L 3047 1722 
L 2188 4044 
z
M 1831 4666 
L 2547 4666 
L 4325 0 
L 3669 0 
L 3244 1197 
L 1141 1197 
L 716 0 
L 50 0 
L 1831 4666 
z
" transform="scale(0.015625)"/>
       <path id="DejaVuSans-6c" d="M 603 4863 
L 1178 4863 
L 1178 0 
L 603 0 
L 603 4863 
z
" transform="scale(0.015625)"/>
       <path id="DejaVuSans-63" d="M 3122 3366 
L 3122 2828 
Q 2878 2963 2633 3030 
Q 2388 3097 2138 3097 
Q 1578 3097 1268 2742 
Q 959 2388 959 1747 
Q 959 1106 1268 751 
Q 1578 397 2138 397 
Q 2388 397 2633 464 
Q 2878 531 3122 666 
L 3122 134 
Q 2881 22 2623 -34 
Q 2366 -91 2075 -91 
Q 1284 -91 818 406 
Q 353 903 353 1747 
Q 353 2603 823 3093 
Q 1294 3584 2113 3584 
Q 2378 3584 2631 3529 
Q 2884 3475 3122 3366 
z
" transform="scale(0.015625)"/>
       <path id="DejaVuSans-6f" d="M 1959 3097 
Q 1497 3097 1228 2736 
Q 959 2375 959 1747 
Q 959 1119 1226 758 
Q 1494 397 1959 397 
Q 2419 397 2687 759 
Q 2956 1122 2956 1747 
Q 2956 2369 2687 2733 
Q 2419 3097 1959 3097 
z
M 1959 3584 
Q 2709 3584 3137 3096 
Q 3566 2609 3566 1747 
Q 3566 888 3137 398 
Q 2709 -91 1959 -91 
Q 1206 -91 779 398 
Q 353 888 353 1747 
Q 353 2609 779 3096 
Q 1206 3584 1959 3584 
z
" transform="scale(0.015625)"/>
       <path id="DejaVuSans-68" d="M 3513 2113 
L 3513 0 
L 2938 0 
L 2938 2094 
Q 2938 2591 2744 2837 
Q 2550 3084 2163 3084 
Q 1697 3084 1428 2787 
Q 1159 2491 1159 1978 
L 1159 0 
L 581 0 
L 581 4863 
L 1159 4863 
L 1159 2956 
Q 1366 3272 1645 3428 
Q 1925 3584 2291 3584 
Q 2894 3584 3203 3211 
Q 3513 2838 3513 2113 
z
" transform="scale(0.015625)"/>
       <path id="DejaVuSans-43" d="M 4122 4306 
L 4122 3641 
Q 3803 3938 3442 4084 
Q 3081 4231 2675 4231 
Q 1875 4231 1450 3742 
Q 1025 3253 1025 2328 
Q 1025 1406 1450 917 
Q 1875 428 2675 428 
Q 3081 428 3442 575 
Q 3803 722 4122 1019 
L 4122 359 
Q 3791 134 3420 21 
Q 3050 -91 2638 -91 
Q 1578 -91 968 557 
Q 359 1206 359 2328 
Q 359 3453 968 4101 
Q 1578 4750 2638 4750 
Q 3056 4750 3426 4639 
Q 3797 4528 4122 4306 
z
" transform="scale(0.015625)"/>
       <path id="DejaVuSans-6e" d="M 3513 2113 
L 3513 0 
L 2938 0 
L 2938 2094 
Q 2938 2591 2744 2837 
Q 2550 3084 2163 3084 
Q 1697 3084 1428 2787 
Q 1159 2491 1159 1978 
L 1159 0 
L 581 0 
L 581 3500 
L 1159 3500 
L 1159 2956 
Q 1366 3272 1645 3428 
Q 1925 3584 2291 3584 
Q 2894 3584 3203 3211 
Q 3513 2838 3513 2113 
z
" transform="scale(0.015625)"/>
       <path id="DejaVuSans-73" d="M 2834 3397 
L 2834 2853 
Q 2591 2978 2328 3040 
Q 2066 3103 1784 3103 
Q 1356 3103 1142 2972 
Q 928 2841 928 2578 
Q 928 2378 1081 2264 
Q 1234 2150 1697 2047 
L 1894 2003 
Q 2506 1872 2764 1633 
Q 3022 1394 3022 966 
Q 3022 478 2636 193 
Q 2250 -91 1575 -91 
Q 1294 -91 989 -36 
Q 684 19 347 128 
L 347 722 
Q 666 556 975 473 
Q 1284 391 1588 391 
Q 1994 391 2212 530 
Q 2431 669 2431 922 
Q 2431 1156 2273 1281 
Q 2116 1406 1581 1522 
L 1381 1569 
Q 847 1681 609 1914 
Q 372 2147 372 2553 
Q 372 3047 722 3315 
Q 1072 3584 1716 3584 
Q 2034 3584 2315 3537 
Q 2597 3491 2834 3397 
z
" transform="scale(0.015625)"/>
       <path id="DejaVuSans-75" d="M 544 1381 
L 544 3500 
L 1119 3500 
L 1119 1403 
Q 1119 906 1312 657 
Q 1506 409 1894 409 
Q 2359 409 2629 706 
Q 2900 1003 2900 1516 
L 2900 3500 
L 3475 3500 
L 3475 0 
L 2900 0 
L 2900 538 
Q 2691 219 2414 64 
Q 2138 -91 1772 -91 
Q 1169 -91 856 284 
Q 544 659 544 1381 
z
M 1991 3584 
L 1991 3584 
z
" transform="scale(0.015625)"/>
       <path id="DejaVuSans-6d" d="M 3328 2828 
Q 3544 3216 3844 3400 
Q 4144 3584 4550 3584 
Q 5097 3584 5394 3201 
Q 5691 2819 5691 2113 
L 5691 0 
L 5113 0 
L 5113 2094 
Q 5113 2597 4934 2840 
Q 4756 3084 4391 3084 
Q 3944 3084 3684 2787 
Q 3425 2491 3425 1978 
L 3425 0 
L 2847 0 
L 2847 2094 
Q 2847 2600 2669 2842 
Q 2491 3084 2119 3084 
Q 1678 3084 1418 2786 
Q 1159 2488 1159 1978 
L 1159 0 
L 581 0 
L 581 3500 
L 1159 3500 
L 1159 2956 
Q 1356 3278 1631 3431 
Q 1906 3584 2284 3584 
Q 2666 3584 2933 3390 
Q 3200 3197 3328 2828 
z
" transform="scale(0.015625)"/>
       <path id="DejaVuSans-70" d="M 1159 525 
L 1159 -1331 
L 581 -1331 
L 581 3500 
L 1159 3500 
L 1159 2969 
Q 1341 3281 1617 3432 
Q 1894 3584 2278 3584 
Q 2916 3584 3314 3078 
Q 3713 2572 3713 1747 
Q 3713 922 3314 415 
Q 2916 -91 2278 -91 
Q 1894 -91 1617 61 
Q 1341 213 1159 525 
z
M 3116 1747 
Q 3116 2381 2855 2742 
Q 2594 3103 2138 3103 
Q 1681 3103 1420 2742 
Q 1159 2381 1159 1747 
Q 1159 1113 1420 752 
Q 1681 391 2138 391 
Q 2594 391 2855 752 
Q 3116 1113 3116 1747 
z
" transform="scale(0.015625)"/>
      </defs>
      <use xlink:href="#DejaVuSans-48"/>
      <use xlink:href="#DejaVuSans-76" x="75.195312"/>
      <use xlink:href="#DejaVuSans-79" x="134.375"/>
      <use xlink:href="#DejaVuSans-41" x="193.554688"/>
      <use xlink:href="#DejaVuSans-6c" x="261.962891"/>
      <use xlink:href="#DejaVuSans-63" x="289.746094"/>
      <use xlink:href="#DejaVuSans-6f" x="344.726562"/>
      <use xlink:href="#DejaVuSans-68" x="405.908203"/>
      <use xlink:href="#DejaVuSans-6f" x="469.287109"/>
      <use xlink:href="#DejaVuSans-6c" x="530.46875"/>
      <use xlink:href="#DejaVuSans-43" x="558.251953"/>
      <use xlink:href="#DejaVuSans-6f" x="628.076172"/>
      <use xlink:href="#DejaVuSans-6e" x="689.257812"/>
      <use xlink:href="#DejaVuSans-73" x="752.636719"/>
      <use xlink:href="#DejaVuSans-75" x="804.736328"/>
      <use xlink:href="#DejaVuSans-6d" x="868.115234"/>
      <use xlink:href="#DejaVuSans-70" x="965.527344"/>
     </g>
    </g>
   </g>
   <g id="matplotlib.axis_2">
    <g id="ytick_1">
     <g id="line2d_7">
      <defs>
       <path id="m2b116b563d" d="M 0 0 
L -3.5 0 
" style="stroke: #000000; stroke-width: 0.8"/>
      </defs>
      <g>
       <use xlink:href="#m2b116b563d" x="44.66" y="395.389375" style="stroke: #000000; stroke-width: 0.8"/>
      </g>
     </g>
     <g id="text_8">
      <!-- 0 -->
      <g transform="translate(31.2975 399.188594) scale(0.1 -0.1)">
       <use xlink:href="#DejaVuSans-30"/>
      </g>
     </g>
    </g>
    <g id="ytick_2">
     <g id="line2d_8">
      <g>
       <use xlink:href="#m2b116b563d" x="44.66" y="354.390974" style="stroke: #000000; stroke-width: 0.8"/>
      </g>
     </g>
     <g id="text_9">
      <!-- 2 -->
      <g transform="translate(31.2975 358.190192) scale(0.1 -0.1)">
       <use xlink:href="#DejaVuSans-32"/>
      </g>
     </g>
    </g>
    <g id="ytick_3">
     <g id="line2d_9">
      <g>
       <use xlink:href="#m2b116b563d" x="44.66" y="313.392572" style="stroke: #000000; stroke-width: 0.8"/>
      </g>
     </g>
     <g id="text_10">
      <!-- 4 -->
      <g transform="translate(31.2975 317.191791) scale(0.1 -0.1)">
       <use xlink:href="#DejaVuSans-34"/>
      </g>
     </g>
    </g>
    <g id="ytick_4">
     <g id="line2d_10">
      <g>
       <use xlink:href="#m2b116b563d" x="44.66" y="272.394171" style="stroke: #000000; stroke-width: 0.8"/>
      </g>
     </g>
     <g id="text_11">
      <!-- 6 -->
      <g transform="translate(31.2975 276.193389) scale(0.1 -0.1)">
       <use xlink:href="#DejaVuSans-36"/>
      </g>
     </g>
    </g>
    <g id="ytick_5">
     <g id="line2d_11">
      <g>
       <use xlink:href="#m2b116b563d" x="44.66" y="231.395769" style="stroke: #000000; stroke-width: 0.8"/>
      </g>
     </g>
     <g id="text_12">
      <!-- 8 -->
      <g transform="translate(31.2975 235.194988) scale(0.1 -0.1)">
       <use xlink:href="#DejaVuSans-38"/>
      </g>
     </g>
    </g>
    <g id="ytick_6">
     <g id="line2d_12">
      <g>
       <use xlink:href="#m2b116b563d" x="44.66" y="190.397368" style="stroke: #000000; stroke-width: 0.8"/>
      </g>
     </g>
     <g id="text_13">
      <!-- 10 -->
      <g transform="translate(24.935 194.196586) scale(0.1 -0.1)">
       <use xlink:href="#DejaVuSans-31"/>
       <use xlink:href="#DejaVuSans-30" x="63.623047"/>
      </g>
     </g>
    </g>
    <g id="ytick_7">
     <g id="line2d_13">
      <g>
       <use xlink:href="#m2b116b563d" x="44.66" y="149.398966" style="stroke: #000000; stroke-width: 0.8"/>
      </g>
     </g>
     <g id="text_14">
      <!-- 12 -->
      <g transform="translate(24.935 153.198185) scale(0.1 -0.1)">
       <use xlink:href="#DejaVuSans-31"/>
       <use xlink:href="#DejaVuSans-32" x="63.623047"/>
      </g>
     </g>
    </g>
    <g id="ytick_8">
     <g id="line2d_14">
      <g>
       <use xlink:href="#m2b116b563d" x="44.66" y="108.400565" style="stroke: #000000; stroke-width: 0.8"/>
      </g>
     </g>
     <g id="text_15">
      <!-- 14 -->
      <g transform="translate(24.935 112.199783) scale(0.1 -0.1)">
       <use xlink:href="#DejaVuSans-31"/>
       <use xlink:href="#DejaVuSans-34" x="63.623047"/>
      </g>
     </g>
    </g>
    <g id="ytick_9">
     <g id="line2d_15">
      <g>
       <use xlink:href="#m2b116b563d" x="44.66" y="67.402163" style="stroke: #000000; stroke-width: 0.8"/>
      </g>
     </g>
     <g id="text_16">
      <!-- 16 -->
      <g transform="translate(24.935 71.201382) scale(0.1 -0.1)">
       <use xlink:href="#DejaVuSans-31"/>
       <use xlink:href="#DejaVuSans-36" x="63.623047"/>
      </g>
     </g>
    </g>
    <g id="text_17">
     <!-- Density -->
     <g transform="translate(18.855313 233.023281) rotate(-90) scale(0.1 -0.1)">
      <defs>
       <path id="DejaVuSans-44" d="M 1259 4147 
L 1259 519 
L 2022 519 
Q 2988 519 3436 956 
Q 3884 1394 3884 2338 
Q 3884 3275 3436 3711 
Q 2988 4147 2022 4147 
L 1259 4147 
z
M 628 4666 
L 1925 4666 
Q 3281 4666 3915 4102 
Q 4550 3538 4550 2338 
Q 4550 1131 3912 565 
Q 3275 0 1925 0 
L 628 0 
L 628 4666 
z
" transform="scale(0.015625)"/>
       <path id="DejaVuSans-65" d="M 3597 1894 
L 3597 1613 
L 953 1613 
Q 991 1019 1311 708 
Q 1631 397 2203 397 
Q 2534 397 2845 478 
Q 3156 559 3463 722 
L 3463 178 
Q 3153 47 2828 -22 
Q 2503 -91 2169 -91 
Q 1331 -91 842 396 
Q 353 884 353 1716 
Q 353 2575 817 3079 
Q 1281 3584 2069 3584 
Q 2775 3584 3186 3129 
Q 3597 2675 3597 1894 
z
M 3022 2063 
Q 3016 2534 2758 2815 
Q 2500 3097 2075 3097 
Q 1594 3097 1305 2825 
Q 1016 2553 972 2059 
L 3022 2063 
z
" transform="scale(0.015625)"/>
       <path id="DejaVuSans-69" d="M 603 3500 
L 1178 3500 
L 1178 0 
L 603 0 
L 603 3500 
z
M 603 4863 
L 1178 4863 
L 1178 4134 
L 603 4134 
L 603 4863 
z
" transform="scale(0.015625)"/>
       <path id="DejaVuSans-74" d="M 1172 4494 
L 1172 3500 
L 2356 3500 
L 2356 3053 
L 1172 3053 
L 1172 1153 
Q 1172 725 1289 603 
Q 1406 481 1766 481 
L 2356 481 
L 2356 0 
L 1766 0 
Q 1100 0 847 248 
Q 594 497 594 1153 
L 594 3053 
L 172 3053 
L 172 3500 
L 594 3500 
L 594 4494 
L 1172 4494 
z
" transform="scale(0.015625)"/>
      </defs>
      <use xlink:href="#DejaVuSans-44"/>
      <use xlink:href="#DejaVuSans-65" x="77.001953"/>
      <use xlink:href="#DejaVuSans-6e" x="138.525391"/>
      <use xlink:href="#DejaVuSans-73" x="201.904297"/>
      <use xlink:href="#DejaVuSans-69" x="254.003906"/>
      <use xlink:href="#DejaVuSans-74" x="281.787109"/>
      <use xlink:href="#DejaVuSans-79" x="320.996094"/>
     </g>
    </g>
   </g>
   <g id="patch_3">
    <path d="M 44.66 395.389375 
L 44.66 32.64 
" style="fill: none; stroke: #000000; stroke-width: 0.8; stroke-linejoin: miter; stroke-linecap: square"/>
   </g>
   <g id="patch_4">
    <path d="M 540.11 395.389375 
L 540.11 32.64 
" style="fill: none; stroke: #000000; stroke-width: 0.8; stroke-linejoin: miter; stroke-linecap: square"/>
   </g>
   <g id="patch_5">
    <path d="M 44.66 395.389375 
L 540.11 395.389375 
" style="fill: none; stroke: #000000; stroke-width: 0.8; stroke-linejoin: miter; stroke-linecap: square"/>
   </g>
   <g id="patch_6">
    <path d="M 44.66 32.64 
L 540.11 32.64 
" style="fill: none; stroke: #000000; stroke-width: 0.8; stroke-linejoin: miter; stroke-linecap: square"/>
   </g>
   <g id="text_18">
    <!-- KDE Plot: HvyAlcoholConsump vs Diabetes_binary -->
    <g transform="translate(41.836562 26.64) scale(0.2 -0.2)">
     <defs>
      <path id="DejaVuSans-4b" d="M 628 4666 
L 1259 4666 
L 1259 2694 
L 3353 4666 
L 4166 4666 
L 1850 2491 
L 4331 0 
L 3500 0 
L 1259 2247 
L 1259 0 
L 628 0 
L 628 4666 
z
" transform="scale(0.015625)"/>
      <path id="DejaVuSans-45" d="M 628 4666 
L 3578 4666 
L 3578 4134 
L 1259 4134 
L 1259 2753 
L 3481 2753 
L 3481 2222 
L 1259 2222 
L 1259 531 
L 3634 531 
L 3634 0 
L 628 0 
L 628 4666 
z
" transform="scale(0.015625)"/>
      <path id="DejaVuSans-20" transform="scale(0.015625)"/>
      <path id="DejaVuSans-50" d="M 1259 4147 
L 1259 2394 
L 2053 2394 
Q 2494 2394 2734 2622 
Q 2975 2850 2975 3272 
Q 2975 3691 2734 3919 
Q 2494 4147 2053 4147 
L 1259 4147 
z
M 628 4666 
L 2053 4666 
Q 2838 4666 3239 4311 
Q 3641 3956 3641 3272 
Q 3641 2581 3239 2228 
Q 2838 1875 2053 1875 
L 1259 1875 
L 1259 0 
L 628 0 
L 628 4666 
z
" transform="scale(0.015625)"/>
      <path id="DejaVuSans-3a" d="M 750 794 
L 1409 794 
L 1409 0 
L 750 0 
L 750 794 
z
M 750 3309 
L 1409 3309 
L 1409 2516 
L 750 2516 
L 750 3309 
z
" transform="scale(0.015625)"/>
      <path id="DejaVuSans-61" d="M 2194 1759 
Q 1497 1759 1228 1600 
Q 959 1441 959 1056 
Q 959 750 1161 570 
Q 1363 391 1709 391 
Q 2188 391 2477 730 
Q 2766 1069 2766 1631 
L 2766 1759 
L 2194 1759 
z
M 3341 1997 
L 3341 0 
L 2766 0 
L 2766 531 
Q 2569 213 2275 61 
Q 1981 -91 1556 -91 
Q 1019 -91 701 211 
Q 384 513 384 1019 
Q 384 1609 779 1909 
Q 1175 2209 1959 2209 
L 2766 2209 
L 2766 2266 
Q 2766 2663 2505 2880 
Q 2244 3097 1772 3097 
Q 1472 3097 1187 3025 
Q 903 2953 641 2809 
L 641 3341 
Q 956 3463 1253 3523 
Q 1550 3584 1831 3584 
Q 2591 3584 2966 3190 
Q 3341 2797 3341 1997 
z
" transform="scale(0.015625)"/>
      <path id="DejaVuSans-62" d="M 3116 1747 
Q 3116 2381 2855 2742 
Q 2594 3103 2138 3103 
Q 1681 3103 1420 2742 
Q 1159 2381 1159 1747 
Q 1159 1113 1420 752 
Q 1681 391 2138 391 
Q 2594 391 2855 752 
Q 3116 1113 3116 1747 
z
M 1159 2969 
Q 1341 3281 1617 3432 
Q 1894 3584 2278 3584 
Q 2916 3584 3314 3078 
Q 3713 2572 3713 1747 
Q 3713 922 3314 415 
Q 2916 -91 2278 -91 
Q 1894 -91 1617 61 
Q 1341 213 1159 525 
L 1159 0 
L 581 0 
L 581 4863 
L 1159 4863 
L 1159 2969 
z
" transform="scale(0.015625)"/>
      <path id="DejaVuSans-5f" d="M 3263 -1063 
L 3263 -1509 
L -63 -1509 
L -63 -1063 
L 3263 -1063 
z
" transform="scale(0.015625)"/>
      <path id="DejaVuSans-72" d="M 2631 2963 
Q 2534 3019 2420 3045 
Q 2306 3072 2169 3072 
Q 1681 3072 1420 2755 
Q 1159 2438 1159 1844 
L 1159 0 
L 581 0 
L 581 3500 
L 1159 3500 
L 1159 2956 
Q 1341 3275 1631 3429 
Q 1922 3584 2338 3584 
Q 2397 3584 2469 3576 
Q 2541 3569 2628 3553 
L 2631 2963 
z
" transform="scale(0.015625)"/>
     </defs>
     <use xlink:href="#DejaVuSans-4b"/>
     <use xlink:href="#DejaVuSans-44" x="65.576172"/>
     <use xlink:href="#DejaVuSans-45" x="142.578125"/>
     <use xlink:href="#DejaVuSans-20" x="205.761719"/>
     <use xlink:href="#DejaVuSans-50" x="237.548828"/>
     <use xlink:href="#DejaVuSans-6c" x="297.851562"/>
     <use xlink:href="#DejaVuSans-6f" x="325.634766"/>
     <use xlink:href="#DejaVuSans-74" x="386.816406"/>
     <use xlink:href="#DejaVuSans-3a" x="426.025391"/>
     <use xlink:href="#DejaVuSans-20" x="459.716797"/>
     <use xlink:href="#DejaVuSans-48" x="491.503906"/>
     <use xlink:href="#DejaVuSans-76" x="566.699219"/>
     <use xlink:href="#DejaVuSans-79" x="625.878906"/>
     <use xlink:href="#DejaVuSans-41" x="685.058594"/>
     <use xlink:href="#DejaVuSans-6c" x="753.466797"/>
     <use xlink:href="#DejaVuSans-63" x="781.25"/>
     <use xlink:href="#DejaVuSans-6f" x="836.230469"/>
     <use xlink:href="#DejaVuSans-68" x="897.412109"/>
     <use xlink:href="#DejaVuSans-6f" x="960.791016"/>
     <use xlink:href="#DejaVuSans-6c" x="1021.972656"/>
     <use xlink:href="#DejaVuSans-43" x="1049.755859"/>
     <use xlink:href="#DejaVuSans-6f" x="1119.580078"/>
     <use xlink:href="#DejaVuSans-6e" x="1180.761719"/>
     <use xlink:href="#DejaVuSans-73" x="1244.140625"/>
     <use xlink:href="#DejaVuSans-75" x="1296.240234"/>
     <use xlink:href="#DejaVuSans-6d" x="1359.619141"/>
     <use xlink:href="#DejaVuSans-70" x="1457.03125"/>
     <use xlink:href="#DejaVuSans-20" x="1520.507812"/>
     <use xlink:href="#DejaVuSans-76" x="1552.294922"/>
     <use xlink:href="#DejaVuSans-73" x="1611.474609"/>
     <use xlink:href="#DejaVuSans-20" x="1663.574219"/>
     <use xlink:href="#DejaVuSans-44" x="1695.361328"/>
     <use xlink:href="#DejaVuSans-69" x="1772.363281"/>
     <use xlink:href="#DejaVuSans-61" x="1800.146484"/>
     <use xlink:href="#DejaVuSans-62" x="1861.425781"/>
     <use xlink:href="#DejaVuSans-65" x="1924.902344"/>
     <use xlink:href="#DejaVuSans-74" x="1986.425781"/>
     <use xlink:href="#DejaVuSans-65" x="2025.634766"/>
     <use xlink:href="#DejaVuSans-73" x="2087.158203"/>
     <use xlink:href="#DejaVuSans-5f" x="2139.257812"/>
     <use xlink:href="#DejaVuSans-62" x="2189.257812"/>
     <use xlink:href="#DejaVuSans-69" x="2252.734375"/>
     <use xlink:href="#DejaVuSans-6e" x="2280.517578"/>
     <use xlink:href="#DejaVuSans-61" x="2343.896484"/>
     <use xlink:href="#DejaVuSans-72" x="2405.175781"/>
     <use xlink:href="#DejaVuSans-79" x="2446.289062"/>
    </g>
   </g>
   <g id="legend_1">
    <g id="patch_7">
     <path d="M 448.0975 84.9525 
L 533.11 84.9525 
Q 535.11 84.9525 535.11 82.9525 
L 535.11 39.64 
Q 535.11 37.64 533.11 37.64 
L 448.0975 37.64 
Q 446.0975 37.64 446.0975 39.64 
L 446.0975 82.9525 
Q 446.0975 84.9525 448.0975 84.9525 
z
" style="fill: #ffffff; opacity: 0.8; stroke: #cccccc; stroke-linejoin: miter"/>
    </g>
    <g id="text_19">
     <!-- Diabetes_binary -->
     <g transform="translate(450.0975 49.238438) scale(0.1 -0.1)">
      <use xlink:href="#DejaVuSans-44"/>
      <use xlink:href="#DejaVuSans-69" x="77.001953"/>
      <use xlink:href="#DejaVuSans-61" x="104.785156"/>
      <use xlink:href="#DejaVuSans-62" x="166.064453"/>
      <use xlink:href="#DejaVuSans-65" x="229.541016"/>
      <use xlink:href="#DejaVuSans-74" x="291.064453"/>
      <use xlink:href="#DejaVuSans-65" x="330.273438"/>
      <use xlink:href="#DejaVuSans-73" x="391.796875"/>
      <use xlink:href="#DejaVuSans-5f" x="443.896484"/>
      <use xlink:href="#DejaVuSans-62" x="493.896484"/>
      <use xlink:href="#DejaVuSans-69" x="557.373047"/>
      <use xlink:href="#DejaVuSans-6e" x="585.15625"/>
      <use xlink:href="#DejaVuSans-61" x="648.535156"/>
      <use xlink:href="#DejaVuSans-72" x="709.814453"/>
      <use xlink:href="#DejaVuSans-79" x="750.927734"/>
     </g>
    </g>
    <g id="patch_8">
     <path d="M 473.4225 64.194688 
L 493.4225 64.194688 
L 493.4225 57.194688 
L 473.4225 57.194688 
z
" style="fill: #1f77b4; fill-opacity: 0.75; stroke: #000000; stroke-linejoin: miter"/>
    </g>
    <g id="text_20">
     <!-- 0 -->
     <g transform="translate(501.4225 64.194688) scale(0.1 -0.1)">
      <use xlink:href="#DejaVuSans-30"/>
     </g>
    </g>
    <g id="patch_9">
     <path d="M 473.4225 78.872813 
L 493.4225 78.872813 
L 493.4225 71.872813 
L 473.4225 71.872813 
z
" style="fill: #ff7f0e; fill-opacity: 0.75; stroke: #000000; stroke-linejoin: miter"/>
    </g>
    <g id="text_21">
     <!-- 1 -->
     <g transform="translate(501.4225 78.872813) scale(0.1 -0.1)">
      <use xlink:href="#DejaVuSans-31"/>
     </g>
    </g>
   </g>
  </g>
  <g id="axes_2">
   <g id="patch_10">
    <path d="M 573.75 395.389375 
L 1069.2 395.389375 
L 1069.2 32.64 
L 573.75 32.64 
z
" style="fill: #ffffff"/>
   </g>
   <g id="patch_11">
    <path d="M 635.68125 395.389375 
L 697.6125 395.389375 
L 697.6125 86.536696 
L 635.68125 86.536696 
z
" clip-path="url(#pb34a33d9bc)" style="fill: #1f77b4"/>
   </g>
   <g id="patch_12">
    <path d="M 883.40625 395.389375 
L 945.3375 395.389375 
L 945.3375 49.91378 
L 883.40625 49.91378 
z
" clip-path="url(#pb34a33d9bc)" style="fill: #1f77b4"/>
   </g>
   <g id="patch_13">
    <path d="M 697.6125 395.389375 
L 759.54375 395.389375 
L 759.54375 336.627104 
L 697.6125 336.627104 
z
" clip-path="url(#pb34a33d9bc)" style="fill: #ff7f0e"/>
   </g>
   <g id="patch_14">
    <path d="M 945.3375 395.389375 
L 1007.26875 395.389375 
L 1007.26875 373.25002 
L 945.3375 373.25002 
z
" clip-path="url(#pb34a33d9bc)" style="fill: #ff7f0e"/>
   </g>
   <g id="matplotlib.axis_3">
    <g id="xtick_7">
     <g id="line2d_16">
      <g>
       <use xlink:href="#md0d249ca63" x="697.6125" y="395.389375" style="stroke: #000000; stroke-width: 0.8"/>
      </g>
     </g>
     <g id="text_22">
      <!-- 0 -->
      <g transform="translate(700.371875 408.751875) rotate(-90) scale(0.1 -0.1)">
       <use xlink:href="#DejaVuSans-30"/>
      </g>
     </g>
    </g>
    <g id="xtick_8">
     <g id="line2d_17">
      <g>
       <use xlink:href="#md0d249ca63" x="945.3375" y="395.389375" style="stroke: #000000; stroke-width: 0.8"/>
      </g>
     </g>
     <g id="text_23">
      <!-- 1 -->
      <g transform="translate(948.096875 408.751875) rotate(-90) scale(0.1 -0.1)">
       <use xlink:href="#DejaVuSans-31"/>
      </g>
     </g>
    </g>
    <g id="text_24">
     <!-- HvyAlcoholConsump -->
     <g transform="translate(770.023438 420.350313) scale(0.1 -0.1)">
      <use xlink:href="#DejaVuSans-48"/>
      <use xlink:href="#DejaVuSans-76" x="75.195312"/>
      <use xlink:href="#DejaVuSans-79" x="134.375"/>
      <use xlink:href="#DejaVuSans-41" x="193.554688"/>
      <use xlink:href="#DejaVuSans-6c" x="261.962891"/>
      <use xlink:href="#DejaVuSans-63" x="289.746094"/>
      <use xlink:href="#DejaVuSans-6f" x="344.726562"/>
      <use xlink:href="#DejaVuSans-68" x="405.908203"/>
      <use xlink:href="#DejaVuSans-6f" x="469.287109"/>
      <use xlink:href="#DejaVuSans-6c" x="530.46875"/>
      <use xlink:href="#DejaVuSans-43" x="558.251953"/>
      <use xlink:href="#DejaVuSans-6f" x="628.076172"/>
      <use xlink:href="#DejaVuSans-6e" x="689.257812"/>
      <use xlink:href="#DejaVuSans-73" x="752.636719"/>
      <use xlink:href="#DejaVuSans-75" x="804.736328"/>
      <use xlink:href="#DejaVuSans-6d" x="868.115234"/>
      <use xlink:href="#DejaVuSans-70" x="965.527344"/>
     </g>
    </g>
   </g>
   <g id="matplotlib.axis_4">
    <g id="ytick_10">
     <g id="line2d_18">
      <g>
       <use xlink:href="#m2b116b563d" x="573.75" y="395.389375" style="stroke: #000000; stroke-width: 0.8"/>
      </g>
     </g>
     <g id="text_25">
      <!-- 0.0 -->
      <g transform="translate(550.846875 399.188594) scale(0.1 -0.1)">
       <use xlink:href="#DejaVuSans-30"/>
       <use xlink:href="#DejaVuSans-2e" x="63.623047"/>
       <use xlink:href="#DejaVuSans-30" x="95.410156"/>
      </g>
     </g>
    </g>
    <g id="ytick_11">
     <g id="line2d_19">
      <g>
       <use xlink:href="#m2b116b563d" x="573.75" y="321.866385" style="stroke: #000000; stroke-width: 0.8"/>
      </g>
     </g>
     <g id="text_26">
      <!-- 0.2 -->
      <g transform="translate(550.846875 325.665604) scale(0.1 -0.1)">
       <use xlink:href="#DejaVuSans-30"/>
       <use xlink:href="#DejaVuSans-2e" x="63.623047"/>
       <use xlink:href="#DejaVuSans-32" x="95.410156"/>
      </g>
     </g>
    </g>
    <g id="ytick_12">
     <g id="line2d_20">
      <g>
       <use xlink:href="#m2b116b563d" x="573.75" y="248.343395" style="stroke: #000000; stroke-width: 0.8"/>
      </g>
     </g>
     <g id="text_27">
      <!-- 0.4 -->
      <g transform="translate(550.846875 252.142614) scale(0.1 -0.1)">
       <use xlink:href="#DejaVuSans-30"/>
       <use xlink:href="#DejaVuSans-2e" x="63.623047"/>
       <use xlink:href="#DejaVuSans-34" x="95.410156"/>
      </g>
     </g>
    </g>
    <g id="ytick_13">
     <g id="line2d_21">
      <g>
       <use xlink:href="#m2b116b563d" x="573.75" y="174.820405" style="stroke: #000000; stroke-width: 0.8"/>
      </g>
     </g>
     <g id="text_28">
      <!-- 0.6 -->
      <g transform="translate(550.846875 178.619624) scale(0.1 -0.1)">
       <use xlink:href="#DejaVuSans-30"/>
       <use xlink:href="#DejaVuSans-2e" x="63.623047"/>
       <use xlink:href="#DejaVuSans-36" x="95.410156"/>
      </g>
     </g>
    </g>
    <g id="ytick_14">
     <g id="line2d_22">
      <g>
       <use xlink:href="#m2b116b563d" x="573.75" y="101.297415" style="stroke: #000000; stroke-width: 0.8"/>
      </g>
     </g>
     <g id="text_29">
      <!-- 0.8 -->
      <g transform="translate(550.846875 105.096634) scale(0.1 -0.1)">
       <use xlink:href="#DejaVuSans-30"/>
       <use xlink:href="#DejaVuSans-2e" x="63.623047"/>
       <use xlink:href="#DejaVuSans-38" x="95.410156"/>
      </g>
     </g>
    </g>
   </g>
   <g id="patch_15">
    <path d="M 573.75 395.389375 
L 573.75 32.64 
" style="fill: none; stroke: #000000; stroke-width: 0.8; stroke-linejoin: miter; stroke-linecap: square"/>
   </g>
   <g id="patch_16">
    <path d="M 1069.2 395.389375 
L 1069.2 32.64 
" style="fill: none; stroke: #000000; stroke-width: 0.8; stroke-linejoin: miter; stroke-linecap: square"/>
   </g>
   <g id="patch_17">
    <path d="M 573.75 395.389375 
L 1069.2 395.389375 
" style="fill: none; stroke: #000000; stroke-width: 0.8; stroke-linejoin: miter; stroke-linecap: square"/>
   </g>
   <g id="patch_18">
    <path d="M 573.75 32.64 
L 1069.2 32.64 
" style="fill: none; stroke: #000000; stroke-width: 0.8; stroke-linejoin: miter; stroke-linecap: square"/>
   </g>
   <g id="text_30">
    <!-- Bar plot: HvyAlcoholConsump Vs Diabetes_binary -->
    <g transform="translate(573.1625 26.64) scale(0.2 -0.2)">
     <defs>
      <path id="DejaVuSans-42" d="M 1259 2228 
L 1259 519 
L 2272 519 
Q 2781 519 3026 730 
Q 3272 941 3272 1375 
Q 3272 1813 3026 2020 
Q 2781 2228 2272 2228 
L 1259 2228 
z
M 1259 4147 
L 1259 2741 
L 2194 2741 
Q 2656 2741 2882 2914 
Q 3109 3088 3109 3444 
Q 3109 3797 2882 3972 
Q 2656 4147 2194 4147 
L 1259 4147 
z
M 628 4666 
L 2241 4666 
Q 2963 4666 3353 4366 
Q 3744 4066 3744 3513 
Q 3744 3084 3544 2831 
Q 3344 2578 2956 2516 
Q 3422 2416 3680 2098 
Q 3938 1781 3938 1306 
Q 3938 681 3513 340 
Q 3088 0 2303 0 
L 628 0 
L 628 4666 
z
" transform="scale(0.015625)"/>
      <path id="DejaVuSans-56" d="M 1831 0 
L 50 4666 
L 709 4666 
L 2188 738 
L 3669 4666 
L 4325 4666 
L 2547 0 
L 1831 0 
z
" transform="scale(0.015625)"/>
     </defs>
     <use xlink:href="#DejaVuSans-42"/>
     <use xlink:href="#DejaVuSans-61" x="68.603516"/>
     <use xlink:href="#DejaVuSans-72" x="129.882812"/>
     <use xlink:href="#DejaVuSans-20" x="170.996094"/>
     <use xlink:href="#DejaVuSans-70" x="202.783203"/>
     <use xlink:href="#DejaVuSans-6c" x="266.259766"/>
     <use xlink:href="#DejaVuSans-6f" x="294.042969"/>
     <use xlink:href="#DejaVuSans-74" x="355.224609"/>
     <use xlink:href="#DejaVuSans-3a" x="394.433594"/>
     <use xlink:href="#DejaVuSans-20" x="428.125"/>
     <use xlink:href="#DejaVuSans-48" x="459.912109"/>
     <use xlink:href="#DejaVuSans-76" x="535.107422"/>
     <use xlink:href="#DejaVuSans-79" x="594.287109"/>
     <use xlink:href="#DejaVuSans-41" x="653.466797"/>
     <use xlink:href="#DejaVuSans-6c" x="721.875"/>
     <use xlink:href="#DejaVuSans-63" x="749.658203"/>
     <use xlink:href="#DejaVuSans-6f" x="804.638672"/>
     <use xlink:href="#DejaVuSans-68" x="865.820312"/>
     <use xlink:href="#DejaVuSans-6f" x="929.199219"/>
     <use xlink:href="#DejaVuSans-6c" x="990.380859"/>
     <use xlink:href="#DejaVuSans-43" x="1018.164062"/>
     <use xlink:href="#DejaVuSans-6f" x="1087.988281"/>
     <use xlink:href="#DejaVuSans-6e" x="1149.169922"/>
     <use xlink:href="#DejaVuSans-73" x="1212.548828"/>
     <use xlink:href="#DejaVuSans-75" x="1264.648438"/>
     <use xlink:href="#DejaVuSans-6d" x="1328.027344"/>
     <use xlink:href="#DejaVuSans-70" x="1425.439453"/>
     <use xlink:href="#DejaVuSans-20" x="1488.916016"/>
     <use xlink:href="#DejaVuSans-56" x="1520.703125"/>
     <use xlink:href="#DejaVuSans-73" x="1589.111328"/>
     <use xlink:href="#DejaVuSans-20" x="1641.210938"/>
     <use xlink:href="#DejaVuSans-44" x="1672.998047"/>
     <use xlink:href="#DejaVuSans-69" x="1750"/>
     <use xlink:href="#DejaVuSans-61" x="1777.783203"/>
     <use xlink:href="#DejaVuSans-62" x="1839.0625"/>
     <use xlink:href="#DejaVuSans-65" x="1902.539062"/>
     <use xlink:href="#DejaVuSans-74" x="1964.0625"/>
     <use xlink:href="#DejaVuSans-65" x="2003.271484"/>
     <use xlink:href="#DejaVuSans-73" x="2064.794922"/>
     <use xlink:href="#DejaVuSans-5f" x="2116.894531"/>
     <use xlink:href="#DejaVuSans-62" x="2166.894531"/>
     <use xlink:href="#DejaVuSans-69" x="2230.371094"/>
     <use xlink:href="#DejaVuSans-6e" x="2258.154297"/>
     <use xlink:href="#DejaVuSans-61" x="2321.533203"/>
     <use xlink:href="#DejaVuSans-72" x="2382.8125"/>
     <use xlink:href="#DejaVuSans-79" x="2423.925781"/>
    </g>
   </g>
   <g id="legend_2">
    <g id="patch_19">
     <path d="M 977.1875 84.9525 
L 1062.2 84.9525 
Q 1064.2 84.9525 1064.2 82.9525 
L 1064.2 39.64 
Q 1064.2 37.64 1062.2 37.64 
L 977.1875 37.64 
Q 975.1875 37.64 975.1875 39.64 
L 975.1875 82.9525 
Q 975.1875 84.9525 977.1875 84.9525 
z
" style="fill: #ffffff; opacity: 0.8; stroke: #cccccc; stroke-linejoin: miter"/>
    </g>
    <g id="text_31">
     <!-- Diabetes_binary -->
     <g transform="translate(979.1875 49.238438) scale(0.1 -0.1)">
      <use xlink:href="#DejaVuSans-44"/>
      <use xlink:href="#DejaVuSans-69" x="77.001953"/>
      <use xlink:href="#DejaVuSans-61" x="104.785156"/>
      <use xlink:href="#DejaVuSans-62" x="166.064453"/>
      <use xlink:href="#DejaVuSans-65" x="229.541016"/>
      <use xlink:href="#DejaVuSans-74" x="291.064453"/>
      <use xlink:href="#DejaVuSans-65" x="330.273438"/>
      <use xlink:href="#DejaVuSans-73" x="391.796875"/>
      <use xlink:href="#DejaVuSans-5f" x="443.896484"/>
      <use xlink:href="#DejaVuSans-62" x="493.896484"/>
      <use xlink:href="#DejaVuSans-69" x="557.373047"/>
      <use xlink:href="#DejaVuSans-6e" x="585.15625"/>
      <use xlink:href="#DejaVuSans-61" x="648.535156"/>
      <use xlink:href="#DejaVuSans-72" x="709.814453"/>
      <use xlink:href="#DejaVuSans-79" x="750.927734"/>
     </g>
    </g>
    <g id="patch_20">
     <path d="M 1002.5125 64.194688 
L 1022.5125 64.194688 
L 1022.5125 57.194688 
L 1002.5125 57.194688 
z
" style="fill: #1f77b4"/>
    </g>
    <g id="text_32">
     <!-- 0 -->
     <g transform="translate(1030.5125 64.194688) scale(0.1 -0.1)">
      <use xlink:href="#DejaVuSans-30"/>
     </g>
    </g>
    <g id="patch_21">
     <path d="M 1002.5125 78.872813 
L 1022.5125 78.872813 
L 1022.5125 71.872813 
L 1002.5125 71.872813 
z
" style="fill: #ff7f0e"/>
    </g>
    <g id="text_33">
     <!-- 1 -->
     <g transform="translate(1030.5125 78.872813) scale(0.1 -0.1)">
      <use xlink:href="#DejaVuSans-31"/>
     </g>
    </g>
   </g>
  </g>
  <g id="axes_3">
   <g id="patch_22">
    <path d="M 44.66 821.93875 
L 540.11 821.93875 
L 540.11 459.189375 
L 44.66 459.189375 
z
" style="fill: #ffffff"/>
   </g>
   <g id="QuadMesh_1">
    <path d="M 44.66 459.189375 
L 292.385 459.189375 
L 292.385 640.564063 
L 44.66 640.564063 
L 44.66 459.189375 
" clip-path="url(#p468caefea1)" style="fill: #21318d"/>
    <path d="M 292.385 459.189375 
L 540.11 459.189375 
L 540.11 640.564063 
L 292.385 640.564063 
L 292.385 459.189375 
" clip-path="url(#p468caefea1)" style="fill: #eff9b6"/>
    <path d="M 44.66 640.564063 
L 292.385 640.564063 
L 292.385 821.93875 
L 44.66 821.93875 
L 44.66 640.564063 
" clip-path="url(#p468caefea1)" style="fill: #081d58"/>
    <path d="M 292.385 640.564063 
L 540.11 640.564063 
L 540.11 821.93875 
L 292.385 821.93875 
L 292.385 640.564063 
" clip-path="url(#p468caefea1)" style="fill: #ffffd9"/>
   </g>
   <g id="matplotlib.axis_5">
    <g id="xtick_9">
     <g id="line2d_23">
      <g>
       <use xlink:href="#md0d249ca63" x="168.5225" y="821.93875" style="stroke: #000000; stroke-width: 0.8"/>
      </g>
     </g>
     <g id="text_34">
      <!-- 0 -->
      <g transform="translate(165.34125 836.537188) scale(0.1 -0.1)">
       <use xlink:href="#DejaVuSans-30"/>
      </g>
     </g>
    </g>
    <g id="xtick_10">
     <g id="line2d_24">
      <g>
       <use xlink:href="#md0d249ca63" x="416.2475" y="821.93875" style="stroke: #000000; stroke-width: 0.8"/>
      </g>
     </g>
     <g id="text_35">
      <!-- 1 -->
      <g transform="translate(413.06625 836.537188) scale(0.1 -0.1)">
       <use xlink:href="#DejaVuSans-31"/>
      </g>
     </g>
    </g>
    <g id="text_36">
     <!-- Diabetes_binary -->
     <g transform="translate(251.87875 850.215312) scale(0.1 -0.1)">
      <use xlink:href="#DejaVuSans-44"/>
      <use xlink:href="#DejaVuSans-69" x="77.001953"/>
      <use xlink:href="#DejaVuSans-61" x="104.785156"/>
      <use xlink:href="#DejaVuSans-62" x="166.064453"/>
      <use xlink:href="#DejaVuSans-65" x="229.541016"/>
      <use xlink:href="#DejaVuSans-74" x="291.064453"/>
      <use xlink:href="#DejaVuSans-65" x="330.273438"/>
      <use xlink:href="#DejaVuSans-73" x="391.796875"/>
      <use xlink:href="#DejaVuSans-5f" x="443.896484"/>
      <use xlink:href="#DejaVuSans-62" x="493.896484"/>
      <use xlink:href="#DejaVuSans-69" x="557.373047"/>
      <use xlink:href="#DejaVuSans-6e" x="585.15625"/>
      <use xlink:href="#DejaVuSans-61" x="648.535156"/>
      <use xlink:href="#DejaVuSans-72" x="709.814453"/>
      <use xlink:href="#DejaVuSans-79" x="750.927734"/>
     </g>
    </g>
   </g>
   <g id="matplotlib.axis_6">
    <g id="ytick_15">
     <g id="line2d_25">
      <g>
       <use xlink:href="#m2b116b563d" x="44.66" y="549.876719" style="stroke: #000000; stroke-width: 0.8"/>
      </g>
     </g>
     <g id="text_37">
      <!-- 0 -->
      <g transform="translate(35.580313 553.057969) rotate(-90) scale(0.1 -0.1)">
       <use xlink:href="#DejaVuSans-30"/>
      </g>
     </g>
    </g>
    <g id="ytick_16">
     <g id="line2d_26">
      <g>
       <use xlink:href="#m2b116b563d" x="44.66" y="731.251406" style="stroke: #000000; stroke-width: 0.8"/>
      </g>
     </g>
     <g id="text_38">
      <!-- 1 -->
      <g transform="translate(35.580313 734.432656) rotate(-90) scale(0.1 -0.1)">
       <use xlink:href="#DejaVuSans-31"/>
      </g>
     </g>
    </g>
    <g id="text_39">
     <!-- HvyAlcoholConsump -->
     <g transform="translate(21.902187 692.015625) rotate(-90) scale(0.1 -0.1)">
      <use xlink:href="#DejaVuSans-48"/>
      <use xlink:href="#DejaVuSans-76" x="75.195312"/>
      <use xlink:href="#DejaVuSans-79" x="134.375"/>
      <use xlink:href="#DejaVuSans-41" x="193.554688"/>
      <use xlink:href="#DejaVuSans-6c" x="261.962891"/>
      <use xlink:href="#DejaVuSans-63" x="289.746094"/>
      <use xlink:href="#DejaVuSans-6f" x="344.726562"/>
      <use xlink:href="#DejaVuSans-68" x="405.908203"/>
      <use xlink:href="#DejaVuSans-6f" x="469.287109"/>
      <use xlink:href="#DejaVuSans-6c" x="530.46875"/>
      <use xlink:href="#DejaVuSans-43" x="558.251953"/>
      <use xlink:href="#DejaVuSans-6f" x="628.076172"/>
      <use xlink:href="#DejaVuSans-6e" x="689.257812"/>
      <use xlink:href="#DejaVuSans-73" x="752.636719"/>
      <use xlink:href="#DejaVuSans-75" x="804.736328"/>
      <use xlink:href="#DejaVuSans-6d" x="868.115234"/>
      <use xlink:href="#DejaVuSans-70" x="965.527344"/>
     </g>
    </g>
   </g>
   <g id="text_40">
    <!-- 84.02% -->
    <g style="fill: #ffffff" transform="translate(149.457656 552.636094) scale(0.1 -0.1)">
     <defs>
      <path id="DejaVuSans-25" d="M 4653 2053 
Q 4381 2053 4226 1822 
Q 4072 1591 4072 1178 
Q 4072 772 4226 539 
Q 4381 306 4653 306 
Q 4919 306 5073 539 
Q 5228 772 5228 1178 
Q 5228 1588 5073 1820 
Q 4919 2053 4653 2053 
z
M 4653 2450 
Q 5147 2450 5437 2106 
Q 5728 1763 5728 1178 
Q 5728 594 5436 251 
Q 5144 -91 4653 -91 
Q 4153 -91 3862 251 
Q 3572 594 3572 1178 
Q 3572 1766 3864 2108 
Q 4156 2450 4653 2450 
z
M 1428 4353 
Q 1159 4353 1004 4120 
Q 850 3888 850 3481 
Q 850 3069 1003 2837 
Q 1156 2606 1428 2606 
Q 1700 2606 1854 2837 
Q 2009 3069 2009 3481 
Q 2009 3884 1853 4118 
Q 1697 4353 1428 4353 
z
M 4250 4750 
L 4750 4750 
L 1831 -91 
L 1331 -91 
L 4250 4750 
z
M 1428 4750 
Q 1922 4750 2215 4408 
Q 2509 4066 2509 3481 
Q 2509 2891 2217 2550 
Q 1925 2209 1428 2209 
Q 931 2209 642 2551 
Q 353 2894 353 3481 
Q 353 4063 643 4406 
Q 934 4750 1428 4750 
z
" transform="scale(0.015625)"/>
     </defs>
     <use xlink:href="#DejaVuSans-38"/>
     <use xlink:href="#DejaVuSans-34" x="63.623047"/>
     <use xlink:href="#DejaVuSans-2e" x="127.246094"/>
     <use xlink:href="#DejaVuSans-30" x="159.033203"/>
     <use xlink:href="#DejaVuSans-32" x="222.65625"/>
     <use xlink:href="#DejaVuSans-25" x="286.279297"/>
    </g>
   </g>
   <g id="text_41">
    <!-- 15.98% -->
    <g style="fill: #262626" transform="translate(397.182656 552.636094) scale(0.1 -0.1)">
     <defs>
      <path id="DejaVuSans-35" d="M 691 4666 
L 3169 4666 
L 3169 4134 
L 1269 4134 
L 1269 2991 
Q 1406 3038 1543 3061 
Q 1681 3084 1819 3084 
Q 2600 3084 3056 2656 
Q 3513 2228 3513 1497 
Q 3513 744 3044 326 
Q 2575 -91 1722 -91 
Q 1428 -91 1123 -41 
Q 819 9 494 109 
L 494 744 
Q 775 591 1075 516 
Q 1375 441 1709 441 
Q 2250 441 2565 725 
Q 2881 1009 2881 1497 
Q 2881 1984 2565 2268 
Q 2250 2553 1709 2553 
Q 1456 2553 1204 2497 
Q 953 2441 691 2322 
L 691 4666 
z
" transform="scale(0.015625)"/>
      <path id="DejaVuSans-39" d="M 703 97 
L 703 672 
Q 941 559 1184 500 
Q 1428 441 1663 441 
Q 2288 441 2617 861 
Q 2947 1281 2994 2138 
Q 2813 1869 2534 1725 
Q 2256 1581 1919 1581 
Q 1219 1581 811 2004 
Q 403 2428 403 3163 
Q 403 3881 828 4315 
Q 1253 4750 1959 4750 
Q 2769 4750 3195 4129 
Q 3622 3509 3622 2328 
Q 3622 1225 3098 567 
Q 2575 -91 1691 -91 
Q 1453 -91 1209 -44 
Q 966 3 703 97 
z
M 1959 2075 
Q 2384 2075 2632 2365 
Q 2881 2656 2881 3163 
Q 2881 3666 2632 3958 
Q 2384 4250 1959 4250 
Q 1534 4250 1286 3958 
Q 1038 3666 1038 3163 
Q 1038 2656 1286 2365 
Q 1534 2075 1959 2075 
z
" transform="scale(0.015625)"/>
     </defs>
     <use xlink:href="#DejaVuSans-31"/>
     <use xlink:href="#DejaVuSans-35" x="63.623047"/>
     <use xlink:href="#DejaVuSans-2e" x="127.246094"/>
     <use xlink:href="#DejaVuSans-39" x="159.033203"/>
     <use xlink:href="#DejaVuSans-38" x="222.65625"/>
     <use xlink:href="#DejaVuSans-25" x="286.279297"/>
    </g>
   </g>
   <g id="text_42">
    <!-- 93.98% -->
    <g style="fill: #ffffff" transform="translate(149.457656 734.010781) scale(0.1 -0.1)">
     <defs>
      <path id="DejaVuSans-33" d="M 2597 2516 
Q 3050 2419 3304 2112 
Q 3559 1806 3559 1356 
Q 3559 666 3084 287 
Q 2609 -91 1734 -91 
Q 1441 -91 1130 -33 
Q 819 25 488 141 
L 488 750 
Q 750 597 1062 519 
Q 1375 441 1716 441 
Q 2309 441 2620 675 
Q 2931 909 2931 1356 
Q 2931 1769 2642 2001 
Q 2353 2234 1838 2234 
L 1294 2234 
L 1294 2753 
L 1863 2753 
Q 2328 2753 2575 2939 
Q 2822 3125 2822 3475 
Q 2822 3834 2567 4026 
Q 2313 4219 1838 4219 
Q 1578 4219 1281 4162 
Q 984 4106 628 3988 
L 628 4550 
Q 988 4650 1302 4700 
Q 1616 4750 1894 4750 
Q 2613 4750 3031 4423 
Q 3450 4097 3450 3541 
Q 3450 3153 3228 2886 
Q 3006 2619 2597 2516 
z
" transform="scale(0.015625)"/>
     </defs>
     <use xlink:href="#DejaVuSans-39"/>
     <use xlink:href="#DejaVuSans-33" x="63.623047"/>
     <use xlink:href="#DejaVuSans-2e" x="127.246094"/>
     <use xlink:href="#DejaVuSans-39" x="159.033203"/>
     <use xlink:href="#DejaVuSans-38" x="222.65625"/>
     <use xlink:href="#DejaVuSans-25" x="286.279297"/>
    </g>
   </g>
   <g id="text_43">
    <!-- 6.02% -->
    <g style="fill: #262626" transform="translate(400.363906 734.010781) scale(0.1 -0.1)">
     <use xlink:href="#DejaVuSans-36"/>
     <use xlink:href="#DejaVuSans-2e" x="63.623047"/>
     <use xlink:href="#DejaVuSans-30" x="95.410156"/>
     <use xlink:href="#DejaVuSans-32" x="159.033203"/>
     <use xlink:href="#DejaVuSans-25" x="222.65625"/>
    </g>
   </g>
   <g id="text_44">
    <!-- Cross-Tabulation: HvyAlcoholConsump vs Diabetes_binary (%) -->
    <g transform="translate(-17.479063 453.189375) scale(0.2 -0.2)">
     <defs>
      <path id="DejaVuSans-2d" d="M 313 2009 
L 1997 2009 
L 1997 1497 
L 313 1497 
L 313 2009 
z
" transform="scale(0.015625)"/>
      <path id="DejaVuSans-54" d="M -19 4666 
L 3928 4666 
L 3928 4134 
L 2272 4134 
L 2272 0 
L 1638 0 
L 1638 4134 
L -19 4134 
L -19 4666 
z
" transform="scale(0.015625)"/>
      <path id="DejaVuSans-28" d="M 1984 4856 
Q 1566 4138 1362 3434 
Q 1159 2731 1159 2009 
Q 1159 1288 1364 580 
Q 1569 -128 1984 -844 
L 1484 -844 
Q 1016 -109 783 600 
Q 550 1309 550 2009 
Q 550 2706 781 3412 
Q 1013 4119 1484 4856 
L 1984 4856 
z
" transform="scale(0.015625)"/>
      <path id="DejaVuSans-29" d="M 513 4856 
L 1013 4856 
Q 1481 4119 1714 3412 
Q 1947 2706 1947 2009 
Q 1947 1309 1714 600 
Q 1481 -109 1013 -844 
L 513 -844 
Q 928 -128 1133 580 
Q 1338 1288 1338 2009 
Q 1338 2731 1133 3434 
Q 928 4138 513 4856 
z
" transform="scale(0.015625)"/>
     </defs>
     <use xlink:href="#DejaVuSans-43"/>
     <use xlink:href="#DejaVuSans-72" x="69.824219"/>
     <use xlink:href="#DejaVuSans-6f" x="108.6875"/>
     <use xlink:href="#DejaVuSans-73" x="169.869141"/>
     <use xlink:href="#DejaVuSans-73" x="221.96875"/>
     <use xlink:href="#DejaVuSans-2d" x="274.068359"/>
     <use xlink:href="#DejaVuSans-54" x="301.027344"/>
     <use xlink:href="#DejaVuSans-61" x="345.611328"/>
     <use xlink:href="#DejaVuSans-62" x="406.890625"/>
     <use xlink:href="#DejaVuSans-75" x="470.367188"/>
     <use xlink:href="#DejaVuSans-6c" x="533.746094"/>
     <use xlink:href="#DejaVuSans-61" x="561.529297"/>
     <use xlink:href="#DejaVuSans-74" x="622.808594"/>
     <use xlink:href="#DejaVuSans-69" x="662.017578"/>
     <use xlink:href="#DejaVuSans-6f" x="689.800781"/>
     <use xlink:href="#DejaVuSans-6e" x="750.982422"/>
     <use xlink:href="#DejaVuSans-3a" x="814.361328"/>
     <use xlink:href="#DejaVuSans-20" x="848.052734"/>
     <use xlink:href="#DejaVuSans-48" x="879.839844"/>
     <use xlink:href="#DejaVuSans-76" x="955.035156"/>
     <use xlink:href="#DejaVuSans-79" x="1014.214844"/>
     <use xlink:href="#DejaVuSans-41" x="1073.394531"/>
     <use xlink:href="#DejaVuSans-6c" x="1141.802734"/>
     <use xlink:href="#DejaVuSans-63" x="1169.585938"/>
     <use xlink:href="#DejaVuSans-6f" x="1224.566406"/>
     <use xlink:href="#DejaVuSans-68" x="1285.748047"/>
     <use xlink:href="#DejaVuSans-6f" x="1349.126953"/>
     <use xlink:href="#DejaVuSans-6c" x="1410.308594"/>
     <use xlink:href="#DejaVuSans-43" x="1438.091797"/>
     <use xlink:href="#DejaVuSans-6f" x="1507.916016"/>
     <use xlink:href="#DejaVuSans-6e" x="1569.097656"/>
     <use xlink:href="#DejaVuSans-73" x="1632.476562"/>
     <use xlink:href="#DejaVuSans-75" x="1684.576172"/>
     <use xlink:href="#DejaVuSans-6d" x="1747.955078"/>
     <use xlink:href="#DejaVuSans-70" x="1845.367188"/>
     <use xlink:href="#DejaVuSans-20" x="1908.84375"/>
     <use xlink:href="#DejaVuSans-76" x="1940.630859"/>
     <use xlink:href="#DejaVuSans-73" x="1999.810547"/>
     <use xlink:href="#DejaVuSans-20" x="2051.910156"/>
     <use xlink:href="#DejaVuSans-44" x="2083.697266"/>
     <use xlink:href="#DejaVuSans-69" x="2160.699219"/>
     <use xlink:href="#DejaVuSans-61" x="2188.482422"/>
     <use xlink:href="#DejaVuSans-62" x="2249.761719"/>
     <use xlink:href="#DejaVuSans-65" x="2313.238281"/>
     <use xlink:href="#DejaVuSans-74" x="2374.761719"/>
     <use xlink:href="#DejaVuSans-65" x="2413.970703"/>
     <use xlink:href="#DejaVuSans-73" x="2475.494141"/>
     <use xlink:href="#DejaVuSans-5f" x="2527.59375"/>
     <use xlink:href="#DejaVuSans-62" x="2577.59375"/>
     <use xlink:href="#DejaVuSans-69" x="2641.070312"/>
     <use xlink:href="#DejaVuSans-6e" x="2668.853516"/>
     <use xlink:href="#DejaVuSans-61" x="2732.232422"/>
     <use xlink:href="#DejaVuSans-72" x="2793.511719"/>
     <use xlink:href="#DejaVuSans-79" x="2834.625"/>
     <use xlink:href="#DejaVuSans-20" x="2893.804688"/>
     <use xlink:href="#DejaVuSans-28" x="2925.591797"/>
     <use xlink:href="#DejaVuSans-25" x="2964.605469"/>
     <use xlink:href="#DejaVuSans-29" x="3059.625"/>
    </g>
   </g>
  </g>
 </g>
 <defs>
  <clipPath id="p49f553af98">
   <rect x="44.66" y="32.64" width="495.45" height="362.749375"/>
  </clipPath>
  <clipPath id="pb34a33d9bc">
   <rect x="573.75" y="32.64" width="495.45" height="362.749375"/>
  </clipPath>
  <clipPath id="p468caefea1">
   <rect x="44.66" y="459.189375" width="495.45" height="362.749375"/>
  </clipPath>
 </defs>
</svg>
